<svg width="32" height="32" fill="none" xmlns="http://www.w3.org/2000/svg"><rect width="32" height="32" rx="4" fill="#9D41F1"/><path d="M18.037 11.774a28.578 28.578 0 00-2.948 2.706c-1.995 2.109-3.55 4.093-4.761 6.06-.289.469-.574.945-.855 1.418a9.074 9.074 0 00-.463 1.536c-.074.37.275.68.577.395.312-.299.587-.64.851-.985.467-.608.906-1.237 1.342-1.867 3.37.242 7.27-2.048 8.933-4.857a.196.196 0 00.017-.167.183.183 0 00-.114-.118c-.809-.27-1.798-.44-2.207-.462-.017 0-.034-.014-.037-.035a.039.039 0 01.024-.043c1.113-.58 1.924-.647 2.877-.505.07.01.134-.046.16-.114.095-.217.356-.87.537-1.404a.201.201 0 00-.087-.239c-.71-.384-1.656-.643-2.035-.682-.017 0-.03-.018-.034-.036a.039.039 0 01.024-.043c1.1-.483 1.485-.497 2.364-.302.087.018.17-.05.19-.142.433-1.714.574-3.197.608-3.68a.21.21 0 00-.057-.157.177.177 0 00-.148-.05c-2.444.356-4.403.865-6.093 1.55-.057.022-.11.072-.11.136.144.551-.242 1.209-.845 1.703a.042.042 0 01-.044.018.046.046 0 01-.027-.043c.004-.046.158-.665.067-1.116-.013-.064-.033-.125-.084-.16a.173.173 0 00-.17-.014c-7.924 3.811-5.922 10.098-5.922 10.098.01.004.02.004.03.007.895-1.86 1.904-3.232 3.49-5.035 1.178-1.337 2.331-2.425 3.525-3.325.75-.565 2.448-1.738 3.51-2.144a.285.285 0 01.105-.021c.097 0 .177.064.2.16a.264.264 0 01-.046.228l-2.344 1.731z" fill="#fff"/></svg>