<svg width="34" height="24" viewBox="0 0 34 24" fill="none" xmlns="http://www.w3.org/2000/svg">
<rect x="0.5" y="0.5" width="33" height="23" rx="2.5" fill="#EAFBE7" stroke="#C6F0C2"/>
<path d="M20.5 7.5H13.5C11.0187 7.5 9 9.51875 9 12C9 14.4812 11.0187 16.5 13.5 16.5H20.5C22.9812 16.5 25 14.4812 25 12C25 9.51875 22.9812 7.5 20.5 7.5ZM20.5 15.5C19.8078 15.5 19.1311 15.2947 18.5555 14.9101C17.9799 14.5256 17.5313 13.9789 17.2664 13.3394C17.0015 12.6999 16.9322 11.9961 17.0673 11.3172C17.2023 10.6383 17.5356 10.0146 18.0251 9.52513C18.5146 9.03564 19.1383 8.7023 19.8172 8.56725C20.4961 8.4322 21.1999 8.50152 21.8394 8.76642C22.4789 9.03133 23.0256 9.47993 23.4101 10.0555C23.7947 10.6311 24 11.3078 24 12C23.999 12.928 23.6299 13.8176 22.9738 14.4738C22.3176 15.1299 21.428 15.499 20.5 15.5Z" fill="#2F6846"/>
</svg>
