<svg width="34" height="24" fill="none" xmlns="http://www.w3.org/2000/svg"><rect x=".5" y=".5" width="33" height="23" rx="2.5" fill="#F6F6F9" stroke="#DCDCE4"/><path fill-rule="evenodd" clip-rule="evenodd" d="M14.035 8.768c0 .116-.011.229-.032.339l3.013 1.776 2.985-1.76a1.768 1.768 0 11.519.93l-2.982 1.757v2.477a1.768 1.768 0 11-1.048-.044v-2.435l-2.997-1.767a1.768 1.768 0 11.542-1.274z" fill="#4A4A6A"/><path d="M14.003 9.107l-.05-.01-.006.035.03.018.026-.043zm3.013 1.776l-.025.043.025.014.025-.014-.025-.043zm2.985-1.76l.025.044.031-.018-.007-.035-.05.01zm.518.93l.035-.036-.027-.026-.033.02.026.042zm-2.98 1.757l-.026-.043-.025.014v.029h.05zm0 2.477h-.05v.035l.032.012.017-.047zm-1.049-.044l.013.048.037-.01v-.038h-.05zm0-2.435h.05v-.029l-.024-.014-.026.043zm-2.997-1.767l.025-.043-.033-.019-.027.027.035.035zm.559-.925c.022-.113.033-.23.033-.348h-.1c0 .112-.01.223-.031.33l.098.018zm2.99 1.723l-3.014-1.775-.05.086 3.013 1.775.05-.086zm2.933-1.758l-2.984 1.758.05.086 2.985-1.758-.05-.086zm-.06-.313c0 .125.013.247.037.366l.098-.02a1.723 1.723 0 01-.035-.346h-.1zm1.818-1.818a1.818 1.818 0 00-1.818 1.818h.1c0-.949.769-1.718 1.718-1.718v-.1zm1.817 1.818a1.818 1.818 0 00-1.817-1.818v.1c.948 0 1.717.769 1.717 1.718h.1zm-1.817 1.817a1.818 1.818 0 001.817-1.817h-.1c0 .948-.769 1.717-1.717 1.717v.1zm-1.248-.495c.326.307.765.495 1.248.495v-.1c-.457 0-.872-.178-1.18-.468l-.068.073zm-2.921 1.763l2.98-1.757-.05-.086-2.981 1.757.05.086zm.024 2.434V11.81h-.1v2.477h.1zm-.067.047a1.718 1.718 0 011.14 1.618h.1c0-.79-.503-1.46-1.206-1.712l-.034.094zm1.14 1.618c0 .948-.77 1.717-1.718 1.717v.1a1.817 1.817 0 001.817-1.817h-.1zm-1.718 1.717a1.718 1.718 0 01-1.718-1.717h-.1c0 1.004.814 1.817 1.818 1.817v-.1zm-1.718-1.717c0-.797.543-1.467 1.278-1.66l-.026-.098a1.818 1.818 0 00-1.352 1.758h.1zm1.215-4.144v2.435h.1v-2.435h-.1zm-2.973-1.723l2.998 1.766.05-.086-2.997-1.767-.05.087zm-1.2.5c.49 0 .934-.193 1.26-.507l-.069-.072c-.309.296-.728.48-1.19.48v.1zM10.45 8.768c0 1.003.814 1.817 1.818 1.817v-.1a1.718 1.718 0 01-1.718-1.717h-.1zm1.818-1.818a1.818 1.818 0 00-1.818 1.818h.1c0-.949.769-1.718 1.717-1.718v-.1zm1.817 1.818a1.818 1.818 0 00-1.818-1.818v.1c.95 0 1.718.769 1.718 1.718h.1z" fill="#4A4A6A"/></svg>