<svg width="24" height="24" fill="none" xmlns="http://www.w3.org/2000/svg"><path fill-rule="evenodd" clip-rule="evenodd" d="M2.182 0A2.182 2.182 0 000 2.182v19.636C0 23.023.977 24 2.182 24h19.636A2.182 2.182 0 0024 21.818V2.182A2.182 2.182 0 0021.818 0H2.182zm9.354 11.987h7.539c.314 0 .55.209.55.549v6.539c0 .34-.236.55-.55.55h-7.539c-.34 0-.55-.236-.55-.55v-6.539c0-.34.236-.55.55-.55zm-6.638-2.27h14.177c.314 0 .549-.209.549-.549v-4.27c0-.34-.21-.549-.55-.549H4.899c-.313 0-.549.21-.549.55v4.269c0 .34.236.55.55.55zm3.27 9.907h-3.27a.536.536 0 01-.549-.55v-6.538c0-.34.236-.55.55-.55h3.269c.34 0 .55.21.55.55v6.539c0 .34-.236.55-.55.55z" fill="#32324D"/></svg>