<svg width="34" height="24" fill="none" xmlns="http://www.w3.org/2000/svg"><rect x=".5" y=".5" width="33" height="23" rx="2.5" fill="#F6F6F9" stroke="#DCDCE4"/><path d="M21.573 7.59c-1.484 0-2.666.745-3.397 1.37l-.026.022-.416.453.919 1.51.68-.682c.711-.601 1.506-.931 2.24-.931 1.48 0 2.685 1.172 2.685 2.613 0 1.44-1.205 2.613-2.685 2.613-2.25 0-3.78-2.974-3.795-3.005-.088-.178-2.028-3.963-5.35-3.963C9.985 7.59 8 9.543 8 11.945c0 2.401 1.986 4.354 4.427 4.354 1.196 0 2.373-.475 3.404-1.376l.022-.02.413-.449-.919-1.51-.683.686c-.712.615-1.465.928-2.237.928-1.48 0-2.685-1.173-2.685-2.613 0-1.441 1.205-2.613 2.685-2.613 2.25 0 3.78 2.974 3.795 3.004.088.179 2.028 3.963 5.35 3.963 2.442 0 4.428-1.953 4.428-4.354 0-2.402-1.986-4.355-4.427-4.355z" fill="#4A4A6A"/></svg>