<svg width="24" height="24" fill="none" xmlns="http://www.w3.org/2000/svg"><path fill-rule="evenodd" clip-rule="evenodd" d="M4.3.6a.9.9 0 100 1.8h15.311a.9.9 0 100-1.8H4.301zm17.1 3.7A1.6 1.6 0 0123 5.9v15.5a1.6 1.6 0 01-1.6 1.6H2.6A1.601 1.601 0 011 21.4V8 5.915C1 5.03 1.716 4.3 2.6 4.3h18.8zM5.032 19.18h14.336l-3.136-3.205-1.792 1.831-4.032-4.12-5.376 5.494zm13.44-8.697c0 1.282-.985 2.289-2.24 2.289-1.254 0-2.24-1.007-2.24-2.29 0-1.281.986-2.288 2.24-2.288 1.255 0 2.24 1.007 2.24 2.289z" fill="#32324D"/></svg>