<svg width="25" height="25" fill="none" xmlns="http://www.w3.org/2000/svg"><path fill-rule="evenodd" clip-rule="evenodd" d="M13.58.448l3.177 3.176L18.66 1.72a3.267 3.267 0 114.62 4.62l-1.904 1.904 3.175 3.175a1.528 1.528 0 010 2.162l-3.175 3.175L20.2 15.58a3.267 3.267 0 10-4.62 4.62l1.177 1.177-3.176 3.176a1.528 1.528 0 01-2.162 0l-3.175-3.175-1.902 1.902a3.267 3.267 0 11-4.62-4.62l1.902-1.902-3.176-3.176a1.528 1.528 0 010-2.162l3.176-3.176L4.8 9.42a3.267 3.267 0 004.62-4.62L8.244 3.623 11.419.448a1.528 1.528 0 012.162 0z" fill="#32324D"/></svg>