<svg width="24" height="24" fill="none" xmlns="http://www.w3.org/2000/svg"><path fill-rule="evenodd" clip-rule="evenodd" d="M2.68 9.192c-.6.276-2.114 1.18-2.306 1.303a.792.792 0 00-.374.68v1.65a.797.797 0 00.384.687c.254.16 1.73 1.042 2.306 1.303l.744 1.8c-.24.634-.67 2.333-.72 2.554a.797.797 0 00.216.744l1.167 1.166a.801.801 0 00.744.216l.03-.008c.36-.092 1.946-.498 2.523-.712l1.8.744c.276.6 1.181 2.115 1.304 2.307a.805.805 0 00.679.374h1.649a.797.797 0 00.686-.384c.16-.254 1.042-1.73 1.303-2.306l1.8-.744c.634.24 2.333.67 2.554.72a.797.797 0 00.744-.216l1.166-1.167a.802.802 0 00.216-.744l-.008-.03c-.092-.36-.498-1.946-.712-2.523l.744-1.8c.6-.276 2.115-1.181 2.307-1.304a.805.805 0 00.374-.679v-1.649a.797.797 0 00-.382-.679c-.254-.16-1.73-1.041-2.306-1.303l-.744-1.8c.24-.634.67-2.333.72-2.554a.796.796 0 00-.216-.744l-1.166-1.173a.802.802 0 00-.744-.216l-.03.008c-.361.092-1.947.498-2.524.712l-1.8-.744c-.276-.6-1.18-2.115-1.303-2.307a.803.803 0 00-.68-.374h-1.65a.797.797 0 00-.68.382c-.16.254-1.041 1.73-1.303 2.306l-1.8.744c-.634-.24-2.333-.67-2.554-.72a.797.797 0 00-.744.216L2.921 4.094a.802.802 0 00-.216.744l.008.03c.092.361.498 1.947.712 2.524l-.744 1.8zM12 17a5 5 0 100-10 5 5 0 000 10z" fill="#32324D"/></svg>