<svg width="241" height="131" viewBox="0 0 241 131" fill="none" xmlns="http://www.w3.org/2000/svg">
<rect width="241" height="131" fill="#FDF4DC"/>
<path d="M119.359 93V86.4011H118.53C114.901 86.4011 111.949 83.4489 111.949 79.8203C111.949 76.1917 114.901 73.2395 118.53 73.2395H119.359V66.6406H111.12C110.214 66.6406 109.479 65.9061 109.479 65V62.53C109.479 60.7106 107.999 59.2305 106.18 59.2305C104.36 59.2305 102.88 60.7106 102.88 62.53V65C102.88 65.9061 102.146 66.6406 101.24 66.6406H93V89.7005C93 91.5198 94.4802 93 96.2995 93H119.359Z" fill="#D9822F"/>
<path d="M145.7 93C147.52 93 149 91.5198 149 89.7005V66.6406H142.401V67.47C142.401 71.0986 139.449 74.0508 135.82 74.0508C132.192 74.0508 129.24 71.0986 129.24 67.47V66.6406H122.641V74.8802C122.641 75.7862 121.906 76.5208 121 76.5208H118.53C116.711 76.5208 115.23 78.001 115.23 79.8203C115.23 81.6397 116.711 83.1198 118.53 83.1198H121C121.906 83.1198 122.641 83.8544 122.641 84.7605V93H145.7Z" fill="#D9822F"/>
<path d="M135.82 70.7695C137.64 70.7695 139.12 69.2894 139.12 67.47V65C139.12 64.0939 139.854 63.3594 140.76 63.3594H149V40.2995C149 38.4802 147.52 37 145.7 37H122.641V43.5989H123.47C127.099 43.5989 130.051 46.5511 130.051 50.1797C130.051 53.8083 127.099 56.7605 123.47 56.7605H122.641V63.3594H130.88C131.786 63.3594 132.521 64.0939 132.521 65V67.47C132.521 69.2894 134.001 70.7695 135.82 70.7695Z" fill="#D9822F"/>
<path d="M96.2995 37C94.4802 37 93 38.4802 93 40.2995V63.3594H99.5989V62.53C99.5989 58.9014 102.551 55.9492 106.18 55.9492C109.808 55.9492 112.76 58.9014 112.76 62.53V63.3594H119.359V55.1198C119.359 54.2138 120.094 53.4792 121 53.4792H123.47C125.289 53.4792 126.77 51.999 126.77 50.1797C126.77 48.3603 125.289 46.8802 123.47 46.8802H121C120.094 46.8802 119.359 46.1456 119.359 45.2395V37H96.2995Z" fill="#D9822F"/>
</svg>
