<svg width="16" height="16" viewBox="0 0 16 16" fill="none" xmlns="http://www.w3.org/2000/svg">
<path d="M8.06786 0C3.68929 0 0 3.51786 0 7.86071C0 8 0.00357143 16 0.00357143 16L8.06786 15.9929C12.45 15.9929 16 12.3393 16 7.99643C16 3.65357 12.45 0 8.06786 0ZM8 12.5714C7.30714 12.5714 6.64643 12.4179 6.05714 12.1393L3.16071 12.8571L3.97857 10.1786C3.62857 9.53214 3.42857 8.78929 3.42857 8C3.42857 5.475 5.475 3.42857 8 3.42857C10.525 3.42857 12.5714 5.475 12.5714 8C12.5714 10.525 10.525 12.5714 8 12.5714Z" fill="#8E8EA9"/>
</svg>
