<svg width="241" height="131" viewBox="0 0 241 131" fill="none" xmlns="http://www.w3.org/2000/svg">
<rect width="241" height="131" fill="#EAFBE7"/>
<path d="M123.669 79.3999H105.017C104.282 79.3999 103.686 79.9957 103.686 80.7309V90.0569C103.686 90.792 104.282 91.3879 105.017 91.3879H123.669C124.404 91.3879 125 90.792 125 90.0569V80.7311C125 79.9959 124.404 79.3999 123.669 79.3999Z" fill="#328048"/>
<path d="M146.669 79.3999H128.017C127.281 79.3999 126.686 79.9957 126.686 80.7309V90.0569C126.686 90.792 127.281 91.3879 128.017 91.3879H146.669C147.404 91.3879 148 90.792 148 90.0569V80.7311C148 79.9959 147.404 79.3999 146.669 79.3999Z" fill="#328048"/>
<path d="M105.017 64.1963H123.669C124.404 64.1963 125 63.6005 125 62.8653V53.5395C125 52.8043 124.404 52.2085 123.669 52.2085H105.017C104.282 52.2085 103.686 52.8043 103.686 53.5395V62.8653C103.686 63.6003 104.282 64.1963 105.017 64.1963Z" fill="#328048"/>
<path d="M146.669 52.207H128.017C127.281 52.207 126.686 52.8029 126.686 53.538V62.8638C126.686 63.599 127.281 64.1948 128.017 64.1948H146.669C147.404 64.1948 148 63.599 148 62.8638V53.538C148 52.803 147.404 52.207 146.669 52.207Z" fill="#328048"/>
<path d="M116.231 50.5996H134.883C135.618 50.5996 136.214 50.0038 136.214 49.2686V39.9428C136.214 39.2076 135.618 38.6118 134.883 38.6118H116.231C115.495 38.6118 114.9 39.2076 114.9 39.9428V49.2686C114.9 50.0036 115.495 50.5996 116.231 50.5996Z" fill="#328048"/>
<path d="M115.285 67.1342V76.4604C115.285 77.1955 115.881 77.7914 116.616 77.7914H135.268C136.003 77.7914 136.599 77.1955 136.599 76.4604V67.1342C136.599 66.399 136.003 65.8032 135.268 65.8032H116.616C115.881 65.803 115.285 66.399 115.285 67.1342Z" fill="#328048"/>
<path d="M113.314 76.4604V67.1342C113.314 66.399 112.718 65.8032 111.983 65.8032H93.331C92.5958 65.8032 92 66.399 92 67.1342V76.4604C92 77.1955 92.5958 77.7914 93.331 77.7914H111.983C112.718 77.7916 113.314 77.1955 113.314 76.4604Z" fill="#328048"/>
</svg>
