<svg width="161" height="25" viewBox="0 0 161 25" fill="none" xmlns="http://www.w3.org/2000/svg">
<path fill-rule="evenodd" clip-rule="evenodd" d="M68.2951 3.68605C68.7254 4.11224 69.2335 4.32533 69.8194 4.32533C70.4236 4.32533 70.9409 4.11224 71.3712 3.68605C71.8014 3.25987 72.0166 2.75661 72.0166 2.17627C72.0166 1.59593 71.8014 1.08814 71.3712 0.65288C70.9409 0.217625 70.4236 0 69.8194 0C69.2335 0 68.7254 0.217625 68.2951 0.65288C67.8648 1.08814 67.6497 1.59593 67.6497 2.17627C67.6497 2.75661 67.8648 3.25987 68.2951 3.68605ZM21.9616 9.24959C21.9616 9.29464 21.925 9.33116 21.88 9.33116H18.858V14.9895C18.858 15.461 18.977 15.8056 19.2151 16.0232C19.4531 16.2408 19.801 16.3632 20.2587 16.3904C20.6775 16.4153 21.1882 16.4136 21.7909 16.3854L21.8758 16.3812C21.9224 16.3789 21.9616 16.416 21.9616 16.4627V19.4865C21.9616 19.5281 21.9303 19.5631 21.8889 19.5676L21.8335 19.5735C19.4661 19.8235 17.7922 19.5922 16.8119 18.8795C15.814 18.1541 15.3151 16.8574 15.3151 14.9895V9.33116H13.0072C12.9621 9.33116 12.9256 9.29464 12.9256 9.24959V6.03951C12.9256 5.99446 12.9621 5.95794 13.0072 5.95794H15.3151V3.71301C15.3151 3.64812 15.3535 3.58939 15.413 3.56346L18.7439 2.11142C18.7977 2.08793 18.858 2.12742 18.858 2.1862V5.95794H21.88C21.925 5.95794 21.9616 5.99446 21.9616 6.03951V9.24959ZM28.3858 8.29723C28.7154 7.42672 29.2601 6.77384 30.02 6.33859C30.7154 5.94026 31.4836 5.7242 32.3247 5.69041C32.3654 5.68877 32.4277 5.68757 32.4781 5.68678C32.5235 5.68608 32.5605 5.72273 32.5605 5.76809V9.45662C32.5605 9.53472 32.4927 9.59487 32.4149 9.58791C31.3932 9.49639 30.4759 9.71904 29.6629 10.2559C28.8115 10.8181 28.3858 11.752 28.3858 13.0578V19.4778C28.3858 19.5229 28.3493 19.5594 28.3042 19.5594H24.9244C24.8794 19.5594 24.8428 19.5229 24.8428 19.4778V6.03931C24.8428 5.99426 24.8794 5.95774 24.9244 5.95774H28.3042C28.3493 5.95774 28.3858 5.99426 28.3858 6.03931V8.29723ZM45.1384 5.95754C45.0934 5.95754 45.0568 5.99406 45.0568 6.03911V7.56254C43.9949 6.23863 42.5026 5.57669 40.5801 5.57669C38.749 5.57669 37.179 6.27037 35.8698 7.65775C34.5607 9.04513 33.9061 10.7453 33.9061 12.7584C33.9061 14.7714 34.5607 16.4716 35.8698 17.859C37.179 19.2464 38.749 19.9401 40.5801 19.9401C42.5026 19.9401 43.9949 19.2781 45.0568 17.9542V19.4776C45.0568 19.5227 45.0934 19.5592 45.1384 19.5592H48.5182C48.5633 19.5592 48.5998 19.5227 48.5998 19.4776V6.03911C48.5998 5.99406 48.5633 5.95754 48.5182 5.95754H45.1384ZM38.5202 15.5333C39.2343 16.2406 40.1406 16.5942 41.2392 16.5942C42.3378 16.5942 43.2487 16.2361 43.972 15.5197C44.6952 14.8034 45.0568 13.883 45.0568 12.7586C45.0568 11.6342 44.6952 10.7138 43.972 9.99743C43.2487 9.28107 42.3378 8.9229 41.2392 8.9229C40.1406 8.9229 39.2343 9.28107 38.5202 9.99743C37.8061 10.7138 37.449 11.6342 37.449 12.7586C37.449 13.883 37.8061 14.8079 38.5202 15.5333ZM63.9884 7.65775C62.6792 6.27037 61.1 5.57669 59.2507 5.57669C57.3281 5.57669 55.845 6.23863 54.8013 7.56254V6.03911C54.8013 5.99406 54.7648 5.95754 54.7198 5.95754H51.3399C51.2949 5.95754 51.2584 5.99406 51.2584 6.03911V24.9183C51.2584 24.9634 51.2949 24.9999 51.3399 24.9999H54.7198C54.7648 24.9999 54.8013 24.9634 54.8013 24.9183V17.9542C55.845 19.2781 57.3281 19.9401 59.2507 19.9401C61.1 19.9401 62.6792 19.2464 63.9884 17.859C65.2975 16.4716 65.9521 14.7714 65.9521 12.7584C65.9521 10.7453 65.2975 9.04513 63.9884 7.65775ZM55.872 15.5333C56.5861 16.2406 57.4924 16.5942 58.591 16.5942C59.6896 16.5942 60.6005 16.2361 61.3238 15.5197C62.047 14.8034 62.4086 13.883 62.4086 12.7586C62.4086 11.6342 62.047 10.7138 61.3238 9.99743C60.6005 9.28107 59.6896 8.9229 58.591 8.9229C57.4924 8.9229 56.5861 9.28107 55.872 9.99743C55.1579 10.7138 54.8009 11.6342 54.8009 12.7586C54.8009 13.883 55.1579 14.8079 55.872 15.5333ZM68.1434 19.5594C68.0984 19.5594 68.0618 19.5229 68.0618 19.4779V6.03934C68.0618 5.99429 68.0984 5.95777 68.1434 5.95777H71.5232C71.5683 5.95777 71.6048 5.99429 71.6048 6.03934V19.4779C71.6048 19.5229 71.5683 19.5594 71.5232 19.5594H68.1434ZM4.90126 10.7045C4.41605 10.4778 4.17344 10.1831 4.17344 9.82041C4.17344 9.47584 4.3245 9.20381 4.62661 9.00431C4.92873 8.80482 5.30866 8.70508 5.76641 8.70508C6.64417 8.70508 7.30724 9.04398 7.75562 9.72178C7.78698 9.76918 7.84734 9.78838 7.89939 9.76557L10.8884 8.4558C10.9332 8.43616 10.9508 8.38179 10.9256 8.33982C10.8928 8.285 10.8499 8.21414 10.8213 8.16964C10.3089 7.37187 9.64617 6.77757 8.81501 6.32478C7.89951 5.82605 6.88332 5.57669 5.76641 5.57669C4.28329 5.57669 3.04281 5.96207 2.04491 6.73283C1.04701 7.5036 0.548073 8.55999 0.548073 9.90203C0.548073 10.7907 0.790677 11.5297 1.27589 12.1191C1.76111 12.7085 2.3516 13.1392 3.04738 13.4113C3.74316 13.6833 4.43893 13.91 5.13471 14.0913C5.83049 14.2727 6.42098 14.4767 6.9062 14.7034C7.39142 14.9301 7.63402 15.2248 7.63402 15.5875C7.63402 16.3674 7.00233 16.7573 5.73894 16.7573C4.53634 16.7573 3.70297 16.3171 3.23882 15.4367C3.19885 15.3608 3.10845 15.3261 3.02998 15.3605L0.0487416 16.6689C0.00643525 16.6874 -0.012035 16.7374 0.0082579 16.7789C0.020116 16.8032 0.0325274 16.8284 0.0416522 16.8464C1.08336 18.9089 2.98244 19.9401 5.73894 19.9401C7.3136 19.9401 8.62733 19.5638 9.68016 18.8111C10.733 18.0585 11.2594 16.984 11.2594 15.5875C11.2594 14.6626 11.0168 13.8919 10.5316 13.2752C10.0464 12.6586 9.45586 12.2188 8.76008 11.9559C8.0643 11.6929 7.36853 11.4753 6.67275 11.303C5.97697 11.1307 5.38648 10.9312 4.90126 10.7045Z" fill="#2B2A82"/>
<rect x="79" y="6" width="80" height="15" rx="1.08761" fill="#4945FF"/>
<path d="M86.2455 10.3764C87.1539 10.3764 87.9109 10.695 88.5165 11.3321C89.1284 11.9692 89.4343 12.7546 89.4343 13.6882C89.4343 14.6218 89.1284 15.4072 88.5165 16.0443C87.9109 16.6814 87.1539 17 86.2455 17H83.615V10.3764H86.2455ZM86.2455 15.751C86.8196 15.751 87.2864 15.5617 87.646 15.1833C88.0055 14.7985 88.1853 14.3001 88.1853 13.6882C88.1853 13.0763 88.0055 12.5811 87.646 12.2026C87.2864 11.8178 86.8196 11.6255 86.2455 11.6255H84.9208V15.751H86.2455ZM91.8023 15.751H94.5937V17H90.4965V10.3764H94.5464V11.6255H91.8023V13.0353H94.3098V14.2654H91.8023V15.751ZM97.9115 17.1325C97.2555 17.1325 96.7035 16.9874 96.2556 16.6972C95.8078 16.4007 95.4924 16.0002 95.3094 15.4955L96.426 14.8426C96.6846 15.5176 97.1924 15.8551 97.9494 15.8551C98.3153 15.8551 98.5834 15.7888 98.7537 15.6564C98.924 15.5239 99.0092 15.3567 99.0092 15.1549C99.0092 14.9215 98.9051 14.7417 98.6969 14.6155C98.4887 14.483 98.1165 14.3411 97.5804 14.1897C97.2839 14.1014 97.0315 14.0131 96.8234 13.9248C96.6215 13.8365 96.4165 13.7198 96.2083 13.5747C96.0065 13.4233 95.8519 13.234 95.7447 13.0069C95.6374 12.7798 95.5838 12.5149 95.5838 12.2121C95.5838 11.6128 95.7951 11.1366 96.2178 10.7833C96.6467 10.4237 97.1609 10.244 97.7601 10.244C98.2963 10.244 98.7663 10.3764 99.17 10.6414C99.58 10.9 99.8986 11.2627 100.126 11.7295L99.0281 12.3635C98.7631 11.7958 98.3405 11.5119 97.7601 11.5119C97.4889 11.5119 97.2744 11.575 97.1167 11.7011C96.9653 11.821 96.8896 11.9787 96.8896 12.1743C96.8896 12.3824 96.9748 12.5527 97.1451 12.6852C97.3217 12.8114 97.6561 12.9502 98.1481 13.1016C98.3499 13.1646 98.5013 13.2151 98.6023 13.253C98.7095 13.2845 98.8514 13.3381 99.0281 13.4138C99.211 13.4832 99.3498 13.5494 99.4444 13.6125C99.5453 13.6756 99.6589 13.7608 99.7851 13.868C99.9112 13.9752 100.006 14.0856 100.069 14.1992C100.138 14.3127 100.195 14.4515 100.239 14.6155C100.29 14.7732 100.315 14.9467 100.315 15.1359C100.315 15.7478 100.091 16.2336 99.6431 16.5931C99.2016 16.9527 98.6244 17.1325 97.9115 17.1325ZM101.256 10.3764H102.562V17H101.256V10.3764ZM110.425 13.4422V13.9532C110.425 14.8994 110.122 15.6658 109.516 16.2525C108.911 16.8391 108.129 17.1325 107.17 17.1325C106.148 17.1325 105.299 16.8013 104.624 16.1389C103.956 15.4703 103.621 14.6565 103.621 13.6977C103.621 12.7325 103.953 11.9156 104.615 11.247C105.284 10.5783 106.11 10.244 107.094 10.244C107.712 10.244 108.277 10.3859 108.788 10.6698C109.299 10.9473 109.696 11.3195 109.98 11.7863L108.863 12.4297C108.706 12.1585 108.466 11.9377 108.144 11.7674C107.829 11.5971 107.476 11.5119 107.085 11.5119C106.454 11.5119 105.933 11.7201 105.523 12.1364C105.12 12.5464 104.918 13.0669 104.918 13.6977C104.918 14.3222 105.123 14.8395 105.533 15.2495C105.949 15.6532 106.498 15.8551 107.179 15.8551C107.684 15.8551 108.1 15.7447 108.428 15.5239C108.763 15.2968 108.99 14.9877 109.11 14.5966H107.104V13.4422H110.425ZM115.322 10.3764H116.627V17H115.634L112.795 12.9502V17H111.489V10.3764H112.483L115.322 14.4168V10.3764ZM122.755 17.1325C122.099 17.1325 121.547 16.9874 121.099 16.6972C120.651 16.4007 120.336 16.0002 120.153 15.4955L121.27 14.8426C121.528 15.5176 122.036 15.8551 122.793 15.8551C123.159 15.8551 123.427 15.7888 123.597 15.6564C123.768 15.5239 123.853 15.3567 123.853 15.1549C123.853 14.9215 123.749 14.7417 123.54 14.6155C123.332 14.483 122.96 14.3411 122.424 14.1897C122.127 14.1014 121.875 14.0131 121.667 13.9248C121.465 13.8365 121.26 13.7198 121.052 13.5747C120.85 13.4233 120.695 13.234 120.588 13.0069C120.481 12.7798 120.427 12.5149 120.427 12.2121C120.427 11.6128 120.639 11.1366 121.061 10.7833C121.49 10.4237 122.004 10.244 122.604 10.244C123.14 10.244 123.61 10.3764 124.014 10.6414C124.424 10.9 124.742 11.2627 124.969 11.7295L123.872 12.3635C123.607 11.7958 123.184 11.5119 122.604 11.5119C122.332 11.5119 122.118 11.575 121.96 11.7011C121.809 11.821 121.733 11.9787 121.733 12.1743C121.733 12.3824 121.818 12.5527 121.989 12.6852C122.165 12.8114 122.5 12.9502 122.992 13.1016C123.194 13.1646 123.345 13.2151 123.446 13.253C123.553 13.2845 123.695 13.3381 123.872 13.4138C124.055 13.4832 124.193 13.5494 124.288 13.6125C124.389 13.6756 124.502 13.7608 124.629 13.868C124.755 13.9752 124.849 14.0856 124.912 14.1992C124.982 14.3127 125.039 14.4515 125.083 14.6155C125.133 14.7732 125.159 14.9467 125.159 15.1359C125.159 15.7478 124.935 16.2336 124.487 16.5931C124.045 16.9527 123.468 17.1325 122.755 17.1325ZM131.093 10.3764L128.822 14.4168V17H127.525V14.4168L125.264 10.3764H126.74L128.178 13.1394L129.616 10.3764H131.093ZM133.746 17.1325C133.09 17.1325 132.538 16.9874 132.09 16.6972C131.642 16.4007 131.327 16.0002 131.144 15.4955L132.26 14.8426C132.519 15.5176 133.027 15.8551 133.784 15.8551C134.15 15.8551 134.418 15.7888 134.588 15.6564C134.758 15.5239 134.844 15.3567 134.844 15.1549C134.844 14.9215 134.739 14.7417 134.531 14.6155C134.323 14.483 133.951 14.3411 133.415 14.1897C133.118 14.1014 132.866 14.0131 132.658 13.9248C132.456 13.8365 132.251 13.7198 132.043 13.5747C131.841 13.4233 131.686 13.234 131.579 13.0069C131.472 12.7798 131.418 12.5149 131.418 12.2121C131.418 11.6128 131.63 11.1366 132.052 10.7833C132.481 10.4237 132.995 10.244 133.595 10.244C134.131 10.244 134.601 10.3764 135.004 10.6414C135.414 10.9 135.733 11.2627 135.96 11.7295L134.862 12.3635C134.598 11.7958 134.175 11.5119 133.595 11.5119C133.323 11.5119 133.109 11.575 132.951 11.7011C132.8 11.821 132.724 11.9787 132.724 12.1743C132.724 12.3824 132.809 12.5527 132.98 12.6852C133.156 12.8114 133.49 12.9502 133.982 13.1016C134.184 13.1646 134.336 13.2151 134.437 13.253C134.544 13.2845 134.686 13.3381 134.862 13.4138C135.045 13.4832 135.184 13.5494 135.279 13.6125C135.38 13.6756 135.493 13.7608 135.619 13.868C135.746 13.9752 135.84 14.0856 135.903 14.1992C135.973 14.3127 136.029 14.4515 136.074 14.6155C136.124 14.7732 136.149 14.9467 136.149 15.1359C136.149 15.7478 135.925 16.2336 135.478 16.5931C135.036 16.9527 134.459 17.1325 133.746 17.1325ZM141.278 10.3764V11.6255H139.489V17H138.184V11.6255H136.405V10.3764H141.278ZM143.448 15.751H146.24V17H142.143V10.3764H146.192V11.6255H143.448V13.0353H145.956V14.2654H143.448V15.751ZM153.778 10.3764V17H152.481V12.7041L150.617 15.7794H150.466L148.602 12.7136V17H147.296V10.3764H148.64L150.542 13.5084L152.434 10.3764H153.778Z" fill="white"/>
</svg>
