<svg width="10" height="10" viewBox="0 0 10 10" fill="none" xmlns="http://www.w3.org/2000/svg">
<path d="M0 4.575C0 4.46454 0.0895433 4.375 0.2 4.375H7.60833L4.25809 1.02475C4.17998 0.94665 4.17998 0.820017 4.25809 0.741912L4.85858 0.141421C4.93668 0.0633165 5.06332 0.0633165 5.14142 0.141421L9.85858 4.85858C9.93668 4.93668 9.93668 5.06332 9.85858 5.14142L5.14142 9.85858C5.06332 9.93668 4.93668 9.93668 4.85858 9.85858L4.25809 9.25809C4.17998 9.17998 4.17998 9.05335 4.25809 8.97524L7.60833 5.625H0.2C0.0895424 5.625 0 5.53546 0 5.425V4.575Z" fill="#4945FF"/>
</svg>
