<svg width="241" height="131" viewBox="0 0 241 131" fill="none" xmlns="http://www.w3.org/2000/svg">
<rect width="241" height="131" fill="#F0F0FF"/>
<path d="M121 37C105.561 37 93 49.5611 93 65C93 80.4389 105.561 93 121 93C136.439 93 149 80.4389 149 65C149 49.5611 136.439 37 121 37ZM118.667 45.1667C118.667 44.5218 119.189 44 119.833 44H122.167C122.812 44 123.333 44.5218 123.333 45.1667V63.8334C123.333 64.4783 122.812 65.0001 122.167 65.0001H119.833C119.189 65.0001 118.667 64.4783 118.667 63.8334V45.1667ZM117.712 81.0103C111.305 79.7532 106.163 74.5569 104.961 68.1388C103.451 60.0799 107.907 52.8062 114.669 49.9524C115.456 49.6205 116.333 50.1623 116.333 51.0161V53.6072C116.333 54.046 116.076 54.4295 115.686 54.6302C111.921 56.5667 109.333 60.4826 109.333 65C109.333 72.2555 115.992 77.9863 123.519 76.4012C128.076 75.4415 131.694 71.656 132.488 67.0671C133.415 61.7029 130.646 56.8606 126.319 54.6328C125.926 54.4305 125.667 54.0431 125.667 53.6014V51.0188C125.667 50.1694 126.54 49.6191 127.323 49.949C133.197 52.4247 137.333 58.2355 137.333 65C137.333 75.0814 128.153 83.0587 117.712 81.0103Z" fill="#4945FF"/>
</svg>
