<svg viewBox="0 0 32 32"
    xmlns="http://www.w3.org/2000/svg">
    <path d="M18.0499 16.0071C18.0499 21.0256 14.0093 25.0938 9.02511 25.0938C4.04097 25.0938 0 21.0247 0 16.0071C0 10.9895 4.04067 6.92004 9.02511 6.92004C14.0096 6.92004 18.0499 10.9886 18.0499 16.0071Z" fill="#32324D"/>
    <path d="M27.9504 16.0071C27.9504 20.7309 25.9301 24.5619 23.4379 24.5619C20.9457 24.5619 18.9253 20.7309 18.9253 16.0071C18.9253 11.2833 20.9454 7.45234 23.4376 7.45234C25.9298 7.45234 27.9504 11.282 27.9504 16.0071Z" fill="#32324D"/>
    <path d="M32 16.0071C32 20.2385 31.2896 23.6708 30.4129 23.6708C29.5363 23.6708 28.8262 20.2394 28.8262 16.0071C28.8262 11.7748 29.5366 8.34338 30.4129 8.34338C31.2892 8.34338 32 11.7745 32 16.0071Z" fill="#32324D"/>
</svg>
