<svg width="217" height="121" viewBox="0 0 217 121" fill="none" xmlns="http://www.w3.org/2000/svg">
<g clip-path="url(#clip0_17_1354)">
<g opacity="0.84">
<path fill-rule="evenodd" clip-rule="evenodd" d="M189.917 20.4424C194.105 20.4424 197.5 23.8376 197.5 28.0257C197.5 32.2139 194.105 35.6091 189.917 35.6091H146.583C150.771 35.6091 154.167 39.0042 154.167 43.1924C154.167 47.3805 150.771 50.7757 146.583 50.7757H170.417C174.605 50.7757 178 54.1709 178 58.3591C178 62.5472 174.605 65.9424 170.417 65.9424H159.395C154.114 65.9424 149.833 69.3376 149.833 73.5257C149.833 75.4818 150.897 77.3081 153.023 79.0047C155.04 80.6134 157.847 80.8231 160.088 82.1021C162.375 83.4079 163.917 85.8701 163.917 88.6924C163.917 92.8806 160.521 96.2757 156.333 96.2757H66.4167C62.2285 96.2757 58.8333 92.8806 58.8333 88.6924C58.8333 84.5042 62.2285 81.1091 66.4167 81.1091H24.1666C19.9785 81.1091 16.5833 77.7139 16.5833 73.5257C16.5833 69.3376 19.9785 65.9424 24.1666 65.9424H67.5C71.6881 65.9424 75.0833 62.5472 75.0833 58.3591C75.0833 54.1709 71.6881 50.7757 67.5 50.7757H40.4166C36.2285 50.7757 32.8333 47.3805 32.8333 43.1924C32.8333 39.0042 36.2285 35.6091 40.4166 35.6091H83.75C79.5618 35.6091 76.1667 32.2139 76.1667 28.0257C76.1667 23.8376 79.5618 20.4424 83.75 20.4424H189.917ZM189.917 50.7757C194.105 50.7757 197.5 54.1709 197.5 58.3591C197.5 62.5472 194.105 65.9424 189.917 65.9424C185.729 65.9424 182.333 62.5472 182.333 58.3591C182.333 54.1709 185.729 50.7757 189.917 50.7757Z" fill="#D9D8FF" fill-opacity="0.8"/>
<path fill-rule="evenodd" clip-rule="evenodd" d="M133.228 20.4425L143.305 93.9387L144.21 101.312C144.502 103.688 142.813 105.85 140.437 106.141L76.997 113.931C74.6216 114.223 72.4595 112.533 72.1678 110.158L62.4008 30.6115C62.2549 29.4238 63.0995 28.3427 64.2872 28.1969C64.2947 28.196 64.3022 28.195 64.3097 28.1941L69.573 27.6038L133.228 20.4425ZM73.8289 27.1264L78.7982 26.569L73.8289 27.1264Z" fill="white"/>
<path d="M73.8289 27.1264L78.7982 26.569M133.228 20.4425L143.305 93.9387L144.21 101.312C144.502 103.688 142.813 105.85 140.437 106.141L76.997 113.931C74.6216 114.223 72.4595 112.533 72.1678 110.158L62.4008 30.6115C62.2549 29.4238 63.0995 28.3427 64.2872 28.1969C64.2947 28.196 64.3022 28.195 64.3097 28.1941L69.573 27.6038L133.228 20.4425Z" stroke="#7B79FF" stroke-width="2.5"/>
<path fill-rule="evenodd" clip-rule="evenodd" d="M130.485 25.068L139.606 91.6754L140.427 98.3576C140.691 100.51 139.181 102.467 137.054 102.728L80.2416 109.704C78.1144 109.965 76.1757 108.432 75.9113 106.279L67.0822 34.3712C66.9363 33.1835 67.7809 32.1025 68.9686 31.9567L75.9969 31.0937" fill="#F0F0FF"/>
<path fill-rule="evenodd" clip-rule="evenodd" d="M135.998 6.62988H86.6445C85.8218 6.62988 85.077 6.96334 84.5379 7.50246C83.9988 8.04159 83.6653 8.78638 83.6653 9.60905V91.9424C83.6653 92.7651 83.9988 93.5098 84.5379 94.049C85.077 94.5881 85.8218 94.9215 86.6445 94.9215H150.561C151.384 94.9215 152.129 94.5881 152.668 94.049C153.207 93.5098 153.54 92.7651 153.54 91.9424V24.1635C153.54 23.3731 153.226 22.6151 152.667 22.0563L138.104 7.50181C137.545 6.94351 136.787 6.62988 135.998 6.62988Z" fill="white" stroke="#7B79FF" stroke-width="2.5"/>
<path d="M136.478 7.87891V20.4425C136.478 22.2374 137.933 23.6925 139.728 23.6925H148.323" stroke="#7B79FF" stroke-width="2.5" stroke-linecap="round" stroke-linejoin="round"/>
<path d="M95.3112 78.9424H123.478M95.3112 23.6924H123.478H95.3112ZM95.3112 36.6924H141.894H95.3112ZM95.3112 50.7757H141.894H95.3112ZM95.3112 64.8591H141.894H95.3112Z" stroke="#7B79FF" stroke-width="2.5" stroke-linecap="round" stroke-linejoin="round"/>
</g>
</g>
<defs>
<clipPath id="clip0_17_1354">
<rect width="216" height="120" fill="white" transform="translate(0.666656 0.796875)"/>
</clipPath>
</defs>
</svg>
