<svg width="217" height="121" viewBox="0 0 217 121" fill="none" xmlns="http://www.w3.org/2000/svg">
<g clip-path="url(#clip0_17_1379)">
<g opacity="0.88" clip-path="url(#clip1_17_1379)">
<path fill-rule="evenodd" clip-rule="evenodd" d="M119.667 28.7969C123.533 28.7969 126.667 31.9309 126.667 35.7969C126.667 39.6629 123.533 42.7969 119.667 42.7969H183.667C187.533 42.7969 190.667 45.9309 190.667 49.7969C190.667 53.6629 187.533 56.7969 183.667 56.7969H205.667C209.533 56.7969 212.667 59.9309 212.667 63.7969C212.667 67.6629 209.533 70.7969 205.667 70.7969H186.667C182.801 70.7969 179.667 73.9309 179.667 77.7969C179.667 81.6629 182.801 84.7969 186.667 84.7969H192.667C196.533 84.7969 199.667 87.9309 199.667 91.7969C199.667 95.6628 196.533 98.7969 192.667 98.7969H140.667C140.152 98.7969 139.65 98.7413 139.167 98.6358C138.683 98.7413 138.182 98.7969 137.667 98.7969H46.6667C42.8007 98.7969 39.6667 95.6628 39.6667 91.7969C39.6667 87.9309 42.8007 84.7969 46.6667 84.7969H7.66666C3.80066 84.7969 0.666656 81.6629 0.666656 77.7969C0.666656 73.9309 3.80066 70.7969 7.66666 70.7969H47.6667C51.5326 70.7969 54.6667 67.6629 54.6667 63.7969C54.6667 59.9309 51.5326 56.7969 47.6667 56.7969H22.6667C18.8007 56.7969 15.6667 53.6629 15.6667 49.7969C15.6667 45.9309 18.8007 42.7969 22.6667 42.7969H62.6667C58.8007 42.7969 55.6667 39.6629 55.6667 35.7969C55.6667 31.9309 58.8007 28.7969 62.6667 28.7969H119.667ZM209.667 84.7969C213.533 84.7969 216.667 87.9309 216.667 91.7969C216.667 95.6628 213.533 98.7969 209.667 98.7969C205.801 98.7969 202.667 95.6628 202.667 91.7969C202.667 87.9309 205.801 84.7969 209.667 84.7969Z" fill="#D9D8FF" fill-opacity="0.8"/>
<path fill-rule="evenodd" clip-rule="evenodd" d="M74.4967 103.07L65.8752 104.492C63.6875 104.799 61.6648 103.275 61.3573 101.088L50.2235 21.8662C49.916 19.6785 51.4403 17.6559 53.6279 17.3484L131.859 6.35375C134.047 6.0463 136.069 7.57047 136.377 9.75811C136.851 13.135 138.785 26.2264 138.948 27.388" fill="white"/>
<path fill-rule="evenodd" clip-rule="evenodd" d="M72.4719 99.5095L68.776 100.035C66.7896 100.317 64.9555 98.936 64.6795 96.9498L54.6843 25.025C54.4083 23.0389 55.7949 21.1999 57.7814 20.9175L128.819 10.8208C130.805 10.5385 132.639 11.9197 132.915 13.9058L133.774 20.0865C133.821 20.421 136.889 42.6204 142.98 86.6849C143.286 88.8975 141.76 90.942 139.572 91.2513C139.549 91.2546 139.525 91.2577 139.502 91.2606L72.4719 99.5095Z" fill="#F0F0FF"/>
<path d="M69.9451 103.92L65.875 104.492C63.6874 104.799 61.6647 103.275 61.3572 101.087L50.2234 21.866C49.9159 19.6783 51.4401 17.6557 53.6278 17.3482L131.859 6.35352C134.047 6.04607 136.069 7.57026 136.377 9.7579C136.851 13.1348 137.17 15.4041 137.333 16.5657" stroke="#7B79FF" stroke-width="2.5" stroke-linecap="round"/>
<path d="M138.167 21.1768L138.667 24.2972" stroke="#7B79FF" stroke-width="2.5" stroke-linecap="round"/>
<path fill-rule="evenodd" clip-rule="evenodd" d="M165.078 31.096L86.5106 22.8382C85.7554 22.7589 85.0395 22.9931 84.4925 23.436C83.9456 23.8789 83.5676 24.5305 83.4882 25.2857L75.126 104.847C75.0466 105.603 75.2808 106.319 75.7237 106.866C76.1667 107.412 76.8182 107.79 77.5734 107.87L156.141 116.128C156.896 116.207 157.612 115.973 158.159 115.53C158.706 115.087 159.084 114.435 159.163 113.68L167.525 34.1184C167.605 33.3631 167.37 32.6472 166.928 32.1003C166.485 31.5533 165.833 31.1754 165.078 31.096Z" fill="white" stroke="#7B79FF" stroke-width="2.5"/>
<path fill-rule="evenodd" clip-rule="evenodd" d="M93.6567 31.3819L156.312 37.9672C157.959 38.1404 159.155 39.6166 158.982 41.2644L153.442 93.974C153.268 95.6218 151.792 96.8172 150.144 96.644L87.4895 90.0587C85.8418 89.8855 84.6464 88.4094 84.8196 86.7616L90.3596 34.0519C90.5328 32.4041 92.0089 31.2088 93.6567 31.3819Z" fill="white"/>
<path fill-rule="evenodd" clip-rule="evenodd" d="M93.4073 74.6755L103.205 68.0675C104.838 66.9657 107.031 67.2177 108.372 68.6615L115.546 76.3844C115.904 76.7699 116.499 76.812 116.908 76.4808L132.248 64.0512C133.964 62.6604 136.483 62.9244 137.874 64.6408C137.964 64.7517 138.048 64.8674 138.125 64.9873L148.106 80.4246L149.539 82.8165L148.853 90.9413C148.806 91.4916 148.323 91.9 147.772 91.8535C147.764 91.8528 147.755 91.8519 147.746 91.851L90.7834 85.5222C90.2418 85.462 89.8481 84.9792 89.898 84.4366L90.653 76.238L93.4073 74.6755Z" fill="#F0F0FF"/>
<path fill-rule="evenodd" clip-rule="evenodd" d="M156.181 39.2106L93.5261 32.6253C93.0455 32.5748 92.5899 32.7239 92.2418 33.0057C91.8938 33.2876 91.6532 33.7022 91.6027 34.1828L86.0627 86.8925C86.0122 87.3731 86.1613 87.8286 86.4431 88.1767C86.725 88.5247 87.1396 88.7653 87.6202 88.8158L150.275 95.4011C150.756 95.4516 151.211 95.3025 151.559 95.0207C151.907 94.7388 152.148 94.3242 152.198 93.8436L157.738 41.1339C157.789 40.6533 157.64 40.1978 157.358 39.8497C157.076 39.5016 156.662 39.2611 156.181 39.2106Z" stroke="#7B79FF" stroke-width="2.5"/>
<path d="M105.071 56.7138C108.367 57.0601 111.319 54.6694 111.666 51.3738C112.012 48.0783 109.621 45.1259 106.326 44.7795C103.03 44.4331 100.078 46.8239 99.7313 50.1195C99.385 53.415 101.776 56.3674 105.071 56.7138Z" fill="#F0F0FF" stroke="#7B79FF" stroke-width="2.5"/>
<path d="M91.3956 76.2217C94.0199 74.4095 97.9562 71.6911 103.205 68.0667C104.838 66.9648 107.031 67.2169 108.372 68.6606L115.546 76.3836C115.904 76.769 116.499 76.8112 116.908 76.48L132.248 64.0504C133.964 62.6596 136.483 62.9236 137.874 64.64C137.964 64.7509 138.048 64.8665 138.125 64.9864C144.104 74.4736 147.792 80.3256 149.189 82.5424" stroke="#7B79FF" stroke-width="2.5" stroke-linecap="round"/>
</g>
</g>
<defs>
<clipPath id="clip0_17_1379">
<rect width="216" height="120" fill="white" transform="translate(0.666656 0.796875)"/>
</clipPath>
<clipPath id="clip1_17_1379">
<rect width="216" height="120" fill="white" transform="translate(0.666656 0.796875)"/>
</clipPath>
</defs>
</svg>
