<svg width="24" height="20" viewBox="0 0 24 20" fill="none" xmlns="http://www.w3.org/2000/svg">
<path d="M21.5689 2.39843H7.8297C7.8297 2.39843 7.8297 3.77359 7.8297 3.98383H21.5689C22.0396 3.98383 22.3946 4.48323 22.3946 5.07775V14.931L19.6036 11.7602C19.4026 11.5268 19.1503 11.3389 18.8648 11.2101C18.5793 11.0812 18.2676 11.0146 17.9521 11.0151C17.6373 11.0137 17.326 11.079 17.0405 11.2065C16.755 11.3339 16.5024 11.5203 16.3006 11.7523L13.3691 15.1371L10.3964 11.7761C10.1939 11.5449 9.94109 11.3591 9.65578 11.2318C9.37047 11.1044 9.05957 11.0385 8.74492 11.0388C8.42897 11.0405 8.11725 11.1088 7.83186 11.2389C7.54646 11.3691 7.29436 11.5579 7.09341 11.7919L4.16198 15.2243V7.6527H2.51049L2.51047 17.1981C2.51047 17.3091 2.51047 17.4201 2.51047 17.5469C2.53336 17.7001 2.56926 17.8512 2.61782 17.9987C2.61782 18.0384 2.61782 18.0859 2.61782 18.1256L2.65911 18.2207C2.71592 18.3634 2.78497 18.5012 2.86555 18.6329L2.96464 18.7835C3.0392 18.8898 3.12201 18.9905 3.21236 19.0847L3.33623 19.2036C3.46665 19.322 3.61071 19.4257 3.76562 19.5128H3.79039C4.14966 19.7272 4.5647 19.8399 4.98774 19.8378H21.5028C21.8635 19.8343 22.2186 19.7526 22.5417 19.5989C22.8649 19.4451 23.1477 19.2233 23.369 18.95C23.5914 18.6857 23.762 18.3849 23.8727 18.0622C23.9392 17.8452 23.9808 17.6219 23.9966 17.3963C23.9966 17.317 23.9966 17.2378 23.9966 17.1506V5.07775C24.0313 4.41648 23.7979 3.76799 23.3452 3.26842C22.8926 2.76885 22.2559 2.45703 21.5689 2.39843Z" fill="#32324D"/>
<path d="M12.5516 9.19888C13.4637 9.19888 14.2031 8.48908 14.2031 7.61348C14.2031 6.73789 13.4637 6.02809 12.5516 6.02809C11.6395 6.02809 10.9001 6.73789 10.9001 7.61348C10.9001 8.48908 11.6395 9.19888 12.5516 9.19888Z" fill="#32324D"/>
<path d="M3.30332 6.40765H4.12877V3.99653H6.60601C6.60601 3.99653 6.60604 3.41406 6.60604 3.20383C6.60604 2.99359 6.60601 2.41113 6.60601 2.41113H4.12877V0C4.12877 0 3.52232 0 3.30332 0C3.08431 0 2.45302 0.00238441 2.47726 0V2.41113H2.59867e-05C2.59867e-05 2.41113 0 2.99359 0 3.20383C0 3.41406 6.79875e-05 3.99653 6.79875e-05 3.99653H2.47726V6.40765C2.47726 6.40765 3.08431 6.40765 3.30332 6.40765Z" fill="#32324D"/>
</svg>
