<svg width="24" height="16" viewBox="0 0 24 16" fill="none" xmlns="http://www.w3.org/2000/svg">
<path fill-rule="evenodd" clip-rule="evenodd" d="M2 8C2 4.68629 4.68629 2 8 2H16C19.3137 2 22 4.68629 22 8C22 11.3137 19.3137 14 16 14H8C4.68629 14 2 11.3137 2 8ZM8 0C3.58172 0 0 3.58172 0 8C0 12.4183 3.58172 16 8 16H16C20.4183 16 24 12.4183 24 8C24 3.58172 20.4183 0 16 0H8ZM14 8C14 6.89543 14.8954 6 16 6C17.1046 6 18 6.89543 18 8C18 9.10457 17.1046 10 16 10C14.8954 10 14 9.10457 14 8ZM16 4C13.7909 4 12 5.79086 12 8C12 10.2091 13.7909 12 16 12C18.2091 12 20 10.2091 20 8C20 5.79086 18.2091 4 16 4Z" fill="#32324D"/>
</svg>
