<svg viewBox="0 0 32 32"
    xmlns="http://www.w3.org/2000/svg">
    <path d="M16 2C12.8185 2.00364 9.76839 3.26909 7.51874 5.51874C5.26909 7.76839 4.00364 10.8185 4 14C4 17 5.57 20.8825 8.20125 24.375C10.8488 27.8937 13.7638 30 16 30C18.2362 30 21.1512 27.8988 23.7987 24.375C26.43 20.875 28 17 28 14C27.9964 10.8185 26.7309 7.76839 24.4813 5.51874C22.2316 3.26909 19.1815 2.00364 16 2ZM8 14.5C8 14.1022 8.15804 13.7206 8.43934 13.4393C8.72064 13.158 9.10218 13 9.5 13C10.6935 13 11.8381 13.4741 12.682 14.318C13.5259 15.1619 14 16.3065 14 17.5C14 17.8978 13.842 18.2794 13.5607 18.5607C13.2794 18.842 12.8978 19 12.5 19C11.3065 19 10.1619 18.5259 9.31802 17.682C8.47411 16.8381 8 15.6935 8 14.5ZM18 25H14C13.7348 25 13.4804 24.8946 13.2929 24.7071C13.1054 24.5196 13 24.2652 13 24C13 23.7348 13.1054 23.4804 13.2929 23.2929C13.4804 23.1054 13.7348 23 14 23H18C18.2652 23 18.5196 23.1054 18.7071 23.2929C18.8946 23.4804 19 23.7348 19 24C19 24.2652 18.8946 24.5196 18.7071 24.7071C18.5196 24.8946 18.2652 25 18 25ZM19.5 19C19.1022 19 18.7206 18.842 18.4393 18.5607C18.158 18.2794 18 17.8978 18 17.5C18 16.3065 18.4741 15.1619 19.318 14.318C20.1619 13.4741 21.3065 13 22.5 13C22.8978 13 23.2794 13.158 23.5607 13.4393C23.842 13.7206 24 14.1022 24 14.5C24 15.0909 23.8836 15.6761 23.6575 16.2221C23.4313 16.768 23.0998 17.2641 22.682 17.682C22.2641 18.0998 21.768 18.4313 21.2221 18.6575C20.6761 18.8836 20.0909 19 19.5 19Z" />
</svg>
