<svg width="24" height="24" viewBox="0 0 24 24" fill="none" xmlns="http://www.w3.org/2000/svg">
<path fill-rule="evenodd" clip-rule="evenodd" d="M0 12C0 18.6274 5.37258 24 12 24C18.6274 24 24 18.6274 24 12C24 5.37258 18.6274 0 12 0C5.37258 0 0 5.37258 0 12ZM10.9924 21.9345C6.28252 21.4625 2.53747 17.7175 2.06548 13.0076H5.40458C5.96108 13.0076 6.41221 12.5565 6.41221 12C6.41221 11.4435 5.96108 10.9924 5.40458 10.9924H2.06548C2.53747 6.28252 6.28252 2.53747 10.9924 2.06548V5.40458C10.9924 5.96108 11.4435 6.41221 12 6.41221C12.5565 6.41221 13.0076 5.96108 13.0076 5.40458V2.06548C17.7175 2.53747 21.4625 6.28252 21.9345 10.9924H18.5954C18.0389 10.9924 17.5878 11.4435 17.5878 12C17.5878 12.5565 18.0389 13.0076 18.5954 13.0076H21.9345C21.4625 17.7175 17.7175 21.4625 13.0076 21.9345V18.5954C13.0076 18.0389 12.5565 17.5878 12 17.5878C11.4435 17.5878 10.9924 18.0389 10.9924 18.5954V21.9345Z" fill="#32324D"/>
</svg>
