<svg width="24" height="24" viewBox="0 0 24 24" fill="none" xmlns="http://www.w3.org/2000/svg">
<path fill-rule="evenodd" clip-rule="evenodd" d="M0.0908203 12.0009C0.0908203 18.5781 5.4227 23.91 11.9999 23.91C18.5771 23.91 23.909 18.5781 23.909 12.0009C23.909 5.42368 18.5771 0.0917969 11.9999 0.0917969C5.4227 0.0917969 0.0908203 5.42368 0.0908203 12.0009ZM10.9999 21.8601C6.32575 21.3917 2.60907 17.6751 2.14065 13.0009H5.45446C6.00674 13.0009 6.45446 12.5532 6.45446 12.0009C6.45446 11.4486 6.00674 11.0009 5.45446 11.0009H2.14065C2.60907 6.32672 6.32575 2.61004 10.9999 2.14163V5.45543C10.9999 6.00772 11.4476 6.45543 11.9999 6.45543C12.5522 6.45543 12.9999 6.00772 12.9999 5.45543V2.14163C17.6741 2.61004 21.3908 6.32672 21.8592 11.0009H18.5454C17.9931 11.0009 17.5454 11.4486 17.5454 12.0009C17.5454 12.5532 17.9931 13.0009 18.5454 13.0009H21.8592C21.3908 17.6751 17.6741 21.3917 12.9999 21.8601V18.5463C12.9999 17.9941 12.5522 17.5463 11.9999 17.5463C11.4476 17.5463 10.9999 17.9941 10.9999 18.5463V21.8601Z" fill="#212134"/>
</svg>
