<svg width="22" height="24" viewBox="0 0 22 24" fill="none" xmlns="http://www.w3.org/2000/svg">
<path fill-rule="evenodd" clip-rule="evenodd" d="M10.5559 2.10402L10.555 2.10446L3.24111 5.76142L11 9.64089L18.759 5.76143L11.445 2.10446L11.4441 2.10402C11.3061 2.0356 11.1541 2 11 2C10.846 2 10.694 2.0356 10.5559 2.10402ZM2.00004 16.5189L2.00004 7.37695L10 11.377V21.1509L2.55002 17.4259L2.5492 17.4254C2.38312 17.3416 2.24374 17.213 2.14671 17.0543C2.04953 16.8952 1.99872 16.7122 2.00002 16.5259H2.00004V16.5189ZM12 21.1459L19.4428 17.4245L19.445 17.4234C19.6116 17.3406 19.7518 17.213 19.8499 17.0549C19.9479 16.8967 19.9999 16.7144 20 16.5284V7.37697L12 11.377V21.1459ZM11.89 1.20894L12.335 0.313408C11.9202 0.107271 11.4633 0 11 0C10.5368 0 10.0799 0.107271 9.66503 0.313408L9.66281 0.314511L1.66504 4.3134L1.66381 4.31401C1.16453 4.56239 0.744361 4.94503 0.450467 5.41896C0.15633 5.89329 0.000344753 6.44027 4.85777e-05 6.99839L4.84585e-05 6.99892V16.5158C-0.00312173 17.0735 0.149273 17.6212 0.440154 18.0972C0.7317 18.5742 1.15076 18.9604 1.65007 19.2119L1.65283 19.2133L9.65253 23.2132C10.0693 23.4217 10.529 23.5303 10.995 23.5303C11.461 23.5303 11.9205 23.4218 12.3372 23.2133L12.3375 23.2132L20.335 19.2144L20.336 19.2139C20.8354 18.9656 21.2556 18.5829 21.5496 18.1089C21.8437 17.6345 21.9997 17.0876 22 16.5294V16.5289V6.99892V6.99839C21.9997 6.44027 21.8437 5.89329 21.5496 5.41896C21.2557 4.94504 20.8355 4.56242 20.3363 4.31404L20.335 4.3134L12.3372 0.314511L11.89 1.20894Z" fill="#32324D"/>
</svg>
