<svg width="24" height="24" viewBox="0 0 24 24" fill="none" xmlns="http://www.w3.org/2000/svg">
<path fill-rule="evenodd" clip-rule="evenodd" d="M12.0246 0.0107082C11.9095 -0.0077217 11.7919 -0.00363521 11.667 0.0329587C11.6041 0.0512602 11.5397 0.07885 11.4776 0.113973C11.4669 0.118828 11.4562 0.123831 11.4454 0.128978C11.2792 0.209395 11.113 0.289212 10.9468 0.369028C10.7806 0.448844 10.6144 0.52866 10.4481 0.609077C10.0523 0.799909 9.65636 0.990141 9.26046 1.18037C8.86454 1.37062 8.46861 1.56086 8.07269 1.75171C7.10774 2.21501 6.14509 2.6783 5.18013 3.144C4.76576 3.34323 4.35197 3.54247 3.93819 3.7417C3.52437 3.94095 3.11056 4.14019 2.69618 4.33944C2.56225 4.4039 2.42732 4.4673 2.2922 4.53078C2.06684 4.63667 1.841 4.74279 1.61857 4.8544C1.56454 4.87454 1.51177 4.90032 1.46016 4.93183C1.45331 4.93598 1.44652 4.94022 1.43979 4.94454C1.31542 5.01221 1.21416 5.12517 1.14088 5.25687C1.05246 5.40627 1.00308 5.58043 1.00308 5.76V7.00346V9.98967V13.588V16.699C1.00308 16.867 1.00231 17.0352 1.00154 17.2035C1 17.5404 0.99846 17.8776 1.00308 18.2137V18.2354C1.00308 18.5474 1.17391 18.9267 1.46016 19.0635C1.62631 19.1439 1.79246 19.2237 1.9586 19.3035L1.96016 19.3042C2.12592 19.3838 2.29168 19.4634 2.45744 19.5436C2.85312 19.7344 3.24879 19.9245 3.64447 20.1146L3.64469 20.1147L3.64844 20.1165C4.04326 20.3062 4.43808 20.4959 4.83289 20.6863C5.79785 21.1496 6.7605 21.6128 7.72545 22.0785C8.13949 22.2776 8.55294 22.4767 8.9664 22.6758L8.96743 22.6763C9.38123 22.8755 9.79503 23.0747 10.2094 23.274C10.4126 23.3712 10.6152 23.469 10.8177 23.5669C11.0203 23.6647 11.2229 23.7625 11.426 23.8597C11.4281 23.8608 11.4306 23.8619 11.4332 23.8629C11.5732 23.9552 11.7364 24.0072 11.9085 23.9989L22.9795 18.4235L11.9174 23.9985C12.0813 23.9975 12.2341 23.9542 12.3778 23.8665C12.5463 23.786 12.7154 23.7062 12.8845 23.6264C13.0536 23.5466 13.2227 23.4668 13.3912 23.3864L15.8152 22.2413C16.3038 22.0107 16.7929 21.7795 17.2821 21.5483C17.7706 21.3174 18.2591 21.0865 18.747 20.8562C19.1707 20.6557 19.5951 20.4552 20.0195 20.2547L20.0283 20.2505C20.4494 20.0515 20.8704 19.8526 21.2909 19.6536C21.4323 19.5867 21.5743 19.5212 21.7161 19.4558L21.7162 19.4557C21.9865 19.331 22.2564 19.2065 22.5214 19.0727C22.526 19.0703 22.5329 19.0679 22.5398 19.0655C22.7384 18.9719 22.9092 18.7006 22.9646 18.4918C22.9704 18.4696 22.9753 18.4468 22.9795 18.4235C22.9909 18.3637 22.9969 18.3015 22.9969 18.2373V16.9939V14.0076V10.4093V7.29827C22.9969 7.13041 22.9977 6.96229 22.9985 6.79408V6.79381V6.79376C23 6.45691 23.0015 6.1197 22.9969 5.78356V5.77947C22.9971 5.77232 22.9972 5.76521 22.9972 5.75813C22.9972 5.44607 22.8264 5.06439 22.5401 4.92996C22.5256 4.92306 22.5112 4.91616 22.4967 4.90927C22.4715 4.89583 22.4459 4.88367 22.42 4.87278C22.2913 4.81165 22.1623 4.75078 22.0334 4.68991C21.8643 4.6101 21.6952 4.53028 21.5267 4.44986L19.1027 3.30483C18.6144 3.07434 18.1255 2.84325 17.6366 2.61217C17.1478 2.38116 16.6591 2.15015 16.1709 1.91974C15.7473 1.71931 15.3232 1.51888 14.899 1.31845C14.4748 1.118 14.0506 0.917551 13.627 0.717099C13.529 0.670741 13.4312 0.624383 13.3334 0.578057C13.0211 0.430079 12.7095 0.282433 12.3965 0.13618C12.3931 0.13498 12.3902 0.133779 12.3873 0.132579C12.3854 0.131803 12.3836 0.131026 12.3815 0.13025C12.3124 0.0857191 12.2371 0.0518731 12.1564 0.0329587C12.1114 0.0224184 12.0676 0.0150623 12.0246 0.0107082ZM11.9141 2.01568C11.792 2.07418 11.6694 2.13177 11.547 2.1893C11.4119 2.25278 11.2769 2.31618 11.143 2.38064C10.7286 2.57988 10.3148 2.77912 9.90103 2.97836C9.48723 3.1776 9.07343 3.37684 8.65905 3.57608C7.6941 4.04178 6.73145 4.50507 5.76649 4.96837C5.37058 5.15921 4.97467 5.34945 4.57876 5.53969C4.42499 5.61357 4.27122 5.68746 4.11745 5.76139C4.36758 5.88176 4.61758 6.00213 4.86759 6.12251L4.86971 6.12353C5.28278 6.32242 5.69585 6.52131 6.1095 6.7202C7.07446 7.18589 8.0371 7.64919 9.00206 8.11248C9.3973 8.303 9.79254 8.49292 10.1878 8.68283L10.1897 8.68374L10.1906 8.68418C10.5862 8.87429 10.9819 9.0644 11.3775 9.25512C11.5437 9.33553 11.7099 9.41535 11.8762 9.49517L11.9096 9.51124C12.029 9.45515 12.1489 9.39985 12.2688 9.34452L12.2689 9.34447C12.4107 9.27904 12.5527 9.21355 12.6941 9.14665C13.1175 8.94629 13.5415 8.74593 13.9655 8.54557C14.3899 8.34505 14.8142 8.14452 15.238 7.944C15.7263 7.71355 16.2151 7.48251 16.7039 7.25146C17.1928 7.02041 17.6816 6.78936 18.1698 6.55892L19.8493 5.76559C19.5944 5.64508 19.3393 5.52457 19.0843 5.40406C18.6601 5.20362 18.2359 5.00318 17.8123 4.80274C17.3241 4.57231 16.8353 4.34128 16.3465 4.11026C15.8576 3.87919 15.3688 3.64812 14.8805 3.41765L12.4565 2.27262C12.288 2.1922 12.1189 2.11238 11.9498 2.03257C11.9379 2.02694 11.926 2.02131 11.9141 2.01568ZM10.9851 11.2682C10.8131 11.2211 10.6131 11.1659 10.4222 11.1133C9.65076 10.9006 9.02645 10.7284 10.9851 11.2903V11.8068V14.793V18.3914V21.5024L10.9851 21.5415C10.7198 21.4139 10.4546 21.2864 10.1894 21.159C9.79364 20.9688 9.39785 20.7786 9.00206 20.5878C8.0371 20.1245 7.07446 19.6612 6.1095 19.1956C5.69514 18.9963 5.28136 18.7971 4.86759 18.5979C4.45376 18.3986 4.03994 18.1994 3.62554 18.0001C3.49057 17.9351 3.35586 17.8688 3.22097 17.8025L3.22055 17.8022C3.09725 17.7416 2.97381 17.6808 2.84988 17.6209V16.9919V14.0057V10.4074V7.29632L2.8499 7.25727C3.11492 7.38479 3.37993 7.51214 3.64494 7.63948L3.64528 7.63964C4.04115 7.82986 4.43702 8.02008 4.83289 8.2109C5.79785 8.6742 6.7605 9.13749 7.72545 9.60319C8.13949 9.80226 8.55295 10.0013 8.9664 10.2004L8.96743 10.2009C9.38123 10.4002 9.79503 10.5994 10.2094 10.7986C10.3445 10.8637 10.4793 10.93 10.6144 10.9965C10.7377 11.0572 10.8611 11.1179 10.9851 11.1778V11.2682ZM12.8349 18.8086V21.5554C13.2087 21.3786 13.5829 21.2017 13.957 21.0249L13.9655 21.0209C14.3899 20.8204 14.8142 20.6199 15.238 20.4194C15.7266 20.1887 16.2158 19.9575 16.705 19.7263C17.1935 19.4954 17.6819 19.2646 18.1698 19.0343L20.5938 17.8892C20.7623 17.8088 20.9315 17.729 21.1006 17.6491L21.1471 17.6272C21.1473 17.4866 21.1479 17.346 21.1486 17.2055V17.2052C21.1494 17.037 21.1501 16.8689 21.1501 16.701V13.59V9.99162V7.24487C20.7736 7.42297 20.3967 7.60108 20.0198 7.77919C19.5953 7.97975 19.1708 8.18032 18.747 8.38089C18.2587 8.61134 17.7699 8.84239 17.2811 9.07343L17.279 9.07439C16.7909 9.30512 16.3027 9.53584 15.8152 9.76597L13.3912 10.911C13.2227 10.9914 13.0536 11.0712 12.8845 11.151L12.8389 11.1726C12.8386 11.3133 12.8378 11.4541 12.8369 11.5948L12.8369 11.5951C12.8359 11.7633 12.8349 11.9314 12.8349 12.0993V15.2103V18.8086Z" fill="#212134"/>
</svg>
