<svg width="24" height="24" viewBox="0 0 24 24" fill="none" xmlns="http://www.w3.org/2000/svg">
<path d="M0 10.7C0 10.5895 0.0895424 10.5 0.200001 10.5H18.26L10.0214 2.26142C9.94332 2.18332 9.94332 2.05668 10.0214 1.97858L11.8586 0.141422C11.9367 0.0633167 12.0633 0.0633165 12.1414 0.141421L23.8586 11.8586C23.9367 11.9367 23.9367 12.0633 23.8586 12.1414L12.1414 23.8586C12.0633 23.9367 11.9367 23.9367 11.8586 23.8586L10.0214 22.0214C9.94332 21.9433 9.94332 21.8167 10.0214 21.7386L18.26 13.5H0.200001C0.0895443 13.5 0 13.4105 0 13.3V10.7Z" fill="#212134"/>
</svg>
