<svg viewBox="0 0 32 32"
    xmlns="http://www.w3.org/2000/svg">
    <path d="M26.0613 19.0613L17.0613 28.0613C16.9219 28.2011 16.7563 28.312 16.574 28.3878C16.3917 28.4635 16.1962 28.5024 15.9988 28.5024C15.8013 28.5024 15.6059 28.4635 15.4235 28.3878C15.2412 28.312 15.0756 28.2011 14.9363 28.0613L5.93626 19.0613C5.65446 18.7795 5.49615 18.3973 5.49615 17.9988C5.49615 17.6002 5.65446 17.218 5.93626 16.9363C6.21805 16.6545 6.60024 16.4961 6.99876 16.4961C7.39727 16.4961 7.77946 16.6545 8.06126 16.9363L14.5 23.375V5C14.5 4.60218 14.658 4.22064 14.9393 3.93934C15.2207 3.65804 15.6022 3.5 16 3.5C16.3978 3.5 16.7794 3.65804 17.0607 3.93934C17.342 4.22064 17.5 4.60218 17.5 5V23.375L23.9388 16.935C24.2205 16.6532 24.6027 16.4949 25.0013 16.4949C25.3998 16.4949 25.782 16.6532 26.0638 16.935C26.3455 17.2168 26.5039 17.599 26.5039 17.9975C26.5039 18.396 26.3455 18.7782 26.0638 19.06L26.0613 19.0613Z" />
</svg>
