<svg viewBox="0 0 32 32"
    xmlns="http://www.w3.org/2000/svg">
    <path d="M28.0613 17.0612L19.0613 26.0612C18.7795 26.343 18.3973 26.5014 17.9988 26.5014C17.6002 26.5014 17.218 26.343 16.9363 26.0612C16.6545 25.7795 16.4961 25.3973 16.4961 24.9987C16.4961 24.6002 16.6545 24.218 16.9363 23.9362L23.375 17.5H5C4.60218 17.5 4.22064 17.342 3.93934 17.0607C3.65804 16.7794 3.5 16.3978 3.5 16C3.5 15.6022 3.65804 15.2206 3.93934 14.9393C4.22064 14.658 4.60218 14.5 5 14.5H23.375L16.9387 8.06C16.657 7.77821 16.4986 7.39601 16.4986 6.9975C16.4986 6.59898 16.657 6.21679 16.9387 5.935C17.2205 5.65321 17.6027 5.4949 18.0012 5.4949C18.3998 5.4949 18.782 5.65321 19.0637 5.935L28.0637 14.935C28.2036 15.0745 28.3145 15.2403 28.3901 15.4229C28.4657 15.6054 28.5045 15.8011 28.5043 15.9986C28.5041 16.1962 28.4648 16.3918 28.3888 16.5741C28.3127 16.7565 28.2014 16.922 28.0613 17.0612Z" />
</svg>
