<svg width="24" height="24" viewBox="0 0 24 24" fill="none" xmlns="http://www.w3.org/2000/svg">
<path d="M23.9998 13.2999C23.9998 13.4104 23.9103 13.4999 23.7998 13.4999H5.73996L13.9785 21.7384C14.0566 21.8165 14.0566 21.9432 13.9785 22.0213L12.1413 23.8584C12.0632 23.9365 11.9366 23.9365 11.8585 23.8584L0.141421 12.1413C0.0633165 12.0632 0.0633161 11.9366 0.14142 11.8585L11.8585 0.141421C11.9366 0.0633159 12.0632 0.0633159 12.1413 0.141421L13.9785 1.97857C14.0566 2.05667 14.0566 2.1833 13.9785 2.26141L5.73996 10.4999H23.7998C23.9103 10.4999 23.9998 10.5895 23.9998 10.6999V13.2999Z" fill="#212134"/>
</svg>
