<svg width="24" height="24" viewBox="0 0 24 24" fill="none" xmlns="http://www.w3.org/2000/svg">
<path d="M24 13.3C24 13.4105 23.9105 13.5 23.8 13.5H5.74L13.9786 21.7386C14.0567 21.8167 14.0567 21.9433 13.9786 22.0214L12.1414 23.8586C12.0633 23.9367 11.9367 23.9367 11.8586 23.8586L0.141422 12.1414C0.0633169 12.0633 0.0633165 11.9367 0.141421 11.8586L11.8586 0.141422C11.9367 0.0633163 12.0633 0.0633163 12.1414 0.141422L13.9786 1.97858C14.0567 2.05668 14.0567 2.18332 13.9786 2.26142L5.74 10.5H23.8C23.9105 10.5 24 10.5895 24 10.7V13.3Z" fill="#212134"/>
</svg>
