<svg width="34" height="25" viewBox="0 0 34 25" fill="none" xmlns="http://www.w3.org/2000/svg">
<g clip-path="url(#clip0_256_2181)">
<rect x="0.5" y="1" width="33" height="23" rx="2.5" fill="#EAF5FF" stroke="#B8E1FF"/>
<path d="M18.9011 9.82778C19.4772 9.82778 19.9441 9.36082 19.9441 8.78479C19.9441 8.20876 19.4772 7.74179 18.9011 7.74179C18.3251 7.74179 17.8582 8.20876 17.8582 8.78479C17.8582 9.36082 18.3251 9.82778 18.9011 9.82778Z" fill="#0C75AF"/>
<path d="M19.7027 8.78477C19.6978 9.11312 19.4999 9.41491 19.1908 9.53321C18.8697 9.65634 18.5003 9.55736 18.2806 9.29419C18.0682 9.03827 18.0416 8.66646 18.2082 8.37916C18.3748 8.09426 18.708 7.93492 19.0339 7.99286C19.4202 8.06046 19.6954 8.39606 19.7027 8.78477C19.7075 9.09622 20.1904 9.09622 20.1855 8.78477C20.1759 8.23671 19.8355 7.75626 19.3188 7.57035C18.8287 7.39411 18.2492 7.55828 17.9185 7.95906C17.5732 8.37674 17.5153 8.98033 17.8002 9.44871C18.0826 9.91709 18.6307 10.1465 19.1643 10.0451C19.7606 9.93158 20.1759 9.38111 20.1855 8.78718C20.1904 8.47332 19.7075 8.47332 19.7027 8.78477Z" fill="#0C75AF"/>
<path d="M18.9011 13.4882C19.4772 13.4882 19.9441 13.0212 19.9441 12.4452C19.9441 11.8692 19.4772 11.4022 18.9011 11.4022C18.3251 11.4022 17.8582 11.8692 17.8582 12.4452C17.8582 13.0212 18.3251 13.4882 18.9011 13.4882Z" fill="#0C75AF"/>
<path d="M19.7027 12.4448C19.6978 12.7732 19.4999 13.0749 19.1908 13.1932C18.8697 13.3164 18.5003 13.2174 18.2806 12.9542C18.0682 12.6983 18.0416 12.3265 18.2082 12.0392C18.3748 11.7543 18.708 11.595 19.0339 11.6529C19.4202 11.7181 19.6954 12.0561 19.7027 12.4448C19.7075 12.7562 20.1904 12.7562 20.1855 12.4448C20.1759 11.8967 19.8355 11.4163 19.3188 11.2304C18.8287 11.0541 18.2492 11.2183 17.9185 11.6191C17.5732 12.0368 17.5153 12.6404 17.8002 13.1087C18.0826 13.5771 18.6307 13.8065 19.1643 13.7051C19.7606 13.5916 20.1759 13.0411 20.1855 12.4472C20.1904 12.1334 19.7075 12.1334 19.7027 12.4448Z" fill="#0C75AF"/>
<path d="M18.9011 17.2467C19.4772 17.2467 19.9441 16.7797 19.9441 16.2037C19.9441 15.6277 19.4772 15.1607 18.9011 15.1607C18.3251 15.1607 17.8582 15.6277 17.8582 16.2037C17.8582 16.7797 18.3251 17.2467 18.9011 17.2467Z" fill="#0C75AF"/>
<path d="M19.7027 16.204C19.6978 16.5323 19.4999 16.8341 19.1908 16.9524C18.8697 17.0755 18.5003 16.9765 18.2806 16.7134C18.0682 16.4575 18.0416 16.0857 18.2082 15.7983C18.3748 15.5135 18.708 15.3541 19.0339 15.4121C19.4202 15.4772 19.6954 15.8152 19.7027 16.204C19.7075 16.5154 20.1904 16.5154 20.1855 16.204C20.1759 15.6559 19.8355 15.1754 19.3188 14.9895C18.8287 14.8133 18.2492 14.9775 17.9185 15.3783C17.5732 15.7959 17.5153 16.3995 17.8002 16.8679C18.0826 17.3363 18.6307 17.5656 19.1643 17.4642C19.7606 17.3508 20.1759 16.8003 20.1855 16.2064C20.1904 15.8925 19.7075 15.8925 19.7027 16.204Z" fill="#0C75AF"/>
<path d="M15.0745 9.84231C15.6505 9.84231 16.1175 9.37534 16.1175 8.79931C16.1175 8.22328 15.6505 7.75632 15.0745 7.75632C14.4985 7.75632 14.0315 8.22328 14.0315 8.79931C14.0315 9.37534 14.4985 9.84231 15.0745 9.84231Z" fill="#0C75AF"/>
<path d="M15.876 8.79941C15.8712 9.12777 15.6732 9.42956 15.3642 9.54786C15.0431 9.67099 14.6737 9.572 14.454 9.30884C14.2415 9.05292 14.2149 8.68111 14.3815 8.39381C14.5481 8.10891 14.8813 7.94957 15.2072 8.00751C15.5959 8.07511 15.8712 8.41071 15.876 8.79941C15.8808 9.11086 16.3637 9.11086 16.3589 8.79941C16.3492 8.25136 16.0088 7.77091 15.4921 7.585C15.002 7.40875 14.4226 7.57293 14.0918 7.97371C13.7466 8.39139 13.6886 8.99498 13.9735 9.46336C14.256 9.93174 14.804 10.1611 15.3376 10.0597C15.9339 9.94623 16.3492 9.39576 16.3589 8.80183C16.3637 8.48796 15.8808 8.48796 15.876 8.79941Z" fill="#0C75AF"/>
<path d="M15.0745 13.5026C15.6505 13.5026 16.1175 13.0357 16.1175 12.4596C16.1175 11.8836 15.6505 11.4166 15.0745 11.4166C14.4985 11.4166 14.0315 11.8836 14.0315 12.4596C14.0315 13.0357 14.4985 13.5026 15.0745 13.5026Z" fill="#0C75AF"/>
<path d="M15.876 12.4594C15.8712 12.7877 15.6732 13.0895 15.3642 13.2078C15.0431 13.3309 14.6737 13.2319 14.454 12.9688C14.2415 12.7129 14.2149 12.3411 14.3815 12.0537C14.5481 11.7689 14.8813 11.6095 15.2072 11.6675C15.5959 11.7351 15.8712 12.0706 15.876 12.4594C15.8808 12.7708 16.3637 12.7708 16.3589 12.4594C16.3492 11.9113 16.0088 11.4308 15.4921 11.2449C15.002 11.0687 14.4226 11.2329 14.0918 11.6337C13.7466 12.0513 13.6886 12.6549 13.9735 13.1233C14.256 13.5917 14.804 13.821 15.3376 13.7196C15.9339 13.6062 16.3492 13.0557 16.3589 12.4618C16.3637 12.1479 15.8808 12.1479 15.876 12.4594Z" fill="#0C75AF"/>
<path d="M15.0745 17.2611C15.6505 17.2611 16.1175 16.7942 16.1175 16.2181C16.1175 15.6421 15.6505 15.1751 15.0745 15.1751C14.4985 15.1751 14.0315 15.6421 14.0315 16.2181C14.0315 16.7942 14.4985 17.2611 15.0745 17.2611Z" fill="#0C75AF"/>
<path d="M15.876 16.2185C15.8712 16.5468 15.6732 16.8486 15.3642 16.9669C15.0431 17.0901 14.6737 16.9911 14.454 16.7279C14.2415 16.472 14.2149 16.1002 14.3815 15.8129C14.5481 15.528 14.8813 15.3686 15.2072 15.4266C15.5959 15.4918 15.8712 15.8298 15.876 16.2185C15.8808 16.5299 16.3637 16.5299 16.3589 16.2185C16.3492 15.6704 16.0088 15.19 15.4921 15.0041C15.002 14.8278 14.4226 14.992 14.0918 15.3928C13.7466 15.8105 13.6886 16.414 13.9735 16.88C14.256 17.3484 14.804 17.5778 15.3376 17.4764C15.9339 17.3629 16.3492 16.8124 16.3589 16.2185C16.3637 15.907 15.8808 15.907 15.876 16.2185Z" fill="#0C75AF"/>
</g>
<defs>
<clipPath id="clip0_256_2181">
<rect width="34" height="24" fill="white" transform="translate(0 0.5)"/>
</clipPath>
</defs>
</svg>
