<svg width="24" height="24" viewBox="0 0 24 24" fill="none" xmlns="http://www.w3.org/2000/svg">
<path fill-rule="evenodd" clip-rule="evenodd" d="M9.77778 6H8V18H9.77778V6ZM16.2223 9.33333C16.2223 10.1859 15.9007 10.9647 15.3724 11.5547C16.2901 12.2005 16.889 13.2555 16.889 14.445C16.889 16.4054 15.2619 18.0005 13.2623 18.0005H9.77787V16.2228H13.2623C14.2819 16.2228 15.1112 15.4254 15.1112 14.445C15.1112 13.4645 14.2819 12.6672 13.2623 12.6672H9.77787V12.6667V10.8894V10.8889H12.889C13.7468 10.8889 14.4445 10.1911 14.4445 9.33333C14.4445 8.47556 13.7468 7.77778 12.889 7.77778H9.77787V6H12.889C14.7272 6 16.2223 7.49511 16.2223 9.33333Z" fill="#32324D"/>
</svg>
