<svg width="24" height="24" viewBox="0 0 24 24" fill="none" xmlns="http://www.w3.org/2000/svg">
<path fill-rule="evenodd" clip-rule="evenodd" d="M6.58457 8.76923C5.81986 8.76923 5.19995 8.14932 5.19995 7.38462C5.19995 6.61991 5.81986 6 6.58457 6C7.34927 6 7.96918 6.61991 7.96918 7.38462C7.96918 8.14932 7.34927 8.76923 6.58457 8.76923ZM9.81534 6.54748H18.8153V8.08594H9.81534V6.54748ZM5.19995 12C5.19995 12.7647 5.81986 13.3846 6.58457 13.3846C7.34927 13.3846 7.96918 12.7647 7.96918 12C7.96918 11.2353 7.34927 10.6154 6.58457 10.6154C5.81986 10.6154 5.19995 11.2353 5.19995 12ZM6.58457 18C5.81986 18 5.19995 17.3801 5.19995 16.6154C5.19995 15.8507 5.81986 15.2308 6.58457 15.2308C7.34927 15.2308 7.96918 15.8507 7.96918 16.6154C7.96918 17.3801 7.34927 18 6.58457 18ZM18.8153 11.1629H9.81534V12.7013H18.8153V11.1629ZM9.81534 15.7782H18.8153V17.3167H9.81534V15.7782Z" fill="#32324D"/>
</svg>
