<svg viewBox="0 0 32 32"
    xmlns="http://www.w3.org/2000/svg">
    <path d="M9.5 8C9.5 7.60218 9.65804 7.22064 9.93934 6.93934C10.2206 6.65804 10.6022 6.5 11 6.5H27C27.3978 6.5 27.7794 6.65804 28.0607 6.93934C28.342 7.22064 28.5 7.60218 28.5 8C28.5 8.39782 28.342 8.77936 28.0607 9.06066C27.7794 9.34196 27.3978 9.5 27 9.5H11C10.6022 9.5 10.2206 9.34196 9.93934 9.06066C9.65804 8.77936 9.5 8.39782 9.5 8ZM27 14.5H11C10.6022 14.5 10.2206 14.658 9.93934 14.9393C9.65804 15.2206 9.5 15.6022 9.5 16C9.5 16.3978 9.65804 16.7794 9.93934 17.0607C10.2206 17.342 10.6022 17.5 11 17.5H27C27.3978 17.5 27.7794 17.342 28.0607 17.0607C28.342 16.7794 28.5 16.3978 28.5 16C28.5 15.6022 28.342 15.2206 28.0607 14.9393C27.7794 14.658 27.3978 14.5 27 14.5ZM27 22.5H11C10.6022 22.5 10.2206 22.658 9.93934 22.9393C9.65804 23.2206 9.5 23.6022 9.5 24C9.5 24.3978 9.65804 24.7794 9.93934 25.0607C10.2206 25.342 10.6022 25.5 11 25.5H27C27.3978 25.5 27.7794 25.342 28.0607 25.0607C28.342 24.7794 28.5 24.3978 28.5 24C28.5 23.6022 28.342 23.2206 28.0607 22.9393C27.7794 22.658 27.3978 22.5 27 22.5ZM5.5 14C5.10444 14 4.71776 14.1173 4.38886 14.3371C4.05996 14.5568 3.80362 14.8692 3.65224 15.2346C3.50087 15.6001 3.46126 16.0022 3.53843 16.3902C3.6156 16.7781 3.80608 17.1345 4.08579 17.4142C4.36549 17.6939 4.72186 17.8844 5.10982 17.9616C5.49778 18.0387 5.89992 17.9991 6.26537 17.8478C6.63082 17.6964 6.94318 17.44 7.16294 17.1111C7.3827 16.7822 7.5 16.3956 7.5 16C7.5 15.4696 7.28929 14.9609 6.91421 14.5858C6.53914 14.2107 6.03043 14 5.5 14ZM5.5 6C5.10444 6 4.71776 6.1173 4.38886 6.33706C4.05996 6.55682 3.80362 6.86918 3.65224 7.23463C3.50087 7.60009 3.46126 8.00222 3.53843 8.39018C3.6156 8.77814 3.80608 9.13451 4.08579 9.41421C4.36549 9.69392 4.72186 9.8844 5.10982 9.96157C5.49778 10.0387 5.89992 9.99913 6.26537 9.84776C6.63082 9.69638 6.94318 9.44004 7.16294 9.11114C7.3827 8.78224 7.5 8.39556 7.5 8C7.5 7.46957 7.28929 6.96086 6.91421 6.58579C6.53914 6.21071 6.03043 6 5.5 6ZM5.5 22C5.10444 22 4.71776 22.1173 4.38886 22.3371C4.05996 22.5568 3.80362 22.8692 3.65224 23.2346C3.50087 23.6001 3.46126 24.0022 3.53843 24.3902C3.6156 24.7781 3.80608 25.1345 4.08579 25.4142C4.36549 25.6939 4.72186 25.8844 5.10982 25.9616C5.49778 26.0387 5.89992 25.9991 6.26537 25.8478C6.63082 25.6964 6.94318 25.44 7.16294 25.1111C7.3827 24.7822 7.5 24.3956 7.5 24C7.5 23.4696 7.28929 22.9609 6.91421 22.5858C6.53914 22.2107 6.03043 22 5.5 22Z" />
</svg>
