<svg width="24" height="24" viewBox="0 0 24 24" fill="none" xmlns="http://www.w3.org/2000/svg">
<path fill-rule="evenodd" clip-rule="evenodd" d="M3.86858 2.99073V0H6.76817V2.99073H17.2315V0H20.1311V2.99073H20.7609C23.5295 2.99073 23.9642 3.48767 24 5.91636V21.0005C24 23.1241 23.8088 24 21.1981 24H2.81816C0.207467 24 0 23.3634 0 20.7853V6.21031C0.0350499 4.16097 0.233312 2.99073 3.0012 2.99073L3.86858 2.99073ZM2.32044 20.3682C2.32044 21.1794 2.56508 21.2333 3.09614 21.2333H21.0013C21.5317 21.2333 21.6804 21.2207 21.6804 20.4081V8.23345C21.6655 7.60633 21.4623 7.49609 21.0498 7.49609H2.90673C2.49392 7.49609 2.31478 7.58673 2.32044 8.06932L2.32044 20.3682Z" fill="#212134"/>
</svg>
