<svg viewBox="0 0 32 32"
    xmlns="http://www.w3.org/2000/svg">
    <path d="M27 5H5C4.46957 5 3.96086 5.21071 3.58579 5.58579C3.21071 5.96086 3 6.46957 3 7V25C3 25.5304 3.21071 26.0391 3.58579 26.4142C3.96086 26.7893 4.46957 27 5 27H27C27.5304 27 28.0391 26.7893 28.4142 26.4142C28.7893 26.0391 29 25.5304 29 25V7C29 6.46957 28.7893 5.96086 28.4142 5.58579C28.0391 5.21071 27.5304 5 27 5ZM23.5 9C23.7967 9 24.0867 9.08797 24.3334 9.2528C24.58 9.41762 24.7723 9.65189 24.8858 9.92597C24.9993 10.2001 25.0291 10.5017 24.9712 10.7926C24.9133 11.0836 24.7704 11.3509 24.5607 11.5607C24.3509 11.7704 24.0836 11.9133 23.7926 11.9712C23.5017 12.0291 23.2001 11.9994 22.926 11.8858C22.6519 11.7723 22.4176 11.58 22.2528 11.3334C22.088 11.0867 22 10.7967 22 10.5C22 10.1022 22.158 9.72064 22.4393 9.43934C22.7206 9.15804 23.1022 9 23.5 9ZM23.5 16C23.7967 16 24.0867 16.088 24.3334 16.2528C24.58 16.4176 24.7723 16.6519 24.8858 16.926C24.9993 17.2001 25.0291 17.5017 24.9712 17.7926C24.9133 18.0836 24.7704 18.3509 24.5607 18.5607C24.3509 18.7704 24.0836 18.9133 23.7926 18.9712C23.5017 19.0291 23.2001 18.9993 22.926 18.8858C22.6519 18.7723 22.4176 18.58 22.2528 18.3334C22.088 18.0867 22 17.7967 22 17.5C22 17.1022 22.158 16.7206 22.4393 16.4393C22.7206 16.158 23.1022 16 23.5 16ZM18.5 14C18.7967 14 19.0867 14.088 19.3334 14.2528C19.58 14.4176 19.7723 14.6519 19.8858 14.926C19.9993 15.2001 20.0291 15.5017 19.9712 15.7926C19.9133 16.0836 19.7704 16.3509 19.5607 16.5607C19.3509 16.7704 19.0836 16.9133 18.7926 16.9712C18.5017 17.0291 18.2001 16.9993 17.926 16.8858C17.6519 16.7723 17.4176 16.58 17.2528 16.3334C17.088 16.0867 17 15.7967 17 15.5C17 15.1022 17.158 14.7206 17.4393 14.4393C17.7206 14.158 18.1022 14 18.5 14ZM15.5 9C15.7967 9 16.0867 9.08797 16.3334 9.2528C16.58 9.41762 16.7723 9.65189 16.8858 9.92597C16.9993 10.2001 17.0291 10.5017 16.9712 10.7926C16.9133 11.0836 16.7704 11.3509 16.5607 11.5607C16.3509 11.7704 16.0836 11.9133 15.7926 11.9712C15.5017 12.0291 15.2001 11.9994 14.926 11.8858C14.6519 11.7723 14.4176 11.58 14.2528 11.3334C14.088 11.0867 14 10.7967 14 10.5C14 10.1022 14.158 9.72064 14.4393 9.43934C14.7206 9.15804 15.1022 9 15.5 9ZM12.5 16C12.7967 16 13.0867 16.088 13.3334 16.2528C13.58 16.4176 13.7723 16.6519 13.8858 16.926C13.9994 17.2001 14.0291 17.5017 13.9712 17.7926C13.9133 18.0836 13.7704 18.3509 13.5607 18.5607C13.3509 18.7704 13.0836 18.9133 12.7926 18.9712C12.5017 19.0291 12.2001 18.9993 11.926 18.8858C11.6519 18.7723 11.4176 18.58 11.2528 18.3334C11.088 18.0867 11 17.7967 11 17.5C11 17.1022 11.158 16.7206 11.4393 16.4393C11.7206 16.158 12.1022 16 12.5 16ZM25 24H7C6.73478 24 6.48043 23.8946 6.29289 23.7071C6.10536 23.5196 6 23.2652 6 23V9C6 8.73478 6.10536 8.48043 6.29289 8.29289C6.48043 8.10536 6.73478 8 7 8C7.26522 8 7.51957 8.10536 7.70711 8.29289C7.89464 8.48043 8 8.73478 8 9V22H25C25.2652 22 25.5196 22.1054 25.7071 22.2929C25.8946 22.4804 26 22.7348 26 23C26 23.2652 25.8946 23.5196 25.7071 23.7071C25.5196 23.8946 25.2652 24 25 24Z" />
</svg>
