<svg width="24" height="24" viewBox="0 0 24 24" fill="none" xmlns="http://www.w3.org/2000/svg">
<path d="M16 16C16.7956 16 17.5587 16.3161 18.1213 16.8787C18.6839 17.4413 19 18.2044 19 19C19 19.7956 18.6839 20.5587 18.1213 21.1213C17.5587 21.6839 16.7956 22 16 22C15.2044 22 14.4413 21.6839 13.8787 21.1213C13.3161 20.5587 13 19.7956 13 19C13 18.2044 13.3161 17.4413 13.8787 16.8787C14.4413 16.3161 15.2044 16 16 16ZM6 12C8.21 12 10 13.79 10 16C10 18.21 8.21 20 6 20C3.79 20 2 18.21 2 16C2 13.79 3.79 12 6 12ZM14.5 2C15.9587 2 17.3576 2.57946 18.3891 3.61091C19.4205 4.64236 20 6.04131 20 7.5C20 8.95869 19.4205 10.3576 18.3891 11.3891C17.3576 12.4205 15.9587 13 14.5 13C13.0413 13 11.6424 12.4205 10.6109 11.3891C9.57946 10.3576 9 8.95869 9 7.5C9 6.04131 9.57946 4.64236 10.6109 3.61091C11.6424 2.57946 13.0413 2 14.5 2Z" fill="#212134"/>
</svg>
