<svg width="24" height="24" viewBox="0 0 24 24" fill="none" xmlns="http://www.w3.org/2000/svg">
<path d="M11 2.05001V5.07001C9.94492 5.22276 8.93867 5.61449 8.05802 6.21529C7.17736 6.8161 6.44557 7.61012 5.91847 8.53677C5.39137 9.46343 5.08289 10.4982 5.01656 11.5622C4.95023 12.6263 5.1278 13.6914 5.53573 14.6763C5.94366 15.6613 6.57118 16.54 7.37039 17.2455C8.16961 17.9511 9.11942 18.4647 10.1474 18.7473C11.1753 19.03 12.2542 19.074 13.3018 18.8762C14.3493 18.6784 15.3379 18.244 16.192 17.606L18.329 19.743C16.5442 21.2053 14.3073 22.003 12 22C6.477 22 2 17.523 2 12C2 6.81501 5.947 2.55101 11 2.05001ZM21.95 13C21.7566 14.955 20.9886 16.8089 19.743 18.328L17.606 16.192C18.3084 15.2562 18.7634 14.1583 18.929 13H21.951H21.95ZM13.002 2.05001C15.2969 2.28139 17.4414 3.29868 19.0724 4.92965C20.7033 6.56063 21.7206 8.7051 21.952 11H18.93C18.7135 9.50459 18.0193 8.11925 16.951 7.05072C15.8826 5.98218 14.4974 5.28774 13.002 5.07101V2.04901V2.05001Z" fill="#212134"/>
</svg>
