<svg width="24" height="24" viewBox="0 0 24 24" fill="none" xmlns="http://www.w3.org/2000/svg">
<circle cx="12" cy="12" r="12" fill="#212134"/>
<path d="M15.9376 8.86647C16.0254 8.95434 16.0254 9.0968 15.9376 9.18467L13.1222 12L15.9376 14.8153C16.0254 14.9032 16.0254 15.0457 15.9376 15.1335L15.1335 15.9375C15.0457 16.0254 14.9032 16.0254 14.8154 15.9375L12 13.1222L9.18469 15.9375C9.09683 16.0254 8.95436 16.0254 8.8665 15.9375L8.06248 15.1335C7.97461 15.0457 7.97461 14.9032 8.06248 14.8153L10.8778 12L8.06248 9.18467C7.97461 9.0968 7.97461 8.95434 8.06248 8.86647L8.8665 8.06246C8.95436 7.97459 9.09683 7.97459 9.18469 8.06246L12 10.8778L14.8154 8.06246C14.9032 7.97459 15.0457 7.97459 15.1335 8.06246L15.9376 8.86647Z" fill="#F6F6F9"/>
</svg>
