<svg width="24" height="24" viewBox="0 0 24 24" fill="none" xmlns="http://www.w3.org/2000/svg">
<path d="M6.99993 20.981C5.63398 20.8761 4.3361 20.3423 3.29159 19.4559C2.24709 18.5694 1.50937 17.3756 1.18379 16.0449C0.858208 14.7141 0.961403 13.3146 1.47864 12.046C1.99588 10.7774 2.90071 9.7047 4.06393 8.98101C4.31145 7.0511 5.25373 5.27751 6.71445 3.99217C8.17517 2.70682 10.0542 1.9978 11.9999 1.9978C13.9457 1.9978 15.8247 2.70682 17.2854 3.99217C18.7461 5.27751 19.6884 7.0511 19.9359 8.98101C21.0992 9.7047 22.004 10.7774 22.5212 12.046C23.0385 13.3146 23.1417 14.7141 22.8161 16.0449C22.4905 17.3756 21.7528 18.5694 20.7083 19.4559C19.6638 20.3423 18.3659 20.8761 16.9999 20.981V21H6.99993V20.981ZM12.9999 13H15.9999L11.9999 8.00001L7.99993 13H10.9999V17H12.9999V13Z" fill="#212134"/>
</svg>
