<svg width="24" height="24" viewBox="0 0 24 24" fill="none" xmlns="http://www.w3.org/2000/svg">
<path d="M17.0001 7C15.3714 6.99986 13.7814 7.49666 12.4426 8.42404C11.1037 9.35142 10.0796 10.6652 9.50712 12.19L11.3811 12.893C11.8761 11.5784 12.8165 10.4791 14.0386 9.78642C15.2606 9.09376 16.6869 8.85168 18.0691 9.10232C19.4512 9.35297 20.7017 10.0805 21.6027 11.1581C22.5037 12.2358 22.9982 13.5953 23.0001 15C23.0001 16.5913 22.368 18.1174 21.2428 19.2426C20.1175 20.3679 18.5914 21 17.0001 21H7.00012C5.58335 21.0009 4.21197 20.5004 3.12881 19.5872C2.04565 18.6739 1.32059 17.4069 1.08202 16.0103C0.843459 14.6138 1.10678 13.1779 1.82535 11.9569C2.54393 10.7358 3.6714 9.80848 5.00812 9.339C4.92247 7.61162 5.47932 5.91368 6.57134 4.57252C7.66335 3.23136 9.2132 2.34195 10.9221 2.07574C12.631 1.80954 14.3779 2.1854 15.8262 3.13085C17.2744 4.0763 18.3213 5.52441 18.7651 7.196C18.1858 7.06559 17.5939 6.99985 17.0001 7Z" fill="#212134"/>
</svg>
