<svg width="32" height="24" viewBox="0 0 32 24" fill="none" xmlns="http://www.w3.org/2000/svg">
<rect x="0.5" y="0.5" width="31" height="23" rx="2.5" fill="#4945FF" stroke="#4945FF"/>
<path d="M15.3281 10.5391H17.0508C17.0625 10.4512 17.0625 10.375 17.0625 10.2871C17.0625 8.61133 15.5918 7.32812 13.6523 7.32812C10.957 7.32812 9.00586 9.54883 9.00586 12.6719C9.00586 14.8223 10.3887 16.2168 12.5098 16.2168C14.5547 16.2168 16.1074 15.0625 16.4766 13.2812H14.7246C14.4492 14.1074 13.623 14.6523 12.6621 14.6523C11.5254 14.6523 10.8164 13.8496 10.8164 12.5488C10.8164 10.4688 12.0059 8.89844 13.541 8.89844C14.5781 8.89844 15.2871 9.51953 15.3281 10.457C15.3281 10.5098 15.3281 10.5273 15.3281 10.5391ZM21.0527 16L22.541 9.05664H25.0723L25.3828 7.54492H18.5391L18.2285 9.05664H20.7598L19.2715 16H21.0527Z" fill="white"/>
</svg>
