<svg width="24" height="24" viewBox="0 0 24 24" fill="none" xmlns="http://www.w3.org/2000/svg">
<path d="M2.71916 3.12072C2.62633 3.11951 2.53436 3.13879 2.44972 3.1772C2.36508 3.21561 2.28981 3.27223 2.2292 3.34307C2.16859 3.41391 2.12411 3.49726 2.09888 3.58726C2.07366 3.67727 2.06829 3.77174 2.08317 3.86406L4.78303 20.3753C4.81666 20.5774 4.91989 20.7611 5.07458 20.8941C5.22928 21.0271 5.42555 21.1009 5.62891 21.1026H18.5811C18.7336 21.1045 18.8816 21.0513 18.9983 20.9525C19.1151 20.8537 19.1927 20.716 19.2171 20.5644L21.917 3.86726C21.9318 3.77495 21.9265 3.68048 21.9012 3.59049C21.876 3.5005 21.8315 3.41717 21.7709 3.34635C21.7103 3.27552 21.635 3.21893 21.5503 3.18053C21.4657 3.14213 21.3737 3.12286 21.2809 3.12408L2.71916 3.12072ZM14.0877 15.0541H9.95369L8.83433 9.16271H15.0895L14.0877 15.0541Z" fill="#2684FF"/>
<path d="M21.0419 9.15445H15.0779L14.0769 15.0412H9.94624L5.06885 20.8734C5.22344 21.0081 5.42053 21.0829 5.62488 21.0846H18.57C18.7223 21.0866 18.8702 21.0334 18.9869 20.9347C19.1035 20.836 19.1811 20.6984 19.2055 20.5469L21.0419 9.15445Z" fill="url(#paint0_linear_12705_23254)"/>
<defs>
<linearGradient id="paint0_linear_12705_23254" x1="22.4209" y1="10.803" x2="15.4632" y2="20.6093" gradientUnits="userSpaceOnUse">
<stop offset="0.18" stop-color="#0052CC"/>
<stop offset="1" stop-color="#2684FF"/>
</linearGradient>
</defs>
</svg>
