<svg width="24" height="24" viewBox="0 0 24 24" fill="none" xmlns="http://www.w3.org/2000/svg">
<path d="M11.9994 21.4208L15.6839 10.0874H8.32031L11.9994 21.4208Z" fill="#D02B20"/>
<path d="M3.15939 10.0874L2.03738 13.5307C1.93585 13.8433 2.0455 14.1884 2.31349 14.3833L11.9993 21.4208L3.15939 10.0874Z" fill="#FCA326"/>
<path d="M3.15967 10.0874H8.32041L6.09937 3.2619C5.9857 2.9127 5.4903 2.9127 5.37253 3.2619L3.15967 10.0874Z" fill="#D02B20"/>
<path d="M20.8446 10.0874L21.9625 13.5307C22.0641 13.8433 21.9544 14.1884 21.6864 14.3833L11.9993 21.4208L20.8446 10.0874Z" fill="#FCA326"/>
<path d="M20.8448 10.0874H15.6841L17.901 3.2619C18.0147 2.9127 18.5101 2.9127 18.6279 3.2619L20.8448 10.0874Z" fill="#D02B20"/>
<path d="M11.9993 21.4208L15.6838 10.0874H20.8446L11.9993 21.4208Z" fill="#FC6D26"/>
<path d="M11.9995 21.4208L3.15967 10.0874H8.32041L11.9995 21.4208Z" fill="#FC6D26"/>
</svg>
