<svg width="24" height="24" viewBox="0 0 24 24" xmlns="http://www.w3.org/2000/svg">
  <path
    d="M3.98.027a4.485 4.485 0 0 0-1.64.507C.885 1.308 0 2.802 0 4.485 0 6.759 1.577 8.628 3.828 9.02c.267.047.715.06 2.037.06H7.56v5.84H5.95c-.928 0-1.762.019-1.97.044a4.474 4.474 0 0 0-1.445.435C.974 16.165 0 17.747 0 19.515c0 1.229.451 2.328 1.304 3.181a4.387 4.387 0 0 0 6.234.002c.573-.572.945-1.225 1.174-2.058l.105-.38.014-2.01.014-2.01h6.31l.014 2.01.014 2.01.105.38c.39 1.419 1.329 2.5 2.624 3.022.536.217.902.296 1.491.326a4.345 4.345 0 0 0 3.294-1.293c.85-.85 1.303-1.955 1.303-3.18 0-2.327-1.7-4.271-3.98-4.551-.208-.025-1.042-.044-1.97-.044h-1.61V9.08h1.695c1.832 0 2.058-.019 2.712-.224C22.719 8.269 24 6.492 24 4.485c0-1.185-.44-2.297-1.231-3.109C21.429-.001 19.426-.381 17.73.42c-1.244.588-2.069 1.58-2.442 2.94l-.105.38-.014 2.03-.014 2.03h-6.31l-.014-2.03-.014-2.03-.105-.38C8.427 2.323 7.877 1.498 7.06.883 6.712.621 5.998.269 5.6.163 5.094.028 4.427-.028 3.98.027m1.132 1.317c.932.192 1.765.871 2.185 1.782.249.539.263.691.263 2.816v1.906l-1.73-.019c-1.853-.02-1.992-.034-2.509-.242-.422-.171-.689-.355-1.081-.747-.526-.527-.779-.982-.902-1.625-.077-.399-.074-1.102.006-1.487.234-1.136 1.227-2.14 2.357-2.382a4.203 4.203 0 0 1 1.411-.002m15.16 0c1.15.237 2.147 1.234 2.384 2.384.08.385.083 1.088.006 1.487-.123.643-.376 1.098-.902 1.625-.392.392-.659.576-1.081.747-.517.208-.656.222-2.509.242l-1.73.019V5.942c0-2.125.014-2.277.263-2.816.414-.898 1.247-1.584 2.158-1.78a4.203 4.203 0 0 1 1.411-.002M15.16 12v2.96H8.84V9.04h6.32V12m-7.6 6.082c0 2.099-.015 2.254-.263 2.792a3.182 3.182 0 0 1-2.19 1.788c-.36.081-1.019.079-1.392-.005-1.16-.26-2.136-1.241-2.371-2.385-.129-.622-.063-1.504.15-2.032.347-.859 1.148-1.614 2.017-1.898.371-.121.558-.133 2.319-.137l1.73-.005v1.882m12.86-1.766c.943.314 1.728 1.037 2.086 1.924.208.516.279 1.426.156 2.007a3.185 3.185 0 0 1-2.377 2.41c-.373.084-1.032.086-1.392.005a3.182 3.182 0 0 1-2.19-1.788c-.248-.538-.263-.693-.263-2.795v-1.884l1.85.014c1.811.014 1.856.016 2.13.107"
    fill-rule="evenodd" />
</svg>