<svg width="24" height="24" viewBox="0 0 24 24" fill="none" xmlns="http://www.w3.org/2000/svg">
<path d="M4.80004 0.199999C4.80004 0.0895427 4.88958 0 5.00004 0H23.8C23.9105 0 24 0.0895429 24 0.2V4.59999C24 4.71045 23.9105 4.79999 23.8 4.79999H5.00004C4.88958 4.79999 4.80004 4.71045 4.80004 4.59999V0.199999Z" fill="#212134"/>
<path d="M0 9.80008C0 9.68962 0.0895429 9.60008 0.2 9.60008H19C19.1104 9.60008 19.2 9.68962 19.2 9.80008V14.2001C19.2 14.3105 19.1104 14.4001 19 14.4001H0.2C0.0895433 14.4001 0 14.3105 0 14.2001V9.80008Z" fill="#212134"/>
<path d="M5.00004 19.1999C4.88958 19.1999 4.80004 19.2895 4.80004 19.3999V23.7999C4.80004 23.9104 4.88958 23.9999 5.00004 23.9999H23.8C23.9105 23.9999 24 23.9104 24 23.7999V19.3999C24 19.2895 23.9105 19.1999 23.8 19.1999H5.00004Z" fill="#212134"/>
</svg>
