<svg width="20" height="24" viewBox="0 0 20 24" fill="none" xmlns="http://www.w3.org/2000/svg">
<path fill-rule="evenodd" clip-rule="evenodd" d="M4 7H2V10.1C2 12.8 4.2 15 6.9 15H7C9.7 15 11.9 12.8 11.9 10.1V7H10H4ZM11 5V1C11 0.4 10.6 0 10 0C9.4 0 9 0.4 9 1V5H5V1C5 0.4 4.6 0 4 0C3.4 0 3 0.4 3 1V5H1C0.4 5 0 5.4 0 6V10.1C0 13.5878 2.61159 16.4859 5.97898 16.9386C6.35353 19.8211 8.06952 24 13 24C18.5 24 20 18.8 20 16V9H19H18V16C18 16.2 17.9 22 13 22C9.19221 22 8.22628 18.6362 7.98213 16.9437C11.3683 16.5082 14 13.6012 14 10.1V6C14 5.4 13.6 5 13 5H11Z" fill="#32324D"/>
</svg>
