<svg width="24" height="24" viewBox="0 0 24 24" fill="none" xmlns="http://www.w3.org/2000/svg">
<path fill-rule="evenodd" clip-rule="evenodd" d="M6 7H4V10.1C4 12.8 6.2 15 8.9 15H9C11.7 15 13.9 12.8 13.9 10.1V7H12H6ZM13 5V1C13 0.4 12.6 0 12 0C11.4 0 11 0.4 11 1V5H7V1C7 0.4 6.6 0 6 0C5.4 0 5 0.4 5 1V5H3C2.4 5 2 5.4 2 6V10.1C2 13.5878 4.61159 16.4859 7.97898 16.9386C8.35353 19.8211 10.0695 24 15 24C20.5 24 22 18.8 22 16V9H21H20V16C20 16.2 19.9 22 15 22C11.1922 22 10.2263 18.6362 9.98213 16.9437C13.3683 16.5082 16 13.6012 16 10.1V6C16 5.4 15.6 5 15 5H13Z" fill="#212134"/>
</svg>
