<svg width="25" height="24" viewBox="0 0 25 24" fill="none" xmlns="http://www.w3.org/2000/svg">
<path d="M3 24H18C18.7957 24 19.5587 23.6839 20.1213 23.1213C20.6839 22.5587 21 21.7956 21 21V18C21 17.7348 20.8946 17.4804 20.7071 17.2929C20.5196 17.1054 20.2652 17 20 17C19.7348 17 19.4804 17.1054 19.2929 17.2929C19.1054 17.4804 19 17.7348 19 18V21C19 21.2652 18.8946 21.5196 18.7071 21.7071C18.5196 21.8946 18.2652 22 18 22H3C2.73478 22 2.48043 21.8946 2.29289 21.7071C2.10536 21.5196 2 21.2652 2 21V5.99999C2 5.73478 2.10536 5.48042 2.29289 5.29289C2.48043 5.10535 2.73478 4.99999 3 4.99999H6C6.26522 4.99999 6.51957 4.89464 6.70711 4.7071C6.89464 4.51956 7 4.26521 7 3.99999C7 3.73478 6.89464 3.48042 6.70711 3.29289C6.51957 3.10535 6.26522 2.99999 6 2.99999H3C2.20435 2.99999 1.44129 3.31606 0.87868 3.87867C0.316071 4.44128 0 5.20435 0 5.99999V21C0 21.7956 0.316071 22.5587 0.87868 23.1213C1.44129 23.6839 2.20435 24 3 24Z" fill="#212134"/>
<path d="M23.0009 0.00378894C23.2661 0.00378894 23.5205 0.109147 23.708 0.296683C23.8956 0.484219 24.0009 0.738575 24.0009 1.00379L24.0009 3.00379C23.997 6.71561 22.5207 10.2743 19.896 12.8989C17.2714 15.5236 13.7127 16.9998 10.0009 17.0038L8.41592 17.0038L5.70842 19.7113C5.52078 19.8989 5.26629 20.0044 5.00092 20.0044C4.73556 20.0044 4.48106 19.8989 4.29342 19.7113C4.10578 19.5237 4.00036 19.2692 4.00036 19.0038C4.00036 18.7384 4.10578 18.4839 4.29342 18.2963L7.00092 15.5888L7.00092 14.0038C7.00343 12.0256 7.42515 10.0703 8.2383 8.26692C9.05144 6.46353 10.2375 4.85293 11.7184 3.54129C11.8908 3.38793 12.111 3.29892 12.3416 3.28935C12.5721 3.27978 12.7989 3.35025 12.9834 3.48879L14.9834 4.95879C14.9909 4.95603 14.9972 4.95081 15.0013 4.94399C15.0053 4.93717 15.007 4.92917 15.0059 4.92129L15.0059 2.00379C15.006 1.80651 15.0644 1.61366 15.1739 1.44951C15.2833 1.28536 15.4389 1.15724 15.6209 1.08129C17.3249 0.36842 19.1538 0.00212574 21.0009 0.00378894L23.0009 0.00378894Z" fill="#212134"/>
</svg>
