<svg width="24" height="24" viewBox="0 0 24 24" fill="none" xmlns="http://www.w3.org/2000/svg">
<path d="M2.79989 5.20002L6.99989 8.00002L11.1859 2.14002C11.2784 2.01039 11.4005 1.90473 11.5421 1.83182C11.6837 1.75892 11.8406 1.72089 11.9999 1.72089C12.1591 1.72089 12.3161 1.75892 12.4577 1.83182C12.5993 1.90473 12.7214 2.01039 12.8139 2.14002L16.9999 8.00002L21.1999 5.20002C21.3588 5.09427 21.5447 5.03623 21.7356 5.03276C21.9265 5.02929 22.1144 5.08053 22.2771 5.18044C22.4398 5.28035 22.5705 5.42474 22.6537 5.59656C22.737 5.76837 22.7693 5.96042 22.7469 6.15002L21.1039 20.117C21.0752 20.3603 20.9583 20.5845 20.7753 20.7473C20.5922 20.9101 20.3558 21 20.1109 21H3.88889C3.64395 21 3.40755 20.9101 3.22451 20.7473C3.04148 20.5845 2.92454 20.3603 2.89589 20.117L1.25289 6.14902C1.23069 5.9595 1.26317 5.76759 1.34651 5.59594C1.42984 5.42428 1.56055 5.28006 1.7232 5.18028C1.88584 5.08051 2.07364 5.02935 2.26442 5.03285C2.45521 5.03634 2.641 5.09435 2.79989 5.20002ZM11.9999 15C12.5303 15 13.039 14.7893 13.4141 14.4142C13.7892 14.0392 13.9999 13.5305 13.9999 13C13.9999 12.4696 13.7892 11.9609 13.4141 11.5858C13.039 11.2107 12.5303 11 11.9999 11C11.4695 11 10.9607 11.2107 10.5857 11.5858C10.2106 11.9609 9.99989 12.4696 9.99989 13C9.99989 13.5305 10.2106 14.0392 10.5857 14.4142C10.9607 14.7893 11.4695 15 11.9999 15Z" fill="#212134"/>
</svg>
