<svg viewBox="0 0 32 32"
    xmlns="http://www.w3.org/2000/svg">
    <path d="M30.48 9.52371C30.2544 9.32702 29.9754 9.20181 29.6785 9.16397C29.3817 9.12614 29.0802 9.17739 28.8125 9.31121L22.5362 12.4362L17.2962 3.73246C17.1615 3.50912 16.9714 3.32437 16.7443 3.19612C16.5172 3.06788 16.2608 3.00049 16 3.00049C15.7392 3.00049 15.4828 3.06788 15.2557 3.19612C15.0286 3.32437 14.8384 3.50912 14.7037 3.73246L9.46375 12.44L3.19 9.31496C2.92292 9.18232 2.62262 9.13152 2.32678 9.16893C2.03094 9.20634 1.75274 9.33029 1.52709 9.52523C1.30143 9.72017 1.13839 9.97742 1.0584 10.2647C0.978416 10.552 0.985058 10.8565 1.07749 11.14L5.70249 25.31C5.749 25.4523 5.82688 25.5824 5.93039 25.6906C6.0339 25.7989 6.16039 25.8825 6.30054 25.9353C6.44068 25.988 6.59089 26.0087 6.74008 25.9957C6.88927 25.9826 7.03363 25.9363 7.16249 25.86C7.19374 25.8412 10.39 24 16 24C21.61 24 24.8062 25.8412 24.835 25.8587C24.9639 25.9357 25.1085 25.9827 25.2581 25.9962C25.4076 26.0097 25.5583 25.9893 25.6989 25.9366C25.8396 25.8839 25.9665 25.8002 26.0703 25.6917C26.1742 25.5832 26.2522 25.4528 26.2987 25.31L30.9237 11.1437C31.0188 10.8601 31.0274 10.5547 30.9484 10.2662C30.8694 9.9777 30.7063 9.71925 30.48 9.52371ZM21.98 19.6C21.9392 19.8313 21.8182 20.0409 21.6384 20.192C21.4585 20.343 21.2311 20.426 20.9962 20.4262C20.9376 20.4261 20.8791 20.4211 20.8212 20.4112C17.6271 19.8629 14.3629 19.8629 11.1687 20.4112C11.0394 20.434 10.9068 20.4311 10.7786 20.4027C10.6503 20.3743 10.529 20.3209 10.4214 20.2456C10.204 20.0934 10.0561 19.8612 10.01 19.6C9.96391 19.3387 10.0235 19.0699 10.1756 18.8526C10.3278 18.6353 10.56 18.4873 10.8212 18.4412C14.2453 17.8529 17.7447 17.8529 21.1687 18.4412C21.2986 18.4634 21.4227 18.5111 21.5341 18.5814C21.6454 18.6517 21.7418 18.7433 21.8176 18.851C21.8935 18.9587 21.9473 19.0803 21.976 19.2088C22.0047 19.3373 22.0078 19.4703 21.985 19.6H21.98Z" />
</svg>
