<svg width="32" height="24" viewBox="0 0 32 24" fill="none" xmlns="http://www.w3.org/2000/svg">
<rect x="0.5" y="0.5" width="31" height="23" rx="2.5" fill="#0C75AF" stroke="#0C75AF"/>
<path d="M8.52344 13.5859C8.62891 15.2266 9.94141 16.2168 11.8633 16.2168C13.9609 16.2168 15.3789 15.1035 15.3789 13.4277C15.3789 12.2852 14.7285 11.582 13.293 11.1309L12.4258 10.8613C11.6289 10.6094 11.2891 10.2637 11.2891 9.79492C11.2891 9.19727 11.9219 8.76367 12.748 8.76367C13.6211 8.76367 14.2598 9.23828 14.3652 9.94727H16.0352C15.9824 8.40625 14.6758 7.32812 12.8184 7.32812C10.9082 7.32812 9.49023 8.45898 9.49023 10.0059C9.49023 11.0957 10.2051 11.9277 11.4531 12.3145L12.332 12.5898C13.2461 12.877 13.5977 13.1816 13.5977 13.6738C13.5977 14.3359 12.9414 14.7812 11.9922 14.7812C11.0781 14.7812 10.3574 14.3125 10.2344 13.5859H8.52344ZM20.1074 16L21.5957 9.05664H24.127L24.4375 7.54492H17.5938L17.2832 9.05664H19.8145L18.3262 16H20.1074Z" fill="white"/>
</svg>
