<svg width="24" height="24" viewBox="0 0 24 24" fill="none" xmlns="http://www.w3.org/2000/svg">
<path d="M20.04 0H3.96C2.604 0 1.5 1.10239 1.5 2.46838V18.6687C1.5 20.0347 2.604 21.137 3.96 21.137H17.568L16.932 18.9203L18.468 20.3462L19.92 21.6882L22.5 23.9649V2.46838C22.5 1.10239 21.396 0 20.04 0ZM15.408 15.6491C15.408 15.6491 14.976 15.1338 14.616 14.6785C16.188 14.2351 16.788 13.2526 16.788 13.2526C16.296 13.5761 15.828 13.8038 15.408 13.9595C14.808 14.2112 14.232 14.3789 13.668 14.4748C12.516 14.6905 11.46 14.6306 10.56 14.4628C9.876 14.331 9.288 14.1393 8.796 13.9476C8.52 13.8397 8.22 13.7079 7.92 13.5402C7.884 13.5162 7.848 13.5042 7.812 13.4803C7.788 13.4683 7.776 13.4563 7.764 13.4443C7.548 13.3245 7.428 13.2406 7.428 13.2406C7.428 13.2406 8.004 14.1992 9.528 14.6545C9.168 15.1099 8.724 15.6491 8.724 15.6491C6.072 15.5652 5.064 13.8277 5.064 13.8277C5.064 9.9694 6.792 6.84198 6.792 6.84198C8.52 5.54787 10.164 5.58382 10.164 5.58382L10.284 5.72761C8.124 6.3507 7.128 7.29731 7.128 7.29731C7.128 7.29731 7.392 7.15352 7.836 6.94982C9.12 6.38664 10.14 6.23087 10.56 6.19493C10.632 6.18294 10.692 6.17096 10.764 6.17096C11.496 6.0751 12.324 6.05114 13.188 6.147C14.328 6.2788 15.552 6.61431 16.8 7.29731C16.8 7.29731 15.852 6.39863 13.812 5.77554L13.98 5.58382C13.98 5.58382 15.624 5.54787 17.352 6.84198C17.352 6.84198 19.08 9.9694 19.08 13.8277C19.08 13.8277 18.06 15.5652 15.408 15.6491ZM9.828 10.0533C9.144 10.0533 8.604 10.6524 8.604 11.3833C8.604 12.1143 9.156 12.7134 9.828 12.7134C10.512 12.7134 11.052 12.1143 11.052 11.3833C11.064 10.6524 10.512 10.0533 9.828 10.0533ZM14.208 10.0533C13.524 10.0533 12.984 10.6524 12.984 11.3833C12.984 12.1143 13.536 12.7134 14.208 12.7134C14.892 12.7134 15.432 12.1143 15.432 11.3833C15.432 10.6524 14.892 10.0533 14.208 10.0533Z" fill="#7289DA"/>
</svg>
