<svg width="24" height="24" viewBox="0 0 24 24" fill="none" xmlns="http://www.w3.org/2000/svg">
<path d="M16.8 19L14 22.5L11.2 19H6C5.73478 19 5.48043 18.8946 5.29289 18.7071C5.10536 18.5196 5 18.2652 5 18V7.103C5 6.83778 5.10536 6.58343 5.29289 6.39589C5.48043 6.20836 5.73478 6.103 6 6.103H22C22.2652 6.103 22.5196 6.20836 22.7071 6.39589C22.8946 6.58343 23 6.83778 23 7.103V18C23 18.2652 22.8946 18.5196 22.7071 18.7071C22.5196 18.8946 22.2652 19 22 19H16.8ZM2 2H19V4H3V15H1V3C1 2.73478 1.10536 2.48043 1.29289 2.29289C1.48043 2.10536 1.73478 2 2 2Z" fill="#212134"/>
</svg>
