<svg width="24" height="24" viewBox="0 0 24 24" fill="none" xmlns="http://www.w3.org/2000/svg">
<path d="M12.1027 0C5.53218 0 0 5.2781 0 11.7908C0 12.0012 0 24 0 24L12.1003 23.9884C18.6708 23.9884 24 18.5069 24 11.9965C24 5.48618 18.6661 0 12.1027 0Z" fill="#212134"/>
<path d="M12.2192 4.56372C10.9417 4.56447 9.68629 4.89387 8.57587 5.5197C7.46544 6.14552 6.53804 7.04631 5.88445 8.13389C5.23086 9.22147 4.87348 10.4586 4.84728 11.7241C4.82109 12.9896 5.12698 14.2402 5.73502 15.3534L4.40039 19.6074L9.19292 18.5346C10.1958 18.9823 11.287 19.2021 12.3866 19.1778C13.4863 19.1536 14.5666 18.886 15.5483 18.3945C16.5301 17.9031 17.3885 17.2003 18.0607 16.3376C18.7328 15.4749 19.2017 14.4741 19.4331 13.4087C19.6644 12.3432 19.6523 11.2399 19.3976 10.1796C19.1429 9.11938 18.6522 8.12899 17.9612 7.281C17.2703 6.433 16.3966 5.74887 15.4043 5.27871C14.412 4.80855 13.3261 4.56425 12.2262 4.56372H12.2192Z" fill="#FFF9AE"/>
<path d="M18.071 7.42587C19.0652 8.71741 19.5966 10.3004 19.5813 11.9247C19.566 13.5489 19.0048 15.1218 17.9864 16.3947C16.9681 17.6676 15.5506 18.5679 13.9581 18.9534C12.3656 19.3388 10.6889 19.1874 9.19292 18.5231L4.40039 19.6097L9.27925 19.0386C10.8416 19.9454 12.686 20.2509 14.4611 19.8969C16.2361 19.5429 17.8176 18.554 18.9041 17.1189C19.9906 15.6837 20.5062 13.9026 20.3526 12.115C20.1989 10.3274 19.3868 8.65831 18.071 7.42587Z" fill="#00AEEF"/>
<path d="M16.713 6.07803C17.8378 7.25966 18.5331 8.779 18.689 10.3959C18.8448 12.0128 18.4525 13.6351 17.5738 15.0064C16.6952 16.3776 15.3804 17.4197 13.8373 17.9678C12.2942 18.5159 10.6107 18.5388 9.05293 18.0329L4.40039 19.6097L9.19292 18.5346C10.8417 19.2726 12.7068 19.3841 14.4333 18.848C16.1597 18.3119 17.6269 17.1655 18.5556 15.6271C19.4844 14.0886 19.8099 12.2655 19.4701 10.5048C19.1304 8.74399 18.1491 7.16846 16.713 6.07803Z" fill="#328048"/>
<path d="M6.17601 15.5153C5.5279 13.9673 5.43642 12.2457 5.91689 10.6389C6.39737 9.03205 7.42061 7.63767 8.81514 6.6894C10.2097 5.74112 11.8908 5.29657 13.5767 5.43023C15.2627 5.56389 16.8511 6.26764 18.0757 7.42356C16.9487 5.95815 15.3047 4.96857 13.4728 4.65295C11.6409 4.33733 9.75627 4.71895 8.19621 5.72141C6.63615 6.72387 5.5158 8.2732 5.05943 10.0592C4.60306 11.8453 4.84436 13.7362 5.73502 15.3534L4.40039 19.6074L6.17601 15.5153Z" fill="#F15D22"/>
<path d="M5.7352 15.3534C4.93096 13.8815 4.66103 12.1806 4.97053 10.5352C5.28004 8.88974 6.15023 7.39942 7.43561 6.31338C8.721 5.22735 10.3437 4.61143 12.0324 4.5686C13.7211 4.52576 15.3734 5.0586 16.7132 6.07803C15.436 4.74552 13.6991 3.93869 11.8484 3.8183C9.99775 3.69791 8.16924 4.27279 6.7272 5.42841C5.28515 6.58403 4.33544 8.23554 4.06727 10.0539C3.79911 11.8723 4.23218 13.724 5.28021 15.2402L4.4029 19.6097L5.7352 15.3534Z" fill="#D02B20"/>
</svg>
