<svg width="24" height="25" viewBox="0 0 24 25" fill="none" xmlns="http://www.w3.org/2000/svg">
<path fill-rule="evenodd" clip-rule="evenodd" d="M13.5714 5.85031H10.4286V14.3209H2.48691C2.30816 14.3209 2.21919 14.5375 2.34633 14.6632L11.8594 24.0643C11.9373 24.1413 12.0627 24.1413 12.1406 24.0643L21.6537 14.6632C21.7808 14.5375 21.6918 14.3209 21.5131 14.3209H13.5714V5.85031ZM2.2 3.02675C2.08954 3.02675 2 2.9372 2 2.82675V0.403217C2 0.292761 2.08954 0.203217 2.2 0.203217H21.8C21.9105 0.203217 22 0.292761 22 0.403217V2.82675C22 2.9372 21.9105 3.02675 21.8 3.02675H2.2Z" fill="#212134"/>
</svg>
