<svg width="24" height="24" viewBox="0 0 24 24" fill="none" xmlns="http://www.w3.org/2000/svg">
<path d="M16.5627 5.58666C17.9452 5.58666 19.0659 4.46595 19.0659 3.08348C19.0659 1.70101 17.9452 0.580291 16.5627 0.580291C15.1803 0.580291 14.0596 1.70101 14.0596 3.08348C14.0596 4.46595 15.1803 5.58666 16.5627 5.58666Z" fill="#212134"/>
<path d="M18.4866 3.08344C18.475 3.87148 17.9998 4.59578 17.2581 4.8797C16.4875 5.17522 15.6009 4.93765 15.0737 4.30606C14.5637 3.69185 14.5 2.79951 14.8998 2.10997C15.2996 1.42623 16.0993 1.0438 16.8815 1.18287C17.8086 1.34511 18.4692 2.15054 18.4866 3.08344C18.4982 3.83091 19.657 3.83091 19.6454 3.08344C19.6223 1.7681 18.8053 0.615017 17.5653 0.168847C16.389 -0.254145 14.9983 0.139875 14.2045 1.10175C13.3759 2.10418 13.2368 3.55278 13.9206 4.6769C14.5985 5.80101 15.9138 6.35148 17.1944 6.10812C18.6256 5.83578 19.6223 4.51465 19.6454 3.08923C19.657 2.33596 18.4982 2.33596 18.4866 3.08344Z" fill="#212134"/>
<path d="M16.5627 14.3716C17.9452 14.3716 19.0659 13.2509 19.0659 11.8684C19.0659 10.486 17.9452 9.36525 16.5627 9.36525C15.1803 9.36525 14.0596 10.486 14.0596 11.8684C14.0596 13.2509 15.1803 14.3716 16.5627 14.3716Z" fill="#212134"/>
<path d="M18.4866 11.8675C18.475 12.6556 17.9998 13.3799 17.2581 13.6638C16.4875 13.9593 15.6009 13.7217 15.0737 13.0901C14.5637 12.4759 14.5 11.5836 14.8998 10.8941C15.2996 10.2103 16.0993 9.82788 16.8815 9.96695C17.8086 10.1234 18.4692 10.9346 18.4866 11.8675C18.4982 12.615 19.657 12.615 19.6454 11.8675C19.6223 10.5522 18.8053 9.39909 17.5653 8.95292C16.389 8.52993 14.9983 8.92395 14.2045 9.88582C13.3759 10.8883 13.2368 12.3369 13.9206 13.461C14.5985 14.5851 15.9138 15.1356 17.1944 14.8922C18.6256 14.6199 19.6223 13.2987 19.6454 11.8733C19.657 11.12 18.4982 11.12 18.4866 11.8675Z" fill="#212134"/>
<path d="M16.5627 23.392C17.9452 23.392 19.0659 22.2713 19.0659 20.8888C19.0659 19.5064 17.9452 18.3857 16.5627 18.3857C15.1803 18.3857 14.0596 19.5064 14.0596 20.8888C14.0596 22.2713 15.1803 23.392 16.5627 23.392Z" fill="#212134"/>
<path d="M18.4866 20.8894C18.475 21.6775 17.9998 22.4018 17.2581 22.6857C16.4875 22.9812 15.6009 22.7437 15.0737 22.1121C14.5637 21.4979 14.5 20.6055 14.8998 19.916C15.2996 19.2322 16.0993 18.8498 16.8815 18.9889C17.8086 19.1453 18.4692 19.9565 18.4866 20.8894C18.4982 21.6369 19.657 21.6369 19.6454 20.8894C19.6223 19.5741 18.8053 18.421 17.5653 17.9749C16.389 17.5519 14.9983 17.9459 14.2045 18.9078C13.3759 19.9102 13.2368 21.3588 13.9206 22.4829C14.5985 23.607 15.9138 24.1575 17.1944 23.9141C18.6256 23.6418 19.6223 22.3207 19.6454 20.8952C19.657 20.142 18.4982 20.142 18.4866 20.8894Z" fill="#212134"/>
<path d="M7.37842 5.62154C8.76089 5.62154 9.88161 4.50083 9.88161 3.11836C9.88161 1.73589 8.76089 0.615173 7.37842 0.615173C5.99595 0.615173 4.87524 1.73589 4.87524 3.11836C4.87524 4.50083 5.99595 5.62154 7.37842 5.62154Z" fill="#212134"/>
<path d="M9.30225 3.11859C9.29066 3.90663 8.81552 4.63093 8.07383 4.91486C7.30318 5.21037 6.41663 4.9728 5.88934 4.34121C5.37943 3.727 5.3157 2.83467 5.71551 2.14513C6.11532 1.46139 6.91495 1.07896 7.6972 1.21803C8.6301 1.38027 9.29066 2.18569 9.30225 3.11859C9.31384 3.86607 10.4727 3.86607 10.4611 3.11859C10.438 1.80326 9.62094 0.650173 8.38094 0.204003C7.20467 -0.218989 5.81401 0.175031 5.02018 1.1369C4.19158 2.13934 4.05251 3.58794 4.73625 4.71205C5.4142 5.83617 6.72953 6.38664 8.0101 6.14327C9.44132 5.87094 10.438 4.54981 10.4611 3.12439C10.4727 2.37111 9.31384 2.37111 9.30225 3.11859Z" fill="#212134"/>
<path d="M7.37842 14.4062C8.76089 14.4062 9.88161 13.2855 9.88161 11.903C9.88161 10.5206 8.76089 9.39986 7.37842 9.39986C5.99595 9.39986 4.87524 10.5206 4.87524 11.903C4.87524 13.2855 5.99595 14.4062 7.37842 14.4062Z" fill="#212134"/>
<path d="M9.30225 11.9024C9.29066 12.6904 8.81552 13.4147 8.07383 13.6987C7.30318 13.9942 6.41663 13.7566 5.88934 13.125C5.37943 12.5108 5.3157 11.6185 5.71551 10.9289C6.11532 10.2452 6.91495 9.86276 7.6972 10.0018C8.6301 10.1641 9.29066 10.9695 9.30225 11.9024C9.31384 12.6499 10.4727 12.6499 10.4611 11.9024C10.438 10.5871 9.62094 9.43398 8.38094 8.98781C7.20467 8.56481 5.81401 8.95883 5.02018 9.92071C4.19158 10.9231 4.05251 12.3717 4.73625 13.4959C5.4142 14.62 6.72953 15.1704 8.0101 14.9271C9.44132 14.6547 10.438 13.3336 10.4611 11.9082C10.4727 11.1549 9.31384 11.1549 9.30225 11.9024Z" fill="#212134"/>
<path d="M7.37842 23.4266C8.76089 23.4266 9.88161 22.3059 9.88161 20.9235C9.88161 19.541 8.76089 18.4203 7.37842 18.4203C5.99595 18.4203 4.87524 19.541 4.87524 20.9235C4.87524 22.3059 5.99595 23.4266 7.37842 23.4266Z" fill="#212134"/>
<path d="M9.30225 20.9243C9.29066 21.7124 8.81552 22.4367 8.07383 22.7206C7.30318 23.0161 6.41663 22.7785 5.88934 22.1469C5.37943 21.5327 5.3157 20.6404 5.71551 19.9509C6.11532 19.2671 6.91495 18.8847 7.6972 19.0238C8.6301 19.1802 9.29066 19.9914 9.30225 20.9243C9.31384 21.6718 10.4727 21.6718 10.4611 20.9243C10.438 19.609 9.62094 18.4559 8.38094 18.0097C7.20467 17.5867 5.81401 17.9808 5.02018 18.9426C4.19158 19.9451 4.05251 21.3937 4.73625 22.512C5.4142 23.6361 6.72953 24.1866 8.0101 23.9432C9.44132 23.6709 10.438 22.3497 10.4611 20.9243C10.4727 20.1768 9.31384 20.1768 9.30225 20.9243Z" fill="#212134"/>
</svg>
