<svg width="24" height="24" viewBox="0 0 24 24" fill="none" xmlns="http://www.w3.org/2000/svg">
<path d="M16.5628 5.58645C17.9452 5.58645 19.0659 4.46574 19.0659 3.08327C19.0659 1.70079 17.9452 0.580078 16.5628 0.580078C15.1803 0.580078 14.0596 1.70079 14.0596 3.08327C14.0596 4.46574 15.1803 5.58645 16.5628 5.58645Z" fill="#32324D"/>
<path d="M18.4866 3.08344C18.475 3.87148 17.9999 4.59578 17.2582 4.87971C16.4875 5.17522 15.601 4.93765 15.0737 4.30606C14.5638 3.69185 14.5 2.79951 14.8998 2.10998C15.2997 1.42624 16.0993 1.0438 16.8815 1.18287C17.8086 1.34511 18.4692 2.15054 18.4866 3.08344C18.4982 3.83092 19.6571 3.83092 19.6455 3.08344C19.6223 1.76811 18.8053 0.615018 17.5653 0.168847C16.389 -0.254145 14.9983 0.139875 14.2045 1.10175C13.3759 2.10418 13.2368 3.55279 13.9206 4.6769C14.5985 5.80102 15.9139 6.35149 17.1944 6.10813C18.6257 5.83579 19.6223 4.51466 19.6455 3.08923C19.6571 2.33596 18.4982 2.33596 18.4866 3.08344Z" fill="#32324D"/>
<path d="M16.5628 14.3716C17.9452 14.3716 19.0659 13.2509 19.0659 11.8684C19.0659 10.4859 17.9452 9.36523 16.5628 9.36523C15.1803 9.36523 14.0596 10.4859 14.0596 11.8684C14.0596 13.2509 15.1803 14.3716 16.5628 14.3716Z" fill="#32324D"/>
<path d="M18.4866 11.8676C18.475 12.6557 17.9999 13.38 17.2582 13.6639C16.4875 13.9594 15.601 13.7218 15.0737 13.0902C14.5638 12.476 14.5 11.5837 14.8998 10.8942C15.2997 10.2104 16.0993 9.82798 16.8815 9.96705C17.8086 10.1235 18.4692 10.9347 18.4866 11.8676C18.4982 12.6151 19.6571 12.6151 19.6455 11.8676C19.6223 10.5523 18.8053 9.3992 17.5653 8.95303C16.389 8.53003 14.9983 8.92405 14.2045 9.88593C13.3759 10.8884 13.2368 12.337 13.9206 13.4611C14.5985 14.5852 15.9139 15.1357 17.1944 14.8923C18.6257 14.62 19.6223 13.2988 19.6455 11.8734C19.6571 11.1201 18.4982 11.1201 18.4866 11.8676Z" fill="#32324D"/>
<path d="M16.5628 23.3921C17.9452 23.3921 19.0659 22.2714 19.0659 20.8889C19.0659 19.5065 17.9452 18.3857 16.5628 18.3857C15.1803 18.3857 14.0596 19.5065 14.0596 20.8889C14.0596 22.2714 15.1803 23.3921 16.5628 23.3921Z" fill="#32324D"/>
<path d="M18.4866 20.8896C18.475 21.6776 17.9999 22.4019 17.2582 22.6859C16.4875 22.9814 15.601 22.7438 15.0737 22.1122C14.5638 21.498 14.5 20.6057 14.8998 19.9161C15.2997 19.2324 16.0993 18.85 16.8815 18.989C17.8086 19.1455 18.4692 19.9567 18.4866 20.8896C18.4982 21.6371 19.6571 21.6371 19.6455 20.8896C19.6223 19.5743 18.8053 18.4212 17.5653 17.975C16.389 17.552 14.9983 17.946 14.2045 18.9079C13.3759 19.9103 13.2368 21.3589 13.9206 22.4831C14.5985 23.6072 15.9139 24.1576 17.1944 23.9143C18.6257 23.6419 19.6223 22.3208 19.6455 20.8954C19.6571 20.1421 18.4982 20.1421 18.4866 20.8896Z" fill="#32324D"/>
<path d="M7.37819 5.62161C8.76066 5.62161 9.88138 4.5009 9.88138 3.11842C9.88138 1.73595 8.76066 0.615234 7.37819 0.615234C5.99572 0.615234 4.875 1.73595 4.875 3.11842C4.875 4.5009 5.99572 5.62161 7.37819 5.62161Z" fill="#32324D"/>
<path d="M9.30202 3.1186C9.29043 3.90664 8.81529 4.63094 8.0736 4.91486C7.30294 5.21038 6.4164 4.97281 5.88911 4.34122C5.3792 3.72701 5.31546 2.83467 5.71527 2.14513C6.11509 1.46139 6.91472 1.07896 7.69696 1.21803C8.62986 1.38027 9.29043 2.18569 9.30202 3.1186C9.31361 3.86608 10.4725 3.86608 10.4609 3.1186C10.4377 1.80326 9.62071 0.650174 8.3807 0.204004C7.20444 -0.218989 5.81378 0.175032 5.01994 1.1369C4.19134 2.13934 4.05228 3.58794 4.73602 4.71206C5.41396 5.83618 6.7293 6.38665 8.00986 6.14328C9.44108 5.87094 10.4377 4.54982 10.4609 3.12439C10.4725 2.37112 9.31361 2.37112 9.30202 3.1186Z" fill="#32324D"/>
<path d="M7.37819 14.4063C8.76066 14.4063 9.88138 13.2856 9.88138 11.9031C9.88138 10.5206 8.76066 9.3999 7.37819 9.3999C5.99572 9.3999 4.875 10.5206 4.875 11.9031C4.875 13.2856 5.99572 14.4063 7.37819 14.4063Z" fill="#32324D"/>
<path d="M9.30202 11.9023C9.29043 12.6903 8.81529 13.4146 8.0736 13.6986C7.30294 13.9941 6.4164 13.7565 5.88911 13.1249C5.3792 12.5107 5.31546 11.6184 5.71527 10.9288C6.11509 10.2451 6.91472 9.86265 7.69696 10.0017C8.62986 10.164 9.29043 10.9694 9.30202 11.9023C9.31361 12.6498 10.4725 12.6498 10.4609 11.9023C10.4377 10.587 9.62071 9.43387 8.3807 8.98769C7.20444 8.5647 5.81378 8.95872 5.01994 9.9206C4.19134 10.923 4.05228 12.3716 4.73602 13.4958C5.41396 14.6199 6.7293 15.1703 8.00986 14.927C9.44108 14.6546 10.4377 13.3335 10.4609 11.9081C10.4725 11.1548 9.31361 11.1548 9.30202 11.9023Z" fill="#32324D"/>
<path d="M7.37819 23.4268C8.76066 23.4268 9.88138 22.3061 9.88138 20.9236C9.88138 19.5411 8.76066 18.4204 7.37819 18.4204C5.99572 18.4204 4.875 19.5411 4.875 20.9236C4.875 22.3061 5.99572 23.4268 7.37819 23.4268Z" fill="#32324D"/>
<path d="M9.30202 20.9243C9.29043 21.7123 8.81529 22.4366 8.0736 22.7205C7.30294 23.016 6.4164 22.7785 5.88911 22.1469C5.3792 21.5327 5.31546 20.6403 5.71527 19.9508C6.11509 19.2671 6.91472 18.8846 7.69696 19.0237C8.62986 19.1801 9.29043 19.9914 9.30202 20.9243C9.31361 21.6717 10.4725 21.6717 10.4609 20.9243C10.4377 19.6089 9.62071 18.4558 8.3807 18.0097C7.20444 17.5867 5.81378 17.9807 5.01994 18.9426C4.19134 19.945 4.05228 21.3936 4.73602 22.5119C5.41396 23.636 6.7293 24.1865 8.00986 23.9431C9.44108 23.6708 10.4377 22.3497 10.4609 20.9243C10.4725 20.1768 9.31361 20.1768 9.30202 20.9243Z" fill="#32324D"/>
</svg>
