<svg width="20" height="20" viewBox="0 0 20 20" fill="none" xmlns="http://www.w3.org/2000/svg">
<path d="M10.491 19.7322L10.4553 19.7264C10.4603 19.7303 10.4662 19.7328 10.4724 19.7338C10.4787 19.7348 10.4851 19.7343 10.491 19.7322Z" fill="#32324D"/>
<path d="M18.6118 6.95454C18.6016 6.90068 18.5738 6.85176 18.5326 6.81555C18.4914 6.77934 18.4394 6.75793 18.3846 6.75469C18.3299 6.75146 18.2757 6.76661 18.2305 6.79772C18.1854 6.82883 18.1519 6.87413 18.1355 6.92642C18.1197 6.97607 18.0886 7.01944 18.0467 7.05032C18.0047 7.0812 17.9541 7.098 17.902 7.09829H17.2114C17.1667 7.09834 17.1228 7.08614 17.0846 7.06303L16.0855 6.46392C16.0472 6.4408 16.0034 6.42861 15.9587 6.42865H14.3605C14.3118 6.4286 14.2643 6.44305 14.2239 6.47017L12.2529 7.78401C12.2188 7.8067 12.1909 7.83752 12.1718 7.87368C12.1526 7.90985 12.1427 7.95022 12.1431 7.99115V9.85455C12.143 9.89921 12.1551 9.94304 12.1781 9.98134C12.2011 10.0196 12.234 10.051 12.2734 10.072L14.8578 11.4514C14.8966 11.4723 14.9292 11.5032 14.9521 11.5409C14.975 11.5785 14.9875 11.6216 14.9882 11.6657L15.0002 12.7144C15.0009 12.7578 15.013 12.8003 15.0354 12.8375C15.0577 12.8747 15.0895 12.9054 15.1275 12.9264L16.1658 13.501C16.2043 13.5224 16.2364 13.5536 16.2588 13.5915C16.2811 13.6294 16.293 13.6726 16.2931 13.7166V15.8863C16.2931 15.9337 16.3068 15.9801 16.3325 16.0199C16.3582 16.0597 16.3949 16.0913 16.4381 16.1108C16.4813 16.1303 16.5292 16.1369 16.5761 16.1299C16.623 16.1229 16.6669 16.1024 16.7025 16.0711C17.1212 15.7023 17.7216 15.1639 17.8016 15.0407C17.9337 14.8363 18.0577 14.6269 18.1734 14.4126C18.4132 13.9686 18.6162 13.5057 18.7806 13.0287C19.3466 11.3898 18.8993 8.44383 18.6118 6.95454Z" fill="#32324D"/>
<path d="M11.357 12.0894L8.61909 10.0358C8.58818 10.0126 8.55058 10.0001 8.51194 10.0001H7.21284C7.19062 10.0001 7.16861 9.99575 7.14807 9.98725C7.12754 9.97874 7.10889 9.96627 7.0932 9.95054L6.4807 9.33804C6.4641 9.32146 6.4444 9.30831 6.42272 9.29935C6.40104 9.29039 6.37781 9.28579 6.35436 9.2858H3.9798C3.94634 9.2858 3.91362 9.27588 3.8858 9.25729C3.85797 9.2387 3.83629 9.21227 3.82348 9.18136C3.81067 9.15044 3.80732 9.11642 3.81385 9.0836C3.82038 9.05078 3.8365 9.02063 3.86016 8.99696L4.23605 8.62107C4.25175 8.60534 4.2704 8.59286 4.29093 8.58436C4.31146 8.57586 4.33347 8.57149 4.3557 8.57152H5.80078C5.87862 8.57152 5.95432 8.54609 6.01637 8.49911C6.07842 8.45213 6.12342 8.38616 6.14453 8.31125L6.45212 7.2175C6.45868 7.19399 6.46999 7.17208 6.48534 7.15312C6.5007 7.13415 6.51978 7.11854 6.54141 7.10723L7.76775 6.47598C7.79534 6.46172 7.81848 6.44014 7.83462 6.4136C7.85077 6.38707 7.85929 6.3566 7.85927 6.32554V5.7675C7.85932 5.73288 7.8699 5.69909 7.88962 5.67063L8.54141 4.73223C8.56096 4.70404 8.5887 4.68253 8.62087 4.67063L9.53293 4.32821C9.56519 4.31612 9.593 4.29447 9.61262 4.26615C9.63225 4.23783 9.64276 4.20419 9.64275 4.16973V3.6608C9.64275 3.6329 9.63586 3.60542 9.6227 3.58082C9.60954 3.55621 9.59051 3.53523 9.5673 3.51973L8.65302 2.9117C8.6279 2.89517 8.59886 2.88556 8.56884 2.88384C8.53882 2.88211 8.50888 2.88833 8.48203 2.90188L7.23739 3.5242C7.20892 3.53826 7.17706 3.544 7.14547 3.54076C7.11388 3.53752 7.08385 3.52544 7.05882 3.50589L6.46864 3.03938C6.4485 3.02318 6.43233 3.00259 6.42136 2.97919C6.41039 2.95579 6.40491 2.9302 6.40534 2.90435C6.40577 2.87851 6.4121 2.85311 6.42384 2.83009C6.43559 2.80707 6.45244 2.78704 6.47311 2.77152L6.95257 2.41839C6.97428 2.40247 6.99186 2.38159 7.00385 2.35749C7.01584 2.33339 7.02189 2.30677 7.0215 2.27986C7.0211 2.25294 7.01428 2.22651 7.00159 2.20277C6.9889 2.17903 6.97071 2.15867 6.94855 2.14339L6.20168 1.62241C6.17582 1.60421 6.14537 1.59364 6.1138 1.5919C6.08223 1.59016 6.0508 1.59733 6.02311 1.61259C5.75302 1.76036 4.96061 2.19786 4.67936 2.39473C3.37806 3.30729 2.33081 4.53645 1.6365 5.96616C1.55525 6.13402 1.4548 6.305 1.44498 6.48938C1.43516 6.67375 1.29052 7.08536 1.23025 7.25188C1.22212 7.27438 1.21887 7.29836 1.22072 7.32222C1.22257 7.34608 1.22947 7.36928 1.24096 7.39027L2.83427 10.3179C2.84861 10.3446 2.8699 10.3668 2.89587 10.3822L4.57221 11.3885C4.59396 11.4014 4.61251 11.4191 4.6265 11.4402C4.64049 11.4613 4.64955 11.4853 4.65302 11.5104L4.98873 13.9452C4.99201 13.9685 5.00009 13.9909 5.01246 14.011C5.02483 14.031 5.04123 14.0483 5.06061 14.0617L6.36864 14.9608C6.40653 14.9868 6.43292 15.0265 6.4423 15.0715L7.13605 18.3662C7.13994 18.3855 7.14735 18.404 7.15793 18.4206C7.22311 18.526 7.48293 18.9117 7.79632 18.9688C7.7673 18.9769 7.74141 18.9952 7.71239 19.0037C7.78767 19.0169 7.86219 19.0342 7.93561 19.0554C8.02489 19.0796 8.11418 19.1001 8.20346 19.1193C8.34319 19.147 8.35703 19.1684 8.424 19.0443C8.51328 18.8782 8.61552 18.8211 8.69186 18.8005C8.72336 18.7933 8.75218 18.7773 8.775 18.7544C8.79782 18.7315 8.81372 18.7026 8.82087 18.6711L9.27043 16.5871C9.27988 16.5435 9.30537 16.5049 9.34186 16.4791L11.3508 15.055C11.3741 15.0385 11.3932 15.0166 11.4063 14.9912C11.4194 14.9658 11.4263 14.9376 11.4262 14.909V12.2322C11.4265 12.2047 11.4204 12.1775 11.4084 12.1527C11.3964 12.1279 11.3788 12.1062 11.357 12.0894Z" fill="#32324D"/>
<path d="M10.2677 0.714233C10.2677 0.714233 10.1048 0.723608 10.0717 0.724501C9.82976 0.731644 9.58839 0.748311 9.34761 0.774501C8.46989 0.869719 7.6103 1.08995 6.79492 1.42852C6.9034 1.50352 6.7168 1.57227 6.7168 1.57227L7.00876 2.1428H8.57127L9.6427 2.67852L10.5802 2.1428L10.2677 0.714233Z" fill="#32324D"/>
<path d="M14.3852 3.93131L15.1044 3.30631C15.1269 3.28677 15.1442 3.26191 15.1546 3.23399C15.1651 3.20607 15.1684 3.17598 15.1642 3.14646C15.16 3.11695 15.1485 3.08895 15.1308 3.06501C15.113 3.04108 15.0895 3.02197 15.0625 3.00944L14.2227 2.61971C14.1801 2.59981 14.1313 2.59756 14.087 2.61344C14.0427 2.62933 14.0064 2.66206 13.9861 2.70453L13.6401 3.42819C13.6213 3.46775 13.6177 3.51286 13.6299 3.55492C13.6422 3.59699 13.6695 3.63307 13.7067 3.65631L14.1736 3.94828C14.2061 3.96846 14.2441 3.97771 14.2822 3.97465C14.3203 3.9716 14.3564 3.95641 14.3852 3.93131Z" fill="#32324D"/>
<path d="M17.7518 4.85125L17.4915 4.44947C17.4875 4.44322 17.484 4.43697 17.4804 4.43027C17.4335 4.33429 17.0456 3.55081 16.7215 3.24679C16.4782 3.01688 16.409 3.08295 16.3898 3.13384C16.3788 3.16199 16.3604 3.18666 16.3366 3.20527L15.0491 4.24589C15.0174 4.27155 14.9779 4.28557 14.9371 4.28563H14.2706C14.2471 4.28561 14.2239 4.29021 14.2022 4.29917C14.1805 4.30814 14.1608 4.32128 14.1442 4.33786L13.6085 4.87357C13.5919 4.89016 13.5788 4.90985 13.5698 4.93153C13.5608 4.95321 13.5562 4.97644 13.5562 4.99991C13.5562 5.02338 13.5608 5.04661 13.5698 5.06829C13.5788 5.08997 13.5919 5.10966 13.6085 5.12625L14.1442 5.66196C14.1608 5.67854 14.1805 5.69168 14.2022 5.70065C14.2239 5.70961 14.2471 5.71421 14.2706 5.71419H17.6264C17.6505 5.71422 17.6743 5.70936 17.6965 5.69991C17.7187 5.69047 17.7387 5.67663 17.7554 5.65924C17.7721 5.64184 17.7851 5.62125 17.7936 5.5987C17.8021 5.57615 17.806 5.55211 17.8049 5.52803L17.7804 4.94098C17.7791 4.90905 17.7692 4.87807 17.7518 4.85125Z" fill="#32324D"/>
<path d="M10 1.78571C11.9004 1.78556 13.7421 2.44435 15.2113 3.64985C16.6804 4.85535 17.6861 6.53297 18.057 8.39685C18.4279 10.2607 18.1411 12.1956 17.2453 13.8717C16.3496 15.5477 14.9004 16.8614 13.1447 17.5888C11.389 18.3162 9.43537 18.4123 7.61674 17.8607C5.7981 17.3092 4.22697 16.1441 3.17105 14.5641C2.11513 12.984 1.63974 11.0867 1.8259 9.19536C2.01206 7.30408 2.84824 5.53585 4.19196 4.19196C4.95285 3.42673 5.85797 2.82004 6.85493 2.407C7.85189 1.99397 8.92087 1.78279 10 1.78571ZM10 0C4.47768 0 0 4.47768 0 10C0 15.5223 4.47768 20 10 20C15.5223 20 20 15.5223 20 10C20 4.47768 15.5223 0 10 0Z" fill="#32324D"/>
</svg>
