<svg width="24" height="24" viewBox="0 0 24 24" fill="none" xmlns="http://www.w3.org/2000/svg">
<path d="M2.73418 3C1.23522 3 0 4.23521 0 5.73418V18.4937C0 19.9926 1.23522 21.2278 2.73418 21.2278H21.2658C22.7648 21.2278 24 19.9926 24 18.4937V5.73418C24 4.23521 22.7648 3 21.2658 3H2.73418ZM2.88608 4.82278H21.1044L12.6171 13.3576C12.1839 13.7575 11.7961 13.7572 11.3639 13.3576L2.88608 4.82278ZM1.82278 6.31327L10.1203 14.6962C11.1655 15.6627 12.8154 15.6612 13.8608 14.6962L22.1772 6.31327V18.4937C22.1772 19.0143 21.7865 19.4051 21.2658 19.4051H2.73418C2.21351 19.4051 1.82278 19.0143 1.82278 18.4937V6.31327Z" fill="#212134"/>
</svg>
