<svg width="24" height="19" viewBox="0 0 24 19" fill="none" xmlns="http://www.w3.org/2000/svg">
<path d="M2.73418 0C1.23522 0 0 1.23521 0 2.73418V15.4937C0 16.9926 1.23522 18.2278 2.73418 18.2278H21.2658C22.7648 18.2278 24 16.9926 24 15.4937V2.73418C24 1.23521 22.7648 0 21.2658 0H2.73418ZM2.88608 1.82278H21.1044L12.6171 10.3576C12.1839 10.7575 11.7961 10.7572 11.3639 10.3576L2.88608 1.82278ZM1.82278 3.31327L10.1203 11.6962C11.1655 12.6627 12.8154 12.6612 13.8608 11.6962L22.1772 3.31327V15.4937C22.1772 16.0143 21.7865 16.4051 21.2658 16.4051H2.73418C2.21351 16.4051 1.82278 16.0143 1.82278 15.4937V3.31327Z" fill="#32324D"/>
</svg>
