<svg width="216" height="120" viewBox="0 0 216 120" fill="none" xmlns="http://www.w3.org/2000/svg">
<path fill-rule="evenodd" clip-rule="evenodd" d="M184 23.75C187.866 23.75 191 26.884 191 30.75C191 34.616 187.866 37.75 184 37.75H144C147.866 37.75 151 40.884 151 44.75C151 48.616 147.866 51.75 144 51.75H166C169.866 51.75 173 54.884 173 58.75C173 62.616 169.866 65.75 166 65.75H155.826C150.952 65.75 147 68.884 147 72.75C147 75.3273 149 77.6607 153 79.75C156.866 79.75 160 82.884 160 86.75C160 90.616 156.866 93.75 153 93.75H70C66.134 93.75 63 90.616 63 86.75C63 82.884 66.134 79.75 70 79.75H31C27.134 79.75 24 76.616 24 72.75C24 68.884 27.134 65.75 31 65.75H71C74.866 65.75 78 62.616 78 58.75C78 54.884 74.866 51.75 71 51.75H46C42.134 51.75 39 48.616 39 44.75C39 40.884 42.134 37.75 46 37.75H86C82.134 37.75 79 34.616 79 30.75C79 26.884 82.134 23.75 86 23.75H184ZM184 51.75C187.866 51.75 191 54.884 191 58.75C191 62.616 187.866 65.75 184 65.75C180.134 65.75 177 62.616 177 58.75C177 54.884 180.134 51.75 184 51.75Z" fill="#DBDBFA"/>
<path fill-rule="evenodd" clip-rule="evenodd" d="M130.672 22.7502L139.974 90.5929L140.809 97.3992C141.079 99.5919 139.519 101.588 137.327 101.857L78.7665 109.047C76.5738 109.316 74.578 107.757 74.3088 105.564L65.2931 32.1369C65.1584 31.0406 65.9381 30.0427 67.0344 29.9081C67.0413 29.9073 67.0483 29.9064 67.0552 29.9056L71.9136 29.3607L130.672 22.7502ZM75.8421 28.92L80.4291 28.4055L75.8421 28.92Z" fill="white"/>
<path d="M75.8421 28.92L80.4291 28.4055M130.672 22.7502L139.974 90.5929L140.809 97.3992C141.079 99.5919 139.519 101.588 137.327 101.857L78.7665 109.047C76.5738 109.316 74.578 107.757 74.3088 105.564L65.2931 32.1369C65.1584 31.0406 65.9381 30.0427 67.0344 29.9081C67.0413 29.9073 67.0483 29.9064 67.0552 29.9056L71.9136 29.3607L130.672 22.7502Z" stroke="#7E7BF6" stroke-width="2.5"/>
<path fill-rule="evenodd" clip-rule="evenodd" d="M128.14 27.0191L136.56 88.5028L137.317 94.671C137.561 96.6581 136.167 98.4645 134.204 98.7056L81.7615 105.145C79.7979 105.386 78.0083 103.97 77.7644 101.983L69.6143 35.6067C69.4797 34.5103 70.2594 33.5125 71.3557 33.3778L77.8433 32.5813" fill="#F0F0FF"/>
<path fill-rule="evenodd" clip-rule="evenodd" d="M133.229 10H87.6719C86.9125 10 86.225 10.3078 85.7273 10.8055C85.2297 11.3031 84.9219 11.9906 84.9219 12.75V88.75C84.9219 89.5094 85.2297 90.1969 85.7273 90.6945C86.225 91.1922 86.9125 91.5 87.6719 91.5H146.672C147.431 91.5 148.119 91.1922 148.616 90.6945C149.114 90.1969 149.422 89.5094 149.422 88.75V26.1849C149.422 25.4553 149.132 24.7556 148.616 24.2398L135.173 10.8049C134.657 10.2895 133.958 10 133.229 10Z" fill="white" stroke="#7F7CFA" stroke-width="2.5"/>
<path d="M133.672 11.1528V22.75C133.672 24.4069 135.015 25.75 136.672 25.75H144.605" stroke="#807EFA" stroke-width="2.5" stroke-linecap="round" stroke-linejoin="round"/>
<path d="M95.6719 76.75H121.672M95.6719 25.75H121.672H95.6719ZM95.6719 37.75H138.672H95.6719ZM95.6719 50.75H138.672H95.6719ZM95.6719 63.75H138.672H95.6719Z" stroke="#817FFA" stroke-width="2.5" stroke-linecap="round" stroke-linejoin="round"/>
</svg>
