<svg width="216" height="120" viewBox="0 0 216 120" fill="none" xmlns="http://www.w3.org/2000/svg">
<g opacity="0.88">
<path fill-rule="evenodd" clip-rule="evenodd" d="M119 28C122.866 28 126 31.134 126 35C126 38.866 122.866 42 119 42H183C186.866 42 190 45.134 190 49C190 52.866 186.866 56 183 56H205C208.866 56 212 59.134 212 63C212 66.866 208.866 70 205 70H186C182.134 70 179 73.134 179 77C179 80.866 182.134 84 186 84H192C195.866 84 199 87.134 199 91C199 94.866 195.866 98 192 98H140C139.485 98 138.983 97.9444 138.5 97.8389C138.017 97.9444 137.515 98 137 98H46C42.134 98 39 94.866 39 91C39 87.134 42.134 84 46 84H7C3.13401 84 0 80.866 0 77C0 73.134 3.13401 70 7 70H47C50.866 70 54 66.866 54 63C54 59.134 50.866 56 47 56H22C18.134 56 15 52.866 15 49C15 45.134 18.134 42 22 42H62C58.134 42 55 38.866 55 35C55 31.134 58.134 28 62 28H119ZM209 84C212.866 84 216 87.134 216 91C216 94.866 212.866 98 209 98C205.134 98 202 94.866 202 91C202 87.134 205.134 84 209 84Z" fill="#D9D8FF" fill-opacity="0.8"/>
<path fill-rule="evenodd" clip-rule="evenodd" d="M73.8301 102.273L65.2085 103.695C63.0209 104.002 60.9982 102.478 60.6907 100.291L49.5569 21.0691C49.2494 18.8815 50.7737 16.8589 52.9613 16.5514L131.192 5.55672C133.38 5.24927 135.403 6.77344 135.71 8.96108C136.185 12.338 138.118 25.4294 138.282 26.591" fill="white"/>
<path fill-rule="evenodd" clip-rule="evenodd" d="M71.8053 98.7124L68.1094 99.2377C66.1229 99.52 64.2888 98.1388 64.0128 96.1527L54.0177 24.2279C53.7417 22.2417 55.1283 20.4028 57.1147 20.1204L128.152 10.0237C130.139 9.74133 131.973 11.1225 132.249 13.1087L133.108 19.2894C133.154 19.6239 136.223 41.8233 142.313 85.8878C142.619 88.1004 141.094 90.1449 138.906 90.4542C138.882 90.4575 138.859 90.4606 138.835 90.4635L71.8053 98.7124Z" fill="#F0F0FF"/>
<path d="M69.2785 103.123L65.2084 103.695C63.0207 104.002 60.9981 102.478 60.6906 100.291L49.5568 21.0692C49.2493 18.8815 50.7735 16.8588 52.9611 16.5514L131.192 5.55671C133.38 5.24926 135.403 6.77345 135.71 8.96109C136.185 12.338 136.504 14.6073 136.667 15.7689" stroke="#7B79FF" stroke-width="2.5" stroke-linecap="round"/>
<path d="M137.5 20.3796L138 23.5" stroke="#7B79FF" stroke-width="2.5" stroke-linecap="round"/>
<path fill-rule="evenodd" clip-rule="evenodd" d="M164.411 30.2986L85.8441 22.0409C85.0888 21.9615 84.3729 22.1957 83.826 22.6387C83.279 23.0816 82.9011 23.7331 82.8217 24.4884L74.4594 104.05C74.38 104.805 74.6143 105.521 75.0572 106.068C75.5001 106.615 76.1517 106.993 76.9069 107.072L155.474 115.33C156.229 115.41 156.945 115.175 157.492 114.732C158.039 114.29 158.417 113.638 158.497 112.883L166.859 33.321C166.938 32.5658 166.704 31.8499 166.261 31.3029C165.818 30.756 165.167 30.378 164.411 30.2986Z" fill="white" stroke="#7B79FF" stroke-width="2.5"/>
<path fill-rule="evenodd" clip-rule="evenodd" d="M92.9902 30.5846L155.645 37.1699C157.293 37.3431 158.488 38.8193 158.315 40.4671L152.775 93.1767C152.602 94.8245 151.126 96.0199 149.478 95.8467L86.823 89.2614C85.1752 89.0882 83.9798 87.6121 84.153 85.9643L89.693 33.2546C89.8662 31.6068 91.3424 30.4115 92.9902 30.5846Z" fill="white"/>
<path fill-rule="evenodd" clip-rule="evenodd" d="M92.7408 73.8777L102.538 67.2697C104.172 66.1679 106.365 66.4199 107.706 67.8636L114.879 75.5866C115.237 75.9721 115.833 76.0142 116.241 75.683L131.581 63.2534C133.298 61.8626 135.817 62.1266 137.207 63.843C137.297 63.9539 137.381 64.0696 137.459 64.1894L147.439 79.6268L148.873 82.0187L148.186 90.1434C148.14 90.6938 147.656 91.1022 147.106 91.0557C147.097 91.055 147.088 91.0541 147.08 91.0531L90.1168 84.7243C89.5752 84.6642 89.1815 84.1814 89.2315 83.6388L89.9864 75.4401L92.7408 73.8777Z" fill="#F0F0FF"/>
<path fill-rule="evenodd" clip-rule="evenodd" d="M155.514 38.4131L92.8596 31.8278C92.379 31.7773 91.9234 31.9264 91.5753 32.2082C91.2273 32.4901 90.9867 32.9047 90.9362 33.3853L85.3962 86.0949C85.3457 86.5755 85.4948 87.0311 85.7766 87.3792C86.0585 87.7272 86.4731 87.9678 86.9537 88.0183L149.609 94.6036C150.089 94.6541 150.545 94.505 150.893 94.2232C151.241 93.9413 151.481 93.5267 151.532 93.0461L157.072 40.3364C157.122 39.8558 156.973 39.4002 156.692 39.0522C156.41 38.7041 155.995 38.4636 155.514 38.4131Z" stroke="#7B79FF" stroke-width="2.5"/>
<path d="M104.405 55.9166C107.7 56.2629 110.653 53.8722 110.999 50.5766C111.345 47.281 108.955 44.3287 105.659 43.9823C102.363 43.6359 99.4111 46.0267 99.0647 49.3223C98.7183 52.6178 101.109 55.5702 104.405 55.9166Z" fill="#F0F0FF" stroke="#7B79FF" stroke-width="2.5"/>
<path d="M90.729 75.4248C93.3533 73.6125 97.2897 70.8942 102.538 67.2697C104.172 66.1679 106.365 66.4199 107.706 67.8636L114.879 75.5866C115.237 75.9721 115.833 76.0142 116.241 75.683L131.581 63.2534C133.298 61.8626 135.817 62.1266 137.207 63.843C137.297 63.9539 137.381 64.0696 137.459 64.1894C143.438 73.6766 147.126 79.5286 148.523 81.7454" stroke="#7B79FF" stroke-width="2.5" stroke-linecap="round"/>
</g>
</svg>
