<svg width="192" height="120" viewBox="0 0 192 120" fill="none" xmlns="http://www.w3.org/2000/svg">
<g opacity="0.88">
<path fill-rule="evenodd" clip-rule="evenodd" d="M160.28 53.0261C160.234 52.9307 160.184 52.8368 160.13 52.7449C156.63 46.7859 152.841 41.4821 148.61 36.8876H166.707C171.151 36.8876 174.754 40.5003 174.754 44.9569C174.754 49.4134 171.151 53.0261 166.707 53.0261H160.28ZM151.788 69.1647C140.225 80.7348 119.834 88.7618 96.5769 88.7618C65.1424 88.7618 42.1937 72.0568 40.8762 53.0261H28.7425C24.2978 53.0261 20.6946 56.6389 20.6946 61.0954C20.6946 65.5519 24.2978 69.1647 28.7425 69.1647H40.4395C46.0437 69.1647 50.5868 72.7774 50.5868 77.2339C50.5868 79.7582 48.9269 82.0795 45.6072 84.1977C44.6653 84.7986 43.5738 85.0733 42.4839 85.3475C42.1549 85.4303 41.8262 85.513 41.5017 85.6047C38.1197 86.56 35.6407 89.676 35.6407 93.3725C35.6407 97.829 39.2439 101.442 43.6886 101.442H139.114C143.559 101.442 147.162 97.829 147.162 93.3725C147.162 88.9159 143.559 85.3032 139.114 85.3032H183.952C188.397 85.3032 192 81.6905 192 77.2339C192 72.7774 188.397 69.1647 183.952 69.1647H151.788ZM68.0562 20.7491H8.0479C3.60317 20.7491 0 24.3618 0 28.8183C0 33.2749 3.60317 36.8876 8.0479 36.8876H45.3622C49.9682 30.044 57.8616 24.4104 68.0562 20.7491ZM0 61.0954C0 56.6389 3.60317 53.0261 8.0479 53.0261C12.4926 53.0261 16.0958 56.6389 16.0958 61.0954C16.0958 65.5519 12.4926 69.1647 8.0479 69.1647C3.60317 69.1647 0 65.5519 0 61.0954Z" fill="#DBDBFA"/>
<path d="M157.424 48.4152L158.871 50.5463" stroke="#7B79FF" stroke-width="2.5" stroke-linecap="round" stroke-linejoin="round"/>
<path d="M154.195 58.8936C108.512 1.20925 58.5564 33.0807 36.8209 58.9034C35.4178 60.5704 35.3952 63.0193 36.6716 64.7851C83.9809 130.239 133.381 93.8282 154.376 64.6517C155.615 62.9291 155.513 60.5572 154.195 58.8936Z" fill="white"/>
<path fill-rule="evenodd" clip-rule="evenodd" d="M112.869 27.2939C103.728 24.8082 94.7843 24.7361 86.298 26.353C64.9969 30.4115 46.8407 45.0608 35.8687 58.096C34.0745 60.2277 34.0707 63.3124 35.6626 65.5149C47.5795 82.0023 59.6935 92.1659 71.5513 97.6138C72.3418 97.977 73.1308 98.3191 73.9182 98.6405L75.1241 96.4318C74.2832 96.0934 73.4401 95.7304 72.595 95.3421C61.2285 90.12 49.4265 80.2899 37.6888 64.0504C36.728 62.7212 36.7695 60.9081 37.7814 59.7059C48.5448 46.9184 66.2344 32.7207 86.7659 28.8088C94.6711 27.3026 103.037 27.3136 111.635 29.5535L112.869 27.2939ZM84.5925 99.2595C91.6895 100.656 98.5729 100.415 105.129 98.9811C125.589 94.5067 142.954 78.3874 153.365 63.9191C154.264 62.6695 154.206 60.9121 153.22 59.6671C142.491 46.1199 131.567 37.6046 120.868 32.8128L122.07 30.6122C133.095 35.5928 144.279 44.3507 155.18 58.115C156.829 60.1974 156.974 63.1837 155.394 65.3793C144.811 80.0875 126.979 96.7618 105.663 101.423C98.5474 102.979 91.0549 103.193 83.3393 101.555L84.5925 99.2595Z" fill="#7B79FF"/>
<path d="M126.492 21.2819C139.723 27.6036 148.357 35.6607 154.116 43.0626" stroke="#7B79FF" stroke-width="2.5" stroke-linecap="round" stroke-linejoin="round"/>
<path d="M33.4009 47.8452C52.3354 22.5406 88.5299 7.50377 117.287 17.8381" stroke="#7B79FF" stroke-width="2.5" stroke-linecap="round" stroke-linejoin="round"/>
<ellipse cx="94.3129" cy="65.7076" rx="18.3952" ry="18.444" fill="#F0F0FF"/>
<path fill-rule="evenodd" clip-rule="evenodd" d="M104.094 43.5653C101.105 42.2365 97.797 41.4984 94.317 41.4984C80.9828 41.4984 70.1733 52.3366 70.1733 65.7062C70.1733 74.1347 74.4694 81.5572 80.9858 85.8923L82.1891 83.6882C76.4481 79.7859 72.6733 73.1903 72.6733 65.7062C72.6733 53.711 82.3698 43.9984 94.317 43.9984C97.3623 43.9984 100.261 44.6294 102.891 45.7684L104.094 43.5653ZM91.2828 87.2023C92.2743 87.3418 93.2873 87.414 94.317 87.414C106.264 87.414 115.961 77.7013 115.961 65.7062C115.961 60.3028 113.993 55.3626 110.739 51.5647L112.011 49.235C116.013 53.5555 118.461 59.3442 118.461 65.7062C118.461 79.0758 107.651 89.914 94.317 89.914C92.8476 89.914 91.4089 89.7823 90.0119 89.5302L91.2828 87.2023Z" fill="#7B79FF"/>
<path d="M116.062 54.1804C116.062 58.5863 112.501 62.1524 108.115 62.1524C103.728 62.1524 100.167 58.5863 100.167 54.1804C100.167 49.7744 103.728 46.2084 108.115 46.2084C112.501 46.2084 116.062 49.7744 116.062 54.1804Z" fill="white" stroke="#7B79FF" stroke-width="2.5"/>
<path d="M109.805 32.8379C111.08 30.5136 113.884 29.8192 116.101 31.2785C118.366 32.7688 119.154 35.9318 117.852 38.3054L86.565 95.3547C85.2903 97.679 82.4865 98.3734 80.269 96.914C78.0045 95.4237 77.2164 92.2607 78.5181 89.8872L109.805 32.8379Z" fill="white"/>
<rect width="3.66834" height="134.376" rx="1.83417" transform="matrix(0.828169 0.560479 -0.479178 0.877718 126.515 0)" fill="#7B79FF"/>
</g>
</svg>
