<svg width="216" height="120" viewBox="0 0 216 120" fill="none" xmlns="http://www.w3.org/2000/svg">
<g clip-path="url(#clip0_1142_57509)">
<g opacity="0.84">
<path fill-rule="evenodd" clip-rule="evenodd" d="M189.25 19.6458C193.438 19.6458 196.833 23.041 196.833 27.2291C196.833 31.4173 193.438 34.8125 189.25 34.8125H145.917C150.105 34.8125 153.5 38.2077 153.5 42.3958C153.5 46.584 150.105 49.9792 145.917 49.9792H169.75C173.938 49.9792 177.333 53.3743 177.333 57.5625C177.333 61.7506 173.938 65.1458 169.75 65.1458H158.728C153.448 65.1458 149.167 68.541 149.167 72.7292C149.167 74.6852 150.23 76.5115 152.357 78.2081C154.374 79.8169 157.181 80.0265 159.421 81.3055C161.708 82.6113 163.25 85.0735 163.25 87.8958C163.25 92.084 159.855 95.4792 155.667 95.4792H65.7501C61.5619 95.4792 58.1668 92.084 58.1668 87.8958C58.1668 83.7077 61.5619 80.3125 65.7501 80.3125H23.5001C19.3119 80.3125 15.9167 76.9173 15.9167 72.7292C15.9167 68.541 19.3119 65.1458 23.5001 65.1458H66.8334C71.0216 65.1458 74.4168 61.7506 74.4168 57.5625C74.4168 53.3743 71.0216 49.9792 66.8334 49.9792H39.7501C35.5619 49.9792 32.1667 46.584 32.1667 42.3958C32.1667 38.2077 35.5619 34.8125 39.7501 34.8125H83.0834C78.8953 34.8125 75.5001 31.4173 75.5001 27.2291C75.5001 23.041 78.8953 19.6458 83.0834 19.6458H189.25ZM189.25 49.9792C193.438 49.9792 196.833 53.3743 196.833 57.5625C196.833 61.7506 193.438 65.1458 189.25 65.1458C185.062 65.1458 181.667 61.7506 181.667 57.5625C181.667 53.3743 185.062 49.9792 189.25 49.9792Z" fill="#D9D8FF" fill-opacity="0.8"/>
<path fill-rule="evenodd" clip-rule="evenodd" d="M132.561 19.6461L142.638 93.1423L143.544 100.516C143.835 102.891 142.146 105.053 139.771 105.345L76.3305 113.134C73.9551 113.426 71.793 111.737 71.5013 109.362L61.7343 29.815C61.5884 28.6273 62.433 27.5463 63.6207 27.4005C63.6282 27.3995 63.6357 27.3986 63.6432 27.3977L68.9065 26.8074L132.561 19.6461ZM73.1624 26.33L78.1317 25.7726L73.1624 26.33Z" fill="white"/>
<path d="M73.1624 26.33L78.1317 25.7726M132.561 19.6461L142.638 93.1423L143.544 100.516C143.835 102.891 142.146 105.053 139.771 105.345L76.3305 113.134C73.9551 113.426 71.793 111.737 71.5013 109.362L61.7343 29.815C61.5884 28.6273 62.433 27.5463 63.6207 27.4005C63.6282 27.3995 63.6357 27.3986 63.6432 27.3977L68.9065 26.8074L132.561 19.6461Z" stroke="#7B79FF" stroke-width="2.5"/>
<path fill-rule="evenodd" clip-rule="evenodd" d="M129.818 24.2707L138.94 90.8781L139.76 97.5603C140.024 99.713 138.514 101.67 136.387 101.931L79.5749 108.907C77.4476 109.168 75.5089 107.635 75.2446 105.482L66.4154 33.5739C66.2696 32.3862 67.1142 31.3052 68.3019 31.1594L75.3301 30.2964" fill="#F0F0FF"/>
<path fill-rule="evenodd" clip-rule="evenodd" d="M135.331 5.83334H85.9779C85.1553 5.83334 84.4105 6.1668 83.8714 6.70592C83.3322 7.24505 82.9988 7.98984 82.9988 8.81251V91.1458C82.9988 91.9685 83.3322 92.7133 83.8714 93.2524C84.4105 93.7916 85.1553 94.125 85.9779 94.125H149.895C150.717 94.125 151.462 93.7916 152.001 93.2524C152.54 92.7133 152.874 91.9685 152.874 91.1458V23.367C152.874 22.5766 152.56 21.8185 152.001 21.2598L137.437 6.70527C136.878 6.14697 136.121 5.83334 135.331 5.83334Z" fill="white" stroke="#7B79FF" stroke-width="2.5"/>
<path d="M135.811 7.08224V19.6458C135.811 21.4408 137.266 22.8958 139.061 22.8958H147.656" stroke="#7B79FF" stroke-width="2.5" stroke-linecap="round" stroke-linejoin="round"/>
<path d="M94.6445 78.1458H122.811M94.6445 22.8958H122.811H94.6445ZM94.6445 35.8958H141.228H94.6445ZM94.6445 49.9792H141.228H94.6445ZM94.6445 64.0625H141.228H94.6445Z" stroke="#7B79FF" stroke-width="2.5" stroke-linecap="round" stroke-linejoin="round"/>
</g>
</g>
<defs>
<clipPath id="clip0_1142_57509">
<rect width="216" height="120" fill="white"/>
</clipPath>
</defs>
</svg>
