<svg width="24" height="24" viewBox="0 0 24 24" fill="none" xmlns="http://www.w3.org/2000/svg">
<path d="M0 2.8C0 2.35817 0.358172 2 0.8 2H23.2C23.6418 2 24 2.35817 24 2.8V5.51084C24 6.06313 23.5523 6.51084 23 6.51084H1C0.447716 6.51084 0 6.06313 0 5.51084V2.8Z" fill="#32324D"/>
<path d="M1.92188 7.99099C0.196875 6.67533 4.17824e-05 6.25244 0 5.28918H23.9531C24.2578 6.65184 22.3594 7.79521 21.6562 8.41388C19.7031 9.77653 15.4031 12.7744 13.8281 13.8645C12.2531 14.9546 10.7969 14.3187 10.2656 13.8645C8.20312 12.4548 3.64688 9.30665 1.92188 7.99099Z" fill="#32324D"/>
<path d="M22.8 18H1.2C0.537258 18 0 18.4715 0 19.0531V20.9469C0 21.5285 0.537258 22 1.2 22H22.8C23.4627 22 24 21.5285 24 20.9469V19.0531C24 18.4715 23.4627 18 22.8 18Z" fill="#32324D"/>
<path d="M0 9.55481V19.7982V20.5265H24V9.55481C21.3672 11.5048 15.6328 15.6679 14.0391 16.7205C12.4453 17.773 10.6875 17.159 10.0078 16.7205L0 9.55481Z" fill="#32324D"/>
</svg>
