<svg width="24" height="24" viewBox="0 0 24 24" fill="none" xmlns="http://www.w3.org/2000/svg">
<path d="M4.04804 6.875L2.10271 4.92967C1.7109 4.53786 1.70713 3.90637 2.10038 3.51313C2.4909 3.1226 3.12659 3.12512 3.51693 3.51546L20.4828 20.4814C20.8746 20.8732 20.8784 21.5047 20.4852 21.8979C20.0946 22.2884 19.4589 22.2859 19.0686 21.8956L16.3827 19.2096C15.0355 19.7214 13.5747 19.9984 11.9999 19.9984C8.42734 19.9984 5.44117 18.5726 3.03835 16.2155C2.20464 15.3977 1.50122 14.5232 0.922119 13.6472C0.570443 13.1152 0.334771 12.6934 0.210656 12.4358C0.0942446 12.1942 0.0953978 11.8002 0.210656 11.561C0.334771 11.3035 0.570443 10.8816 0.922119 10.3496C1.50122 9.47362 2.20464 8.59915 3.03835 7.7813C3.36419 7.46166 3.70075 7.15915 4.04804 6.875L4.04804 6.875ZM14.5867 17.4137L13.036 15.8629C12.7055 15.9513 12.3582 15.9984 11.9999 15.9984C9.79074 15.9984 7.99988 14.2075 7.99988 11.9984C7.99988 11.6401 8.04699 11.2928 8.13536 10.9623L6.58462 9.41158C6.20978 10.1948 5.99988 11.0721 5.99988 11.9984C5.99988 15.3121 8.68617 17.9984 11.9999 17.9984C12.9262 17.9984 13.8034 17.7885 14.5867 17.4137ZM7.61707 4.78718C8.96424 4.27545 10.4251 3.99841 11.9999 3.99841C15.5724 3.99841 18.5586 5.4242 20.9614 7.7813C21.7951 8.59915 22.4985 9.47362 23.0776 10.3496C23.4293 10.8816 23.665 11.3035 23.7891 11.561C23.9055 11.8026 23.9044 12.1966 23.7891 12.4358C23.665 12.6934 23.4293 13.1152 23.0776 13.6472C22.4985 14.5232 21.7951 15.3977 20.9614 16.2155C20.6356 16.5352 20.299 16.8377 19.9517 17.1218L17.4151 14.5852C17.79 13.802 17.9999 12.9247 17.9999 11.9984C17.9999 8.6847 15.3136 5.99841 11.9999 5.99841C11.0736 5.99841 10.1963 6.20831 9.41304 6.58315L7.61707 4.78718ZM10.9638 8.13389C11.2942 8.04552 11.6416 7.99841 11.9999 7.99841C14.209 7.99841 15.9999 9.78927 15.9999 11.9984C15.9999 12.3567 15.9528 12.704 15.8644 13.0345L10.9638 8.13389Z" fill="#212134"/>
</svg>
