<svg width="24" height="24" viewBox="0 0 24 24" fill="none" xmlns="http://www.w3.org/2000/svg">
<path fill-rule="evenodd" clip-rule="evenodd" d="M12.1426 23.9992C12.626 23.9935 13.1026 23.9593 13.5707 23.8981C13.1026 23.9588 12.6261 23.9935 12.1426 23.9992ZM13.8749 23.8544V15.4696H16.6712L17.2027 12H13.8749V9.74885C13.8749 8.80046 14.339 7.87401 15.8308 7.87401H17.3445V4.92084C17.3445 4.92084 15.9708 4.68627 14.6579 4.68627C11.9174 4.68627 10.1253 6.3468 10.1253 9.35566V12H7.07758V15.4696H10.1253V23.8544C4.38832 22.9544 0 17.9897 0 12C0 5.37258 5.37258 0 12 0C18.6274 0 24 5.37258 24 12C24 17.9896 19.6118 22.9543 13.8749 23.8544Z" fill="#1977F3"/>
</svg>
