<svg width="24" height="33" viewBox="0 0 24 33" fill="none" xmlns="http://www.w3.org/2000/svg">
<path fill-rule="evenodd" clip-rule="evenodd" d="M16.3895 0.748865L23.3053 8.12571C23.7474 8.59729 24 9.23729 24 9.87729V29.5152C24 30.8962 22.9579 32.0078 21.6632 32.0078H2.33684C1.04211 32.0078 0 30.8962 0 29.5152V2.50044C0 1.82676 0.252632 1.22044 0.694737 0.748865C1.13684 0.277286 1.70526 0.0078125 2.33684 0.0078125H14.7474C15.3474 0.0078125 15.9474 0.277286 16.3895 0.748865ZM16.8632 8.73202H21.9789L15.8211 2.19729V7.62044C15.8211 8.22676 16.2947 8.73202 16.8632 8.73202ZM2.33684 30.5594H21.6632C22.2 30.5594 22.6421 30.0878 22.6421 29.5152V10.1804H16.8632C15.5368 10.1804 14.4632 9.03518 14.4632 7.62044V1.45623H2.33684C2.08421 1.45623 1.83158 1.55729 1.64211 1.75939C1.45263 1.9615 1.35789 2.23097 1.35789 2.50044V29.5152C1.35789 30.0878 1.8 30.5594 2.33684 30.5594ZM5.69487 25.311H18.137C18.5159 25.311 18.8317 25.6374 18.8633 26.0289C18.8633 26.4205 18.5475 26.7468 18.1686 26.7468H5.69487C5.31593 26.7468 5.00014 26.4205 5.00014 26.0289C5.00014 25.6374 5.31593 25.311 5.69487 25.311ZM18.137 20.0244H5.69487C5.31593 20.0244 5.00014 20.3507 5.00014 20.7423C5.00014 21.1339 5.31593 21.4602 5.69487 21.4602H18.1686C18.5475 21.4602 18.8633 21.1339 18.8633 20.7423C18.8633 20.3507 18.5159 20.0244 18.137 20.0244ZM5.69487 14.7378H18.137C18.5159 14.7378 18.8633 15.0641 18.8633 15.4557C18.8633 15.8473 18.5475 16.1736 18.1686 16.1736H5.69487C5.31593 16.1736 5.00014 15.8473 5.00014 15.4557C5.00014 15.0641 5.31593 14.7378 5.69487 14.7378Z" fill="#C0C0CF"/>
</svg>
