<svg width="24" height="32" viewBox="0 0 24 32" fill="none" xmlns="http://www.w3.org/2000/svg">
<path fill-rule="evenodd" clip-rule="evenodd" d="M23.3053 8.1179L16.3895 0.741053C15.9474 0.269474 15.3474 0 14.7474 0H2.33684C1.70526 0 1.13684 0.269474 0.694737 0.741053C0.252632 1.21263 0 1.81895 0 2.49263V29.5074C0 30.8884 1.04211 32 2.33684 32H21.6632C22.9579 32 24 30.8884 24 29.5074V9.86947C24 9.22947 23.7474 8.58947 23.3053 8.1179ZM21.9789 8.72421H16.8632C16.2947 8.72421 15.8211 8.21895 15.8211 7.61263V2.18947L21.9789 8.72421ZM21.6632 30.5516H2.33684C1.8 30.5516 1.35789 30.08 1.35789 29.5074V2.49263C1.35789 2.22316 1.45263 1.95368 1.64211 1.75158C1.83158 1.54947 2.08421 1.44842 2.33684 1.44842H14.4632V7.61263C14.4632 9.02737 15.5368 10.1726 16.8632 10.1726H22.6421V29.5074C22.6421 30.08 22.2 30.5516 21.6632 30.5516ZM10.4766 19.7344L6.51172 23.6992C6.2326 23.9783 6.2326 24.4435 6.51172 24.7227C6.79084 25.0018 7.25604 25.0018 7.53517 24.7227L11.5 20.7578L15.4648 24.7227C15.744 25.0018 16.2092 25.0018 16.4883 24.7227C16.7674 24.4435 16.7674 23.9783 16.4883 23.6992L12.5234 19.7344L16.7229 15.5349C17.002 15.2558 17.002 14.7906 16.7229 14.5115C16.4438 14.2324 15.9553 14.2556 15.6762 14.5347L11.5 18.7109L7.3238 14.5347C7.04468 14.2556 6.55622 14.2324 6.2771 14.5115C5.99798 14.7906 5.99798 15.2558 6.2771 15.5349L10.4766 19.7344Z" fill="#D02B20"/>
</svg>
