<svg width="24" height="33" viewBox="0 0 24 33" fill="none" xmlns="http://www.w3.org/2000/svg">
<path d="M23.3053 8.12571L16.3895 0.748865C15.9474 0.277286 15.3474 0.0078125 14.7474 0.0078125H2.33684C1.70526 0.0078125 1.13684 0.277286 0.694737 0.748865C0.252632 1.22044 0 1.82676 0 2.50044V29.5152C0 30.8962 1.04211 32.0078 2.33684 32.0078H21.6632C22.9579 32.0078 24 30.8962 24 29.5152V9.87729C24 9.23729 23.7474 8.59729 23.3053 8.12571ZM21.9789 8.73202H16.8632C16.2947 8.73202 15.8211 8.22676 15.8211 7.62044V2.19729L21.9789 8.73202ZM21.6632 30.5594H2.33684C1.8 30.5594 1.35789 30.0878 1.35789 29.5152V2.50044C1.35789 2.23097 1.45263 1.9615 1.64211 1.75939C1.83158 1.55729 2.08421 1.45623 2.33684 1.45623H14.4632V7.62044C14.4632 9.03518 15.5368 10.1804 16.8632 10.1804H22.6421V29.5152C22.6421 30.0878 22.2 30.5594 21.6632 30.5594Z" fill="#D9822F"/>
<path fill-rule="evenodd" clip-rule="evenodd" d="M13.9644 20.0954C14.3079 20.3465 14.7451 20.6168 15.276 20.9064C15.8902 20.8389 16.4992 20.8051 17.103 20.8051C18.6332 20.8051 19.5545 21.0416 19.8668 21.5147C20.0333 21.7271 20.0437 21.9781 19.898 22.2677C19.898 22.2774 19.8928 22.2871 19.8824 22.2967L19.8511 22.3257V22.3402C19.7887 22.707 19.4191 22.8905 18.7425 22.8905C18.2428 22.8905 17.6443 22.7939 16.9468 22.6008C16.2494 22.4077 15.5727 22.1519 14.9169 21.8333C12.6163 22.065 10.576 22.4657 8.79594 23.0353C7.20324 25.5648 5.94366 26.8296 5.01719 26.8296C4.86104 26.8296 4.7153 26.7958 4.57997 26.7282L4.20522 26.5544C4.19481 26.5448 4.16358 26.5206 4.11153 26.482C4.00744 26.3855 3.97621 26.2117 4.01785 25.9607C4.11153 25.5745 4.40301 25.1328 4.89227 24.6356C5.38153 24.1383 6.06857 23.6725 6.95341 23.238C7.09914 23.1511 7.21886 23.1801 7.31255 23.3249C7.33336 23.3442 7.34377 23.3636 7.34377 23.3829C7.88508 22.5622 8.44201 21.6112 9.01455 20.5299C9.72241 19.2169 10.2637 17.9521 10.6385 16.7356C10.3886 15.9439 10.2299 15.174 10.1622 14.4257C10.0946 13.6775 10.1284 13.062 10.2637 12.5793C10.3782 12.1931 10.5968 12 10.9195 12H11.2631C11.5025 12 11.6847 12.0724 11.8096 12.2172C11.997 12.42 12.0438 12.7482 11.9501 13.202C11.9293 13.2599 11.9085 13.2986 11.8877 13.3179C11.8981 13.3468 11.9033 13.3854 11.9033 13.4337V13.8682C11.8824 15.0557 11.8096 15.9826 11.6847 16.6487C12.2572 18.2321 13.0171 19.381 13.9644 20.0954ZM4.9704 26.0466C5.51171 25.8148 6.22478 25.0521 7.10961 23.7584C6.57871 24.1446 6.12328 24.5501 5.74333 24.9749C5.36337 25.3997 5.10573 25.7569 4.9704 26.0466ZM11.1534 14.6354C11.0181 13.7665 11.0285 13.1293 11.1846 12.7238V12.6948C11.195 12.6852 11.2002 12.6755 11.2002 12.6659C11.3251 12.801 11.3928 12.9748 11.4032 13.1872C11.4032 13.1969 11.4084 13.2114 11.4188 13.2307C11.4188 13.2403 11.424 13.25 11.4345 13.2596C11.4032 13.2982 11.3824 13.3369 11.372 13.3755C11.2991 13.7617 11.2627 13.9693 11.2627 13.9982C11.2002 14.3554 11.1638 14.5678 11.1534 14.6354ZM9.24865 22.2955C10.654 21.7741 12.1322 21.3831 13.6832 21.1225C13.6624 21.1128 13.5947 21.0669 13.4802 20.9849C13.3657 20.9028 13.2824 20.8376 13.2304 20.7894C12.4393 20.1425 11.7782 19.2929 11.2473 18.2405C10.9663 19.0708 10.5343 20.0218 9.95131 21.0935C9.63902 21.6342 9.4048 22.0348 9.24865 22.2955ZM17.1498 21.7159C18.3573 21.7159 19.086 21.8318 19.3359 22.0635C19.3567 22.0828 19.3671 22.0973 19.3671 22.1069C19.3254 22.1166 19.2318 22.1214 19.086 22.1214C18.5864 22.1214 17.9409 21.9863 17.1498 21.7159Z" fill="#D9822F"/>
</svg>
