<svg width="24" height="24" viewBox="0 0 24 24" fill="none" xmlns="http://www.w3.org/2000/svg">
<path fill-rule="evenodd" clip-rule="evenodd" d="M0 4C0 2.89543 0.895431 2 2 2H22C23.1046 2 24 2.89543 24 4C24 5.10457 23.1046 6 22 6H2C0.89543 6 0 5.10457 0 4ZM4 12C4 10.8954 4.89543 10 6 10H18C19.1046 10 20 10.8954 20 12C20 13.1046 19.1046 14 18 14H6C4.89543 14 4 13.1046 4 12ZM10 18C8.89543 18 8 18.8954 8 20C8 21.1046 8.89543 22 10 22H14C15.1046 22 16 21.1046 16 20C16 18.8954 15.1046 18 14 18H10Z" fill="#32324D"/>
</svg>
