<svg width="24" height="24" viewBox="0 0 24 24" fill="none" xmlns="http://www.w3.org/2000/svg">
<path d="M18.9011 10C19.2962 10.6856 19.9461 11.1872 20.7094 11.3957C21.4727 11.6042 22.2874 11.5026 22.9761 11.113C23.0571 11.8366 22.9104 12.5675 22.5564 13.2039C22.2023 13.8402 21.6587 14.3502 21.0011 14.663L21.0001 21H15.0001V19C15.0009 18.2191 14.6971 17.4687 14.1533 16.9082C13.6096 16.3477 12.8687 16.0213 12.0881 15.9984C11.3076 15.9755 10.5488 16.2578 9.97313 16.7855C9.39744 17.3131 9.05016 18.0444 9.0051 18.824L9.0001 19V21H3.0001V14.664C2.34125 14.3517 1.79638 13.8414 1.44159 13.2044C1.0868 12.5675 0.939791 11.8356 1.0211 11.111C1.70974 11.5014 2.52478 11.6036 3.28851 11.3955C4.05224 11.1874 4.70271 10.6858 5.0981 10H18.9011ZM17.0361 3C17.1076 3.4961 17.2849 3.97105 17.5559 4.39272C17.8268 4.81438 18.1852 5.17293 18.6068 5.4441C19.0283 5.71527 19.5032 5.89273 19.9992 5.96448C20.4953 6.03624 21.001 6.00061 21.4821 5.86C21.3965 6.68858 21.0182 7.45945 20.4151 8.03408C19.8121 8.60872 19.0238 8.94943 18.1921 8.995L18.0001 9H6.0001C5.13408 9.00014 4.29875 8.6792 3.65561 8.09923C3.01247 7.51925 2.60718 6.72143 2.5181 5.86C2.99921 6.00061 3.5049 6.03624 4.00097 5.96448C4.49703 5.89273 4.9719 5.71527 5.39345 5.4441C5.81499 5.17293 6.17337 4.81438 6.44435 4.39272C6.71533 3.97105 6.89258 3.4961 6.9641 3H17.0361Z" fill="#212134"/>
</svg>
