<svg width="24" height="24" viewBox="0 0 24 24" fill="none" xmlns="http://www.w3.org/2000/svg">
<path d="M12.0001 0C5.3735 0 0 5.50144 0 12.2881C0 17.7173 3.43839 22.3234 8.2064 23.9482C8.80613 24.062 9.02631 23.6817 9.02631 23.3571C9.02631 23.0641 9.01518 22.0961 9.01001 21.0693C5.67157 21.8127 4.96712 19.6195 4.96712 19.6195C4.42125 18.1992 3.63473 17.8215 3.63473 17.8215C2.54596 17.0588 3.7168 17.0745 3.7168 17.0745C4.92181 17.1612 5.55632 18.3408 5.55632 18.3408C6.6266 20.2194 8.36359 19.6763 9.04836 19.3623C9.15607 18.5681 9.46706 18.026 9.81024 17.7191C7.14486 17.4084 4.34295 16.3548 4.34295 11.6463C4.34295 10.3047 4.81172 9.20855 5.57937 8.34801C5.45477 8.0385 5.04402 6.78869 5.69562 5.0961C5.69562 5.0961 6.70331 4.76584 8.9965 6.35568C9.95372 6.08341 10.9803 5.94687 12.0001 5.94219C13.0199 5.94687 14.0473 6.08341 15.0063 6.35568C17.2967 4.76584 18.303 5.0961 18.303 5.0961C18.9562 6.78869 18.5452 8.0385 18.4206 8.34801C19.1901 9.20855 19.6557 10.3047 19.6557 11.6463C19.6557 16.366 16.8484 17.4052 14.1762 17.7094C14.6067 18.0907 14.9902 18.8385 14.9902 19.985C14.9902 21.6291 14.9763 22.9524 14.9763 23.3571C14.9763 23.6841 15.1923 24.0673 15.8006 23.9466C20.566 22.32 24 17.7155 24 12.2881C24 5.50144 18.6273 0 12.0001 0Z" fill="#212134"/>
</svg>
