<svg width="32" height="32" viewBox="0 0 32 32" fill="none" xmlns="http://www.w3.org/2000/svg">
<path d="M0 4C0 1.79086 1.79086 0 4 0H28C30.2091 0 32 1.79086 32 4V28C32 30.2091 30.2091 32 28 32H4C1.79086 32 0 30.2091 0 28V4Z" fill="#AC73E6"/>
<path fill-rule="evenodd" clip-rule="evenodd" d="M15.0272 13.8386C11.8365 13.0029 8.72169 12.775 4.84723 13.2308C3.63171 13.3827 3.78365 15.206 4.9232 15.4339C5.22708 16.2696 5.37902 17.789 5.83484 18.7006C6.82244 20.9797 11.4566 20.6759 13.2039 19.5363C14.3435 18.8526 14.6473 17.2572 15.1032 16.0417C15.3311 15.358 16.6985 15.358 16.9264 16.0417C17.3063 17.2572 17.6861 18.8526 18.8257 19.5363C20.573 20.6759 25.2072 20.9797 26.1948 18.7006C26.6506 17.789 26.8025 16.2696 27.1064 15.4339C28.246 15.206 28.3219 13.3827 27.1824 13.2308C23.3079 12.775 20.1931 13.0029 17.0024 13.8386C16.5466 13.9145 15.483 13.9145 15.0272 13.8386Z" fill="white"/>
</svg>
