<svg viewBox="0 0 32 32"
    xmlns="http://www.w3.org/2000/svg">
    <path d="M16 3C13.4288 3 10.9154 3.76244 8.77759 5.1909C6.63975 6.61935 4.97351 8.64968 3.98957 11.0251C3.00563 13.4006 2.74819 16.0144 3.2498 18.5362C3.75141 21.0579 4.98953 23.3743 6.80762 25.1924C8.6257 27.0105 10.9421 28.2486 13.4638 28.7502C15.9856 29.2518 18.5995 28.9944 20.9749 28.0104C23.3503 27.0265 25.3807 25.3603 26.8091 23.2224C28.2376 21.0846 29 18.5712 29 16C28.9964 12.5533 27.6256 9.24882 25.1884 6.81163C22.7512 4.37445 19.4467 3.00364 16 3ZM25.7963 11H21.3675C20.8572 8.99189 20.0001 7.0883 18.835 5.375C20.3236 5.77503 21.7119 6.48215 22.9108 7.45091C24.1097 8.41967 25.0926 9.62861 25.7963 11ZM16 5.01375C17.5 6.63875 18.625 8.7075 19.2963 11H12.7038C13.375 8.7075 14.5 6.64125 16 5.01375ZM12 16C12.0002 14.9948 12.0838 13.9914 12.25 13H19.75C20.0817 14.9862 20.0817 17.0138 19.75 19H12.25C12.0838 18.0086 12.0002 17.0052 12 16ZM12.7038 21H19.2963C18.625 23.2925 17.5 25.3587 16 26.9862C14.5 25.3587 13.375 23.2925 12.7038 21ZM18.835 26.625C20.0001 24.9117 20.8572 23.0081 21.3675 21H25.7963C25.0926 22.3714 24.1097 23.5803 22.9108 24.5491C21.7119 25.5178 20.3236 26.225 18.835 26.625ZM21.7763 19C22.0746 17.0111 22.0746 14.9889 21.7763 13H26.5838C27.1388 14.9615 27.1388 17.0385 26.5838 19H21.7763Z" />
</svg>
