<svg viewBox="0 0 32 32"
    xmlns="http://www.w3.org/2000/svg">
    <path fill-rule="evenodd" clip-rule="evenodd" d="M13.2899 28.2263L6.76507 24.4592C6.25122 24.9965 5.52724 25.3311 4.72511 25.3311C3.16634 25.3311 1.90271 24.0674 1.90271 22.5087C1.90271 21.1802 2.82052 20.0661 4.05664 19.7659V12.2341C2.82052 11.9339 1.90271 10.8198 1.90271 9.49135C1.90271 7.93258 3.16634 6.66895 4.72511 6.66895C5.52722 6.66895 6.25119 7.00355 6.76503 7.54079L13.2899 3.77365C13.2168 3.52272 13.1776 3.25734 13.1776 2.9828C13.1776 1.42403 14.4412 0.1604 16 0.1604C17.5588 0.1604 18.8224 1.42403 18.8224 2.9828C18.8224 3.25734 18.7832 3.52273 18.7101 3.77366L25.234 7.54021C25.7478 7.00331 26.4715 6.66895 27.2733 6.66895C28.8321 6.66895 30.0957 7.93258 30.0957 9.49135C30.0957 10.8192 29.1787 11.933 27.9434 12.2337V19.7663C29.1787 20.0671 30.0957 21.1808 30.0957 22.5087C30.0957 24.0674 28.8321 25.3311 27.2733 25.3311C26.4715 25.3311 25.7477 24.9967 25.2339 24.4598L18.7101 28.2263C18.7832 28.4773 18.8224 28.7427 18.8224 29.0172C18.8224 30.576 17.5588 31.8396 16 31.8396C14.4412 31.8396 13.1776 30.576 13.1776 29.0172C13.1776 28.7427 13.2168 28.4773 13.2899 28.2263ZM16 5.8052C16.2746 5.8052 16.54 5.76599 16.791 5.69285L25.3222 20.4693C24.9399 20.8352 24.6603 21.3075 24.5309 21.8386H7.46749C7.33828 21.3079 7.05903 20.836 6.67723 20.4703L15.209 5.69285C15.46 5.76598 15.7254 5.8052 16 5.8052ZM7.4675 23.1787C7.45767 23.2191 7.44696 23.2592 7.4354 23.2989L13.9606 27.0662C14.4744 26.5292 15.1982 26.1948 16 26.1948C16.8019 26.1948 17.5256 26.5292 18.0394 27.0661L24.5633 23.2996C24.5516 23.2597 24.5408 23.2194 24.5309 23.1787H7.4675ZM5.3967 12.2334C6.63124 11.932 7.54751 10.8187 7.54751 9.49135C7.54751 9.21704 7.50838 8.95188 7.4354 8.70114L13.9606 4.93385C13.9893 4.96392 14.0188 4.99336 14.0488 5.02213L5.51739 19.799C5.47752 19.7874 5.43728 19.7766 5.3967 19.7667V12.2334ZM26.4824 19.7986C26.5223 19.787 26.5626 19.7762 26.6033 19.7663V12.2337C25.368 11.933 24.4509 10.8192 24.4509 9.49135C24.4509 9.21676 24.4901 8.95134 24.5633 8.70037L18.0395 4.93386C18.0107 4.96393 17.9812 4.99337 17.9512 5.02215L26.4824 19.7986Z" />
</svg>
