<svg width="24" height="24" viewBox="0 0 24 24" fill="none" xmlns="http://www.w3.org/2000/svg">
<path fill-rule="evenodd" clip-rule="evenodd" d="M11.7603 6.80142C11.8864 6.83772 12.0198 6.85716 12.1577 6.85716C12.2963 6.85716 12.4301 6.83755 12.5567 6.80095L16.8675 14.2515C16.771 14.3433 16.6859 14.4503 16.6161 14.5714C16.5468 14.6918 16.4969 14.8182 16.4657 14.9469H7.84993C7.81865 14.8183 7.76879 14.6919 7.69937 14.5714C7.62937 14.4512 7.54459 14.3449 7.44869 14.2535L11.7603 6.80142ZM11.1308 6.42294C11.1442 6.43676 11.1579 6.45031 11.1718 6.46358L6.86013 13.9157C6.84144 13.9103 6.82263 13.9052 6.80373 13.9006V10.0988C7.16709 10.0087 7.49449 9.77746 7.69547 9.42859C7.89619 9.08015 7.93338 8.68264 7.83054 8.3244L11.1308 6.42294ZM13.5263 5.83976C13.5646 5.71081 13.5852 5.57418 13.5852 5.43267C13.5852 4.64491 12.9471 4.00818 12.1577 4.00818C11.3683 4.00818 10.7302 4.64491 10.7302 5.43267C10.7302 5.57345 10.7506 5.7094 10.7886 5.83776L7.49428 7.73578C7.4019 7.63844 7.29411 7.55247 7.17192 7.48165C6.48885 7.08981 5.61354 7.32247 5.22088 8.0041C4.82822 8.68573 5.06136 9.5592 5.74443 9.95104C5.86636 10.021 5.99441 10.071 6.12476 10.1022V13.8987C5.99584 13.9299 5.86915 13.9797 5.74834 14.049C5.06527 14.4449 4.83213 15.3143 5.22479 15.9959C5.61745 16.6775 6.48867 16.9102 7.17582 16.5184C7.29677 16.4483 7.40361 16.3633 7.49537 16.2672L10.788 18.1643C10.7504 18.292 10.7302 18.4273 10.7302 18.5674C10.7302 19.3551 11.3683 19.9919 12.1577 19.9919C12.9471 19.9919 13.5852 19.351 13.5852 18.5674C13.5852 18.4105 13.5599 18.2596 13.5131 18.1185L16.7867 16.2324C16.8856 16.3433 17.0037 16.4404 17.1397 16.5184C17.8228 16.9102 18.6981 16.6775 19.0907 15.9959C19.4875 15.3143 19.2543 14.4449 18.5672 14.049C18.4465 13.9798 18.3199 13.93 18.1909 13.8988V10.1022C18.3213 10.071 18.4494 10.021 18.5713 9.95104C19.2544 9.55512 19.4875 8.68573 19.0949 8.0041C18.6981 7.32247 17.8269 7.08981 17.1438 7.48165C17.021 7.55287 16.9127 7.63941 16.8199 7.73742L13.5263 5.83976ZM13.1449 6.4624C13.1579 6.44999 13.1706 6.43733 13.1832 6.42444L16.4846 8.32658C16.3825 8.68425 16.42 9.08085 16.6203 9.42859C16.8213 9.77744 17.1486 10.0087 17.512 10.0988V13.9002C17.4935 13.9047 17.475 13.9096 17.4567 13.9149L13.1449 6.4624ZM16.4934 15.718L13.2134 17.6078C12.9525 17.322 12.5764 17.1429 12.1577 17.1429C11.7535 17.1429 11.3889 17.3099 11.1294 17.5786L7.83331 15.6795C7.83861 15.6613 7.84355 15.6429 7.84811 15.6245H16.467C16.4748 15.6559 16.4836 15.6871 16.4934 15.718Z" fill="#8E8EA9"/>
</svg>
