<svg width="24" height="24" viewBox="0 0 24 24" fill="none" xmlns="http://www.w3.org/2000/svg">
<path d="M9.33 11.5H11.5C12.6935 11.5 13.8381 11.9741 14.682 12.818C15.5259 13.662 16 14.8065 16 16H8.999L9 17H17V16C16.9968 14.936 16.6894 13.895 16.114 13H19C19.9453 12.9998 20.8712 13.2675 21.6705 13.7721C22.4698 14.2767 23.1097 14.9975 23.516 15.851C21.151 18.972 17.322 21 13 21C10.239 21 7.9 20.41 6 19.375V10.071C7.21661 10.2453 8.36547 10.7383 9.33 11.5ZM4 9.00002C4.24493 9.00005 4.48134 9.08997 4.66437 9.25273C4.84741 9.41549 4.96434 9.63977 4.993 9.88302L5 10V19C5 19.2652 4.89464 19.5196 4.70711 19.7071C4.51957 19.8947 4.26522 20 4 20H2C1.73478 20 1.48043 19.8947 1.29289 19.7071C1.10536 19.5196 1 19.2652 1 19V10C1 9.7348 1.10536 9.48045 1.29289 9.29291C1.48043 9.10537 1.73478 9.00002 2 9.00002H4ZM13.646 3.57502L14 3.93002L14.354 3.57602C14.5858 3.34224 14.8615 3.15654 15.1653 3.0296C15.469 2.90265 15.7949 2.83696 16.1241 2.83629C16.4533 2.83561 16.7795 2.89997 17.0837 3.02567C17.388 3.15137 17.6645 3.33593 17.8973 3.56876C18.13 3.80159 18.3145 4.07811 18.4401 4.38243C18.5657 4.68675 18.63 5.01288 18.6292 5.3421C18.6285 5.67133 18.5627 5.99716 18.4356 6.30089C18.3086 6.60462 18.1228 6.88027 17.889 7.11202L14 11L10.11 7.11002C9.87622 6.87821 9.69053 6.6025 9.56358 6.29874C9.43664 5.99497 9.37094 5.66912 9.37027 5.3399C9.36959 5.01067 9.43396 4.68456 9.55965 4.38027C9.68535 4.07599 9.86992 3.79953 10.1027 3.56676C10.3356 3.334 10.6121 3.14951 10.9164 3.0239C11.2207 2.89829 11.5469 2.83402 11.8761 2.83478C12.2053 2.83555 12.5311 2.90134 12.8349 3.02837C13.1386 3.1554 13.4143 3.34117 13.646 3.57502Z" fill="#212134"/>
</svg>
