<svg viewBox="0 0 32 32"
    xmlns="http://www.w3.org/2000/svg">
    <path d="M28 10.5H22.525L23.4762 5.26878C23.5475 4.87726 23.4604 4.47345 23.2339 4.1462C23.0075 3.81895 22.6603 3.59506 22.2687 3.52378C21.8772 3.4525 21.4734 3.53968 21.1462 3.76613C20.8189 3.99258 20.595 4.33976 20.5238 4.73128L19.475 10.5H14.525L15.4762 5.26878C15.5115 5.07492 15.5083 4.876 15.4667 4.68339C15.4251 4.49077 15.346 4.30824 15.2339 4.1462C15.1218 3.98416 14.9788 3.8458 14.8132 3.739C14.6476 3.63221 14.4626 3.55907 14.2688 3.52378C14.0749 3.48849 13.876 3.49173 13.6834 3.53331C13.4907 3.57489 13.3082 3.654 13.1462 3.76613C12.8189 3.99258 12.595 4.33976 12.5238 4.73128L11.475 10.5H6C5.60218 10.5 5.22064 10.6581 4.93934 10.9394C4.65804 11.2207 4.5 11.6022 4.5 12C4.5 12.3979 4.65804 12.7794 4.93934 13.0607C5.22064 13.342 5.60218 13.5 6 13.5H10.93L10.0212 18.5H4C3.60218 18.5 3.22064 18.6581 2.93934 18.9394C2.65804 19.2207 2.5 19.6022 2.5 20C2.5 20.3979 2.65804 20.7794 2.93934 21.0607C3.22064 21.342 3.60218 21.5 4 21.5H9.475L8.52375 26.7313C8.48766 26.9255 8.4903 27.125 8.53151 27.3182C8.57272 27.5114 8.65169 27.6946 8.76389 27.8572C8.87609 28.0198 9.01931 28.1586 9.18531 28.2657C9.35132 28.3728 9.53685 28.4461 9.73125 28.4813C9.82004 28.496 9.91003 28.5023 10 28.5C10.3513 28.4998 10.6913 28.3763 10.9609 28.1511C11.2304 27.9258 11.4124 27.6132 11.475 27.2675L12.525 21.5H17.475L16.5238 26.7313C16.4877 26.9255 16.4903 27.125 16.5315 27.3182C16.5727 27.5114 16.6517 27.6946 16.7639 27.8572C16.8761 28.0198 17.0193 28.1586 17.1853 28.2657C17.3513 28.3728 17.5369 28.4461 17.7313 28.4813C17.8203 28.4982 17.9107 28.5065 18.0012 28.5063C18.3525 28.5061 18.6926 28.3826 18.9621 28.1573C19.2317 27.9321 19.4136 27.6194 19.4762 27.2738L20.525 21.5H26C26.3978 21.5 26.7794 21.342 27.0607 21.0607C27.342 20.7794 27.5 20.3979 27.5 20C27.5 19.6022 27.342 19.2207 27.0607 18.9394C26.7794 18.6581 26.3978 18.5 26 18.5H21.07L21.9788 13.5H28C28.3978 13.5 28.7794 13.342 29.0607 13.0607C29.342 12.7794 29.5 12.3979 29.5 12C29.5 11.6022 29.342 11.2207 29.0607 10.9394C28.7794 10.6581 28.3978 10.5 28 10.5ZM18.0212 18.5H13.07L13.9788 13.5H18.93L18.0212 18.5Z" />
</svg>
