<svg viewBox="0 0 32 32"
    xmlns="http://www.w3.org/2000/svg">
    <path d="M31.5 22.5C31.5 23.8261 30.9732 25.0979 30.0355 26.0355C29.0979 26.9732 27.8261 27.5 26.5 27.5C25.8379 27.5099 25.1807 27.3867 24.5672 27.1376C23.9537 26.8885 23.3965 26.5186 22.9287 26.05C22.7909 25.9093 22.682 25.7429 22.6085 25.5601C22.5349 25.3774 22.4981 25.1819 22.5 24.985C22.502 24.788 22.5428 24.5933 22.62 24.4121C22.6972 24.2309 22.8093 24.0666 22.95 23.9287C23.0907 23.7909 23.2571 23.682 23.4399 23.6085C23.6226 23.5349 23.8181 23.4981 24.015 23.5C24.212 23.502 24.4067 23.5428 24.5879 23.62C24.7691 23.6972 24.9334 23.8093 25.0713 23.95C25.2597 24.1337 25.4836 24.2771 25.7292 24.3717C25.9748 24.4662 26.237 24.5099 26.5 24.5C27.0304 24.5 27.5391 24.2893 27.9142 23.9142C28.2893 23.5391 28.5 23.0304 28.5 22.5C28.5 21.9696 28.2893 21.4609 27.9142 21.0858C27.5391 20.7107 27.0304 20.5 26.5 20.5C26.237 20.4901 25.9748 20.5338 25.7292 20.6283C25.4836 20.7229 25.2597 20.8663 25.0713 21.05C24.8478 21.2785 24.5571 21.4297 24.2417 21.4815C23.9263 21.5332 23.6026 21.4829 23.3178 21.3377C23.033 21.1926 22.802 20.9603 22.6585 20.6747C22.515 20.3891 22.4665 20.0651 22.52 19.75L23.52 13.75C23.5791 13.4003 23.7602 13.0829 24.0311 12.854C24.3021 12.6252 24.6454 12.4998 25 12.5H30C30.3978 12.5 30.7794 12.658 31.0607 12.9393C31.342 13.2206 31.5 13.6022 31.5 14C31.5 14.3978 31.342 14.7794 31.0607 15.0607C30.7794 15.342 30.3978 15.5 30 15.5H26.2712L25.9325 17.5287C26.1211 17.5097 26.3105 17.5001 26.5 17.5C27.8261 17.5 29.0979 18.0268 30.0355 18.9645C30.9732 19.9021 31.5 21.1739 31.5 22.5ZM18 5.5C17.6022 5.5 17.2206 5.65804 16.9393 5.93934C16.658 6.22064 16.5 6.60218 16.5 7V13H6.5V7C6.5 6.60218 6.34196 6.22064 6.06066 5.93934C5.77936 5.65804 5.39782 5.5 5 5.5C4.60218 5.5 4.22064 5.65804 3.93934 5.93934C3.65804 6.22064 3.5 6.60218 3.5 7V22C3.5 22.3978 3.65804 22.7794 3.93934 23.0607C4.22064 23.342 4.60218 23.5 5 23.5C5.39782 23.5 5.77936 23.342 6.06066 23.0607C6.34196 22.7794 6.5 22.3978 6.5 22V16H16.5V22C16.5 22.3978 16.658 22.7794 16.9393 23.0607C17.2206 23.342 17.6022 23.5 18 23.5C18.3978 23.5 18.7794 23.342 19.0607 23.0607C19.342 22.7794 19.5 22.3978 19.5 22V7C19.5 6.60218 19.342 6.22064 19.0607 5.93934C18.7794 5.65804 18.3978 5.5 18 5.5Z" />
</svg>
