<svg viewBox="0 0 32 32"
    xmlns="http://www.w3.org/2000/svg">
    <path d="M32 22C32 22.3978 31.842 22.7794 31.5607 23.0607C31.2794 23.342 30.8978 23.5 30.5 23.5V26C30.5 26.3978 30.342 26.7794 30.0607 27.0607C29.7794 27.342 29.3978 27.5 29 27.5C28.6022 27.5 28.2206 27.342 27.9393 27.0607C27.658 26.7794 27.5 26.3978 27.5 26V23.5H23C22.7624 23.4999 22.5283 23.4433 22.3169 23.335C22.1054 23.2267 21.9227 23.0698 21.7838 22.877C21.6449 22.6843 21.5538 22.4613 21.5179 22.2265C21.482 21.9917 21.5025 21.7517 21.5775 21.5263L24.5775 12.5262C24.7118 12.1601 24.9835 11.8608 25.3349 11.6916C25.6862 11.5223 26.0896 11.4966 26.4596 11.6199C26.8296 11.7431 27.1371 12.0056 27.3168 12.3516C27.4966 12.6977 27.5345 13.1002 27.4225 13.4738L25.0812 20.5H27.5V18C27.5 17.6022 27.658 17.2206 27.9393 16.9393C28.2206 16.658 28.6022 16.5 29 16.5C29.3978 16.5 29.7794 16.658 30.0607 16.9393C30.342 17.2206 30.5 17.6022 30.5 18V20.5C30.8978 20.5 31.2794 20.658 31.5607 20.9393C31.842 21.2206 32 21.6022 32 22ZM18 5.5C17.6022 5.5 17.2206 5.65804 16.9393 5.93934C16.658 6.22064 16.5 6.60218 16.5 7V13H6.5V7C6.5 6.60218 6.34196 6.22064 6.06066 5.93934C5.77936 5.65804 5.39782 5.5 5 5.5C4.60218 5.5 4.22064 5.65804 3.93934 5.93934C3.65804 6.22064 3.5 6.60218 3.5 7V22C3.5 22.3978 3.65804 22.7794 3.93934 23.0607C4.22064 23.342 4.60218 23.5 5 23.5C5.39782 23.5 5.77936 23.342 6.06066 23.0607C6.34196 22.7794 6.5 22.3978 6.5 22V16H16.5V22C16.5 22.3978 16.658 22.7794 16.9393 23.0607C17.2206 23.342 17.6022 23.5 18 23.5C18.3978 23.5 18.7794 23.342 19.0607 23.0607C19.342 22.7794 19.5 22.3978 19.5 22V7C19.5 6.60218 19.342 6.22064 19.0607 5.93934C18.7794 5.65804 18.3978 5.5 18 5.5Z" />
</svg>
