<svg viewBox="0 0 32 32"
    xmlns="http://www.w3.org/2000/svg">
    <path d="M19.5 7V22C19.5 22.3978 19.342 22.7794 19.0607 23.0607C18.7794 23.342 18.3978 23.5 18 23.5C17.6022 23.5 17.2206 23.342 16.9393 23.0607C16.658 22.7794 16.5 22.3978 16.5 22V16H6.5V22C6.5 22.3978 6.34196 22.7794 6.06066 23.0607C5.77936 23.342 5.39782 23.5 5 23.5C4.60218 23.5 4.22064 23.342 3.93934 23.0607C3.65804 22.7794 3.5 22.3978 3.5 22V7C3.5 6.60218 3.65804 6.22064 3.93934 5.93934C4.22064 5.65804 4.60218 5.5 5 5.5C5.39782 5.5 5.77936 5.65804 6.06066 5.93934C6.34196 6.22064 6.5 6.60218 6.5 7V13H16.5V7C16.5 6.60218 16.658 6.22064 16.9393 5.93934C17.2206 5.65804 17.6022 5.5 18 5.5C18.3978 5.5 18.7794 5.65804 19.0607 5.93934C19.342 6.22064 19.5 6.60218 19.5 7ZM30 24.5H27L30.5925 19.7087C30.983 19.1905 31.2569 18.594 31.3952 17.96C31.5336 17.326 31.5332 16.6696 31.3941 16.0358C31.255 15.4019 30.9804 14.8057 30.5893 14.2879C30.1981 13.7702 29.6996 13.3431 29.1279 13.0361C28.5563 12.729 27.925 12.5493 27.2773 12.5091C26.6296 12.4689 25.9809 12.5693 25.3757 12.8034C24.7705 13.0374 24.223 13.3996 23.7709 13.865C23.3187 14.3305 22.9726 14.8882 22.7563 15.5C22.6236 15.8751 22.6455 16.2875 22.817 16.6466C22.9884 17.0056 23.2955 17.2818 23.6706 17.4144C24.0457 17.547 24.4582 17.5251 24.8172 17.3537C25.1762 17.1822 25.4524 16.8751 25.585 16.5C25.6355 16.3553 25.7085 16.2195 25.8013 16.0975C25.9184 15.9364 26.0666 15.8002 26.237 15.6969C26.4074 15.5936 26.5966 15.5254 26.7937 15.4961C26.9908 15.4668 27.1918 15.477 27.3848 15.5262C27.5779 15.5754 27.7592 15.6626 27.9183 15.7827C28.0773 15.9027 28.2108 16.0533 28.311 16.2255C28.4111 16.3977 28.476 16.5882 28.5018 16.7858C28.5275 16.9834 28.5137 17.1841 28.461 17.3763C28.4083 17.5684 28.3179 17.7482 28.195 17.905L22.8 25.1C22.6329 25.3229 22.5311 25.5878 22.5061 25.8653C22.481 26.1427 22.5338 26.4217 22.6584 26.6708C22.7829 26.92 22.9744 27.1295 23.2114 27.276C23.4484 27.4224 23.7214 27.5 24 27.5H30C30.3978 27.5 30.7794 27.342 31.0607 27.0607C31.342 26.7794 31.5 26.3978 31.5 26C31.5 25.6022 31.342 25.2206 31.0607 24.9393C30.7794 24.658 30.3978 24.5 30 24.5Z" />
</svg>
