<svg width="24px" height="24px" viewBox="0 0 24 24" fill="none" xmlns="http://www.w3.org/2000/svg">
<path d="M 12 2 C 17.523438 2 22 6.476562 22 12 C 22 17.523438 17.523438 22 12 22 C 6.476562 22 2 17.523438 2 12 L 4 12 C 4 16.417969 7.582031 20 12 20 C 16.417969 20 20 16.417969 20 12 C 20 7.582031 16.417969 4 12 4 C 9.25 4 6.824219 5.386719 5.382812 7.5 L 8 7.5 L 8 9.5 L 2 9.5 L 2 3.5 L 4 3.5 L 4 6 C 5.824219 3.570312 8.730469 2 12 2 Z M 13 7 L 13 11.585938 L 16.242188 14.828125 L 14.828125 16.242188 L 11 12.414062 L 11 7 Z M 13 7 " fill="#212134" />
</svg>
