<svg width="24" height="24" viewBox="0 0 24 24" fill="none" xmlns="http://www.w3.org/2000/svg">
<path fill-rule="evenodd" clip-rule="evenodd" d="M7.1278 12.3211C6.7938 13.9638 5.34128 15.2 3.60002 15.2C1.61178 15.2 0 13.5882 0 11.6C0 9.61174 1.61178 7.99995 3.60002 7.99995C5.34208 7.99995 6.79514 9.23732 7.12826 10.8811H18.72V8.48043L24 11.6004L18.72 14.7205V12.3211H7.1278ZM6.00003 11.6C6.00003 12.9255 4.92551 14 3.60002 14C2.27453 14 1.20001 12.9255 1.20001 11.6C1.20001 10.2745 2.27453 9.19996 3.60002 9.19996C4.92551 9.19996 6.00003 10.2745 6.00003 11.6Z" fill="#212134"/>
</svg>
