<svg width="24" height="24" viewBox="0 0 24 24" fill="none" xmlns="http://www.w3.org/2000/svg">
<path fill-rule="evenodd" clip-rule="evenodd" d="M20.3999 14.4008C21.7254 14.4008 22.7999 13.3263 22.7999 12.0008C22.7999 10.6753 21.7254 9.60079 20.3999 9.60079C19.0744 9.60079 17.9998 10.6753 17.9998 12.0008C17.9998 13.3263 19.0744 14.4008 20.3999 14.4008ZM20.3999 15.6009C22.3881 15.6009 23.9999 13.9891 23.9999 12.0008C23.9999 10.0126 22.3881 8.40078 20.3999 8.40078C18.4116 8.40078 16.7998 10.0126 16.7998 12.0008C16.7998 13.9891 18.4116 15.6009 20.3999 15.6009Z" fill="#212134"/>
<path fill-rule="evenodd" clip-rule="evenodd" d="M3.60004 14.4008C4.92553 14.4008 6.00006 13.3263 6.00006 12.0008C6.00006 10.6753 4.92553 9.60079 3.60004 9.60079C2.27454 9.60079 1.20001 10.6753 1.20001 12.0008C1.20001 13.3263 2.27454 14.4008 3.60004 14.4008ZM3.60004 15.6009C5.58828 15.6009 7.20007 13.9891 7.20007 12.0008C7.20007 10.0126 5.58828 8.40078 3.60004 8.40078C1.61179 8.40078 0 10.0126 0 12.0008C0 13.9891 1.61179 15.6009 3.60004 15.6009Z" fill="#212134"/>
<path fill-rule="evenodd" clip-rule="evenodd" d="M20.3999 22.7999C21.7254 22.7999 22.7999 21.7254 22.7999 20.3999C22.7999 19.0744 21.7254 17.9999 20.3999 17.9999C19.0744 17.9999 17.9998 19.0744 17.9998 20.3999C17.9998 21.7254 19.0744 22.7999 20.3999 22.7999ZM20.3999 23.9999C22.3881 23.9999 23.9999 22.3881 23.9999 20.3999C23.9999 18.4116 22.3881 16.7999 20.3999 16.7999C18.4116 16.7999 16.7998 18.4116 16.7998 20.3999C16.7998 22.3881 18.4116 23.9999 20.3999 23.9999Z" fill="#212134"/>
<path fill-rule="evenodd" clip-rule="evenodd" d="M20.3999 6.00006C21.7254 6.00006 22.7999 4.92553 22.7999 3.60004C22.7999 2.27454 21.7254 1.20001 20.3999 1.20001C19.0744 1.20001 17.9998 2.27454 17.9998 3.60004C17.9998 4.92553 19.0744 6.00006 20.3999 6.00006ZM20.3999 7.20007C22.3881 7.20007 23.9999 5.58828 23.9999 3.60004C23.9999 1.61179 22.3881 0 20.3999 0C18.4116 0 16.7998 1.61179 16.7998 3.60004C16.7998 5.58828 18.4116 7.20007 20.3999 7.20007Z" fill="#212134"/>
<path d="M6.2403 11.2803H18.0004V12.7203H6.2403V11.2803Z" fill="#212134"/>
<path fill-rule="evenodd" clip-rule="evenodd" d="M3.60038 22.7999C2.27489 22.7999 1.20036 21.7254 1.20036 20.3999C1.20036 19.0744 2.27489 17.9999 3.60038 17.9999C4.92588 17.9999 6.00041 19.0744 6.00041 20.3999C6.00041 21.7254 4.92588 22.7999 3.60038 22.7999ZM3.60038 23.9999C1.61214 23.9999 0.000348065 22.3881 0.000348065 20.3999C0.000348065 18.4116 1.61214 16.7999 3.60038 16.7999C5.58863 16.7999 7.20042 18.4116 7.20042 20.3999C7.20042 22.3881 5.58863 23.9999 3.60038 23.9999Z" fill="#212134"/>
<path fill-rule="evenodd" clip-rule="evenodd" d="M3.60038 6.00006C2.27489 6.00006 1.20036 4.92553 1.20036 3.60004C1.20036 2.27454 2.27489 1.20001 3.60038 1.20001C4.92588 1.20001 6.00041 2.27454 6.00041 3.60004C6.00041 4.92553 4.92588 6.00006 3.60038 6.00006ZM3.60038 7.20007C1.61214 7.20007 0.000348065 5.58828 0.000348065 3.60004C0.000348065 1.61179 1.61214 0 3.60038 0C5.58863 0 7.20042 1.61179 7.20042 3.60004C7.20042 5.58828 5.58863 7.20007 3.60038 7.20007Z" fill="#212134"/>
<path d="M18.3275 13.8634L6.48995 19.7654L5.83822 18.4582L17.6758 12.5563L18.3275 13.8634Z" fill="#212134"/>
<path d="M18.3584 10.0782L6.39769 4.11482L5.75244 5.40899L17.7132 11.3724L18.3584 10.0782Z" fill="#212134"/>
<path d="M18.3233 18.8306L6.25202 12.8121L5.60877 14.1022L17.68 20.1207L18.3233 18.8306Z" fill="#212134"/>
<path d="M18.1358 5.22826L6.20708 11.1757L5.55355 9.86491L17.4822 3.91749L18.1358 5.22826Z" fill="#212134"/>
</svg>
