<svg width="24" height="25" viewBox="0 0 24 25" fill="none" xmlns="http://www.w3.org/2000/svg">
<path d="M6.24008 11.2799H17.9998V12.7198H6.24008V11.2799Z" fill="#212134"/>
<path d="M5.87097 10.699L14.2177 4.52273L15.078 5.68541L6.73131 11.8617L5.87097 10.699Z" fill="#212134"/>
<path d="M5.89859 13.3541L14.2453 19.5303L15.1091 18.363L6.76236 12.1867L5.89859 13.3541Z" fill="#212134"/>
<path fill-rule="evenodd" clip-rule="evenodd" d="M3.5999 14.3986C4.92535 14.3986 5.99983 13.3241 5.99983 11.9987C5.99983 10.6732 4.92535 9.59875 3.5999 9.59875C2.27445 9.59875 1.19997 10.6732 1.19997 11.9987C1.19997 13.3241 2.27445 14.3986 3.5999 14.3986ZM3.5999 15.5986C5.58807 15.5986 7.1998 13.9868 7.1998 11.9987C7.1998 10.0105 5.58807 8.39878 3.5999 8.39878C1.61173 8.39878 0 10.0105 0 11.9987C0 13.9868 1.61173 15.5986 3.5999 15.5986Z" fill="#212134"/>
<path fill-rule="evenodd" clip-rule="evenodd" d="M20.4 14.3986C21.7255 14.3986 22.8 13.3241 22.8 11.9987C22.8 10.6732 21.7255 9.59875 20.4 9.59875C19.0746 9.59875 18.0001 10.6732 18.0001 11.9987C18.0001 13.3241 19.0746 14.3986 20.4 14.3986ZM20.4 15.5986C22.3882 15.5986 23.9999 13.9868 23.9999 11.9987C23.9999 10.0105 22.3882 8.39878 20.4 8.39878C18.4119 8.39878 16.8001 10.0105 16.8001 11.9987C16.8001 13.9868 18.4119 15.5986 20.4 15.5986Z" fill="#212134"/>
<path fill-rule="evenodd" clip-rule="evenodd" d="M16.7999 22.8008C18.1254 22.8008 19.1999 21.7263 19.1999 20.4009C19.1999 19.0754 18.1254 18.0009 16.7999 18.0009C15.4745 18.0009 14.4 19.0754 14.4 20.4009C14.4 21.7263 15.4745 22.8008 16.7999 22.8008ZM16.7999 24.0008C18.7881 24.0008 20.3998 22.389 20.3998 20.4009C20.3998 18.4127 18.7881 16.801 16.7999 16.801C14.8118 16.801 13.2 18.4127 13.2 20.4009C13.2 22.389 14.8118 24.0008 16.7999 24.0008Z" fill="#212134"/>
<path fill-rule="evenodd" clip-rule="evenodd" d="M16.7999 5.99983C18.1254 5.99983 19.1999 4.92535 19.1999 3.5999C19.1999 2.27445 18.1254 1.19997 16.7999 1.19997C15.4745 1.19997 14.4 2.27445 14.4 3.5999C14.4 4.92535 15.4745 5.99983 16.7999 5.99983ZM16.7999 7.1998C18.7881 7.1998 20.3998 5.58807 20.3998 3.5999C20.3998 1.61173 18.7881 0 16.7999 0C14.8118 0 13.2 1.61173 13.2 3.5999C13.2 5.58807 14.8118 7.1998 16.7999 7.1998Z" fill="#212134"/>
</svg>
