<svg width="24" height="25" viewBox="0 0 24 25" fill="none" xmlns="http://www.w3.org/2000/svg">
<path d="M17.7599 11.2799H6.00016V12.7199H17.7599V11.2799Z" fill="#212134"/>
<path d="M18.129 10.699L9.78225 4.52275L8.92191 5.68542L17.2687 11.8617L18.129 10.699Z" fill="#212134"/>
<path d="M18.1014 13.3541L9.75466 19.5304L8.89089 18.363L17.2376 12.1868L18.1014 13.3541Z" fill="#212134"/>
<path fill-rule="evenodd" clip-rule="evenodd" d="M20.4001 14.3987C19.0746 14.3987 18.0001 13.3242 18.0001 11.9987C18.0001 10.6733 19.0746 9.59878 20.4001 9.59878C21.7255 9.59878 22.8 10.6733 22.8 11.9987C22.8 13.3242 21.7255 14.3987 20.4001 14.3987ZM20.4001 15.5986C18.4119 15.5986 16.8002 13.9869 16.8002 11.9987C16.8002 10.0105 18.4119 8.39881 20.4001 8.39881C22.3883 8.39881 24 10.0105 24 11.9987C24 13.9869 22.3883 15.5986 20.4001 15.5986Z" fill="#212134"/>
<path fill-rule="evenodd" clip-rule="evenodd" d="M3.59991 14.3987C2.27446 14.3987 1.19997 13.3242 1.19997 11.9987C1.19997 10.6733 2.27446 9.59878 3.59991 9.59878C4.92536 9.59878 5.99985 10.6733 5.99985 11.9987C5.99985 13.3242 4.92536 14.3987 3.59991 14.3987ZM3.59991 15.5986C1.61174 15.5986 0 13.9869 0 11.9987C0 10.0105 1.61174 8.39881 3.59991 8.39881C5.58809 8.39881 7.19982 10.0105 7.19982 11.9987C7.19982 13.9869 5.58809 15.5986 3.59991 15.5986Z" fill="#212134"/>
<path fill-rule="evenodd" clip-rule="evenodd" d="M7.19998 22.8009C5.87453 22.8009 4.80004 21.7264 4.80004 20.4009C4.80004 19.0755 5.87453 18.001 7.19998 18.001C8.52543 18.001 9.59993 19.0755 9.59993 20.4009C9.59993 21.7264 8.52543 22.8009 7.19998 22.8009ZM7.19998 24.0009C5.21181 24.0009 3.60007 22.3891 3.60007 20.4009C3.60007 18.4128 5.21181 16.801 7.19998 16.801C9.18816 16.801 10.7999 18.4128 10.7999 20.4009C10.7999 22.3891 9.18816 24.0009 7.19998 24.0009Z" fill="#212134"/>
<path fill-rule="evenodd" clip-rule="evenodd" d="M7.19998 5.99985C5.87453 5.99985 4.80004 4.92536 4.80004 3.59991C4.80004 2.27446 5.87453 1.19997 7.19998 1.19997C8.52543 1.19997 9.59993 2.27446 9.59993 3.59991C9.59993 4.92536 8.52543 5.99985 7.19998 5.99985ZM7.19998 7.19982C5.21181 7.19982 3.60007 5.58809 3.60007 3.59991C3.60007 1.61174 5.21181 0 7.19998 0C9.18816 0 10.7999 1.61174 10.7999 3.59991C10.7999 5.58809 9.18816 7.19982 7.19998 7.19982Z" fill="#212134"/>
</svg>
