<svg width="24" height="25" viewBox="0 0 24 25" fill="none" xmlns="http://www.w3.org/2000/svg">
<path d="M6.2401 11.2799H17.9998V12.7199H6.2401V11.2799Z" fill="#212134"/>
<path d="M5.87099 10.699L14.2177 4.52275L15.0781 5.68542L6.73133 11.8617L5.87099 10.699Z" fill="#212134"/>
<path d="M5.89861 13.3541L14.2454 19.5304L15.1091 18.363L6.76239 12.1868L5.89861 13.3541Z" fill="#212134"/>
<path fill-rule="evenodd" clip-rule="evenodd" d="M3.59991 14.3987C4.92536 14.3987 5.99985 13.3242 5.99985 11.9987C5.99985 10.6733 4.92536 9.59878 3.59991 9.59878C2.27446 9.59878 1.19997 10.6733 1.19997 11.9987C1.19997 13.3242 2.27446 14.3987 3.59991 14.3987ZM3.59991 15.5986C5.58809 15.5986 7.19982 13.9869 7.19982 11.9987C7.19982 10.0105 5.58809 8.39881 3.59991 8.39881C1.61174 8.39881 0 10.0105 0 11.9987C0 13.9869 1.61174 15.5986 3.59991 15.5986Z" fill="#212134"/>
<path fill-rule="evenodd" clip-rule="evenodd" d="M20.4001 14.3987C21.7255 14.3987 22.8 13.3242 22.8 11.9987C22.8 10.6733 21.7255 9.59878 20.4001 9.59878C19.0746 9.59878 18.0001 10.6733 18.0001 11.9987C18.0001 13.3242 19.0746 14.3987 20.4001 14.3987ZM20.4001 15.5986C22.3883 15.5986 24 13.9869 24 11.9987C24 10.0105 22.3883 8.39881 20.4001 8.39881C18.4119 8.39881 16.8002 10.0105 16.8002 11.9987C16.8002 13.9869 18.4119 15.5986 20.4001 15.5986Z" fill="#212134"/>
<path fill-rule="evenodd" clip-rule="evenodd" d="M16.8 22.8009C18.1254 22.8009 19.1999 21.7264 19.1999 20.4009C19.1999 19.0755 18.1254 18.001 16.8 18.001C15.4745 18.001 14.4 19.0755 14.4 20.4009C14.4 21.7264 15.4745 22.8009 16.8 22.8009ZM16.8 24.0009C18.7882 24.0009 20.3999 22.3891 20.3999 20.4009C20.3999 18.4128 18.7882 16.801 16.8 16.801C14.8118 16.801 13.2001 18.4128 13.2001 20.4009C13.2001 22.3891 14.8118 24.0009 16.8 24.0009Z" fill="#212134"/>
<path fill-rule="evenodd" clip-rule="evenodd" d="M16.8 5.99985C18.1254 5.99985 19.1999 4.92536 19.1999 3.59991C19.1999 2.27446 18.1254 1.19997 16.8 1.19997C15.4745 1.19997 14.4 2.27446 14.4 3.59991C14.4 4.92536 15.4745 5.99985 16.8 5.99985ZM16.8 7.19982C18.7882 7.19982 20.3999 5.58809 20.3999 3.59991C20.3999 1.61174 18.7882 0 16.8 0C14.8118 0 13.2001 1.61174 13.2001 3.59991C13.2001 5.58809 14.8118 7.19982 16.8 7.19982Z" fill="#212134"/>
</svg>
