<svg width="24" height="24" viewBox="0 0 24 24" fill="none" xmlns="http://www.w3.org/2000/svg">
<path fill-rule="evenodd" clip-rule="evenodd" d="M20.3999 14.4009C21.7254 14.4009 22.8 13.3264 22.8 12.0009C22.8 10.6754 21.7254 9.60082 20.3999 9.60082C19.0744 9.60082 17.9999 10.6754 17.9999 12.0009C17.9999 13.3264 19.0744 14.4009 20.3999 14.4009ZM20.3999 15.6009C22.3882 15.6009 24 13.9891 24 12.0009C24 10.0126 22.3882 8.40081 20.3999 8.40081C18.4117 8.40081 16.7999 10.0126 16.7999 12.0009C16.7999 13.9891 18.4117 15.6009 20.3999 15.6009Z" fill="#212134"/>
<path fill-rule="evenodd" clip-rule="evenodd" d="M3.60005 14.4009C4.92555 14.4009 6.00008 13.3264 6.00008 12.0009C6.00008 10.6754 4.92555 9.60082 3.60005 9.60082C2.27455 9.60082 1.20002 10.6754 1.20002 12.0009C1.20002 13.3264 2.27455 14.4009 3.60005 14.4009ZM3.60005 15.6009C5.5883 15.6009 7.20009 13.9891 7.20009 12.0009C7.20009 10.0126 5.5883 8.40081 3.60005 8.40081C1.6118 8.40081 0 10.0126 0 12.0009C0 13.9891 1.6118 15.6009 3.60005 15.6009Z" fill="#212134"/>
<path fill-rule="evenodd" clip-rule="evenodd" d="M20.3999 22.8C21.7254 22.8 22.8 21.7255 22.8 20.4C22.8 19.0745 21.7254 17.9999 20.3999 17.9999C19.0744 17.9999 17.9999 19.0745 17.9999 20.4C17.9999 21.7255 19.0744 22.8 20.3999 22.8ZM20.3999 24C22.3882 24 24 22.3882 24 20.4C24 18.4117 22.3882 16.7999 20.3999 16.7999C18.4117 16.7999 16.7999 18.4117 16.7999 20.4C16.7999 22.3882 18.4117 24 20.3999 24Z" fill="#212134"/>
<path fill-rule="evenodd" clip-rule="evenodd" d="M20.3999 6.00008C21.7254 6.00008 22.8 4.92555 22.8 3.60005C22.8 2.27455 21.7254 1.20002 20.3999 1.20002C19.0744 1.20002 17.9999 2.27455 17.9999 3.60005C17.9999 4.92555 19.0744 6.00008 20.3999 6.00008ZM20.3999 7.20009C22.3882 7.20009 24 5.5883 24 3.60005C24 1.6118 22.3882 0 20.3999 0C18.4117 0 16.7999 1.6118 16.7999 3.60005C16.7999 5.5883 18.4117 7.20009 20.3999 7.20009Z" fill="#212134"/>
<path d="M6.24032 11.2803H18.0005V12.7203H6.24032V11.2803Z" fill="#212134"/>
<path fill-rule="evenodd" clip-rule="evenodd" d="M3.6004 22.8C2.27489 22.8 1.20036 21.7255 1.20036 20.4C1.20036 19.0745 2.27489 17.9999 3.6004 17.9999C4.9259 17.9999 6.00043 19.0745 6.00043 20.4C6.00043 21.7255 4.9259 22.8 3.6004 22.8ZM3.6004 24C1.61214 24 0.000348066 22.3882 0.000348066 20.4C0.000348066 18.4117 1.61214 16.7999 3.6004 16.7999C5.58865 16.7999 7.20044 18.4117 7.20044 20.4C7.20044 22.3882 5.58865 24 3.6004 24Z" fill="#212134"/>
<path fill-rule="evenodd" clip-rule="evenodd" d="M3.6004 6.00008C2.27489 6.00008 1.20036 4.92555 1.20036 3.60005C1.20036 2.27455 2.27489 1.20002 3.6004 1.20002C4.9259 1.20002 6.00043 2.27455 6.00043 3.60005C6.00043 4.92555 4.9259 6.00008 3.6004 6.00008ZM3.6004 7.20009C1.61214 7.20009 0.000348066 5.5883 0.000348066 3.60005C0.000348066 1.6118 1.61214 0 3.6004 0C5.58865 0 7.20044 1.6118 7.20044 3.60005C7.20044 5.5883 5.58865 7.20009 3.6004 7.20009Z" fill="#212134"/>
<path d="M18.3275 13.8635L6.48997 19.7655L5.83823 18.4583L17.6758 12.5563L18.3275 13.8635Z" fill="#212134"/>
<path d="M18.3585 10.0783L6.39771 4.11483L5.75246 5.40901L17.7132 11.3724L18.3585 10.0783Z" fill="#212134"/>
<path d="M18.3233 18.8306L6.25203 12.8121L5.60878 14.1023L17.6801 20.1208L18.3233 18.8306Z" fill="#212134"/>
<path d="M18.1358 5.22828L6.2071 11.1757L5.55357 9.86494L17.4823 3.9175L18.1358 5.22828Z" fill="#212134"/>
</svg>
