<svg width="24" height="24" viewBox="0 0 24 24" fill="none" xmlns="http://www.w3.org/2000/svg">
<path fill-rule="evenodd" clip-rule="evenodd" d="M6.09375 16.62V7.30782H17.9062V16.62H6.09375ZM5 6.42094C5 6.29849 5.09794 6.19922 5.21875 6.19922H18.7812C18.9021 6.19922 19 6.29849 19 6.42094V17.5069C19 17.6294 18.9021 17.7286 18.7812 17.7286H5.21875C5.09794 17.7286 5 17.6294 5 17.5069V6.42094ZM14.426 11.5246C15.1002 11.5246 15.6468 10.978 15.6468 10.3037C15.6468 9.62942 15.1002 9.08281 14.426 9.08281C13.7517 9.08281 13.2051 9.62942 13.2051 10.3037C13.2051 10.978 13.7517 11.5246 14.426 11.5246ZM7.82732 15.3139H15.9617C16.0269 15.3157 16.0912 15.2992 16.1475 15.2663C16.2037 15.2334 16.2496 15.1853 16.2798 15.1276C16.3101 15.0699 16.3235 15.0048 16.3186 14.9398C16.3137 14.8749 16.2906 14.8126 16.252 14.76L15.13 13.2365C15.1007 13.196 15.063 13.1622 15.0195 13.1376C14.976 13.1129 14.9277 13.0979 14.8778 13.0936C14.828 13.0893 14.7779 13.0958 14.7308 13.1127C14.6837 13.1295 14.6408 13.1563 14.605 13.1912L13.452 14.2886L10.7756 10.6548C10.7422 10.6094 10.6984 10.5727 10.6478 10.548C10.5972 10.5233 10.5414 10.5112 10.4851 10.5128C10.4288 10.5145 10.3737 10.5297 10.3246 10.5573C10.2755 10.5849 10.2339 10.624 10.2032 10.6712L7.52673 14.7765C7.49222 14.8297 7.47287 14.8912 7.47078 14.9546C7.46869 15.0179 7.48393 15.0806 7.51487 15.1359C7.54581 15.1912 7.59126 15.237 7.64632 15.2684C7.70139 15.2997 7.76397 15.3155 7.82732 15.3139Z" fill="#32324D"/>
</svg>
