<svg width="24" height="24" viewBox="0 0 24 24" fill="none" xmlns="http://www.w3.org/2000/svg">
<path fill-rule="evenodd" clip-rule="evenodd" d="M7.10025 5C6.78394 5 6.52752 5.25642 6.52752 5.57273C6.52752 5.88904 6.78394 6.14546 7.10025 6.14546H16.8437C17.16 6.14546 17.4164 5.88904 17.4164 5.57273C17.4164 5.25642 17.16 5 16.8437 5H7.10025ZM17.4 7.35436C18.2837 7.35436 19 8.07082 19 8.95447V9.37481V17.6543C19 18.538 18.2835 19.2543 17.3999 19.2543H15.5H8.5H6.60079C5.71713 19.2543 5.00002 18.538 5.00002 17.6543L5.00002 9.70892C5.00002 9.70892 5 14.6775 5 8.96311C5 8.07945 5.71634 7.35436 6.6 7.35436H12H17.4ZM7.56596 16.8232H16.6889L14.6932 14.784L13.5529 15.9493L10.9871 13.3274L7.56596 16.8232ZM14.6932 12.7456C13.895 12.7456 13.2678 12.1047 13.2678 11.289C13.2678 10.4733 13.895 9.83237 14.6932 9.83237C15.4915 9.83237 16.1187 10.4733 16.1187 11.289C16.1187 12.1047 15.4915 12.7456 14.6932 12.7456Z" fill="#212134"/>
</svg>
