<svg width="24" height="24" viewBox="0 0 24 24" fill="none" xmlns="http://www.w3.org/2000/svg">
<path d="M4.80005 0.2C4.80005 0.0895429 4.88959 0 5.00005 0H23.8C23.9105 0 24 0.089543 24 0.2V4.6C24 4.71046 23.9105 4.8 23.8 4.8H5.00005C4.88959 4.8 4.80005 4.71046 4.80005 4.6V0.2Z" fill="#212134"/>
<path d="M0 9.8001C0 9.68964 0.089543 9.6001 0.2 9.6001H19C19.1105 9.6001 19.2 9.68964 19.2 9.8001V14.2001C19.2 14.3106 19.1105 14.4001 19 14.4001H0.2C0.0895434 14.4001 0 14.3106 0 14.2001V9.8001Z" fill="#212134"/>
<path d="M5.00005 19.2C4.88959 19.2 4.80005 19.2895 4.80005 19.4V23.8C4.80005 23.9104 4.88959 24 5.00005 24H23.8C23.9105 24 24 23.9104 24 23.8V19.4C24 19.2895 23.9105 19.2 23.8 19.2H5.00005Z" fill="#212134"/>
</svg>
