<svg viewBox="0 0 32 32"
    xmlns="http://www.w3.org/2000/svg">
    <path d="M22 29C22 29.2652 21.8946 29.5196 21.7071 29.7071C21.5196 29.8947 21.2652 30 21 30H11C10.7348 30 10.4804 29.8947 10.2929 29.7071C10.1053 29.5196 9.99998 29.2652 9.99998 29C9.99998 28.7348 10.1053 28.4804 10.2929 28.2929C10.4804 28.1054 10.7348 28 11 28H21C21.2652 28 21.5196 28.1054 21.7071 28.2929C21.8946 28.4804 22 28.7348 22 29ZM27 13C27.0043 14.6671 26.6277 16.3131 25.8989 17.8124C25.1702 19.3117 24.1085 20.6248 22.795 21.6513C22.5494 21.8395 22.3501 22.0815 22.2123 22.3585C22.0745 22.6356 22.0019 22.9406 22 23.25V24C22 24.5305 21.7893 25.0392 21.4142 25.4142C21.0391 25.7893 20.5304 26 20 26H12C11.4695 26 10.9608 25.7893 10.5858 25.4142C10.2107 25.0392 9.99998 24.5305 9.99998 24V23.25C9.99978 22.9443 9.92947 22.6426 9.79447 22.3683C9.65947 22.094 9.46336 21.8542 9.22123 21.6675C7.91098 20.6471 6.85004 19.3419 6.1187 17.8509C5.38737 16.3599 5.00481 14.722 4.99998 13.0613C4.96748 7.10377 9.78248 2.14252 15.735 2.00002C17.2017 1.96467 18.6606 2.22309 20.0259 2.76004C21.3912 3.297 22.6354 4.10165 23.685 5.12663C24.7347 6.15162 25.5687 7.37623 26.138 8.72838C26.7073 10.0805 27.0004 11.5329 27 13ZM22.9862 11.8325C22.7269 10.3841 22.0301 9.04997 20.9895 8.00964C19.949 6.96931 18.6147 6.27276 17.1662 6.01377C17.0367 5.99194 16.9042 5.99583 16.7762 6.02522C16.6481 6.05462 16.5272 6.10893 16.4202 6.18508C16.3131 6.26122 16.2222 6.3577 16.1524 6.469C16.0827 6.58031 16.0356 6.70425 16.0137 6.83377C15.9919 6.96328 15.9958 7.09583 16.0252 7.22385C16.0546 7.35186 16.1089 7.47283 16.185 7.57985C16.2612 7.68687 16.3577 7.77784 16.469 7.84757C16.5803 7.91731 16.7042 7.96444 16.8337 7.98627C18.905 8.33502 20.6625 10.0925 21.0137 12.1675C21.0533 12.4004 21.174 12.6118 21.3546 12.7642C21.5351 12.9166 21.7637 13.0001 22 13C22.0565 12.9997 22.1129 12.9951 22.1687 12.9863C22.4301 12.9416 22.6631 12.795 22.8164 12.5787C22.9697 12.3623 23.0308 12.0939 22.9862 11.8325Z" />
</svg>
