<svg width="22" height="30" viewBox="0 0 22 30" fill="none" xmlns="http://www.w3.org/2000/svg">
<path d="M21.7312 14.6826L7.73117 29.6826C7.58281 29.8409 7.38698 29.9467 7.17323 29.984C6.95947 30.0213 6.7394 29.988 6.54621 29.8892C6.35302 29.7904 6.1972 29.6315 6.10226 29.4364C6.00733 29.2413 5.97843 29.0206 6.01992 28.8076L7.85242 19.6414L0.648674 16.9364C0.493963 16.8785 0.355998 16.7832 0.247102 16.659C0.138207 16.5348 0.0617744 16.3855 0.0246322 16.2246C-0.01251 16.0637 -0.00920442 15.896 0.0342533 15.7366C0.0777111 15.5773 0.159967 15.4312 0.273674 15.3114L14.2737 0.311358C14.422 0.153027 14.6179 0.0472471 14.8316 0.00997925C15.0454 -0.0272886 15.2655 0.00597826 15.4586 0.10476C15.6518 0.203541 15.8076 0.362478 15.9026 0.557585C15.9975 0.752693 16.0264 0.973384 15.9849 1.18636L14.1474 10.3626L21.3512 13.0639C21.5047 13.1221 21.6416 13.2173 21.7496 13.341C21.8577 13.4647 21.9336 13.6131 21.9707 13.7732C22.0077 13.9332 22.0048 14.0998 21.9622 14.2585C21.9195 14.4171 21.8385 14.5628 21.7262 14.6826H21.7312Z" fill="black"/>
</svg>