<svg width="24" height="24" viewBox="0 0 24 24" fill="none" xmlns="http://www.w3.org/2000/svg">
<path d="M17.7556 5.7484L17.7555 5.74826C17.0598 5.19184 16.1742 4.92923 15.2875 5.01641C14.4009 5.10358 13.5834 5.53365 13.0094 6.21493L12.0104 7.41058C11.8655 7.58403 11.7954 7.80795 11.8156 8.03308C11.8357 8.25821 11.9445 8.4661 12.118 8.61103C12.2914 8.75595 12.5153 8.82603 12.7405 8.80586C12.9656 8.78568 13.1735 8.6769 13.3184 8.50344L14.3174 7.30765C14.4633 7.13356 14.6427 6.99049 14.8448 6.88689C15.0469 6.78329 15.2678 6.72126 15.4943 6.70446C15.7208 6.68767 15.9484 6.71645 16.1636 6.78911C16.3788 6.86177 16.5773 6.97683 16.7472 7.12749C17.0745 7.43161 17.2719 7.85022 17.2983 8.2962C17.3248 8.74218 17.1782 9.18118 16.8892 9.52183L14.8121 12.0085L14.793 12.0297C14.6821 12.1584 14.5521 12.2693 14.4075 12.3586C14.0734 12.5659 13.6777 12.6507 13.288 12.5986C12.8982 12.5465 12.5387 12.3608 12.2707 12.073C12.1166 11.9081 11.9032 11.8111 11.6776 11.8033C11.452 11.7955 11.2325 11.8776 11.0673 12.0314C10.9021 12.1853 10.8047 12.3984 10.7965 12.624C10.7882 12.8496 10.8698 13.0693 11.0234 13.2348C11.4088 13.6483 11.8911 13.9594 12.4268 14.1399C12.9626 14.3204 13.5348 14.3647 14.0919 14.2687C14.2662 14.238 14.4378 14.1942 14.6054 14.1375C15.1973 13.9377 15.7224 13.578 16.1225 13.0981L18.1943 10.6184C18.489 10.2629 18.7104 9.85259 18.8459 9.41116C18.9814 8.96974 19.0283 8.50588 18.9838 8.04627C18.9432 7.60057 18.8136 7.16755 18.6026 6.77285C18.3916 6.37815 18.1036 6.02979 17.7556 5.7484Z" fill="#212134"/>
<path d="M11.6223 14.9564L10.7295 16.025C10.4456 16.37 10.0397 16.5923 9.59607 16.6455C9.15247 16.6988 8.70543 16.5789 8.34797 16.3109C8.16948 16.1704 8.02097 15.9956 7.9112 15.7967C7.80144 15.5979 7.73265 15.3791 7.70891 15.1532C7.68517 14.9273 7.70696 14.6989 7.77299 14.4816C7.83902 14.2643 7.94794 14.0624 8.09333 13.8879L10.2061 11.359L10.2217 11.3416C10.3326 11.213 10.4626 11.1021 10.6072 11.0129C10.9101 10.8239 11.265 10.7356 11.6211 10.7605C11.9773 10.7854 12.3164 10.9222 12.5902 11.1514C12.6557 11.2061 12.7171 11.2657 12.7737 11.3296C12.8549 11.4214 12.9549 11.4946 13.067 11.5442C13.1791 11.5939 13.3005 11.6187 13.4231 11.617C13.5442 11.6153 13.6634 11.5875 13.7728 11.5354C13.8821 11.4834 13.9789 11.4083 14.0566 11.3154L14.0668 11.3031C14.1972 11.1487 14.2675 10.9524 14.2649 10.7502C14.2623 10.5481 14.1869 10.3537 14.0525 10.2027C13.7281 9.83531 13.3282 9.5424 12.88 9.34396C12.4319 9.14552 11.9462 9.04624 11.4562 9.05293C10.9661 9.05961 10.4833 9.1721 10.0408 9.38269C9.59826 9.59328 9.20645 9.897 8.89218 10.2731L6.7853 12.795C6.21703 13.4812 5.93924 14.3621 6.01116 15.2501C6.08307 16.1381 6.49899 16.9629 7.17027 17.5486C7.50906 17.841 7.90309 18.0625 8.32902 18.1999C8.75494 18.3373 9.2041 18.3879 9.64991 18.3486C9.75618 18.34 9.86164 18.3265 9.96627 18.308C10.7764 18.1661 11.5108 17.7435 12.0405 17.1144L12.9303 16.0493C13.0753 15.8758 13.1453 15.6519 13.1252 15.4268C13.105 15.2016 12.9962 14.9937 12.8227 14.8488C12.6493 14.7039 12.4254 14.6338 12.2002 14.654C11.9751 14.6742 11.7672 14.7829 11.6223 14.9564H11.6223Z" fill="#212134"/>
</svg>
