<svg width="24" height="24" viewBox="0 0 24 24" fill="none" xmlns="http://www.w3.org/2000/svg">
<path d="M16.7178 6.67215L16.7178 6.67202C16.0929 6.1723 15.2975 5.93644 14.5013 6.01473C13.705 6.09303 12.9708 6.47928 12.4552 7.09114L11.558 8.16495C11.4279 8.32074 11.3649 8.52184 11.383 8.72403C11.4012 8.92622 11.4989 9.11293 11.6546 9.24309C11.8104 9.37324 12.0115 9.43619 12.2137 9.41807C12.4159 9.39995 12.6026 9.30225 12.7328 9.14647L13.63 8.07251C13.761 7.91617 13.9221 7.78768 14.1036 7.69463C14.2852 7.60158 14.4835 7.54587 14.6869 7.53079C14.8904 7.51571 15.0948 7.54156 15.2881 7.60681C15.4813 7.67207 15.6596 7.7754 15.8122 7.91071C16.1061 8.18385 16.2834 8.55981 16.3072 8.96034C16.3309 9.36088 16.1993 9.75514 15.9397 10.0611L14.0743 12.2944L14.0571 12.3134C13.9575 12.429 13.8407 12.5286 13.7109 12.6088C13.4108 12.795 13.0554 12.8712 12.7054 12.8244C12.3554 12.7776 12.0325 12.6107 11.7919 12.3523C11.6534 12.2042 11.4618 12.1171 11.2592 12.1101C11.0565 12.1031 10.8594 12.1768 10.711 12.315C10.5627 12.4532 10.4752 12.6446 10.4678 12.8472C10.4604 13.0498 10.5337 13.2471 10.6716 13.3957C11.0177 13.7671 11.4509 14.0465 11.932 14.2086C12.4132 14.3707 12.9271 14.4105 13.4275 14.3243C13.584 14.2967 13.7381 14.2574 13.8886 14.2064C14.4203 14.027 14.8918 13.704 15.2511 13.273L17.1118 11.0459C17.3765 10.7266 17.5754 10.3581 17.6971 9.9617C17.8188 9.56525 17.8609 9.14865 17.8209 8.73587C17.7844 8.33559 17.668 7.94669 17.4785 7.59221C17.289 7.23772 17.0304 6.92486 16.7178 6.67215Z" fill="#32324D"/>
<path d="M11.2096 14.9409L10.4078 15.9006C10.1528 16.2105 9.7882 16.4101 9.38981 16.4579C8.99141 16.5057 8.58992 16.3981 8.26889 16.1574C8.10858 16.0312 7.9752 15.8742 7.87662 15.6956C7.77804 15.517 7.71626 15.3205 7.69494 15.1176C7.67362 14.9147 7.69319 14.7097 7.75249 14.5145C7.81179 14.3193 7.90962 14.138 8.04019 13.9813L9.93769 11.7101L9.95165 11.6945C10.0513 11.5789 10.1681 11.4793 10.2979 11.3992C10.57 11.2295 10.8887 11.1502 11.2085 11.1725C11.5284 11.1949 11.833 11.3178 12.0788 11.5236C12.1377 11.5728 12.1928 11.6263 12.2437 11.6836C12.3166 11.7661 12.4064 11.8319 12.5071 11.8764C12.6077 11.921 12.7168 11.9433 12.8269 11.9418C12.9356 11.9402 13.0428 11.9152 13.141 11.8685C13.2392 11.8217 13.3261 11.7543 13.3959 11.6709L13.405 11.6599C13.5221 11.5211 13.5853 11.3448 13.5829 11.1633C13.5805 10.9818 13.5128 10.8072 13.3922 10.6715C13.1008 10.3416 12.7416 10.0786 12.3392 9.90033C11.9367 9.72211 11.5005 9.63295 11.0604 9.63896C10.6203 9.64496 10.1867 9.74599 9.78922 9.93512C9.39178 10.1243 9.03989 10.397 8.75764 10.7348L6.86544 12.9998C6.35507 13.616 6.10559 14.4072 6.17018 15.2047C6.23476 16.0022 6.60831 16.7429 7.21118 17.269C7.51546 17.5316 7.86934 17.7305 8.25186 17.8539C8.63439 17.9773 9.03779 18.0227 9.43817 17.9874C9.53361 17.9797 9.62832 17.9676 9.72229 17.951C10.4499 17.8236 11.1094 17.4441 11.5852 16.879L12.3843 15.9224C12.5145 15.7666 12.5774 15.5655 12.5593 15.3633C12.5412 15.1612 12.4435 14.9744 12.2877 14.8443C12.1319 14.7141 11.9308 14.6512 11.7286 14.6693C11.5264 14.6874 11.3397 14.7851 11.2096 14.9409H11.2096Z" fill="#32324D"/>
</svg>
