<svg width="24" height="24" viewBox="0 0 24 24" fill="none" xmlns="http://www.w3.org/2000/svg">
<path fill-rule="evenodd" clip-rule="evenodd" d="M12.0571 18C12.6094 18 13.0571 18.451 13.0571 18.9975V23.0025C13.0571 23.5337 12.6398 23.968 12.1158 23.9983L12.0571 24C11.5049 24 11.0571 23.549 11.0571 23.0025V18.9975C11.0571 18.4663 11.4745 18.032 11.9985 18.0017L12.0571 18ZM8.99609 17.2644L9.05174 17.2942C9.53003 17.5704 9.69228 18.1848 9.41901 18.6581L7.41652 22.1265C7.15166 22.5853 6.57564 22.753 6.10739 22.5202L6.05174 22.4904C5.57345 22.2142 5.4112 21.5998 5.68447 21.1265L7.68696 17.6581C7.95182 17.1993 8.52784 17.0316 8.99609 17.2644ZM16.4165 17.6581L18.419 21.1265C18.6839 21.5853 18.5411 22.168 18.1054 22.4571L18.0517 22.4904C17.5734 22.7665 16.9602 22.5998 16.687 22.1265L14.6845 18.6581C14.4196 18.1993 14.5624 17.6166 14.9981 17.3275L15.0517 17.2942C15.53 17.0181 16.1433 17.1848 16.4165 17.6581ZM6.86866 14.9981L6.90192 15.0517C7.17807 15.53 7.01137 16.1433 6.53805 16.4165L3.06964 18.419C2.61089 18.6839 2.02817 18.5411 1.73903 18.1054L1.70577 18.0517C1.42963 17.5734 1.59633 16.9602 2.06964 16.687L5.53805 14.6845C5.99681 14.4196 6.57953 14.5624 6.86866 14.9981ZM18.6581 14.6845L22.1265 16.687C22.5853 16.9518 22.753 17.5278 22.5202 17.9961L22.4904 18.0517C22.2142 18.53 21.5998 18.6923 21.1265 18.419L17.6581 16.4165C17.1993 16.1517 17.0316 15.5756 17.2644 15.1074L17.2942 15.0517C17.5704 14.5734 18.1848 14.4112 18.6581 14.6845ZM23.0025 11.0571C23.5337 11.0571 23.968 11.4745 23.9983 11.9985L24 12.0571C24 12.6094 23.549 13.0571 23.0025 13.0571H18.9975C18.4663 13.0571 18.032 12.6398 18.0017 12.1158L18 12.0571C18 11.5049 18.451 11.0571 18.9975 11.0571H23.0025ZM5.00249 11.0571C5.53372 11.0571 5.96797 11.4745 5.99831 11.9985L6 12.0571C6 12.6094 5.54903 13.0571 5.00249 13.0571H0.997513C0.466277 13.0571 0.0320332 12.6398 0.00169336 12.1158L0 12.0571C0 11.5049 0.450975 11.0571 0.997513 11.0571H5.00249ZM22.4571 5.99806L22.4904 6.05174C22.7665 6.53003 22.5998 7.14325 22.1265 7.41652L18.6581 9.41901C18.1993 9.68387 17.6166 9.54113 17.3275 9.10542L17.2942 9.05174C17.0181 8.57345 17.1848 7.96023 17.6581 7.68696L21.1265 5.68447C21.5853 5.41961 22.168 5.56235 22.4571 5.99806ZM3.06964 5.68447L6.53805 7.68696C6.9968 7.95182 7.16455 8.52784 6.93179 8.99609L6.90192 9.05174C6.62578 9.53003 6.01137 9.69228 5.53805 9.41901L2.06964 7.41652C1.61089 7.15166 1.44314 6.57564 1.67591 6.10739L1.70577 6.05174C1.98191 5.57345 2.59633 5.4112 3.06964 5.68447ZM17.9961 1.67591L18.0517 1.70577C18.53 1.98191 18.6923 2.59633 18.419 3.06964L16.4165 6.53805C16.1517 6.99681 15.5756 7.16455 15.1074 6.93179L15.0517 6.90192C14.5734 6.62578 14.4112 6.01137 14.6845 5.53805L16.687 2.06964C16.9518 1.61089 17.5278 1.44314 17.9961 1.67591ZM7.41652 2.06964L9.41901 5.53805C9.68387 5.99681 9.54113 6.57953 9.10542 6.86866L9.05174 6.90192C8.57345 7.17807 7.96023 7.01137 7.68696 6.53805L5.68447 3.06964C5.41961 2.61089 5.56235 2.02817 5.99806 1.73903L6.05174 1.70577C6.53003 1.42963 7.14325 1.59633 7.41652 2.06964ZM12.0571 0C12.6094 0 13.0571 0.450975 13.0571 0.997513V5.00249C13.0571 5.53372 12.6398 5.96797 12.1158 5.99831L12.0571 6C11.5049 6 11.0571 5.54903 11.0571 5.00249V0.997513C11.0571 0.466277 11.4745 0.0320332 11.9985 0.00169334L12.0571 0Z" fill="#212134"/>
</svg>
