<svg width="24" height="24" viewBox="0 0 24 24" fill="none" xmlns="http://www.w3.org/2000/svg">
<path d="M11.9871 23.0358V22.0717H6.93169H1.87631V11.9739V1.87622H6.93169H11.9871V0.938111V0H5.99358H8.96454e-05V12V24H5.99358H11.9871V23.0358Z" fill="#212134"/>
<path d="M8 11.2C8 11.0895 8.08954 11 8.2 11H20.1733L14.7281 5.55475C14.65 5.47665 14.65 5.35002 14.7281 5.27191L15.8586 4.14142C15.9367 4.06332 16.0633 4.06332 16.1414 4.14142L23.8586 11.8586C23.9367 11.9367 23.9367 12.0633 23.8586 12.1414L16.1414 19.8586C16.0633 19.9367 15.9367 19.9367 15.8586 19.8586L14.7281 18.7281C14.65 18.65 14.65 18.5233 14.7281 18.4452L20.1733 13H8.2C8.08954 13 8 12.9105 8 12.8V11.2Z" fill="#212134"/>
</svg>
