<svg width="24" height="24" viewBox="0 0 24 24" fill="none" xmlns="http://www.w3.org/2000/svg">
<path d="M11.9868 23.0358V22.0716H6.93143H1.87607V11.9739V1.87622H6.93143H11.9868V0.938109V0H5.99332H-0.000154495V12V24H5.99332H11.9868V23.0358Z" fill="#212134"/>
<path d="M7.99999 11.2C7.99999 11.0895 8.08953 11 8.19999 11H20.1733L14.7281 5.55475C14.65 5.47664 14.65 5.35001 14.7281 5.2719L15.8586 4.14142C15.9367 4.06331 16.0633 4.06331 16.1414 4.14142L23.8585 11.8586C23.9367 11.9367 23.9367 12.0633 23.8585 12.1414L16.1414 19.8586C16.0633 19.9367 15.9367 19.9367 15.8586 19.8586L14.7281 18.7281C14.65 18.65 14.65 18.5233 14.7281 18.4452L20.1733 13H8.19999C8.08953 13 7.99999 12.9104 7.99999 12.8V11.2Z" fill="#212134"/>
</svg>
