<svg width="24" height="24" viewBox="0 0 24 24" fill="none" xmlns="http://www.w3.org/2000/svg">
<path d="M15.224 15.508L13.011 20.158C12.9691 20.246 12.9065 20.3224 12.8285 20.3807C12.7505 20.439 12.6594 20.4774 12.5633 20.4927C12.4671 20.5079 12.3686 20.4995 12.2764 20.4682C12.1842 20.4369 12.101 20.3837 12.034 20.313L8.49197 16.574C8.39735 16.4742 8.27131 16.41 8.13497 16.392L3.02797 15.724C2.93149 15.7113 2.83954 15.6753 2.76006 15.6192C2.68058 15.563 2.61596 15.4883 2.57177 15.4016C2.52758 15.3149 2.50514 15.2187 2.5064 15.1214C2.50765 15.0241 2.53256 14.9286 2.57897 14.843L5.04097 10.319C5.10642 10.198 5.12831 10.0582 5.10297 9.92303L4.15997 4.86003C4.14207 4.7642 4.14778 4.66544 4.17662 4.57232C4.20546 4.47919 4.25656 4.39449 4.3255 4.32556C4.39444 4.25662 4.47913 4.20552 4.57226 4.17668C4.66539 4.14784 4.76414 4.14212 4.85997 4.16003L9.92297 5.10303C10.0582 5.12837 10.198 5.10648 10.319 5.04103L14.843 2.57903C14.9286 2.5326 15.0242 2.50772 15.1216 2.50652C15.219 2.50531 15.3152 2.52784 15.4019 2.57214C15.4887 2.61644 15.5633 2.68119 15.6194 2.76079C15.6755 2.84039 15.7114 2.93245 15.724 3.02903L16.392 8.13503C16.4099 8.27137 16.4742 8.3974 16.574 8.49203L20.313 12.034C20.3836 12.1011 20.4369 12.1843 20.4682 12.2765C20.4995 12.3687 20.5079 12.4671 20.4926 12.5633C20.4774 12.6595 20.4389 12.7505 20.3806 12.8285C20.3223 12.9065 20.2459 12.9692 20.158 13.011L15.508 15.224C15.3835 15.2833 15.2832 15.3835 15.224 15.508ZM16.021 17.435L17.435 16.021L21.678 20.263L20.263 21.678L16.021 17.435Z" fill="#212134"/>
</svg>
