<svg viewBox="0 0 32 32"
    xmlns="http://www.w3.org/2000/svg">
    <path d="M31 19C31 19.2652 30.8946 19.5196 30.7071 19.7071C30.5195 19.8946 30.2652 20 30 20H28V22C28 22.2652 27.8946 22.5196 27.7071 22.7071C27.5195 22.8946 27.2652 23 27 23C26.7348 23 26.4804 22.8946 26.2929 22.7071C26.1053 22.5196 26 22.2652 26 22V20H24C23.7348 20 23.4804 19.8946 23.2929 19.7071C23.1053 19.5196 23 19.2652 23 19C23 18.7348 23.1053 18.4804 23.2929 18.2929C23.4804 18.1054 23.7348 18 24 18H26V16C26 15.7348 26.1053 15.4804 26.2929 15.2929C26.4804 15.1054 26.7348 15 27 15C27.2652 15 27.5195 15.1054 27.7071 15.2929C27.8946 15.4804 28 15.7348 28 16V18H30C30.2652 18 30.5195 18.1054 30.7071 18.2929C30.8946 18.4804 31 18.7348 31 19ZM6.99997 9H8.99997V11C8.99997 11.2652 9.10533 11.5196 9.29286 11.7071C9.4804 11.8946 9.73476 12 9.99997 12C10.2652 12 10.5195 11.8946 10.7071 11.7071C10.8946 11.5196 11 11.2652 11 11V9H13C13.2652 9 13.5195 8.89464 13.7071 8.70711C13.8946 8.51957 14 8.26522 14 8C14 7.73478 13.8946 7.48043 13.7071 7.29289C13.5195 7.10536 13.2652 7 13 7H11V5C11 4.73478 10.8946 4.48043 10.7071 4.29289C10.5195 4.10536 10.2652 4 9.99997 4C9.73476 4 9.4804 4.10536 9.29286 4.29289C9.10533 4.48043 8.99997 4.73478 8.99997 5V7H6.99997C6.73475 7 6.4804 7.10536 6.29286 7.29289C6.10533 7.48043 5.99997 7.73478 5.99997 8C5.99997 8.26522 6.10533 8.51957 6.29286 8.70711C6.4804 8.89464 6.73475 9 6.99997 9ZM23 24H22V23C22 22.7348 21.8946 22.4804 21.7071 22.2929C21.5195 22.1054 21.2652 22 21 22C20.7348 22 20.4804 22.1054 20.2929 22.2929C20.1053 22.4804 20 22.7348 20 23V24H19C18.7348 24 18.4804 24.1054 18.2929 24.2929C18.1053 24.4804 18 24.7348 18 25C18 25.2652 18.1053 25.5196 18.2929 25.7071C18.4804 25.8946 18.7348 26 19 26H20V27C20 27.2652 20.1053 27.5196 20.2929 27.7071C20.4804 27.8946 20.7348 28 21 28C21.2652 28 21.5195 27.8946 21.7071 27.7071C21.8946 27.5196 22 27.2652 22 27V26H23C23.2652 26 23.5195 25.8946 23.7071 25.7071C23.8946 25.5196 24 25.2652 24 25C24 24.7348 23.8946 24.4804 23.7071 24.2929C23.5195 24.1054 23.2652 24 23 24ZM27.4137 10L9.99997 27.4137C9.62494 27.7885 9.11643 27.9991 8.58622 27.9991C8.05602 27.9991 7.54751 27.7885 7.17247 27.4137L4.58497 24.8288C4.39921 24.643 4.25185 24.4225 4.15131 24.1798C4.05077 23.9372 3.99902 23.6771 3.99902 23.4144C3.99902 23.1517 4.05077 22.8916 4.15131 22.6489C4.25185 22.4062 4.39921 22.1857 4.58497 22L22 4.58625C22.1857 4.40048 22.4062 4.25312 22.6489 4.15259C22.8916 4.05205 23.1517 4.0003 23.4143 4.0003C23.677 4.0003 23.9371 4.05205 24.1798 4.15259C24.4225 4.25312 24.643 4.40048 24.8287 4.58625L27.4137 7.17125C27.5995 7.35697 27.7468 7.57747 27.8474 7.82015C27.9479 8.06283 27.9997 8.32294 27.9997 8.58562C27.9997 8.84831 27.9479 9.10842 27.8474 9.3511C27.7468 9.59378 27.5995 9.81428 27.4137 10ZM26 8.58625L23.4137 6L19.4137 10L22 12.5863L26 8.58625Z" />
</svg>
