<svg width="24" height="20" viewBox="0 0 24 20" fill="none" xmlns="http://www.w3.org/2000/svg">
<path d="M0 0.799999C0 0.358172 0.358172 0 0.8 0H23.2C23.6418 0 24 0.358172 24 0.8V3.51084C24 4.06313 23.5523 4.51084 23 4.51084H1C0.447716 4.51084 0 4.06313 0 3.51084V0.799999Z" fill="#32324D"/>
<path d="M1.92188 5.99099C0.196875 4.67533 4.17824e-05 4.25244 0 3.28918H23.9531C24.2578 4.65184 22.3594 5.79521 21.6562 6.41388C19.7031 7.77653 15.4031 10.7744 13.8281 11.8645C12.2531 12.9546 10.7969 12.3187 10.2656 11.8645C8.20312 10.4548 3.64688 7.30665 1.92188 5.99099Z" fill="#32324D"/>
<path d="M22.8 16H1.2C0.537258 16 0 16.4715 0 17.0531V18.9469C0 19.5285 0.537258 20 1.2 20H22.8C23.4627 20 24 19.5285 24 18.9469V17.0531C24 16.4715 23.4627 16 22.8 16Z" fill="#32324D"/>
<path d="M0 7.55481V17.7982V18.5265H24V7.55481C21.3672 9.50481 15.6328 13.6679 14.0391 14.7205C12.4453 15.773 10.6875 15.159 10.0078 14.7205L0 7.55481Z" fill="#32324D"/>
</svg>
