<svg width="24" height="25" viewBox="0 0 24 25" fill="none" xmlns="http://www.w3.org/2000/svg">
<path d="M17.7598 11.2799H6.00014V12.7198H17.7598V11.2799Z" fill="#212134"/>
<path d="M18.1289 10.699L9.78222 4.52273L8.92188 5.68541L17.2686 11.8617L18.1289 10.699Z" fill="#212134"/>
<path d="M18.1014 13.3541L9.75463 19.5303L8.89086 18.363L17.2376 12.1867L18.1014 13.3541Z" fill="#212134"/>
<path fill-rule="evenodd" clip-rule="evenodd" d="M20.4 14.3986C19.0746 14.3986 18.0001 13.3241 18.0001 11.9987C18.0001 10.6732 19.0746 9.59875 20.4 9.59875C21.7255 9.59875 22.8 10.6732 22.8 11.9987C22.8 13.3241 21.7255 14.3986 20.4 14.3986ZM20.4 15.5986C18.4119 15.5986 16.8001 13.9868 16.8001 11.9987C16.8001 10.0105 18.4119 8.39878 20.4 8.39878C22.3882 8.39878 23.9999 10.0105 23.9999 11.9987C23.9999 13.9868 22.3882 15.5986 20.4 15.5986Z" fill="#212134"/>
<path fill-rule="evenodd" clip-rule="evenodd" d="M3.5999 14.3986C2.27445 14.3986 1.19997 13.3241 1.19997 11.9987C1.19997 10.6732 2.27445 9.59875 3.5999 9.59875C4.92535 9.59875 5.99983 10.6732 5.99983 11.9987C5.99983 13.3241 4.92535 14.3986 3.5999 14.3986ZM3.5999 15.5986C1.61173 15.5986 0 13.9868 0 11.9987C0 10.0105 1.61173 8.39878 3.5999 8.39878C5.58807 8.39878 7.1998 10.0105 7.1998 11.9987C7.1998 13.9868 5.58807 15.5986 3.5999 15.5986Z" fill="#212134"/>
<path fill-rule="evenodd" clip-rule="evenodd" d="M7.19996 22.8008C5.87451 22.8008 4.80003 21.7263 4.80003 20.4009C4.80003 19.0754 5.87451 18.0009 7.19996 18.0009C8.52541 18.0009 9.59989 19.0754 9.59989 20.4009C9.59989 21.7263 8.52541 22.8008 7.19996 22.8008ZM7.19996 24.0008C5.21179 24.0008 3.60006 22.389 3.60006 20.4009C3.60006 18.4127 5.21179 16.801 7.19996 16.801C9.18813 16.801 10.7999 18.4127 10.7999 20.4009C10.7999 22.389 9.18813 24.0008 7.19996 24.0008Z" fill="#212134"/>
<path fill-rule="evenodd" clip-rule="evenodd" d="M7.19996 5.99983C5.87451 5.99983 4.80003 4.92535 4.80003 3.5999C4.80003 2.27445 5.87451 1.19997 7.19996 1.19997C8.52541 1.19997 9.59989 2.27445 9.59989 3.5999C9.59989 4.92535 8.52541 5.99983 7.19996 5.99983ZM7.19996 7.1998C5.21179 7.1998 3.60006 5.58807 3.60006 3.5999C3.60006 1.61173 5.21179 0 7.19996 0C9.18813 0 10.7999 1.61173 10.7999 3.5999C10.7999 5.58807 9.18813 7.1998 7.19996 7.1998Z" fill="#212134"/>
</svg>
