<svg width="24" height="24" viewBox="0 0 24 24" fill="none" xmlns="http://www.w3.org/2000/svg">
<rect x="0.5" y="0.5" width="23" height="23" rx="1.5" fill="#D8D8D8" stroke="#979797"/>
<mask id="mask0" style="mask-type:alpha" maskUnits="userSpaceOnUse" x="0" y="0" width="24" height="24">
<rect x="0.5" y="0.5" width="23" height="23" rx="1.5" fill="white" stroke="white"/>
</mask>
<g mask="url(#mask0)">
</g>
<path d="M22 0H2C0.895431 0 0 0.89543 0 2V22C0 23.1046 0.89543 24 2 24H22C23.1046 24 24 23.1046 24 22V2C24 0.895431 23.1046 0 22 0Z" fill="#12100E"/>
<path d="M5.72732 8.02655C5.74735 7.82863 5.67187 7.63301 5.52408 7.4998L4.01866 5.68628V5.41538H8.693L12.306 13.3392L15.4825 5.41538H19.9385V5.68628L18.6514 6.92038C18.5404 7.00496 18.4854 7.14398 18.5084 7.28158V16.3492C18.4854 16.4868 18.5404 16.6258 18.6514 16.7104L19.9084 17.9445V18.2154H13.5856V17.9445L14.8878 16.6803C15.0158 16.5524 15.0158 16.5147 15.0158 16.3191V8.98975L11.3952 18.1853H10.906L6.69079 8.98975V15.1527C6.65564 15.4118 6.7417 15.6727 6.92413 15.8601L8.61773 17.9144V18.1853H3.81543V17.9144L5.50903 15.8601C5.69013 15.6724 5.77117 15.4098 5.72732 15.1527V8.02655Z" fill="white"/>
</svg>
