<svg width="24" height="24" viewBox="0 0 24 24" fill="none" xmlns="http://www.w3.org/2000/svg">
<path fill-rule="evenodd" clip-rule="evenodd" d="M2 0H22C23.1046 0 24 0.895431 24 2V22C24 23.1046 23.1046 24 22 24H2C0.89543 24 0 23.1046 0 22V2C0 0.89543 0.895431 0 2 0ZM5.52408 7.4998C5.67187 7.63301 5.74735 7.82863 5.72732 8.02655V15.1527C5.77117 15.4098 5.69013 15.6724 5.50903 15.8601L3.81543 17.9144V18.1853H8.61773V17.9144L6.92413 15.8601C6.7417 15.6727 6.65564 15.4118 6.69079 15.1527V8.98975L10.906 18.1853H11.3952L15.0158 8.98975V16.3191C15.0158 16.5147 15.0158 16.5524 14.8878 16.6803L13.5856 17.9445V18.2154H19.9084V17.9445L18.6514 16.7104C18.5404 16.6258 18.4854 16.4868 18.5084 16.3492V7.28158C18.4854 7.14398 18.5404 7.00496 18.6514 6.92038L19.9385 5.68628V5.41538H15.4825L12.306 13.3392L8.693 5.41538H4.01866V5.68628L5.52408 7.4998Z" fill="#212134"/>
</svg>
