<svg width="24" height="24" viewBox="0 0 24 24" fill="none" xmlns="http://www.w3.org/2000/svg">
<path d="M8 8.5C8 8.22386 8.22386 8 8.5 8H15.5C15.7761 8 16 8.22386 16 8.5V9.1C16 9.37614 15.7761 9.6 15.5 9.6H8.5C8.22386 9.6 8 9.37614 8 9.1V8.5Z" fill="#212134"/>
<path d="M8 11.7005C8 11.4244 8.22386 11.2005 8.5 11.2005H15.5C15.7761 11.2005 16 11.4244 16 11.7005V12.3005C16 12.5767 15.7761 12.8005 15.5 12.8005H8.5C8.22386 12.8005 8 12.5767 8 12.3005V11.7005Z" fill="#212134"/>
<path d="M8.5 14.401C8.22386 14.401 8 14.6249 8 14.901V15.501C8 15.7772 8.22386 16.001 8.5 16.001H15.5C15.7761 16.001 16 15.7772 16 15.501V14.901C16 14.6249 15.7761 14.401 15.5 14.401H8.5Z" fill="#212134"/>
</svg>
