<svg viewBox="0 0 32 32"
    xmlns="http://www.w3.org/2000/svg">
    <path d="M27 6H4.99998C4.46954 6 3.96083 6.21071 3.58576 6.58579C3.21069 6.96086 2.99998 7.46957 2.99998 8V28C2.99767 28.3814 3.10556 28.7553 3.31068 29.0768C3.51579 29.3984 3.80941 29.6538 4.15623 29.8125C4.42051 29.9356 4.70844 29.9995 4.99998 30C5.46948 29.9989 5.92341 29.8315 6.28123 29.5275C6.28719 29.5236 6.29265 29.519 6.29748 29.5138L10.3125 26H27C27.5304 26 28.0391 25.7893 28.4142 25.4142C28.7893 25.0391 29 24.5304 29 24V8C29 7.46957 28.7893 6.96086 28.4142 6.58579C28.0391 6.21071 27.5304 6 27 6ZM10.5 17.5C10.2033 17.5 9.91329 17.412 9.66662 17.2472C9.41995 17.0824 9.22769 16.8481 9.11416 16.574C9.00062 16.2999 8.97092 15.9983 9.0288 15.7074C9.08668 15.4164 9.22954 15.1491 9.43931 14.9393C9.64909 14.7296 9.91637 14.5867 10.2073 14.5288C10.4983 14.4709 10.7999 14.5006 11.074 14.6142C11.3481 14.7277 11.5824 14.92 11.7472 15.1666C11.912 15.4133 12 15.7033 12 16C12 16.3978 11.8419 16.7794 11.5606 17.0607C11.2793 17.342 10.8978 17.5 10.5 17.5ZM16 17.5C15.7033 17.5 15.4133 17.412 15.1666 17.2472C14.9199 17.0824 14.7277 16.8481 14.6142 16.574C14.5006 16.2999 14.4709 15.9983 14.5288 15.7074C14.5867 15.4164 14.7295 15.1491 14.9393 14.9393C15.1491 14.7296 15.4164 14.5867 15.7073 14.5288C15.9983 14.4709 16.2999 14.5006 16.574 14.6142C16.8481 14.7277 17.0824 14.92 17.2472 15.1666C17.412 15.4133 17.5 15.7033 17.5 16C17.5 16.3978 17.3419 16.7794 17.0606 17.0607C16.7793 17.342 16.3978 17.5 16 17.5ZM21.5 17.5C21.2033 17.5 20.9133 17.412 20.6666 17.2472C20.4199 17.0824 20.2277 16.8481 20.1142 16.574C20.0006 16.2999 19.9709 15.9983 20.0288 15.7074C20.0867 15.4164 20.2295 15.1491 20.4393 14.9393C20.6491 14.7296 20.9164 14.5867 21.2073 14.5288C21.4983 14.4709 21.7999 14.5006 22.074 14.6142C22.3481 14.7277 22.5824 14.92 22.7472 15.1666C22.912 15.4133 23 15.7033 23 16C23 16.3978 22.8419 16.7794 22.5606 17.0607C22.2793 17.342 21.8978 17.5 21.5 17.5Z" />
</svg>
