<svg viewBox="0 0 32 32"
    xmlns="http://www.w3.org/2000/svg">
    <path d="M29.4425 18.7762C28.6349 21.4124 27.0165 23.7267 24.8175 25.3899C22.8868 26.843 20.5894 27.7292 18.183 27.9491C15.7767 28.169 13.3567 27.7139 11.1946 26.6348C9.03255 25.5557 7.21403 23.8954 5.94317 21.8402C4.67232 19.785 3.99941 17.4163 4 14.9999C3.99131 12.1795 4.9082 9.43408 6.61 7.18491C8.27317 4.9859 10.5875 3.36746 13.2238 2.55991C13.3975 2.50641 13.5825 2.50128 13.759 2.54509C13.9354 2.58889 14.0966 2.67997 14.2251 2.80852C14.3537 2.93707 14.4448 3.09823 14.4886 3.27467C14.5324 3.45111 14.5272 3.63616 14.4738 3.80991C13.8973 5.71669 13.849 7.74415 14.3339 9.67624C14.8188 11.6083 15.8189 13.3727 17.2274 14.7812C18.636 16.1898 20.4003 17.1898 22.3324 17.6748C24.2645 18.1597 26.292 18.1114 28.1987 17.5349C28.3725 17.4814 28.5575 17.4763 28.734 17.5201C28.9104 17.5639 29.0716 17.655 29.2001 17.7835C29.3287 17.9121 29.4198 18.0732 29.4636 18.2497C29.5074 18.4261 29.5022 18.6112 29.4487 18.7849L29.4425 18.7762Z" />
</svg>
