<svg width="24" height="24" viewBox="0 0 24 24" fill="none" xmlns="http://www.w3.org/2000/svg">
<path d="M11.38 2.01898C10.6431 2.7056 10.0521 3.53361 9.64219 4.4536C9.23227 5.37359 9.01185 6.36673 8.99408 7.37376C8.97632 8.38078 9.16156 9.38108 9.53877 10.315C9.91598 11.2488 10.4774 12.0972 11.1896 12.8094C11.9018 13.5216 12.7501 14.083 13.684 14.4602C14.6179 14.8374 15.6182 15.0227 16.6252 15.0049C17.6323 14.9871 18.6254 14.7667 19.5454 14.3568C20.4654 13.9469 21.2934 13.3559 21.98 12.619C21.662 17.854 17.316 22 12.001 22C6.477 22 2 17.523 2 12C2 6.68498 6.146 2.33898 11.38 2.01898Z" fill="#212134"/>
</svg>
