<svg width="24" height="24" viewBox="0 0 24 24" fill="none" xmlns="http://www.w3.org/2000/svg">
<path d="M7.30005 13.8C8.12848 13.8 8.80005 13.1284 8.80005 12.3C8.80005 11.4716 8.12848 10.8 7.30005 10.8C6.47162 10.8 5.80005 11.4716 5.80005 12.3C5.80005 13.1284 6.47162 13.8 7.30005 13.8Z" fill="#32324D"/>
<path d="M12.3 13.8C13.1285 13.8 13.8 13.1284 13.8 12.3C13.8 11.4716 13.1285 10.8 12.3 10.8C11.4716 10.8 10.8 11.4716 10.8 12.3C10.8 13.1284 11.4716 13.8 12.3 13.8Z" fill="#32324D"/>
<path d="M17.3 13.8C18.1285 13.8 18.8 13.1284 18.8 12.3C18.8 11.4716 18.1285 10.8 17.3 10.8C16.4716 10.8 15.8 11.4716 15.8 12.3C15.8 13.1284 16.4716 13.8 17.3 13.8Z" fill="#32324D"/>
</svg>
