<svg width="24" height="24" viewBox="0 0 24 24" fill="none" xmlns="http://www.w3.org/2000/svg">
<path fill-rule="evenodd" clip-rule="evenodd" d="M6.72692 6V8.45599H7.39253V9.00057H5.33519V8.45599H6.00081V6.70118H5.33519V6.20792L6.72692 6ZM6.2702 12.9696L6.27638 12.9933H7.39211V13.4774H5.33474V13.0519L6.29994 12.0488C6.42097 11.9101 6.52111 11.7864 6.57817 11.6776C6.63523 11.569 6.66379 11.4744 6.66379 11.3942C6.66379 11.28 6.63488 11.1885 6.57715 11.1205C6.51937 11.0526 6.43271 11.018 6.3172 11.018C6.2139 11.018 6.13271 11.0603 6.07358 11.148C6.01446 11.2356 5.98489 11.3595 5.98488 11.4805H5.31217L5.30805 11.4712C5.3012 11.1966 5.39092 10.9668 5.57713 10.7759C5.76333 10.585 6.01003 10.4897 6.31718 10.4897C6.64334 10.4897 6.89785 10.5702 7.08064 10.7305C7.26338 10.891 7.35481 11.1112 7.35481 11.3898C7.35481 11.5773 7.30621 11.7446 7.20909 11.8886C7.11184 12.0327 6.93287 12.2497 6.67188 12.5337L6.2702 12.9696ZM7.30821 16.7014C7.21846 16.5824 7.09411 16.4941 6.93509 16.4357C7.07506 16.3717 7.18688 16.2831 7.27044 16.1697C7.35406 16.0562 7.39581 15.9321 7.39581 15.7976C7.39581 15.5272 7.2993 15.3182 7.10634 15.1708C6.91338 15.0232 6.65584 14.9496 6.33369 14.9496C6.05642 14.9496 5.82063 15.023 5.62627 15.1698C5.4319 15.3166 5.33877 15.5187 5.34696 15.7552L5.35109 15.778H6.01978C6.01978 15.657 6.05367 15.6193 6.12168 15.5676C6.18963 15.516 6.26849 15.4849 6.35815 15.4849C6.47234 15.4849 6.55928 15.5142 6.61915 15.5781C6.67893 15.642 6.70881 15.7195 6.70881 15.8133C6.70881 15.9315 6.67553 16.0295 6.60898 16.0962C6.54235 16.1628 6.44724 16.2016 6.32355 16.2016H6.00059V16.6857H6.32355C6.46085 16.6857 6.56717 16.7262 6.64262 16.7921C6.71808 16.8581 6.75579 16.9669 6.75579 17.1109C6.75579 17.2143 6.71973 17.3018 6.64779 17.3697C6.57572 17.4377 6.47921 17.4725 6.35824 17.4725C6.25222 17.4725 6.16225 17.4268 6.08811 17.3623C6.01398 17.2978 5.97701 17.2303 5.97701 17.1093H5.30417L5.30013 17.1354C5.29334 17.4127 5.39422 17.6313 5.60285 17.7774C5.81148 17.9235 6.0551 18.0001 6.33369 18.0001C6.65719 18.0001 6.92289 17.9241 7.13086 17.7684C7.33883 17.6128 7.44273 17.3999 7.44273 17.1281C7.44273 16.9623 7.39796 16.8204 7.30821 16.7014ZM9.70124 6.81553H18.7012V8.28267H9.70124V6.81553ZM18.7013 11.2161H9.70131V12.6832H18.7013V11.2161ZM9.70131 15.6175H18.7013V17.0847H9.70131V15.6175Z" fill="#32324D"/>
</svg>
