<svg width="24" height="24" viewBox="0 0 24 24" fill="none" xmlns="http://www.w3.org/2000/svg">
    <path d="M3.74 2.7v3.85h1.04v.85H1.56v-.85H2.6V3.8H1.56v-.77l2.18-.33Zm-.72 10.92.01.04h1.75v.76H1.55v-.67l1.52-1.57c.19-.22.34-.41.43-.58a.99.99 0 0 0 .14-.45.64.64 0 0 0-.14-.43c-.09-.1-.22-.16-.4-.16a.43.43 0 0 0-.39.2.96.96 0 0 0-.14.53H1.52v-.02c-.02-.43.12-.79.41-1.09.3-.3.68-.44 1.16-.44.52 0 .91.12 1.2.37.29.25.43.6.43 1.04 0 .29-.08.55-.23.78-.15.22-.43.56-.84 1l-.63.7Zm1.63 5.85a1.25 1.25 0 0 0-.59-.42c.22-.1.4-.24.53-.41a1.16 1.16 0 0 0-.26-1.57c-.3-.23-.7-.35-1.21-.35-.43 0-.8.12-1.1.35-.31.23-.46.55-.45.92l.01.03h1.05c0-.19.05-.25.16-.33a.6.6 0 0 1 .37-.13c.18 0 .31.05.4.15.1.1.15.22.15.37a.6.6 0 0 1-.16.44.6.6 0 0 1-.45.17h-.5v.75h.5c.22 0 .39.07.5.17.12.1.18.28.18.5 0 .16-.05.3-.17.4a.64.64 0 0 1-.45.17.64.64 0 0 1-.42-.18.47.47 0 0 1-.18-.4H1.51l-.01.05c-.01.43.15.78.47 1 .33.23.71.35 1.15.35.5 0 .92-.12 1.25-.36.33-.24.49-.58.49-1 0-.26-.07-.48-.21-.67ZM8.4 3.97h14.1v2.38H8.4V3.98Zm14.1 6.9H8.4v2.37h14.1v-2.37Zm-14.1 6.9h14.1v2.37H8.4v-2.37Z" fill="#32324D"/>
</svg>
