<svg width="24" height="24" viewBox="0 0 24 24" fill="none" xmlns="http://www.w3.org/2000/svg">
<path fill-rule="evenodd" clip-rule="evenodd" d="M7.12776 12.3211C6.79377 13.9637 5.34125 15.1999 3.6 15.1999C1.61178 15.1999 0 13.5882 0 11.5999C0 9.6117 1.61178 7.99992 3.6 7.99992C5.34206 7.99992 6.79511 9.23728 7.12823 10.8811H18.7199V8.48039L23.9999 11.6004L18.7199 14.7204V12.3211H7.12776ZM6.00001 11.5999C6.00001 12.9254 4.92549 13.9999 3.6 13.9999C2.27452 13.9999 1.2 12.9254 1.2 11.5999C1.2 10.2744 2.27452 9.19992 3.6 9.19992C4.92549 9.19992 6.00001 10.2744 6.00001 11.5999Z" fill="#212134"/>
</svg>
