<svg viewBox="0 0 32 32"
    xmlns="http://www.w3.org/2000/svg">
    <path fill-rule="evenodd" clip-rule="evenodd" d="M10.874 17C10.4299 18.7252 8.86384 20 7 20C4.79086 20 3 18.2091 3 16C3 13.7909 4.79086 12 7 12C8.86384 12 10.4299 13.2748 10.874 15H21.126C21.5701 13.2748 23.1362 12 25 12C27.2091 12 29 13.7909 29 16C29 18.2091 27.2091 20 25 20C23.1362 20 21.5701 18.7252 21.126 17H10.874ZM7 18C8.10457 18 9 17.1046 9 16C9 14.8954 8.10457 14 7 14C5.89543 14 5 14.8954 5 16C5 17.1046 5.89543 18 7 18ZM25 18C26.1046 18 27 17.1046 27 16C27 14.8954 26.1046 14 25 14C23.8954 14 23 14.8954 23 16C23 17.1046 23.8954 18 25 18Z" />
</svg>
