<svg width="24" height="20" viewBox="0 0 24 20" fill="none" xmlns="http://www.w3.org/2000/svg">
<path d="M21.569 2.39843H7.82972C7.82972 2.39843 7.82972 3.7736 7.82972 3.98384H21.569C22.0396 3.98384 22.3947 4.48324 22.3947 5.07776V14.931L19.6037 11.7602C19.4027 11.5268 19.1504 11.3389 18.8648 11.2101C18.5793 11.0813 18.2676 11.0147 17.9521 11.0151C17.6373 11.0137 17.326 11.0791 17.0405 11.2065C16.7551 11.3339 16.5024 11.5203 16.3006 11.7523L13.3692 15.1371L10.3965 11.7761C10.1939 11.5449 9.94112 11.3591 9.65581 11.2318C9.3705 11.1044 9.0596 11.0386 8.74494 11.0389C8.42899 11.0405 8.11728 11.1088 7.83188 11.239C7.54648 11.3691 7.29438 11.5579 7.09343 11.7919L4.16199 15.2243V7.65272H2.51049L2.51048 17.1982C2.51048 17.3091 2.51048 17.4201 2.51048 17.547C2.53337 17.7001 2.56927 17.8512 2.61783 17.9988C2.61783 18.0384 2.61783 18.086 2.61783 18.1256L2.65912 18.2208C2.71592 18.3634 2.78497 18.5013 2.86555 18.633L2.96465 18.7836C3.0392 18.8898 3.12202 18.9905 3.21237 19.0848L3.33624 19.2037C3.46666 19.3221 3.61073 19.4258 3.76563 19.5129H3.7904C4.14967 19.7273 4.56471 19.8399 4.98775 19.8379H21.5029C21.8635 19.8343 22.2187 19.7527 22.5418 19.5989C22.865 19.4452 23.1478 19.2234 23.3691 18.95C23.5915 18.6857 23.7621 18.3849 23.8728 18.0622C23.9393 17.8453 23.9808 17.622 23.9967 17.3963C23.9967 17.3171 23.9967 17.2378 23.9967 17.1506V5.07776C24.0314 4.41649 23.798 3.768 23.3453 3.26843C22.8926 2.76886 22.256 2.45704 21.569 2.39843Z" fill="#32324D"/>
<path d="M12.5516 9.19891C13.4637 9.19891 14.2031 8.4891 14.2031 7.61351C14.2031 6.73791 13.4637 6.0281 12.5516 6.0281C11.6395 6.0281 10.9001 6.73791 10.9001 7.61351C10.9001 8.4891 11.6395 9.19891 12.5516 9.19891Z" fill="#32324D"/>
<path d="M3.30333 6.40767H4.12879V3.99654H6.60603C6.60603 3.99654 6.60606 3.41407 6.60606 3.20384C6.60606 2.9936 6.60603 2.41113 6.60603 2.41113H4.12879V0C4.12879 0 3.52233 0 3.30333 0C3.08432 0 2.45303 0.00238441 2.47727 0V2.41113H2.59868e-05C2.59868e-05 2.41113 0 2.9936 0 3.20384C0 3.41407 6.79877e-05 3.99654 6.79877e-05 3.99654H2.47727V6.40767C2.47727 6.40767 3.08432 6.40767 3.30333 6.40767Z" fill="#32324D"/>
</svg>
