<svg width="24" height="20" viewBox="0 0 24 20" fill="none" xmlns="http://www.w3.org/2000/svg">
<path d="M21.5251 2.39355H7.8138C7.8138 2.39355 7.8138 3.76592 7.8138 3.97573H21.5251C21.9948 3.97573 22.3491 4.47412 22.3491 5.06743V14.9007L19.5638 11.7363C19.3632 11.5033 19.1114 11.3158 18.8265 11.1873C18.5415 11.0587 18.2305 10.9923 17.9156 10.9927C17.6014 10.9913 17.2908 11.0565 17.0059 11.1837C16.721 11.3109 16.4688 11.4969 16.2675 11.7284L13.342 15.1063L10.3753 11.7521C10.1732 11.5214 9.9209 11.336 9.63616 11.2089C9.35143 11.0818 9.04116 11.0161 8.72715 11.0164C8.41184 11.0181 8.10076 11.0862 7.81595 11.2161C7.53113 11.346 7.27954 11.5344 7.079 11.768L4.15353 15.1934V7.63715H2.50539L2.50537 17.1632C2.50537 17.2739 2.50537 17.3847 2.50537 17.5113C2.52822 17.6641 2.56404 17.8149 2.6125 17.9622C2.6125 18.0017 2.6125 18.0492 2.6125 18.0888L2.65371 18.1837C2.7104 18.326 2.77931 18.4636 2.85972 18.5951L2.95861 18.7454C3.03302 18.8514 3.11566 18.9519 3.20584 19.046L3.32945 19.1646C3.45961 19.2828 3.60338 19.3863 3.75797 19.4732H3.78269C4.14123 19.6871 4.55543 19.7996 4.9776 19.7975H21.4591C21.819 19.794 22.1735 19.7125 22.496 19.559C22.8184 19.4056 23.1007 19.1843 23.3216 18.9115C23.5435 18.6477 23.7138 18.3475 23.8242 18.0255C23.8906 17.809 23.932 17.5861 23.9479 17.361C23.9479 17.2818 23.9479 17.2027 23.9479 17.1157V5.06743C23.9825 4.4075 23.7495 3.76034 23.2978 3.26178C22.8461 2.76322 22.2107 2.45204 21.5251 2.39355Z" fill="#32324D"/>
<path d="M12.5261 9.18019C13.4363 9.18019 14.1742 8.47183 14.1742 7.59802C14.1742 6.7242 13.4363 6.01584 12.5261 6.01584C11.6158 6.01584 10.8779 6.7242 10.8779 7.59802C10.8779 8.47183 11.6158 9.18019 12.5261 9.18019Z" fill="#32324D"/>
<path d="M3.29661 6.39463H4.12039V3.98841H6.59259C6.59259 3.98841 6.59262 3.40713 6.59262 3.19732C6.59262 2.98751 6.59259 2.40623 6.59259 2.40623H4.12039V0C4.12039 0 3.51517 0 3.29661 0C3.07805 0 2.44803 0.00237956 2.47223 0V2.40623H2.59339e-05C2.59339e-05 2.40623 0 2.98751 0 3.19732C0 3.40713 6.78494e-05 3.98841 6.78494e-05 3.98841H2.47223V6.39463C2.47223 6.39463 3.07805 6.39463 3.29661 6.39463Z" fill="#32324D"/>
</svg>
