<svg viewBox="0 0 32 32"
    xmlns="http://www.w3.org/2000/svg">
    <path d="M30 16C30.0008 16.3395 29.9138 16.6735 29.7473 16.9694C29.5808 17.2654 29.3406 17.5132 29.05 17.6888L11.04 28.7063C10.7364 28.8922 10.3886 28.9937 10.0326 29.0003C9.67661 29.0069 9.32532 28.9183 9.015 28.7438C8.70764 28.5719 8.4516 28.3213 8.2732 28.0177C8.09481 27.7141 8.00051 27.3684 8 27.0163V4.98376C8.00051 4.63162 8.09481 4.28597 8.2732 3.98235C8.4516 3.67874 8.70764 3.42812 9.015 3.25626C9.32532 3.0817 9.67661 2.99314 10.0326 2.99973C10.3886 3.00632 10.7364 3.10783 11.04 3.29376L29.05 14.3113C29.3406 14.4869 29.5808 14.7347 29.7473 15.0306C29.9138 15.3265 30.0008 15.6605 30 16Z" />
</svg>
