<svg width="24" height="24" viewBox="0 0 24 24" fill="none" xmlns="http://www.w3.org/2000/svg">
<path d="M10.9001 2.09998L20.7991 3.51498L22.2131 13.415L13.0211 22.607C12.8336 22.7944 12.5793 22.8998 12.3141 22.8998C12.0489 22.8998 11.7946 22.7944 11.6071 22.607L1.70709 12.707C1.51962 12.5194 1.41431 12.2651 1.41431 12C1.41431 11.7348 1.51962 11.4805 1.70709 11.293L10.9001 2.09998ZM13.7281 10.586C13.9138 10.7717 14.1344 10.9189 14.377 11.0194C14.6197 11.1199 14.8798 11.1716 15.1424 11.1715C15.4051 11.1715 15.6652 11.1197 15.9078 11.0191C16.1504 10.9186 16.3709 10.7712 16.5566 10.5855C16.7423 10.3997 16.8896 10.1792 16.99 9.93654C17.0905 9.69386 17.1422 9.43377 17.1421 9.17112C17.1421 8.90847 17.0903 8.6484 16.9898 8.40576C16.8892 8.16312 16.7418 7.94266 16.5561 7.75698C16.3703 7.57129 16.1498 7.424 15.9072 7.32353C15.6645 7.22306 15.4044 7.17138 15.1417 7.17142C14.6113 7.17152 14.1026 7.38233 13.7276 7.75748C13.3526 8.13262 13.1419 8.64138 13.142 9.17183C13.1421 9.70228 13.3529 10.211 13.7281 10.586Z" fill="#212134"/>
</svg>
