<svg width="22" height="24" viewBox="0 0 22 24" fill="none" xmlns="http://www.w3.org/2000/svg">
<path fill-rule="evenodd" clip-rule="evenodd" d="M17.4962 2.01527C16.2314 2.01527 15.2061 3.04057 15.2061 4.30534C15.2061 4.70454 15.3082 5.07988 15.4878 5.40666C15.4988 5.42313 15.5093 5.44002 15.5194 5.45733C15.5294 5.4745 15.5389 5.49184 15.5478 5.50934C15.9514 6.1612 16.6731 6.59542 17.4962 6.59542C18.761 6.59542 19.7863 5.57012 19.7863 4.30534C19.7863 3.04057 18.761 2.01527 17.4962 2.01527ZM14.3879 7.28433C15.1715 8.10176 16.2744 8.61069 17.4962 8.61069C19.874 8.61069 21.8015 6.68312 21.8015 4.30534C21.8015 1.92757 19.874 0 17.4962 0C15.1184 0 13.1908 1.92757 13.1908 4.30534C13.1908 4.73592 13.254 5.15174 13.3717 5.54402L7.41365 9.021C6.63003 8.20358 5.52712 7.69466 4.30534 7.69466C1.92757 7.69466 0 9.62223 0 12C0 14.3778 1.92757 16.3053 4.30534 16.3053C5.52732 16.3053 6.6304 15.7963 7.41404 14.9786L13.3732 18.4511C13.2546 18.8448 13.1908 19.2623 13.1908 19.6947C13.1908 22.0724 15.1184 24 17.4962 24C19.874 24 21.8015 22.0724 21.8015 19.6947C21.8015 17.3169 19.874 15.3893 17.4962 15.3893C16.2762 15.3893 15.1748 15.8967 14.3914 16.712L8.42999 13.2382C8.54754 12.846 8.61069 12.4304 8.61069 12C8.61069 11.5694 8.54748 11.1536 8.42983 10.7613L14.3879 7.28433ZM6.25328 10.7952C6.26229 10.813 6.27188 10.8306 6.28205 10.848C6.2923 10.8656 6.303 10.8827 6.31413 10.8995C6.49344 11.2261 6.59542 11.6011 6.59542 12C6.59542 12.3989 6.49342 12.774 6.31407 13.1007C6.30285 13.1175 6.29206 13.1348 6.28173 13.1525C6.2717 13.1697 6.26223 13.1871 6.25333 13.2047C5.84959 13.8562 5.12814 14.2901 4.30534 14.2901C3.04057 14.2901 2.01527 13.2648 2.01527 12C2.01527 10.7352 3.04057 9.70992 4.30534 9.70992C5.1281 9.70992 5.84952 10.1438 6.25328 10.7952ZM15.2061 19.6947C15.2061 19.3193 15.2964 18.9649 15.4565 18.6523C15.4833 18.6177 15.5081 18.5809 15.5307 18.5421C15.5524 18.5049 15.5715 18.4668 15.588 18.4281C15.9983 17.8111 16.6997 17.4046 17.4962 17.4046C18.761 17.4046 19.7863 18.4299 19.7863 19.6947C19.7863 20.9594 18.761 21.9847 17.4962 21.9847C16.2314 21.9847 15.2061 20.9594 15.2061 19.6947Z" fill="#32324D"/>
</svg>
