<svg width="24" height="24" viewBox="0 0 24 24" fill="none" xmlns="http://www.w3.org/2000/svg">
<path fill-rule="evenodd" clip-rule="evenodd" d="M18.4545 2.0918C17.1993 2.0918 16.1817 3.10933 16.1817 4.36452C16.1817 4.7607 16.2831 5.13319 16.4613 5.45749C16.4722 5.47384 16.4826 5.49061 16.4927 5.50778C16.5026 5.52482 16.512 5.54204 16.5208 5.5594C16.9214 6.20632 17.6376 6.63725 18.4545 6.63725C19.7097 6.63725 20.7272 5.61972 20.7272 4.36452C20.7272 3.10933 19.7097 2.0918 18.4545 2.0918ZM15.3697 7.32095C16.1474 8.13218 17.2419 8.63725 18.4545 8.63725C20.8142 8.63725 22.7272 6.72429 22.7272 4.36452C22.7272 2.00476 20.8142 0.0917969 18.4545 0.0917969C16.0947 0.0917969 14.1817 2.00476 14.1817 4.36452C14.1817 4.79184 14.2445 5.20451 14.3612 5.59381L8.44831 9.04445C7.67062 8.23323 6.57607 7.72816 5.36355 7.72816C3.00379 7.72816 1.09082 9.64113 1.09082 12.0009C1.09082 14.3607 3.00379 16.2736 5.36355 16.2736C6.57627 16.2736 7.67099 15.7684 8.4487 14.9569L14.3627 18.4031C14.245 18.7939 14.1817 19.2082 14.1817 19.6373C14.1817 21.997 16.0947 23.91 18.4545 23.91C20.8142 23.91 22.7272 21.997 22.7272 19.6373C22.7272 17.2775 20.8142 15.3645 18.4545 15.3645C17.2437 15.3645 16.1507 15.8681 15.3732 16.6772L9.45695 13.2297C9.5736 12.8405 9.63628 12.428 9.63628 12.0009C9.63628 11.5736 9.57354 11.1609 9.45679 10.7716L15.3697 7.32095ZM7.29672 10.8052C7.30567 10.8229 7.31518 10.8404 7.32528 10.8577C7.33545 10.8751 7.34607 10.8921 7.35711 10.9087C7.53507 11.2328 7.63628 11.605 7.63628 12.0009C7.63628 12.3968 7.53505 12.7691 7.35706 13.0932C7.34592 13.1099 7.33521 13.1271 7.32496 13.1447C7.315 13.1618 7.30561 13.179 7.29678 13.1964C6.89609 13.843 6.18011 14.2736 5.36355 14.2736C4.10836 14.2736 3.09082 13.2561 3.09082 12.0009C3.09082 10.7457 4.10836 9.72816 5.36355 9.72816C6.18007 9.72816 6.89602 10.1588 7.29672 10.8052ZM16.1817 19.6373C16.1817 19.2647 16.2714 18.9131 16.4303 18.6028C16.4568 18.5684 16.4814 18.532 16.5039 18.4935C16.5254 18.4565 16.5444 18.4186 16.5607 18.3802C16.9679 17.768 17.6641 17.3645 18.4545 17.3645C19.7097 17.3645 20.7272 18.3821 20.7272 19.6373C20.7272 20.8924 19.7097 21.91 18.4545 21.91C17.1993 21.91 16.1817 20.8924 16.1817 19.6373Z" fill="#212134"/>
</svg>
