<svg width="24" height="24" viewBox="0 0 24 24" fill="none" xmlns="http://www.w3.org/2000/svg">
<path d="M19.4169 6.679C20.4469 7.773 20.9999 9 20.9999 10.989C20.9999 14.489 18.5429 17.626 14.9699 19.177L14.0769 17.799C17.4119 15.995 18.0639 13.654 18.3239 12.178C17.7869 12.456 17.0839 12.553 16.3949 12.489C14.5909 12.322 13.1689 10.841 13.1689 9C13.1689 8.07174 13.5377 7.1815 14.194 6.52513C14.8504 5.86875 15.7407 5.5 16.6689 5.5C17.7419 5.5 18.7679 5.99 19.4169 6.679ZM9.41692 6.679C10.4469 7.773 10.9999 9 10.9999 10.989C10.9999 14.489 8.54292 17.626 4.96992 19.177L4.07692 17.799C7.41192 15.995 8.06392 13.654 8.32392 12.178C7.78692 12.456 7.08392 12.553 6.39492 12.489C4.59092 12.322 3.16992 10.841 3.16992 9C3.16992 8.07174 3.53867 7.1815 4.19505 6.52513C4.85143 5.86875 5.74166 5.5 6.66992 5.5C7.74292 5.5 8.76892 5.99 9.41792 6.679H9.41692Z" fill="#212134"/>
</svg>
