<svg width="24" height="24" viewBox="0 0 24 24" fill="none" xmlns="http://www.w3.org/2000/svg">
<path d="M8.74917 12.5151L8.76738 12.6187L8.86995 12.5953C9.14181 12.5331 9.51744 12.5209 9.88543 12.6016C10.2533 12.6822 10.6037 12.8534 10.8386 13.1487C11.1578 13.5537 11.3159 14.0543 11.3159 14.6407C11.3159 15.3128 11.1035 15.8398 10.6704 16.2264C10.2333 16.6167 9.67736 16.8144 9.00306 16.8144C7.47704 16.8144 6.37511 15.5887 6.14152 13.6716L6.14152 13.6716C5.77661 10.6809 7.88268 8.29734 10.0666 7.22636L11.0875 8.65852C10.3726 9.03948 9.74342 9.64042 9.31348 10.3122C8.86366 11.015 8.62478 11.8073 8.74917 12.5151ZM15.3333 12.5151L15.3515 12.6187L15.4541 12.5953C15.726 12.5331 16.0995 12.5209 16.4664 12.6016C16.833 12.6822 17.1838 12.8532 17.4229 13.149C17.742 13.5539 17.9 14.0544 17.9 14.6407C17.9 15.3128 17.6876 15.8398 17.2545 16.2264C16.8174 16.6167 16.2615 16.8144 15.5872 16.8144C14.0615 16.8144 12.9675 15.5891 12.7338 13.6716L12.7338 13.6716C12.3689 10.6808 14.4672 8.29724 16.6507 7.22636L17.6716 8.65852C16.9568 9.03948 16.3275 9.64042 15.8976 10.3122C15.4478 11.015 15.2089 11.8073 15.3333 12.5151Z" fill="#32324D" stroke="white" stroke-width="0.2"/>
</svg>
