<svg width="24" height="24" viewBox="0 0 24 24" fill="none" xmlns="http://www.w3.org/2000/svg">
    <path d="M10.4787 6.32872C9.27329 6.97112 8.21225 7.98447 7.48726 9.11726C6.72875 10.3024 6.32594 11.6384 6.5357 12.8319L6.56641 13.0066L6.73935 12.9671C7.19779 12.8623 7.83119 12.8417 8.45172 12.9777C9.07203 13.1137 9.66294 13.4023 10.059 13.9004C10.5972 14.5832 10.8638 15.4274 10.8638 16.4162C10.8638 17.5495 10.5057 18.4381 9.77541 19.0901C9.03826 19.7483 8.10086 20.0817 6.96383 20.0817C4.39057 20.0817 2.53243 18.0147 2.13854 14.7821L2.13854 14.7821C1.5232 9.73901 5.07458 5.71968 8.75722 3.91374L10.4787 6.32872ZM17.6382 12.8319L17.6689 13.0066L17.8418 12.9671C18.3003 12.8623 18.9302 12.8417 19.5489 12.9777C20.167 13.1136 20.7585 13.4021 21.1618 13.9008C21.6999 14.5836 21.9663 15.4276 21.9663 16.4162C21.9663 17.5495 21.6082 18.4381 20.8779 19.0901C20.1408 19.7483 19.2034 20.0817 18.0663 20.0817C15.4936 20.0817 13.6488 18.0154 13.2548 14.7821L13.2548 14.7821C12.6395 9.73874 16.1777 5.71953 19.8597 3.91375L21.5812 6.32872C20.3758 6.97112 19.3147 7.98447 18.5898 9.11726C17.8312 10.3024 17.4284 11.6384 17.6382 12.8319Z" fill="#32324D" />
</svg>
