<svg width="24" height="24" viewBox="0 0 24 24" fill="none" xmlns="http://www.w3.org/2000/svg">
<path fill-rule="evenodd" clip-rule="evenodd" d="M23.6338 12.0178C23.6338 18.601 18.3713 23.9378 11.8796 23.9378C5.388 23.9378 0.125488 18.601 0.125488 12.0178C0.125488 5.43458 5.388 0.0978088 11.8796 0.0978088C18.3713 0.0978088 23.6338 5.43458 23.6338 12.0178ZM17.9396 10.3408C18.8892 10.3082 19.6839 11.0579 19.719 12.0179C19.7307 12.6875 19.3596 13.3038 18.7694 13.6031C18.7811 13.7779 18.7811 13.9527 18.7694 14.1275C18.7694 16.8001 15.7016 18.969 11.9179 18.969C8.13419 18.969 5.06634 16.7972 5.06634 14.1275C5.05465 13.9527 5.05465 13.7779 5.06634 13.6031C4.89395 13.526 4.7391 13.4164 4.6047 13.289C3.91224 12.6312 3.8801 11.529 4.52873 10.8297C5.17736 10.1275 6.26426 10.0949 6.9538 10.7527C8.3095 9.82231 9.90186 9.31268 11.538 9.28601L12.4058 5.1497V5.14377C12.4496 4.94229 12.6454 4.81784 12.8412 4.86229L15.722 5.44599C15.9061 5.12007 16.2392 4.90081 16.6102 4.86229C17.2559 4.79118 17.8345 5.26525 17.9046 5.92007C17.9747 6.57489 17.5072 7.16156 16.8615 7.23267C16.2158 7.30378 15.6373 6.82971 15.5672 6.17489L13.0515 5.63859L12.2889 9.35713C13.9047 9.39268 15.4766 9.89935 16.8148 10.8238C17.1186 10.5305 17.5189 10.3556 17.9396 10.3408ZM9.1422 12.0179C8.49357 12.0179 7.96473 12.5542 7.96473 13.212C7.96473 13.8697 8.49065 14.4001 9.1422 14.406C9.79083 14.406 10.3197 13.8697 10.3197 13.212C10.3197 12.5542 9.79083 12.0179 9.1422 12.0179ZM11.8887 17.4075C12.9347 17.452 13.9573 17.1261 14.7929 16.489V16.5364C14.9215 16.409 14.9244 16.1957 14.7987 16.0653C14.6731 15.9349 14.4627 15.932 14.3342 16.0594C13.6183 16.5779 12.7535 16.8327 11.877 16.7853C11.0004 16.8268 10.1385 16.5601 9.43146 16.0357C9.31166 15.9379 9.14512 15.9379 9.02825 16.0357C8.89385 16.1483 8.8734 16.3527 8.98443 16.489C9.82005 17.1261 10.8427 17.452 11.8887 17.4075ZM13.4051 13.2534C13.4051 13.9112 13.9339 14.4475 14.5825 14.4475L14.5738 14.492H14.6322C15.2808 14.4653 15.7863 13.9112 15.76 13.2534C15.76 12.5957 15.2312 12.0594 14.5825 12.0594C13.9339 12.0594 13.4051 12.5957 13.4051 13.2534Z" fill="#FF4500"/>
</svg>
