<svg width="24" height="24" viewBox="0 0 24 24" fill="none" xmlns="http://www.w3.org/2000/svg">
<path d="M11.8796 23.9378C18.3713 23.9378 23.6338 18.601 23.6338 12.0178C23.6338 5.43458 18.3713 0.0978088 11.8796 0.0978088C5.388 0.0978088 0.125488 5.43458 0.125488 12.0178C0.125488 18.601 5.388 23.9378 11.8796 23.9378Z" fill="#FF4500"/>
<path d="M19.719 12.0179C19.6839 11.0579 18.8892 10.3082 17.9396 10.3408C17.5189 10.3557 17.1186 10.5305 16.8148 10.8238C15.4766 9.89936 13.9047 9.39269 12.2889 9.35713L13.0515 5.6386L15.5672 6.17489C15.6373 6.82971 16.2158 7.30379 16.8615 7.23268C17.5072 7.16157 17.9747 6.5749 17.9046 5.92008C17.8345 5.26526 17.2559 4.79118 16.6102 4.8623C16.2392 4.90081 15.9061 5.12007 15.722 5.446L12.8412 4.8623C12.6454 4.81785 12.4496 4.9423 12.4058 5.14378C12.4058 5.14674 12.4058 5.14674 12.4058 5.1497L11.538 9.28602C9.90186 9.31269 8.3095 9.82232 6.9538 10.7527C6.26426 10.0949 5.17736 10.1275 4.52873 10.8297C3.8801 11.529 3.91224 12.6312 4.6047 13.289C4.7391 13.4164 4.89395 13.526 5.06634 13.6031C5.05465 13.7779 5.05465 13.9527 5.06634 14.1275C5.06634 16.7972 8.13419 18.969 11.9179 18.969C15.7016 18.969 18.7694 16.8001 18.7694 14.1275C18.7811 13.9527 18.7811 13.7779 18.7694 13.6031C19.3596 13.3038 19.7307 12.6875 19.719 12.0179ZM7.96473 13.212C7.96473 12.5542 8.49357 12.0179 9.1422 12.0179C9.79083 12.0179 10.3197 12.5542 10.3197 13.212C10.3197 13.8697 9.79083 14.406 9.1422 14.406C8.49065 14.4001 7.96473 13.8697 7.96473 13.212ZM14.7929 16.489C13.9573 17.1261 12.9347 17.452 11.8887 17.4075C10.8427 17.452 9.82005 17.1261 8.98443 16.489C8.8734 16.3527 8.89385 16.1483 9.02825 16.0357C9.14512 15.9379 9.31166 15.9379 9.43146 16.0357C10.1385 16.5601 11.0004 16.8268 11.877 16.7853C12.7535 16.8327 13.6183 16.5779 14.3342 16.0594C14.4627 15.932 14.6731 15.9349 14.7987 16.0653C14.9244 16.1957 14.9215 16.409 14.7929 16.5364V16.489ZM14.5825 14.4475C13.9339 14.4475 13.4051 13.9112 13.4051 13.2534C13.4051 12.5957 13.9339 12.0594 14.5825 12.0594C15.2312 12.0594 15.76 12.5957 15.76 13.2534C15.7863 13.9112 15.2808 14.4653 14.6322 14.492C14.6117 14.492 14.5942 14.492 14.5738 14.492L14.5825 14.4475Z" fill="white"/>
</svg>
