<svg width="24" height="24" viewBox="0 0 24 24" fill="none" xmlns="http://www.w3.org/2000/svg">
<path fill-rule="evenodd" clip-rule="evenodd" d="M15.6814 2.80426C14.4603 2.27205 13.1457 1.99842 11.8175 2.00001C6.39714 2.00037 2 6.47916 2 12C2 17.521 6.3975 22 11.8182 22H11.8182C13.8487 21.9998 15.8293 21.3587 17.4874 20.1649C19.1455 18.9711 20.3995 17.2833 21.077 15.3337C21.278 14.7552 20.9805 14.1202 20.4126 13.9155C19.8446 13.7108 19.2212 14.0137 19.0202 14.5922C18.4932 16.1088 17.5177 17.4217 16.228 18.3503C14.9382 19.2789 13.3976 19.7776 11.8182 19.7777L11.8176 4.22222C11.8178 4.22222 11.818 4.22222 11.8182 4.22222H11.8188L11.8195 4.22222C12.852 4.22091 13.8739 4.43358 14.8231 4.84728C15.764 5.25741 16.614 5.8566 17.3223 6.60893L17.7873 7.15997L14.8009 10.2017C14.7755 10.2276 14.7581 10.2606 14.7511 10.2965C14.7441 10.3325 14.7477 10.3697 14.7614 10.4036C14.7752 10.4374 14.7985 10.4664 14.8285 10.4867C14.8584 10.5071 14.8936 10.5179 14.9296 10.5179H22V3.31651C22 3.27987 21.9894 3.24404 21.9694 3.21356C21.9494 3.18308 21.921 3.15932 21.8878 3.14529C21.8545 3.13126 21.818 3.12759 21.7827 3.13475C21.7474 3.14191 21.715 3.15957 21.6895 3.1855L19.3345 5.58415L18.9401 5.11679L18.9209 5.09634C18.0049 4.11641 16.9027 3.33657 15.6814 2.80426ZM11.8176 4.22222L11.8175 2.00001L11.8176 4.22222C11.8176 4.22222 11.8176 4.22222 11.8176 4.22222ZM11.8176 4.22222L11.8181 19.7777C7.60244 19.7777 4.18181 16.2937 4.18181 12C4.18181 7.70643 7.60216 4.22255 11.8176 4.22222Z" fill="#212134"/>
</svg>
