<svg width="24" height="24" viewBox="0 0 24 24" fill="none" xmlns="http://www.w3.org/2000/svg">
<path d="M8.498 20H15.502C14.8404 21.5823 13.5823 22.8405 12 23.502C10.4177 22.8405 9.15956 21.5823 8.498 20ZM18 14.805L20 17.073V19H4V17.073L6 14.805V9.00002C6 5.51702 8.504 2.55302 12 1.45502C15.496 2.55302 18 5.51702 18 9.00002V14.805ZM12 11C12.5304 11 13.0391 10.7893 13.4142 10.4142C13.7893 10.0392 14 9.53045 14 9.00002C14 8.46958 13.7893 7.96088 13.4142 7.5858C13.0391 7.21073 12.5304 7.00002 12 7.00002C11.4696 7.00002 10.9609 7.21073 10.5858 7.5858C10.2107 7.96088 10 8.46958 10 9.00002C10 9.53045 10.2107 10.0392 10.5858 10.4142C10.9609 10.7893 11.4696 11 12 11Z" fill="#212134"/>
</svg>
