<svg width="8" height="9" viewBox="0 0 8 9" fill="none" xmlns="http://www.w3.org/2000/svg">
    <path d="M8 .23a.1.1 0 0 0-.1-.1H5.55a.39.39 0 0 0-.39.39v2.35c0 .05.05.1.1.1h.58a.1.1 0 0 0 .1-.1V1.62c.72.55.97 1.17 1.06 2.08.09.9-.29 1.8-.9 2.47C5.49 6.85 4.9 7 4 7h-.16a.1.1 0 0 0-.1.1v.8c0 .05.05.1.1.1H4A4 4 0 0 0 6.52.9H7.9A.1.1 0 0 0 8 .8V.23ZM2.84 7.49V5.13a.1.1 0 0 0-.1-.1h-.58a.1.1 0 0 0-.1.1v1.25C1.34 5.83 1.08 5.21 1 4.31c-.09-.91.2-1.8.82-2.48C2.42 1.16 3.09.97 4 .97h.14c.06 0 .12-.04.12-.1V.1a.1.1 0 0 0-.1-.1L4 0a4 4 0 0 0-2.53 7.1H.1a.1.1 0 0 0-.1.1v.57c0 .06.04.1.1.1h2.35a.39.39 0 0 0 .39-.38Z" fill="#212134" />
</svg>
