<svg width="24" height="24" viewBox="0 0 24 24" fill="none" xmlns="http://www.w3.org/2000/svg">
<path d="M12.0001 14.121L9.68308 16.438C10.0455 17.2926 10.0994 18.2467 9.83546 19.1367C9.57157 20.0267 9.00635 20.7972 8.23666 21.3161C7.46698 21.8351 6.54076 22.0702 5.61675 21.9811C4.69274 21.8921 3.82847 21.4844 3.17207 20.828C2.51566 20.1716 2.108 19.3073 2.01894 18.3833C1.92989 17.4593 2.16498 16.5331 2.68394 15.7634C3.20289 14.9937 3.97339 14.4285 4.86339 14.1646C5.75338 13.9007 6.70745 13.9546 7.56208 14.317L9.88008 12L4.21008 6.333C4.02428 6.14727 3.87689 5.92675 3.77633 5.68405C3.67577 5.44135 3.62401 5.18121 3.62401 4.9185C3.62401 4.65579 3.67577 4.39565 3.77633 4.15294C3.87689 3.91024 4.02428 3.68972 4.21008 3.504L4.91808 2.797L12.0001 9.88L19.0811 2.798L19.7891 3.505C19.9749 3.69072 20.1223 3.91124 20.2228 4.15394C20.3234 4.39665 20.3752 4.65679 20.3752 4.9195C20.3752 5.18221 20.3234 5.44235 20.2228 5.68505C20.1223 5.92775 19.9749 6.14827 19.7891 6.334L14.1201 12L16.4371 14.317C17.2917 13.9546 18.2458 13.9007 19.1358 14.1646C20.0258 14.4285 20.7963 14.9937 21.3152 15.7634C21.8342 16.5331 22.0693 17.4593 21.9802 18.3833C21.8912 19.3073 21.4835 20.1716 20.8271 20.828C20.1707 21.4844 19.3064 21.8921 18.3824 21.9811C17.4584 22.0702 16.5322 21.8351 15.7625 21.3161C14.9928 20.7972 14.4276 20.0267 14.1637 19.1367C13.8998 18.2467 13.9537 17.2926 14.3161 16.438L12.0001 14.12V14.121ZM6.00008 20C6.53051 20 7.03922 19.7893 7.4143 19.4142C7.78937 19.0391 8.00008 18.5304 8.00008 18C8.00008 17.4696 7.78937 16.9609 7.4143 16.5858C7.03922 16.2107 6.53051 16 6.00008 16C5.46965 16 4.96094 16.2107 4.58587 16.5858C4.21079 16.9609 4.00008 17.4696 4.00008 18C4.00008 18.5304 4.21079 19.0391 4.58587 19.4142C4.96094 19.7893 5.46965 20 6.00008 20ZM18.0001 20C18.5305 20 19.0392 19.7893 19.4143 19.4142C19.7894 19.0391 20.0001 18.5304 20.0001 18C20.0001 17.4696 19.7894 16.9609 19.4143 16.5858C19.0392 16.2107 18.5305 16 18.0001 16C17.4696 16 16.9609 16.2107 16.5859 16.5858C16.2108 16.9609 16.0001 17.4696 16.0001 18C16.0001 18.5304 16.2108 19.0391 16.5859 19.4142C16.9609 19.7893 17.4696 20 18.0001 20Z" fill="#212134"/>
</svg>
