<svg width="24" height="24" viewBox="0 0 24 24" fill="none" xmlns="http://www.w3.org/2000/svg">
<path d="M22 7V9.5C22 10.3536 21.8319 11.1988 21.5052 11.9874C21.1786 12.7761 20.6998 13.4926 20.0962 14.0962C19.4926 14.6998 18.7761 15.1786 17.9874 15.5052C17.1988 15.8319 16.3536 16 15.5 16H13V21H11V14L11.019 13C11.145 11.3675 11.8824 9.84259 13.084 8.73022C14.2855 7.61785 15.8626 6.99993 17.5 7H22ZM6 3C7.46936 3.00011 8.90147 3.46233 10.0937 4.32125C11.2858 5.18016 12.1777 6.39226 12.643 7.786C11.8778 8.43446 11.2509 9.23024 10.7996 10.126C10.3482 11.0217 10.0818 11.9991 10.016 13H9C7.14348 13 5.36301 12.2625 4.05025 10.9497C2.7375 9.63699 2 7.85652 2 6V3H6Z" fill="#212134"/>
</svg>
