<svg width="24" height="24" viewBox="0 0 24 24" fill="none" xmlns="http://www.w3.org/2000/svg">
<path d="M14.515 5.00002L17.121 2.39302C17.2139 2.30004 17.3241 2.22628 17.4455 2.17596C17.5669 2.12563 17.6971 2.09973 17.8285 2.09973C17.9599 2.09973 18.09 2.12563 18.2114 2.17596C18.3328 2.22628 18.4431 2.30004 18.536 2.39302L22.778 6.63602C22.9655 6.82355 23.0708 7.07785 23.0708 7.34302C23.0708 7.60818 22.9655 7.86249 22.778 8.05002L19 11.828V21C19 21.2652 18.8946 21.5196 18.7071 21.7071C18.5196 21.8947 18.2652 22 18 22H5.99999C5.73477 22 5.48042 21.8947 5.29288 21.7071C5.10534 21.5196 4.99999 21.2652 4.99999 21V11.828L1.22199 8.05002C1.03451 7.86249 0.929199 7.60818 0.929199 7.34302C0.929199 7.07785 1.03451 6.82355 1.22199 6.63602L5.46399 2.39302C5.55686 2.30004 5.66715 2.22628 5.78855 2.17596C5.90994 2.12563 6.04007 2.09973 6.17149 2.09973C6.3029 2.09973 6.43303 2.12563 6.55443 2.17596C6.67582 2.22628 6.78611 2.30004 6.87899 2.39302L9.48499 5.00002H14.515Z" fill="#212134"/>
</svg>
