<svg viewBox="0 0 32 32"
    xmlns="http://www.w3.org/2000/svg">
    <path d="M30.9487 7.6525L24.4787 4.125C24.3322 4.04389 24.1675 4.0009 24 4H20C19.7348 4 19.4804 4.10536 19.2929 4.29289C19.1054 4.48043 19 4.73478 19 5C19 5.79565 18.6839 6.55871 18.1213 7.12132C17.5587 7.68393 16.7956 8 16 8C15.2043 8 14.4413 7.68393 13.8787 7.12132C13.3161 6.55871 13 5.79565 13 5C13 4.73478 12.8946 4.48043 12.7071 4.29289C12.5196 4.10536 12.2652 4 12 4H8C7.83204 4.0007 7.66696 4.04368 7.52 4.125L1.05125 7.6525C0.590125 7.89619 0.244456 8.3128 0.0900368 8.81097C-0.0643825 9.30914 -0.0149487 9.84822 0.227499 10.31L2.63625 14.9113C2.81139 15.2421 3.07392 15.5185 3.39526 15.7105C3.7166 15.9024 4.08444 16.0026 4.45875 16H7V26C7 26.5304 7.21071 27.0391 7.58579 27.4142C7.96086 27.7893 8.46957 28 9 28H23C23.5304 28 24.0391 27.7893 24.4142 27.4142C24.7893 27.0391 25 26.5304 25 26V16H27.5425C27.9168 16.0026 28.2846 15.9024 28.606 15.7105C28.9273 15.5185 29.1899 15.2421 29.365 14.9113L31.7737 10.31C32.0161 9.84807 32.0653 9.30887 31.9107 8.81068C31.756 8.31249 31.4101 7.89598 30.9487 7.6525ZM4.45875 14C4.44027 14.0009 4.4221 13.9951 4.4075 13.9838L2.01125 9.4075L7 6.685V14H4.45875ZM27.5925 13.9825C27.5856 13.9887 27.5775 13.9935 27.5687 13.9965C27.5599 13.9995 27.5505 14.0007 27.5412 14H25V6.685L29.99 9.4075L27.5925 13.9825Z" />
</svg>
