<svg viewBox="0 0 32 32"
    xmlns="http://www.w3.org/2000/svg">
    <path d="M4 10C4 9.73482 4.10536 9.48047 4.29289 9.29293C4.48043 9.1054 4.73478 9.00004 5 9.00004H9.64625C9.86179 8.27801 10.3046 7.64482 10.9088 7.19461C11.5131 6.7444 12.2465 6.50122 13 6.50122C13.7535 6.50122 14.4869 6.7444 15.0912 7.19461C15.6954 7.64482 16.1382 8.27801 16.3538 9.00004H27C27.2652 9.00004 27.5196 9.1054 27.7071 9.29293C27.8946 9.48047 28 9.73482 28 10C28 10.2653 27.8946 10.5196 27.7071 10.7071C27.5196 10.8947 27.2652 11 27 11H16.3538C16.1382 11.7221 15.6954 12.3553 15.0912 12.8055C14.4869 13.2557 13.7535 13.4989 13 13.4989C12.2465 13.4989 11.5131 13.2557 10.9088 12.8055C10.3046 12.3553 9.86179 11.7221 9.64625 11H5C4.73478 11 4.48043 10.8947 4.29289 10.7071C4.10536 10.5196 4 10.2653 4 10ZM27 21H24.3538C24.1382 20.278 23.6954 19.6448 23.0912 19.1946C22.4869 18.7444 21.7535 18.5012 21 18.5012C20.2465 18.5012 19.5131 18.7444 18.9088 19.1946C18.3046 19.6448 17.8618 20.278 17.6462 21H5C4.73478 21 4.48043 21.1054 4.29289 21.2929C4.10536 21.4805 4 21.7348 4 22C4 22.2653 4.10536 22.5196 4.29289 22.7071C4.48043 22.8947 4.73478 23 5 23H17.6462C17.8618 23.7221 18.3046 24.3553 18.9088 24.8055C19.5131 25.2557 20.2465 25.4989 21 25.4989C21.7535 25.4989 22.4869 25.2557 23.0912 24.8055C23.6954 24.3553 24.1382 23.7221 24.3538 23H27C27.2652 23 27.5196 22.8947 27.7071 22.7071C27.8946 22.5196 28 22.2653 28 22C28 21.7348 27.8946 21.4805 27.7071 21.2929C27.5196 21.1054 27.2652 21 27 21Z" />
</svg>
