<svg width="40" height="40" viewBox="0 0 40 40" fill="none" xmlns="http://www.w3.org/2000/svg">
<path d="M30.1128 7.76803C28.2278 6.20907 25.8745 5.02792 23.4782 4.45119C20.9726 3.8172 18.2487 3.85344 15.6241 4.5467C15.3113 4.61207 15.0248 4.71309 14.7454 4.81176L14.6222 4.85403C14.5204 4.88927 14.4186 4.9245 14.3144 4.96209C14.0989 5.03489 13.8881 5.1077 13.6585 5.20891C13.4951 5.28661 13.3341 5.35722 13.1708 5.43018C12.7305 5.6279 12.2783 5.8327 11.8808 6.08746C10.5674 6.79682 9.46095 7.76052 8.63368 8.53546C6.71248 10.4662 5.2789 12.894 4.59937 15.3669L4.50573 15.7364C4.37464 16.2528 4.23649 16.7858 4.18365 17.3095C4.17214 17.4162 4.15115 17.5228 4.13726 17.6271C4.10478 17.8451 4.07228 18.0584 4.0588 18.2906L4.00782 19.3882C4.00344 19.4972 3.9967 19.6133 4.00187 19.7461L4.07528 21.1854L4.22311 22.1793C4.26432 22.4615 4.30796 22.7604 4.38707 23.0285C4.94008 25.4201 6.0141 27.6378 7.48981 29.4397C8.83937 31.087 10.5461 32.4675 12.4411 33.4362L13.4099 33.904C13.5024 33.9446 13.5784 33.9733 13.652 33.9996L13.7683 34.0403C13.9202 34.093 14.0626 34.1456 14.2121 34.2006C14.4875 34.3058 14.7581 34.4062 15.0547 34.4949L16.3146 34.8143C16.5803 34.8673 16.846 34.9061 17.1045 34.9425C17.2397 34.9643 17.3749 34.9813 17.5338 35.0079C19.0659 35.1741 20.4836 35.155 21.6209 34.95C21.7133 34.9337 21.8033 34.9245 21.8934 34.9106C22.0759 34.8851 22.2607 34.862 22.4241 34.8175L23.7081 34.4992L25.0153 34.0435C25.2686 33.9518 25.4076 33.6749 25.3214 33.4138C25.2329 33.1504 24.955 33.0096 24.6969 33.0918L23.4203 33.4883L22.1741 33.7451C22.0391 33.7707 21.8969 33.7845 21.7523 33.8006C21.6527 33.805 21.5556 33.8213 21.4466 33.8304C20.3992 33.9788 19.1046 33.9461 17.7194 33.7425C17.5818 33.7184 17.4466 33.6918 17.3138 33.6677C17.0742 33.6219 16.8369 33.5784 16.6187 33.5256L15.4583 33.1876C15.2114 33.1014 14.9622 32.9987 14.7082 32.8959C14.5633 32.8314 14.4138 32.7717 14.2761 32.7191L14.1598 32.6689C14.1052 32.6474 14.0435 32.6235 14.015 32.6092L13.1196 32.1345C11.4618 31.2045 9.97829 29.9148 8.82355 28.3961C7.58308 26.7586 6.70893 24.7643 6.29665 22.6364C5.87752 20.5914 6.02643 18.2543 6.71871 16.0589C7.35235 14.0552 8.47496 12.2381 10.0583 10.6548C10.1622 10.5508 10.2662 10.4468 10.3537 10.3641C11.1315 9.69573 12.0679 8.94485 13.1757 8.40316C13.488 8.21924 13.8361 8.07575 14.2031 7.92758C14.3783 7.85702 14.5487 7.78645 14.6908 7.72527C14.8494 7.66651 15.0176 7.61253 15.181 7.56327C15.2876 7.5328 15.3942 7.49758 15.4865 7.4718L15.6097 7.42952C15.837 7.35913 16.0455 7.29343 16.2777 7.25625L17.114 7.08588C17.2775 7.05559 17.4458 7.03954 17.6117 7.02111C17.7231 7.00962 17.8274 7.00521 17.9482 6.98901C18.3321 6.92861 18.7185 6.92749 19.1334 6.92646C19.2804 6.92693 19.4321 6.92742 19.5981 6.91848C19.7379 6.91182 19.8897 6.93127 20.0533 6.9484C20.1624 6.95823 20.2691 6.97043 20.3498 6.97544C20.4589 6.98527 20.5608 6.99745 20.6723 7.00493C20.8383 7.01495 20.9901 7.02966 21.13 7.05619C21.3174 7.0971 21.5072 7.13091 21.6994 7.16235C22.0457 7.22511 22.3731 7.28781 22.6887 7.40026C24.6701 7.95905 26.4395 8.92494 27.9517 10.2717C29.2522 11.4352 30.3334 12.9181 31.0736 14.5658C31.7017 15.9689 32.0882 17.4614 32.1782 18.8937C32.1954 19.0952 32.1985 19.292 32.1991 19.4864C32.1971 19.6121 32.2023 19.7354 32.205 19.8421C32.2028 19.9061 32.203 19.9677 32.2079 20.0294C32.213 20.1147 32.2132 20.2001 32.2087 20.2712L32.1699 20.7191C32.156 20.8376 32.1493 20.949 32.1401 21.0581C32.1336 21.2264 32.1175 21.3899 32.0966 21.525L31.9522 22.3116C31.9105 22.6102 31.8307 22.866 31.758 23.1052C31.7228 23.2355 31.6805 23.3586 31.6619 23.4534C31.636 23.5268 31.6197 23.5955 31.6009 23.6618C31.5798 23.74 31.5635 23.8134 31.5235 23.9057L30.9778 25.2601C30.6113 26.2973 31.1461 27.4512 32.1905 27.8292C32.9168 28.097 33.7436 27.9172 34.2895 27.3713C34.4975 27.1633 34.6555 26.9149 34.7542 26.6355L35.2194 25.3378C35.2641 25.217 35.3109 25.0512 35.3531 24.8807L35.4116 24.6461C35.4396 24.5277 35.4724 24.4045 35.5076 24.2695C35.6106 23.881 35.7277 23.4357 35.776 22.9878L35.9081 22.0328C35.9358 21.8005 35.9445 21.5635 35.9532 21.3217C35.9576 21.2079 35.9619 21.0894 35.971 20.9614L36 20.3949C35.9996 20.2668 35.9896 20.1246 35.9821 19.9894L35.9743 19.7784C35.9668 19.6527 35.9616 19.5247 35.9565 19.3919C35.9461 19.1216 35.931 18.8418 35.8898 18.5595C35.6965 16.7215 35.138 14.8255 34.267 13.0612C33.2551 11.0143 31.8149 9.18651 30.1128 7.76803Z" fill="#4945FF"/>
</svg>
