<svg viewBox="0 0 32 32"
    xmlns="http://www.w3.org/2000/svg">
    <path d="M29.3126 14.2975L23.6751 19.2175L25.3638 26.5425C25.4532 26.9254 25.4277 27.3262 25.2905 27.6947C25.1533 28.0632 24.9106 28.3831 24.5926 28.6144C24.2746 28.8457 23.8954 28.9782 23.5026 28.9951C23.1097 29.0121 22.7206 28.913 22.3838 28.71L15.9951 24.835L9.62005 28.71C9.28327 28.913 8.89412 29.0121 8.50127 28.9951C8.10842 28.9782 7.72929 28.8457 7.4113 28.6144C7.0933 28.3831 6.85054 28.0632 6.71336 27.6947C6.57619 27.3262 6.55069 26.9254 6.64005 26.5425L8.3263 19.225L2.68755 14.2975C2.38931 14.0403 2.17365 13.7007 2.06762 13.3214C1.96159 12.9421 1.9699 12.54 2.09152 12.1654C2.21313 11.7908 2.44264 11.4604 2.75125 11.2158C3.05986 10.9711 3.43385 10.823 3.8263 10.79L11.2588 10.1462L14.1601 3.22624C14.3116 2.86314 14.5671 2.55298 14.8945 2.33482C15.222 2.11665 15.6066 2.00024 16.0001 2.00024C16.3935 2.00024 16.7781 2.11665 17.1056 2.33482C17.433 2.55298 17.6885 2.86314 17.8401 3.22624L20.7501 10.1462L28.1801 10.79C28.5725 10.823 28.9465 10.9711 29.2551 11.2158C29.5637 11.4604 29.7932 11.7908 29.9148 12.1654C30.0365 12.54 30.0448 12.9421 29.9387 13.3214C29.8327 13.7007 29.617 14.0403 29.3188 14.2975H29.3126Z" />
</svg>
