<svg width="80" height="80" viewBox="0 0 80 80" fill="none" xmlns="http://www.w3.org/2000/svg">
    <path d="M0 27.7c0-13 0-19.6 4-23.6C8.2 0 14.8 0 27.8 0h24.6c13 0 19.6 0 23.6 4C80 8.2 80 14.8 80 27.8v24.6c0 13 0 19.6-4 23.6C71.8 80 65.2 80 52.2 80H27.7c-13 0-19.6 0-23.6-4C0 71.8 0 65.2 0 52.2V27.7Z" fill="#4945FF"/>
    <path fill-rule="evenodd" clip-rule="evenodd" d="M55.2 24.3h-27V38H42v13.7h13.7V24.8c0-.3-.2-.5-.5-.5Z" fill="#fff"/>
    <path fill="#fff" d="M41.5 38h.5v.5h-.5z"/>
    <path d="M28.3 38h13.2c.3 0 .5.2.5.5v13.2H28.8a.5.5 0 0 1-.5-.5V38ZM42 51.7h13.7L42.5 65c-.2.2-.5 0-.5-.2v-13ZM28.3 38H15.2a.3.3 0 0 1-.2-.5l13.3-13.2V38Z" fill="#9593FF"/>
</svg>
