<svg width="24" height="24" viewBox="0 0 24 24" fill="none" xmlns="http://www.w3.org/2000/svg">
<path fill-rule="evenodd" clip-rule="evenodd" d="M23.4975 0H7.68014V8.03456H15.4631C15.7407 8.03456 15.9656 8.2593 15.9656 8.53653V16.3202H24V0.501958C24 0.224734 23.775 0 23.4975 0Z" fill="#8E75FF"/>
<path opacity="0.404989" fill-rule="evenodd" clip-rule="evenodd" d="M7.68003 0V8.03456H0.251751C0.0279793 8.03456 -0.0841485 7.76436 0.0739955 7.60621L7.68003 0Z" fill="#8E75FF"/>
<path opacity="0.404989" fill-rule="evenodd" clip-rule="evenodd" d="M16.3945 23.9258C16.2362 24.084 15.9655 23.9721 15.9655 23.7484V16.3202H23.9999L16.3945 23.9258Z" fill="#8E75FF"/>
<path opacity="0.404989" d="M7.68014 8.03457H15.7143C15.8531 8.03457 15.9656 8.14694 15.9656 8.28555V16.3202H8.18263C7.90511 16.3202 7.68014 16.0954 7.68014 15.8182V8.03457Z" fill="#8E75FF"/>
</svg>
