<svg width="24" height="24" viewBox="0 0 24 24" fill="none" xmlns="http://www.w3.org/2000/svg">
<path fill-rule="evenodd" clip-rule="evenodd" d="M14.4091 6.65455C14.7909 6.70909 15.0636 6.76364 15.2273 6.87273C15.4455 6.98182 15.5545 7.09091 15.6636 7.2C15.7727 7.36364 15.8273 7.63636 15.8818 7.85455L16.3182 9.81818H17.4091V6H6.82727L6.5 9.81818H7.48182L8.02727 7.63636C8.08182 7.41818 8.19091 7.2 8.24545 7.09091C8.35455 6.98182 8.51818 6.87273 8.73636 6.76364C8.95455 6.70909 9.22727 6.6 9.60909 6.6C9.93636 6.6 10.3727 6.54545 10.9182 6.54545V11.4545H6.55455V12.5455H10.9182V16.6909C10.9182 16.8 10.9727 16.8545 10.8636 16.9091C10.7545 16.9636 10.6455 17.0182 10.3727 17.0182L9.22727 17.2364L9.17273 18H14.7364L14.6818 17.2364L13.5364 17.0727C13.2636 17.0727 13.1545 17.0182 13.1 16.9636C12.9909 16.9091 13.0455 16.8545 13.0455 16.7455V12.5455H17.4091V11.4545H13.0455V6.54545C13.5909 6.54545 14.0818 6.6 14.4091 6.65455Z" fill="#32324D"/>
</svg>
