<svg width="24" height="24" viewBox="0 0 24 24" fill="none" xmlns="http://www.w3.org/2000/svg">
<path d="M15.414 4.99999H21.008C21.556 4.99999 22 5.44499 22 5.99999V20C22 20.552 21.545 21 21.008 21H2.99202C2.86115 20.9997 2.73161 20.9736 2.61085 20.9232C2.4901 20.8727 2.38049 20.7989 2.28832 20.706C2.19615 20.6131 2.12324 20.5029 2.07376 20.3818C2.02429 20.2606 1.99923 20.1309 2.00002 20V5.99999C2.00002 5.44799 2.45502 4.99999 2.99202 4.99999H8.58602L6.05002 2.46399L7.46402 1.04999L11.414 4.99999H12.586L16.536 1.04999L17.95 2.46399L15.414 4.99999Z" fill="#212134"/>
</svg>
