<svg viewBox="0 0 32 32"
    xmlns="http://www.w3.org/2000/svg">
    <path d="M27 8.00007H18.4137L22.7075 3.70757C22.8951 3.51993 23.0006 3.26543 23.0006 3.00007C23.0006 2.7347 22.8951 2.48021 22.7075 2.29257C22.5199 2.10493 22.2654 1.99951 22 1.99951C21.7346 1.99951 21.4801 2.10493 21.2925 2.29257L16 7.58632L10.7075 2.29257C10.6146 2.19966 10.5043 2.12596 10.3829 2.07567C10.2615 2.02539 10.1314 1.99951 10 1.99951C9.86861 1.99951 9.7385 2.02539 9.6171 2.07567C9.49571 2.12596 9.38541 2.19966 9.2925 2.29257C9.10486 2.48021 8.99944 2.7347 8.99944 3.00007C8.99944 3.26543 9.10486 3.51993 9.2925 3.70757L13.5863 8.00007H5C4.46957 8.00007 3.96086 8.21078 3.58579 8.58585C3.21071 8.96093 3 9.46963 3 10.0001V25.0001C3 25.5305 3.21071 26.0392 3.58579 26.4143C3.96086 26.7894 4.46957 27.0001 5 27.0001H27C27.5304 27.0001 28.0391 26.7894 28.4142 26.4143C28.7893 26.0392 29 25.5305 29 25.0001V10.0001C29 9.46963 28.7893 8.96093 28.4142 8.58585C28.0391 8.21078 27.5304 8.00007 27 8.00007ZM27 25.0001H20V10.0001H27V25.0001ZM25 14.5001C25 14.7967 24.912 15.0867 24.7472 15.3334C24.5824 15.5801 24.3481 15.7724 24.074 15.8859C23.7999 15.9994 23.4983 16.0291 23.2074 15.9712C22.9164 15.9134 22.6491 15.7705 22.4393 15.5607C22.2296 15.3509 22.0867 15.0837 22.0288 14.7927C21.9709 14.5017 22.0007 14.2001 22.1142 13.926C22.2277 13.652 22.42 13.4177 22.6666 13.2529C22.9133 13.088 23.2033 13.0001 23.5 13.0001C23.8978 13.0001 24.2794 13.1581 24.5607 13.4394C24.842 13.7207 25 14.1022 25 14.5001ZM25 20.5001C25 20.7967 24.912 21.0868 24.7472 21.3334C24.5824 21.5801 24.3481 21.7724 24.074 21.8859C23.7999 21.9994 23.4983 22.0291 23.2074 21.9712C22.9164 21.9134 22.6491 21.7705 22.4393 21.5607C22.2296 21.351 22.0867 21.0837 22.0288 20.7927C21.9709 20.5017 22.0007 20.2001 22.1142 19.926C22.2277 19.652 22.42 19.4177 22.6666 19.2529C22.9133 19.088 23.2033 19.0001 23.5 19.0001C23.8978 19.0001 24.2794 19.1581 24.5607 19.4394C24.842 19.7207 25 20.1022 25 20.5001Z" />
</svg>
