<svg width="34" height="24" viewBox="0 0 34 24" fill="none" xmlns="http://www.w3.org/2000/svg">
<rect x="0.5" y="0.5" width="33" height="23" rx="2.5" fill="#EAFBE7" stroke="#C6F0C2"/>
<path d="M15.4062 17.5H17.0293L14.0234 9.04492H12.3242L9.32422 17.5H10.8535L11.5801 15.3145H14.6914L15.4062 17.5ZM13.0918 10.6328H13.1914L14.3398 14.1484H11.9316L13.0918 10.6328ZM21.8926 17.6055C23.5098 17.6055 24.5234 16.334 24.5234 14.3008C24.5234 12.2559 23.5156 10.9902 21.8926 10.9902C21.0137 10.9902 20.2754 11.418 19.9414 12.1152H19.8418V8.61719H18.3887V17.5H19.7891V16.4863H19.8887C20.252 17.1895 20.9961 17.6055 21.8926 17.6055ZM21.4355 12.2031C22.4258 12.2031 23.0293 12.9941 23.0293 14.3008C23.0293 15.6074 22.4316 16.3984 21.4355 16.3984C20.4395 16.3984 19.8184 15.5957 19.8184 14.3008C19.8184 13.0059 20.4453 12.2031 21.4355 12.2031Z" fill="#2F6846"/>
</svg>
