<svg viewBox="0 0 32 32"
    xmlns="http://www.w3.org/2000/svg">
    <path d="M23 3H9C7.93913 3 6.92172 3.42143 6.17157 4.17157C5.42143 4.92172 5 5.93913 5 7V23C5 24.0609 5.42143 25.0783 6.17157 25.8284C6.92172 26.5786 7.93913 27 9 27H10L8.2 29.4C8.12121 29.5051 8.06388 29.6246 8.03129 29.7518C7.99869 29.879 7.99148 30.0114 8.01005 30.1414C8.02862 30.2714 8.07262 30.3965 8.13953 30.5095C8.20643 30.6225 8.29494 30.7212 8.4 30.8C8.50506 30.8788 8.62461 30.9361 8.75182 30.9687C8.87903 31.0013 9.01142 31.0085 9.14142 30.99C9.27142 30.9714 9.39649 30.9274 9.50949 30.8605C9.62249 30.7936 9.72121 30.7051 9.8 30.6L12.5 27H19.5L22.2 30.6C22.3591 30.8122 22.596 30.9524 22.8586 30.99C23.1211 31.0275 23.3878 30.9591 23.6 30.8C23.8122 30.6409 23.9524 30.404 23.99 30.1414C24.0275 29.8789 23.9591 29.6122 23.8 29.4L22 27H23C24.0609 27 25.0783 26.5786 25.8284 25.8284C26.5786 25.0783 27 24.0609 27 23V7C27 5.93913 26.5786 4.92172 25.8284 4.17157C25.0783 3.42143 24.0609 3 23 3ZM10.5 23C10.2033 23 9.91332 22.912 9.66665 22.7472C9.41997 22.5824 9.22771 22.3481 9.11418 22.074C9.00065 21.7999 8.97094 21.4983 9.02882 21.2074C9.0867 20.9164 9.22956 20.6491 9.43934 20.4393C9.64912 20.2296 9.91639 20.0867 10.2074 20.0288C10.4983 19.9709 10.7999 20.0007 11.074 20.1142C11.3481 20.2277 11.5824 20.42 11.7472 20.6666C11.912 20.9133 12 21.2033 12 21.5C12 21.8978 11.842 22.2794 11.5607 22.5607C11.2794 22.842 10.8978 23 10.5 23ZM15 15H7V10H15V15ZM21.5 23C21.2033 23 20.9133 22.912 20.6666 22.7472C20.42 22.5824 20.2277 22.3481 20.1142 22.074C20.0007 21.7999 19.9709 21.4983 20.0288 21.2074C20.0867 20.9164 20.2296 20.6491 20.4393 20.4393C20.6491 20.2296 20.9164 20.0867 21.2074 20.0288C21.4983 19.9709 21.7999 20.0007 22.074 20.1142C22.3481 20.2277 22.5824 20.42 22.7472 20.6666C22.912 20.9133 23 21.2033 23 21.5C23 21.8978 22.842 22.2794 22.5607 22.5607C22.2794 22.842 21.8978 23 21.5 23ZM25 15H17V10H25V15Z" />
</svg>
