<svg width="24" height="24" viewBox="0 0 24 24" fill="none" xmlns="http://www.w3.org/2000/svg">
<path d="M24 4.557C23.117 4.949 22.168 5.213 21.172 5.332C22.189 4.723 22.97 3.758 23.337 2.608C22.386 3.172 21.332 3.582 20.21 3.803C19.313 2.846 18.032 2.248 16.616 2.248C13.437 2.248 11.101 5.214 11.819 8.293C7.728 8.088 4.1 6.128 1.671 3.149C0.381 5.362 1.002 8.257 3.194 9.723C2.388 9.697 1.628 9.476 0.965 9.107C0.911 11.388 2.546 13.522 4.914 13.997C4.221 14.185 3.462 14.229 2.69 14.081C3.316 16.037 5.134 17.46 7.29 17.5C5.22 19.123 2.612 19.848 0 19.54C2.179 20.937 4.768 21.752 7.548 21.752C16.69 21.752 21.855 14.031 21.543 7.106C22.505 6.411 23.34 5.544 24 4.557Z" fill="#1DA1F2"/>
</svg>
