<svg width="24" height="24" viewBox="0 0 24 24" fill="none" xmlns="http://www.w3.org/2000/svg">
<path d="M12.0001 15.2C13.1221 15.2 14.1982 14.7786 14.9917 14.0284C15.7851 13.2783 16.2308 12.2609 16.2308 11.2V6H14.5385V11.2C14.5385 11.8365 14.2711 12.447 13.795 12.8971C13.319 13.3471 12.6733 13.6 12.0001 13.6C11.3268 13.6 10.6811 13.3471 10.2051 12.8971C9.72904 12.447 9.46159 11.8365 9.46159 11.2V6H7.76929V11.2C7.76929 12.2609 8.21503 13.2783 9.00845 14.0284C9.80187 14.7786 10.878 15.2 12.0001 15.2Z" fill="#32324D"/>
<path d="M17.5 16.4004H6.5V18.0004H17.5V16.4004Z" fill="#32324D"/>
</svg>
