<svg viewBox="0 0 32 32"
    xmlns="http://www.w3.org/2000/svg">
    <path d="M28.5 19V26C28.5 26.6631 28.2366 27.2989 27.7678 27.7678C27.2989 28.2366 26.663 28.5 26 28.5H6C5.33696 28.5 4.70107 28.2366 4.23223 27.7678C3.76339 27.2989 3.5 26.6631 3.5 26V19C3.5 18.6022 3.65804 18.2207 3.93934 17.9394C4.22064 17.6581 4.60218 17.5 5 17.5C5.39782 17.5 5.77936 17.6581 6.06066 17.9394C6.34196 18.2207 6.5 18.6022 6.5 19V25.5H25.5V19C25.5 18.6022 25.658 18.2207 25.9393 17.9394C26.2206 17.6581 26.6022 17.5 27 17.5C27.3978 17.5 27.7794 17.6581 28.0607 17.9394C28.342 18.2207 28.5 18.6022 28.5 19ZM12.0612 11.0613L14.5 8.62502V19C14.5 19.3978 14.658 19.7794 14.9393 20.0607C15.2206 20.342 15.6022 20.5 16 20.5C16.3978 20.5 16.7794 20.342 17.0607 20.0607C17.342 19.7794 17.5 19.3978 17.5 19V8.62502L19.9387 11.065C20.2205 11.3468 20.6027 11.5051 21.0012 11.5051C21.3998 11.5051 21.782 11.3468 22.0637 11.065C22.3455 10.7832 22.5039 10.401 22.5039 10.0025C22.5039 9.60401 22.3455 9.22182 22.0637 8.94002L17.0637 3.94002C16.9244 3.80018 16.7588 3.68923 16.5765 3.61352C16.3941 3.53781 16.1987 3.49884 16.0012 3.49884C15.8038 3.49884 15.6083 3.53781 15.426 3.61352C15.2437 3.68923 15.0781 3.80018 14.9388 3.94002L9.93875 8.94002C9.79922 9.07955 9.68854 9.2452 9.61303 9.4275C9.53751 9.60981 9.49865 9.8052 9.49865 10.0025C9.49865 10.401 9.65696 10.7832 9.93875 11.065C10.2205 11.3468 10.6027 11.5051 11.0013 11.5051C11.3998 11.5051 11.782 11.3468 12.0638 11.065L12.0612 11.0613Z" />
</svg>
