<svg width="24" height="25" viewBox="0 0 24 25" fill="none" xmlns="http://www.w3.org/2000/svg">
<path fill-rule="evenodd" clip-rule="evenodd" d="M13.5714 18.2718H10.4286V9.80117H2.48691C2.30816 9.80117 2.21919 9.58456 2.34633 9.45891L11.8594 0.0577445C11.9373 -0.0192479 12.0627 -0.0192483 12.1406 0.0577441L21.6537 9.45891C21.7808 9.58456 21.6918 9.80117 21.5131 9.80117H13.5714V18.2718ZM2.2 21.0953C2.08954 21.0953 2 21.1849 2 21.2953V23.7189C2 23.8293 2.08954 23.9189 2.2 23.9189H21.8C21.9105 23.9189 22 23.8293 22 23.7189V21.2953C22 21.1849 21.9105 21.0953 21.8 21.0953H2.2Z" fill="#212134"/>
</svg>
