<svg width="24" height="25" viewBox="0 0 24 25" fill="none" xmlns="http://www.w3.org/2000/svg">
<path fill-rule="evenodd" clip-rule="evenodd" d="M13.5714 19.1499H10.4286V10.6793H2.48691C2.30816 10.6793 2.21919 10.4627 2.34633 10.3371L11.8594 0.935918C11.9373 0.858926 12.0627 0.858926 12.1406 0.935918L21.6537 10.3371C21.7808 10.4627 21.6918 10.6793 21.5131 10.6793H13.5714V19.1499ZM2.2 21.9735C2.08954 21.9735 2 22.063 2 22.1735V24.597C2 24.7075 2.08954 24.797 2.2 24.797H21.8C21.9105 24.797 22 24.7075 22 24.597V22.1735C22 22.063 21.9105 21.9735 21.8 21.9735H2.2Z" fill="#212134"/>
</svg>
