<svg width="24" height="19" viewBox="0 0 24 19" fill="none" xmlns="http://www.w3.org/2000/svg">
<path fill-rule="evenodd" clip-rule="evenodd" d="M6 5C6 3.34314 7.34314 2 9 2C10.6569 2 12 3.34314 12 5C12 6.65685 10.6569 8 9 8C7.34314 8 6 6.65685 6 5ZM9 0C6.23857 0 4 2.23858 4 5C4 7.76142 6.23857 10 9 10C11.7614 10 14 7.76142 14 5C14 2.23858 11.7614 0 9 0ZM5 12C3.67392 12 2.40215 12.5268 1.46447 13.4645C0.526784 14.4021 0 15.6739 0 17V19H2V17C2 16.2043 2.31607 15.4413 2.87868 14.8787C3.44129 14.3161 4.20435 14 5 14H13C13.7956 14 14.5587 14.3161 15.1213 14.8787C15.6839 15.4413 16 16.2043 16 17V19H18V17C18 15.6739 17.4732 14.4021 16.5355 13.4645C15.5978 12.5268 14.3261 12 13 12H5ZM19.0317 12.88C19.1698 12.3453 19.7152 12.0237 20.25 12.1618C21.3227 12.4387 22.273 13.0641 22.9517 13.9396C23.6304 14.8152 23.9992 15.8914 24 16.9993V17V19H22V17.0007V17.0004C21.9994 16.3358 21.7782 15.6902 21.371 15.165C20.9638 14.6396 20.3936 14.2644 19.75 14.0982C19.2152 13.9602 18.8937 13.4148 19.0317 12.88ZM16.248 0.161255C15.713 0.0242666 15.1682 0.34694 15.0312 0.881966C14.8943 1.41699 15.2169 1.96177 15.752 2.09875C16.3973 2.26398 16.9692 2.63928 17.3777 3.16549C17.7861 3.69169 18.0078 4.33888 18.0078 5.005C18.0078 5.67113 17.7861 6.31831 17.3777 6.84452C16.9692 7.37073 16.3973 7.74603 15.752 7.91125C15.2169 8.04824 14.8943 8.59302 15.0312 9.12804C15.1682 9.66307 15.713 9.98574 16.248 9.84875C17.3236 9.57338 18.2768 8.94788 18.9576 8.07086C19.6383 7.19385 20.0078 6.11522 20.0078 5.005C20.0078 3.89479 19.6383 2.81615 18.9576 1.93914C18.2768 1.06213 17.3236 0.436631 16.248 0.161255Z" fill="#32324D"/>
</svg>
