<svg width="24" height="24" viewBox="0 0 24 24" fill="none" xmlns="http://www.w3.org/2000/svg">
<path d="M11.9981 1C8.69331 1 5.99717 3.69614 5.99717 7.00094C5.99717 8.79608 6.88446 10.3195 8.14037 11.4211L6.34523 14.743C6.23001 14.7257 6.11368 14.7168 5.99717 14.7164C4.58695 14.7164 3.42534 15.878 3.42534 17.2883C3.42534 18.6985 4.58695 19.8601 5.99717 19.8601C7.4074 19.8601 8.56901 18.6985 8.56901 17.2883C8.56901 16.605 8.28782 15.9826 7.84546 15.5197L10.2836 10.9933L9.6406 10.5646C8.48499 9.79652 7.71173 8.49775 7.71173 7.00094C7.71173 4.62371 9.62089 2.71455 11.9981 2.71455C14.3753 2.71455 16.2845 4.62371 16.2845 7.00094C16.2845 7.50331 16.2005 7.97567 16.0436 8.42059L17.651 9.0104C17.8813 8.36548 17.999 7.68576 17.9991 7.00094C17.9991 3.69614 15.3029 1 11.9981 1ZM11.9981 4.42911C10.5879 4.42911 9.42628 5.59072 9.42628 7.00094C9.42628 8.41116 10.5879 9.57277 11.9981 9.57277C12.1181 9.57277 12.2296 9.56249 12.3462 9.5462L14.7037 13.2968L15.1323 13.9929L15.8559 13.5643C16.5079 13.1904 17.2475 12.9963 17.9991 13.0019C20.3763 13.0019 22.2854 14.911 22.2854 17.2883C22.2854 19.6655 20.3763 21.5747 17.9991 21.5747C17.3973 21.5779 16.8018 21.4529 16.2521 21.2081C15.7024 20.9634 15.2111 20.6044 14.8108 20.155L13.5249 21.2798C14.0876 21.9103 14.7768 22.4152 15.5478 22.7615C16.3187 23.1077 17.1539 23.2875 17.9991 23.2892C21.3039 23.2892 24 20.5931 24 17.2883C24 13.9835 21.3039 11.2873 17.9991 11.2873C17.2086 11.2873 16.522 11.5985 15.8293 11.8771L13.873 8.74207C14.3016 8.28343 14.5699 7.67048 14.5699 7.00094C14.5699 5.59072 13.4083 4.42911 11.9981 4.42911ZM11.9981 6.14366C12.4808 6.14366 12.8554 6.51915 12.8554 7.00094C12.8554 7.48359 12.4799 7.85822 11.9981 7.85822C11.5155 7.85822 11.1408 7.48273 11.1408 7.00094C11.1408 6.51829 11.5163 6.14366 11.9981 6.14366ZM5.00616 11.3679C4.31948 11.4845 3.6328 11.7228 2.9967 12.0915C0.136826 13.7417 -0.850757 17.4289 0.799502 20.2887C2.45062 23.1486 6.13434 24.1362 8.99765 22.4859C10.635 21.5378 11.5189 19.8867 11.7838 18.1455H15.5884C15.9459 19.1366 16.8906 19.8601 17.9991 19.8601C19.4093 19.8601 20.5709 18.6985 20.5709 17.2883C20.5709 15.878 19.4093 14.7164 17.9991 14.7164C16.8906 14.7164 15.9459 15.44 15.5875 16.431H10.2836V17.2883C10.2836 18.7688 9.52058 20.215 8.14037 21.0123C7.65155 21.2946 7.11182 21.4778 6.5521 21.5511C5.99238 21.6245 5.42369 21.5866 4.87862 21.4398C4.33356 21.2929 3.82283 21.0399 3.37574 20.6953C2.92864 20.3507 2.55395 19.9212 2.27316 19.4315C1.92669 18.8319 1.73051 18.1574 1.70137 17.4656C1.67223 16.7737 1.811 16.0851 2.10583 15.4586C2.40066 14.832 2.84278 14.2861 3.39442 13.8676C3.94606 13.449 4.59083 13.1702 5.27363 13.055L5.00616 11.3679ZM5.99717 16.431C6.47982 16.431 6.85445 16.8065 6.85445 17.2883C6.85445 17.7709 6.47896 18.1455 5.99717 18.1455C5.51453 18.1455 5.1399 17.7701 5.1399 17.2883C5.1399 16.8056 5.51538 16.431 5.99717 16.431ZM17.9991 16.431C18.4817 16.431 18.8563 16.8065 18.8563 17.2883C18.8563 17.7709 18.4808 18.1455 17.9991 18.1455C17.5164 18.1455 17.1418 17.7701 17.1418 17.2883C17.1418 16.8056 17.5173 16.431 17.9991 16.431Z" fill="#212134"/>
</svg>
