<svg width="24" height="23" viewBox="0 0 24 23" fill="none" xmlns="http://www.w3.org/2000/svg">
<path d="M11.9981 0C8.69331 0 5.99717 2.69614 5.99717 6.00094C5.99717 7.79608 6.88446 9.31946 8.14037 10.4211L6.34523 13.743C6.23001 13.7257 6.11368 13.7168 5.99717 13.7164C4.58695 13.7164 3.42534 14.878 3.42534 16.2883C3.42534 17.6985 4.58695 18.8601 5.99717 18.8601C7.4074 18.8601 8.56901 17.6985 8.56901 16.2883C8.56901 15.605 8.28782 14.9826 7.84546 14.5197L10.2836 9.99328L9.6406 9.56464C8.48499 8.79652 7.71173 7.49775 7.71173 6.00094C7.71173 3.62371 9.62088 1.71455 11.9981 1.71455C14.3753 1.71455 16.2845 3.62371 16.2845 6.00094C16.2845 6.50331 16.2005 6.97567 16.0436 7.42059L17.651 8.0104C17.8813 7.36548 17.999 6.68576 17.9991 6.00094C17.9991 2.69614 15.3029 0 11.9981 0ZM11.9981 3.42911C10.5879 3.42911 9.42628 4.59072 9.42628 6.00094C9.42628 7.41116 10.5879 8.57277 11.9981 8.57277C12.1181 8.57277 12.2296 8.56249 12.3462 8.5462L14.7037 12.2968L15.1323 12.9929L15.8559 12.5643C16.5079 12.1904 17.2475 11.9963 17.9991 12.0019C20.3763 12.0019 22.2854 13.911 22.2854 16.2883C22.2854 18.6655 20.3763 20.5747 17.9991 20.5747C17.3973 20.5779 16.8018 20.4529 16.2521 20.2081C15.7024 19.9634 15.2111 19.6044 14.8108 19.155L13.5249 20.2798C14.0876 20.9103 14.7768 21.4152 15.5478 21.7615C16.3187 22.1077 17.1539 22.2875 17.9991 22.2892C21.3039 22.2892 24 19.5931 24 16.2883C24 12.9835 21.3039 10.2873 17.9991 10.2873C17.2086 10.2873 16.522 10.5985 15.8293 10.8771L13.873 7.74207C14.3016 7.28343 14.5699 6.67048 14.5699 6.00094C14.5699 4.59072 13.4083 3.42911 11.9981 3.42911ZM11.9981 5.14366C12.4808 5.14366 12.8554 5.51915 12.8554 6.00094C12.8554 6.48359 12.4799 6.85822 11.9981 6.85822C11.5155 6.85822 11.1408 6.48273 11.1408 6.00094C11.1408 5.51829 11.5163 5.14366 11.9981 5.14366ZM5.00616 10.3679C4.31948 10.4845 3.6328 10.7228 2.9967 11.0915C0.136826 12.7417 -0.850758 16.4289 0.799501 19.2887C2.45062 22.1486 6.13434 23.1362 8.99764 21.4859C10.635 20.5378 11.5189 18.8867 11.7838 17.1455H15.5884C15.9459 18.1366 16.8906 18.8601 17.9991 18.8601C19.4093 18.8601 20.5709 17.6985 20.5709 16.2883C20.5709 14.878 19.4093 13.7164 17.9991 13.7164C16.8906 13.7164 15.9459 14.44 15.5875 15.431H10.2836V16.2883C10.2836 17.7688 9.52058 19.215 8.14037 20.0123C7.65155 20.2946 7.11182 20.4778 6.5521 20.5511C5.99238 20.6245 5.42369 20.5866 4.87862 20.4398C4.33356 20.2929 3.82283 20.0399 3.37573 19.6953C2.92864 19.3507 2.55395 18.9212 2.27316 18.4315C1.92669 17.8319 1.73051 17.1574 1.70137 16.4656C1.67223 15.7737 1.811 15.0851 2.10583 14.4586C2.40066 13.832 2.84278 13.2861 3.39442 12.8676C3.94606 12.449 4.59083 12.1702 5.27363 12.055L5.00616 10.3679ZM5.99717 15.431C6.47982 15.431 6.85445 15.8065 6.85445 16.2883C6.85445 16.7709 6.47896 17.1455 5.99717 17.1455C5.51453 17.1455 5.1399 16.7701 5.1399 16.2883C5.1399 15.8056 5.51538 15.431 5.99717 15.431ZM17.9991 15.431C18.4817 15.431 18.8563 15.8065 18.8563 16.2883C18.8563 16.7709 18.4808 17.1455 17.9991 17.1455C17.5164 17.1455 17.1418 16.7701 17.1418 16.2883C17.1418 15.8056 17.5173 15.431 17.9991 15.431Z" fill="#32324D"/>
</svg>
