<svg width="24" height="24" viewBox="0 0 24 24" fill="none" xmlns="http://www.w3.org/2000/svg">
<path fill-rule="evenodd" clip-rule="evenodd" d="M16.557 6.7619C17.872 6.7619 18.938 5.69592 18.938 4.38095C18.938 3.06599 17.872 2 16.557 2C15.2421 2 14.1761 3.06599 14.1761 4.38095C14.1761 5.69592 15.2421 6.7619 16.557 6.7619ZM13.9023 6.26181C13.9434 6.28078 13.9836 6.30291 14.0227 6.32827L16.4189 7.88439C16.86 8.17086 16.9854 8.76069 16.6989 9.20182L14.1632 13.1065C14.2336 13.2114 14.3006 13.3189 14.3641 13.4286H19.0335C19.0902 13.4286 19.1456 13.4341 19.1992 13.4446C19.3567 13.4553 19.5147 13.4961 19.6652 13.5696C20.2895 13.8745 20.5483 14.6277 20.2434 15.252L17.7509 20.3549C17.446 20.9791 16.6928 21.238 16.0685 20.9331C15.4443 20.6282 15.1855 19.8749 15.4904 19.2507L17.0782 16H15.1215C15.1262 16.0947 15.1285 16.1899 15.1285 16.2857C15.1285 19.4416 12.5702 22 9.41424 22C6.25832 22 3.69995 19.4416 3.69995 16.2857C3.69995 13.1298 6.25832 10.5714 9.41424 10.5714C9.64794 10.5714 9.87838 10.5854 10.1047 10.6127L11.9218 7.81462L10.28 6.74838L9.10653 8.2114C8.78565 8.61148 8.20692 8.6886 7.79247 8.38651C7.3641 8.07428 7.26996 7.47391 7.58219 7.04555L8.94048 5.18204C9.5408 4.35842 10.6831 4.15329 11.5325 4.71658L11.7786 4.87982L11.7771 4.88169L13.9023 6.26181ZM9.41431 20.0952C11.5183 20.0952 13.2238 18.3897 13.2238 16.2857C13.2238 14.1818 11.5183 12.4762 9.41431 12.4762C7.31037 12.4762 5.60479 14.1818 5.60479 16.2857C5.60479 18.3897 7.31037 20.0952 9.41431 20.0952Z" fill="#212134"/>
</svg>
