<svg width="24" height="24" viewBox="0 0 24 24" fill="none" xmlns="http://www.w3.org/2000/svg">
<path d="M8 10.341V12.535C7.46971 12.8423 7.01714 13.2673 6.67724 13.7773C6.33734 14.2873 6.1192 14.8685 6.03968 15.4762C5.96015 16.0839 6.02137 16.7018 6.2186 17.282C6.41582 17.8623 6.74378 18.3895 7.17715 18.8228C7.61052 19.2562 8.13769 19.5842 8.71797 19.7814C9.29824 19.9786 9.91608 20.0398 10.5238 19.9603C11.1315 19.8808 11.7127 19.6627 12.2227 19.3228C12.7327 18.9829 13.1577 18.5303 13.465 18H15.658C15.1847 19.3329 14.2559 20.4558 13.0354 21.1707C11.8149 21.8855 10.3812 22.1464 8.98714 21.9072C7.59308 21.668 6.32828 20.9442 5.41584 19.8635C4.50341 18.7827 4.00198 17.4144 4 16C3.99999 14.759 4.38462 13.5484 5.10095 12.535C5.81728 11.5216 6.83009 10.7551 8 10.341ZM12 17C11.2044 17 10.4413 16.6839 9.87868 16.1213C9.31607 15.5587 9 14.7956 9 14V10C9 9.20435 9.31607 8.44129 9.87868 7.87868C10.4413 7.31607 11.2044 7 12 7C12.7956 7 13.5587 7.31607 14.1213 7.87868C14.6839 8.44129 15 9.20435 15 10V15H16.434C16.752 15.0001 17.0653 15.0759 17.3481 15.2213C17.6309 15.3667 17.8749 15.5774 18.06 15.836L18.149 15.971L20.857 20.486L19.143 21.514L16.433 17H12ZM12 2C12.663 2 13.2989 2.26339 13.7678 2.73223C14.2366 3.20107 14.5 3.83696 14.5 4.5C14.5 5.16304 14.2366 5.79893 13.7678 6.26777C13.2989 6.73661 12.663 7 12 7C11.337 7 10.7011 6.73661 10.2322 6.26777C9.76339 5.79893 9.5 5.16304 9.5 4.5C9.5 3.83696 9.76339 3.20107 10.2322 2.73223C10.7011 2.26339 11.337 2 12 2Z" fill="#212134"/>
</svg>
