<svg width="24" height="24" viewBox="0 0 24 24" fill="none" xmlns="http://www.w3.org/2000/svg">
<path d="M12.5892 23.6788L12.5464 23.6719C12.5524 23.6765 12.5594 23.6796 12.5669 23.6808C12.5744 23.682 12.5821 23.6813 12.5892 23.6788Z" fill="#32324D"/>
<path d="M22.3338 8.34543C22.3216 8.28079 22.2881 8.22209 22.2387 8.17864C22.1893 8.13519 22.1268 8.10949 22.0612 8.10561C21.9955 8.10173 21.9304 8.1199 21.8762 8.15724C21.8221 8.19457 21.7819 8.24893 21.7622 8.31168C21.7433 8.37126 21.706 8.42331 21.6556 8.46037C21.6053 8.49742 21.5445 8.51757 21.482 8.51793H20.6533C20.5996 8.51798 20.547 8.50335 20.5011 8.47561L19.3022 7.75668C19.2563 7.72894 19.2037 7.7143 19.1501 7.71436H17.2322C17.1738 7.71429 17.1167 7.73164 17.0683 7.76418L14.7031 9.34079C14.6622 9.36802 14.6287 9.405 14.6057 9.4484C14.5827 9.49179 14.5709 9.54024 14.5713 9.58936V11.8254C14.5712 11.879 14.5858 11.9316 14.6133 11.9776C14.6409 12.0235 14.6804 12.0611 14.7277 12.0863L17.829 13.7417C17.8756 13.7668 17.9146 13.8038 17.9421 13.849C17.9696 13.8942 17.9846 13.9459 17.9854 13.9988L17.9999 15.2572C18.0007 15.3093 18.0152 15.3603 18.0421 15.405C18.0689 15.4496 18.107 15.4864 18.1526 15.5117L19.3986 16.2012C19.4448 16.2268 19.4833 16.2643 19.5101 16.3098C19.537 16.3553 19.5512 16.4071 19.5513 16.4599V19.0635C19.5513 19.1204 19.5677 19.1761 19.5986 19.2239C19.6295 19.2717 19.6735 19.3095 19.7253 19.3329C19.7772 19.3564 19.8347 19.3643 19.891 19.3559C19.9472 19.3474 19.9999 19.3229 20.0426 19.2853C20.5451 18.8428 21.2656 18.1967 21.3615 18.0488C21.5201 17.8035 21.6688 17.5522 21.8077 17.2951C22.0954 16.7623 22.3391 16.2069 22.5363 15.6344C23.2156 13.6678 22.6788 10.1326 22.3338 8.34543Z" fill="#32324D"/>
<path d="M13.6285 14.5074L10.343 12.0431C10.3059 12.0153 10.2608 12.0003 10.2144 12.0003H8.6555C8.62884 12.0003 8.60243 11.9951 8.57779 11.9849C8.55315 11.9747 8.53077 11.9597 8.51193 11.9408L7.77693 11.2058C7.75702 11.1859 7.73338 11.1702 7.70736 11.1594C7.68135 11.1486 7.65347 11.1431 7.62532 11.1431H4.77586C4.7357 11.1431 4.69645 11.1312 4.66306 11.1089C4.62967 11.0866 4.60364 11.0549 4.58827 11.0178C4.57291 10.9807 4.56889 10.9399 4.57672 10.9005C4.58455 10.8611 4.60389 10.8249 4.63229 10.7965L5.08336 10.3455C5.1022 10.3266 5.12458 10.3116 5.14922 10.3014C5.17385 10.2912 5.20027 10.286 5.22693 10.286H6.96104C7.05444 10.286 7.14528 10.2555 7.21974 10.1991C7.2942 10.1427 7.34821 10.0636 7.37354 9.97368L7.74265 8.66118C7.75052 8.63298 7.76408 8.60668 7.78251 8.58393C7.80094 8.56117 7.82384 8.54243 7.84979 8.52886L9.3214 7.77136C9.35451 7.75425 9.38227 7.72835 9.40164 7.69651C9.42102 7.66466 9.43125 7.6281 9.43122 7.59083V6.92118C9.43128 6.87963 9.44398 6.83909 9.46765 6.80493L10.2498 5.67886C10.2732 5.64503 10.3065 5.61922 10.3451 5.60493L11.4396 5.19404C11.4783 5.17953 11.5117 5.15355 11.5352 5.11956C11.5588 5.08557 11.5714 5.04521 11.5714 5.00386V4.39315C11.5714 4.35966 11.5631 4.32669 11.5473 4.29716C11.5315 4.26763 11.5087 4.24246 11.4809 4.22386L10.3837 3.49422C10.3536 3.47439 10.3187 3.46285 10.2827 3.46079C10.2467 3.45872 10.2108 3.46618 10.1785 3.48243L8.68497 4.22922C8.6508 4.24609 8.61257 4.25298 8.57466 4.24909C8.53676 4.24521 8.50072 4.23071 8.47068 4.20725L7.76247 3.64743C7.7383 3.628 7.71889 3.6033 7.70573 3.57522C7.69256 3.54713 7.68599 3.51642 7.68651 3.48541C7.68702 3.4544 7.69462 3.42392 7.70871 3.39629C7.7228 3.36867 7.74302 3.34463 7.76783 3.326L8.34318 2.90225C8.36923 2.88315 8.39033 2.85809 8.40472 2.82917C8.4191 2.80025 8.42637 2.76831 8.42589 2.73601C8.42542 2.70371 8.41723 2.672 8.402 2.64351C8.38678 2.61502 8.36495 2.59059 8.33836 2.57225L7.44211 1.94708C7.41108 1.92523 7.37454 1.91255 7.33666 1.91046C7.29877 1.90838 7.26106 1.91698 7.22783 1.93529C6.90372 2.11261 5.95283 2.63761 5.61533 2.87386C4.05377 3.96893 2.79707 5.44393 1.9639 7.15958C1.8664 7.361 1.74586 7.56618 1.73408 7.78743C1.72229 8.00868 1.54872 8.50261 1.4764 8.70243C1.46664 8.72944 1.46274 8.75822 1.46496 8.78685C1.46718 8.81548 1.47546 8.84332 1.48925 8.8685L3.40122 12.3817C3.41842 12.4137 3.44398 12.4403 3.47515 12.4589L5.48675 13.6664C5.51285 13.6819 5.53512 13.7031 5.5519 13.7284C5.56869 13.7538 5.57956 13.7825 5.58372 13.8126L5.98658 16.7344C5.99051 16.7624 6.00021 16.7893 6.01505 16.8133C6.0299 16.8374 6.04957 16.8581 6.07283 16.8742L7.64247 17.9531C7.68794 17.9844 7.7196 18.032 7.73086 18.086L8.56336 22.0396C8.56803 22.0628 8.57692 22.0849 8.58961 22.1049C8.66782 22.2314 8.97961 22.6942 9.35568 22.7628C9.32086 22.7724 9.28979 22.7944 9.25497 22.8046C9.3453 22.8205 9.43472 22.8412 9.52282 22.8667C9.62997 22.8956 9.73711 22.9203 9.84425 22.9433C10.0119 22.9765 10.0285 23.0023 10.1089 22.8533C10.216 22.654 10.3387 22.5855 10.4303 22.5608C10.4681 22.5521 10.5027 22.5329 10.5301 22.5054C10.5575 22.478 10.5766 22.4433 10.5851 22.4055L11.1246 19.9048C11.136 19.8523 11.1665 19.8061 11.2103 19.7751L13.621 18.0662C13.6491 18.0464 13.6719 18.0201 13.6877 17.9896C13.7034 17.9591 13.7116 17.9253 13.7116 17.891V14.6789C13.7119 14.6458 13.7046 14.6132 13.6902 14.5834C13.6757 14.5537 13.6547 14.5277 13.6285 14.5074Z" fill="#32324D"/>
<path d="M12.3216 0.856934C12.3216 0.856934 12.1261 0.868184 12.0865 0.869255C11.7961 0.877826 11.5065 0.897826 11.2175 0.929255C10.1643 1.04352 9.13274 1.3078 8.1543 1.71408C8.28448 1.80408 8.06055 1.88658 8.06055 1.88658L8.41091 2.57122H10.2859L11.5716 3.21408L12.6966 2.57122L12.3216 0.856934Z" fill="#32324D"/>
<path d="M17.2626 4.71755L18.1256 3.96755C18.1526 3.94411 18.1733 3.91427 18.1859 3.88076C18.1984 3.84726 18.2023 3.81115 18.1973 3.77573C18.1923 3.74031 18.1785 3.70671 18.1572 3.67799C18.1359 3.64927 18.1077 3.62634 18.0753 3.6113L17.0676 3.14363C17.0164 3.11975 16.9578 3.11704 16.9047 3.13611C16.8515 3.15517 16.808 3.19445 16.7836 3.24541L16.3685 4.1138C16.3459 4.16128 16.3415 4.2154 16.3562 4.26588C16.3709 4.31636 16.4037 4.35966 16.4483 4.38755L17.0086 4.73791C17.0476 4.76213 17.0933 4.77322 17.139 4.76956C17.1847 4.76589 17.228 4.74766 17.2626 4.71755Z" fill="#32324D"/>
<path d="M21.3019 5.82156L20.9896 5.33942C20.9847 5.33192 20.9805 5.32442 20.9762 5.31638C20.9199 5.20121 20.4544 4.26103 20.0655 3.89621C19.7735 3.62032 19.6905 3.6996 19.6674 3.76067C19.6543 3.79445 19.6322 3.82406 19.6037 3.84639L18.0587 5.09513C18.0206 5.12592 17.9732 5.14275 17.9242 5.14281H17.1244C17.0962 5.14279 17.0684 5.14832 17.0424 5.15907C17.0163 5.16982 16.9927 5.1856 16.9728 5.20549L16.3299 5.84835C16.31 5.86825 16.2942 5.89188 16.2834 5.91789C16.2726 5.94391 16.2671 5.97179 16.2671 5.99995C16.2671 6.02811 16.2726 6.056 16.2834 6.08201C16.2942 6.10803 16.31 6.13166 16.3299 6.15156L16.9728 6.79442C16.9927 6.81431 17.0163 6.83008 17.0424 6.84084C17.0684 6.85159 17.0962 6.85712 17.1244 6.85709H21.1513C21.1803 6.85712 21.2089 6.85129 21.2355 6.83996C21.2621 6.82862 21.2862 6.81202 21.3062 6.79115C21.3262 6.77027 21.3418 6.74556 21.352 6.7185C21.3622 6.69145 21.3669 6.6626 21.3656 6.6337L21.3362 5.92924C21.3346 5.89092 21.3227 5.85374 21.3019 5.82156Z" fill="#32324D"/>
<path d="M12 2.14286C14.2805 2.14267 16.4905 2.93322 18.2535 4.37982C20.0165 5.82643 21.2233 7.83956 21.6684 10.0762C22.1135 12.3129 21.7693 14.6347 20.6944 16.646C19.6195 18.6573 17.8805 20.2337 15.7736 21.1065C13.6668 21.9794 11.3224 22.0947 9.14008 21.4329C6.95772 20.771 5.07237 19.373 3.80526 17.4769C2.53815 15.5808 1.96769 13.304 2.19108 11.0344C2.41447 8.76489 3.41789 6.64302 5.03036 5.03036C5.94342 4.11208 7.02957 3.38405 8.22591 2.8884C9.42226 2.39276 10.705 2.13935 12 2.14286ZM12 0C5.37321 0 0 5.37321 0 12C0 18.6268 5.37321 24 12 24C18.6268 24 24 18.6268 24 12C24 5.37321 18.6268 0 12 0Z" fill="#32324D"/>
</svg>
