<svg width="24" height="24" viewBox="0 0 24 24" fill="none" xmlns="http://www.w3.org/2000/svg">
<path fill-rule="evenodd" clip-rule="evenodd" d="M23.7071 0.296796C23.5196 0.109265 23.2652 0.0039109 23 0.0039109L21.0001 0.0039109C19.153 0.00224763 17.3242 0.368532 15.6202 1.08138C15.4382 1.15733 15.2826 1.28544 15.1732 1.44959C15.0638 1.61373 15.0053 1.80658 15.0053 2.00386V4.92127C15.0063 4.92915 15.0047 4.93716 15.0006 4.94397C14.9965 4.95079 14.9902 4.95601 14.9828 4.95877L12.9828 3.48881C12.7983 3.35027 12.5715 3.27981 12.341 3.28938C12.1104 3.29895 11.8903 3.38796 11.7178 3.54131C10.237 4.85292 9.05094 6.46346 8.23782 8.26681C7.4247 10.0701 7.00298 12.0253 7.00048 14.0035V15.5885L4.29305 18.2959C4.10542 18.4835 4 18.738 4 19.0034C4 19.2687 4.10542 19.5232 4.29305 19.7109C4.48069 19.8985 4.73518 20.0039 5.00053 20.0039C5.26589 20.0039 5.52038 19.8985 5.70801 19.7109L8.41544 17.0034H10.0004C13.7121 16.9995 17.2707 15.5232 19.8952 12.8987C22.5198 10.2741 23.996 6.71554 24 3.00383V1.00388C24 0.738675 23.8946 0.484327 23.7071 0.296796ZM17.9995 23.9994H2.99991C2.20429 23.9994 1.44125 23.6833 0.878655 23.1207C0.316062 22.5581 0 21.7951 0 20.9995V5.99989C0 5.20426 0.316062 4.44122 0.878655 3.87863C1.44125 3.31603 2.20429 2.99997 2.99991 2.99997H5.99983C6.26504 2.99997 6.51939 3.10532 6.70692 3.29286C6.89445 3.48039 6.9998 3.73473 6.9998 3.99994C6.9998 4.26515 6.89445 4.5195 6.70692 4.70703C6.51939 4.89456 6.26504 4.99991 5.99983 4.99991H2.99991C2.73471 4.99991 2.48036 5.10527 2.29283 5.2928C2.1053 5.48033 1.99994 5.73468 1.99994 5.99989V20.9995C1.99994 21.2647 2.1053 21.519 2.29283 21.7065C2.48036 21.8941 2.73471 21.9994 2.99991 21.9994H17.9995C18.2647 21.9994 18.519 21.8941 18.7066 21.7065C18.8941 21.519 18.9995 21.2647 18.9995 20.9995V17.9995C18.9995 17.7343 19.1048 17.48 19.2923 17.2925C19.4799 17.1049 19.7342 16.9996 19.9994 16.9996C20.2646 16.9996 20.519 17.1049 20.7065 17.2925C20.8941 17.48 20.9994 17.7343 20.9994 17.9995V20.9995C20.9994 21.7951 20.6833 22.5581 20.1208 23.1207C19.5582 23.6833 18.7951 23.9994 17.9995 23.9994Z" fill="#212134"/>
</svg>
