<svg viewBox="0 0 32 32"
    xmlns="http://www.w3.org/2000/svg">
    <path d="M27.107 5.91115C25.0046 4.9486 22.7851 4.26574 20.5052 3.88C20.1932 4.43772 19.9109 5.01154 19.6595 5.59905C17.231 5.2331 14.7613 5.2331 12.3328 5.59905C12.0813 5.0116 11.799 4.43779 11.4871 3.88C9.20578 4.269 6.9848 4.95348 4.88026 5.91618C0.702192 12.0977 -0.430415 18.1257 0.135889 24.0681C2.58267 25.8759 5.32131 27.2507 8.23277 28.1329C8.88835 27.2512 9.46845 26.3158 9.96692 25.3366C9.02015 24.983 8.10634 24.5467 7.23608 24.0329C7.46512 23.8668 7.68912 23.6956 7.90558 23.5295C10.4378 24.7203 13.2017 25.3378 15.9999 25.3378C18.7982 25.3378 21.5621 24.7203 24.0943 23.5295C24.3133 23.7082 24.5373 23.8793 24.7638 24.0329C23.8919 24.5476 22.9764 24.9847 22.0279 25.3391C22.5258 26.3178 23.1059 27.2525 23.7621 28.1329C26.676 27.2543 29.4168 25.8801 31.864 24.0706C32.5285 17.1793 30.7289 11.2067 27.107 5.91115ZM10.6842 20.4136C9.10614 20.4136 7.80238 18.9814 7.80238 17.2196C7.80238 15.4578 9.06084 14.0131 10.6792 14.0131C12.2976 14.0131 13.5913 15.4578 13.5636 17.2196C13.5359 18.9814 12.2925 20.4136 10.6842 20.4136ZM21.3156 20.4136C19.735 20.4136 18.4363 18.9814 18.4363 17.2196C18.4363 15.4578 19.6948 14.0131 21.3156 14.0131C22.9365 14.0131 24.2202 15.4578 24.1925 17.2196C24.1648 18.9814 22.924 20.4136 21.3156 20.4136Z" fill="#5865F2"/>
</svg>
