<svg viewBox="0 0 32 32"
    xmlns="http://www.w3.org/2000/svg">
    <rect x="0.5" y="4.5" width="31" height="23" rx="2.5" fill="#4945FF" stroke="#4945FF" />
    <path d="M14.3281 14.5391C14.3281 14.5273 14.3281 14.5098 14.3281 14.457C14.2871 13.5195 13.5781 12.8984 12.541 12.8984C11.0059 12.8984 9.81641 14.4688 9.81641 16.5488C9.81641 17.8496 10.5254 18.6523 11.6621 18.6523C12.623 18.6523 13.4492 18.1074 13.7246 17.2812H15.4766C15.1074 19.0625 13.5547 20.2168 11.5098 20.2168C9.38867 20.2168 8.00586 18.8223 8.00586 16.6719C8.00586 13.5488 9.95703 11.3281 12.6523 11.3281C14.5918 11.3281 16.0625 12.6113 16.0625 14.2871C16.0625 14.375 16.0625 14.4512 16.0508 14.5391H14.3281ZM20.0527 20H18.2715L19.7598 13.0566H17.2285L17.5391 11.5449H24.3828L24.0723 13.0566H21.541L20.0527 20Z" fill="white"/>
</svg>
