<svg viewBox="0 0 32 32"
    xmlns="http://www.w3.org/2000/svg">
    <g>
        <path d="M15.6589 0.30188C7.15774 0.30188 0 7.19396 0 15.6981V31.6407L15.6558 31.6257C24.157 31.6257 31.0521 24.4679 31.0521 15.9668C31.0521 7.46565 24.1509 0.30188 15.6589 0.30188Z" fill="#231F20"/>
        <path d="M15.8098 6.26111C14.157 6.26208 12.5327 6.69222 11.096 7.50941C9.65928 8.3266 8.45938 9.50284 7.61374 10.923C6.7681 12.3431 6.3057 13.9585 6.27181 15.611C6.23792 17.2635 6.63369 18.8965 7.4204 20.3502L5.6936 25.9049L11.8944 24.5041C13.1919 25.0887 14.6037 25.3757 16.0265 25.344C17.4493 25.3124 18.847 24.9629 20.1172 24.3212C21.3875 23.6794 22.4981 22.7617 23.3678 21.6352C24.2374 20.5087 24.8441 19.202 25.1434 17.8107C25.4427 16.4194 25.4271 14.9788 25.0976 13.5943C24.7681 12.2098 24.1331 10.9166 23.2391 9.80929C22.3451 8.70199 21.2148 7.80866 19.9309 7.19473C18.647 6.5808 17.242 6.2618 15.8189 6.26111H15.8098Z" fill="#FFF9AE"/>
        <path d="M23.3811 9.99854C24.6674 11.685 25.355 13.7521 25.3352 15.873C25.3154 17.9939 24.5893 20.0478 23.2717 21.7099C21.9541 23.372 20.1202 24.5477 18.0597 25.051C15.9993 25.5543 13.8299 25.3566 11.8944 24.4891L5.6936 25.908L12.0061 25.1623C14.0274 26.3464 16.4139 26.7453 18.7105 26.283C21.0071 25.8207 23.0533 24.5295 24.459 22.6555C25.8648 20.7815 26.5319 18.4557 26.3331 16.1215C26.1343 13.7873 25.0836 11.6078 23.3811 9.99854Z" fill="#00AEEF"/>
        <path d="M21.6242 8.23853C23.0794 9.78149 23.979 11.7654 24.1807 13.8768C24.3824 15.9881 23.8747 18.1065 22.7379 19.897C21.6011 21.6876 19.9 23.0483 17.9034 23.764C15.9068 24.4797 13.7287 24.5096 11.7132 23.8491L5.6936 25.908L11.8944 24.5042C14.0277 25.4678 16.4408 25.6135 18.6745 24.9134C20.9082 24.2133 22.8065 22.7164 24.0082 20.7075C25.2098 18.6987 25.631 16.3181 25.1914 14.0189C24.7518 11.7197 23.4822 9.6624 21.6242 8.23853Z" fill="#00A94F"/>
        <path d="M7.99096 20.5615C7.15241 18.5403 7.03405 16.2922 7.65571 14.194C8.27737 12.0958 9.60127 10.2751 11.4056 9.03684C13.2099 7.79859 15.3849 7.2181 17.5663 7.39263C19.7476 7.56716 21.8027 8.48612 23.3872 9.9955C21.9291 8.08198 19.802 6.78981 17.4318 6.37767C15.0616 5.96554 12.6232 6.46385 10.6048 7.77285C8.58631 9.08185 7.13676 11.1049 6.54629 13.4371C5.95583 15.7693 6.26803 18.2384 7.4204 20.3502L5.6936 25.9049L7.99096 20.5615Z" fill="#F15D22"/>
        <path d="M7.42044 20.3502C6.37988 18.4281 6.03064 16.2072 6.43109 14.0586C6.83154 11.9099 7.95742 9.9639 9.6205 8.54577C11.2836 7.12765 13.3831 6.32339 15.568 6.26745C17.7529 6.21151 19.8907 6.90729 21.6242 8.23846C19.9717 6.49848 17.7244 5.44493 15.3299 5.28773C12.9355 5.13052 10.5697 5.88119 8.70392 7.39018C6.83815 8.89917 5.60937 11.0557 5.26242 13.4301C4.91546 15.8045 5.47578 18.2225 6.83176 20.2022L5.69667 25.9079L7.42044 20.3502Z" fill="#E31B23"/>
    </g>
</svg>
