<svg width="217" height="121" viewBox="0 0 217 121" fill="none"
    xmlns="http://www.w3.org/2000/svg">
    <g clip-path="url(#clip0_17_1362)">
        <line x1="1.15757" y1="99.6517" x2="216.176" y2="99.6517" stroke="#EEEEFA" stroke-width="0.981818" stroke-linecap="round" stroke-dasharray="3.93 4.91"/>
        <line x1="1.15757" y1="80.015" x2="216.176" y2="80.015" stroke="#EEEEFA" stroke-width="0.981818" stroke-linecap="round" stroke-dasharray="3.93 4.91"/>
        <line x1="1.15757" y1="59.3968" x2="216.176" y2="59.3968" stroke="#EEEEFA" stroke-width="0.981818" stroke-linecap="round" stroke-dasharray="3.93 4.91"/>
        <line x1="1.15757" y1="38.7786" x2="216.176" y2="38.7786" stroke="#EEEEFA" stroke-width="0.981818" stroke-linecap="round" stroke-dasharray="3.93 4.91"/>
        <line x1="1.15757" y1="20.1243" x2="216.176" y2="20.1243" stroke="#EEEEFA" stroke-width="0.981818" stroke-linecap="round" stroke-dasharray="3.93 4.91"/>
        <path fill-rule="evenodd" clip-rule="evenodd" d="M182.63 25.0859C186.742 25.0859 190.076 28.3647 190.076 32.4093C190.076 36.4539 186.742 39.7327 182.63 39.7327H140.085C144.197 39.7327 147.53 43.0115 147.53 47.0561C147.53 51.1007 144.197 54.3795 140.085 54.3795H163.485C167.597 54.3795 170.93 57.6583 170.93 61.7029C170.93 65.7475 167.597 69.0263 163.485 69.0263H152.664C147.479 69.0263 143.276 72.3051 143.276 76.3497C143.276 78.2477 144.33 80.0192 146.438 81.6643C148.406 83.2004 151.114 83.3997 153.299 84.6074C155.569 85.8619 157.103 88.253 157.103 90.9965C157.103 95.0411 153.77 98.3199 149.658 98.3199H61.3758C57.2638 98.3199 53.9304 95.0411 53.9304 90.9965C53.9304 86.9519 57.2638 83.6731 61.3758 83.6731H19.894C15.782 83.6731 12.4485 80.3943 12.4485 76.3497C12.4485 72.3051 15.782 69.0263 19.894 69.0263H62.4395C66.5515 69.0263 69.8849 65.7475 69.8849 61.7029C69.8849 57.6583 66.5515 54.3795 62.4395 54.3795H35.8485C31.7365 54.3795 28.4031 51.1007 28.4031 47.0561C28.4031 43.0115 31.7365 39.7327 35.8485 39.7327H78.394C74.282 39.7327 70.9486 36.4539 70.9486 32.4093C70.9486 28.3647 74.282 25.0859 78.394 25.0859H182.63ZM182.63 54.3795C186.742 54.3795 190.076 57.6583 190.076 61.7029C190.076 65.7475 186.742 69.0263 182.63 69.0263C178.518 69.0263 175.185 65.7475 175.185 61.7029C175.185 57.6583 178.518 54.3795 182.63 54.3795Z" fill="#D9D8FF" fill-opacity="0.8"/>
        <rect x="109.403" y="33.1331" width="27" height="79.0364" rx="4.17273" fill="white" stroke="#7B79FF" stroke-width="2.45455"/>
        <rect x="74.0576" y="9.5696" width="27" height="102.6" rx="4.17273" fill="white" stroke="#7B79FF" stroke-width="2.45455"/>
        <rect x="39.203" y="53.26" width="27" height="58.4182" rx="4.17273" fill="white" stroke="#7B79FF" stroke-width="2.45455"/>
        <rect x="144.748" y="56.6966" width="27" height="55.4727" rx="4.17273" fill="white" stroke="#7B79FF" stroke-width="2.45455"/>
        <rect x="41.9031" y="55.9609" width="21.6" height="53.0182" rx="1.96364" fill="#EEEEFA"/>
        <rect x="112.103" y="35.833" width="21.6" height="73.6364" rx="1.96364" fill="#EEEEFA"/>
    </g>
    <defs>
        <clipPath id="clip0_17_1362">
            <rect width="216" height="120" fill="white" transform="translate(0.666656 0.796875)"/>
        </clipPath>
    </defs>
</svg>
