<svg width="193" height="121" viewBox="0 0 193 121" fill="none"
    xmlns="http://www.w3.org/2000/svg">
    <g opacity="0.88">
        <path fill-rule="evenodd" clip-rule="evenodd" d="M160.947 53.823C160.901 53.7275 160.851 53.6337 160.797 53.5417C157.297 47.5828 153.508 42.2789 149.277 37.6844H167.373C171.818 37.6844 175.421 41.2972 175.421 45.7537C175.421 50.2102 171.818 53.823 167.373 53.823H160.947ZM152.454 69.9615C140.892 81.5317 120.501 89.5587 97.2436 89.5587C65.809 89.5587 42.8603 72.8537 41.5429 53.823H29.4092C24.9644 53.823 21.3613 57.4357 21.3613 61.8922C21.3613 66.3488 24.9644 69.9615 29.4092 69.9615H41.1061C46.7104 69.9615 51.2535 73.5742 51.2535 78.0308C51.2535 80.5551 49.5936 82.8763 46.2738 84.9945C45.332 85.5954 44.2405 85.8701 43.1505 86.1444C42.8216 86.2271 42.4928 86.3099 42.1683 86.4015C38.7863 87.3568 36.3074 90.4728 36.3074 94.1693C36.3074 98.6258 39.9105 102.239 44.3553 102.239H139.78C144.225 102.239 147.828 98.6258 147.828 94.1693C147.828 89.7128 144.225 86.1 139.78 86.1H184.619C189.063 86.1 192.667 82.4873 192.667 78.0308C192.667 73.5742 189.063 69.9615 184.619 69.9615H152.454ZM68.7229 21.5459H8.71456C4.26983 21.5459 0.666656 25.1586 0.666656 29.6152C0.666656 34.0717 4.26983 37.6844 8.71456 37.6844H46.0288C50.6349 30.8408 58.5282 25.2073 68.7229 21.5459ZM0.666656 61.8922C0.666656 57.4357 4.26983 53.823 8.71456 53.823C13.1593 53.823 16.7625 57.4357 16.7625 61.8922C16.7625 66.3488 13.1593 69.9615 8.71456 69.9615C4.26983 69.9615 0.666656 66.3488 0.666656 61.8922Z" fill="#DBDBFA"/>
        <path d="M158.091 49.2119L159.537 51.343" fill="none" stroke="#7B79FF" stroke-width="2.5" stroke-linecap="round" stroke-linejoin="round"/>
        <path d="M154.862 59.6909C109.179 2.00662 59.2231 33.8781 37.4876 59.7008C36.0845 61.3677 36.0619 63.8166 37.3383 65.5825C84.6475 131.036 134.048 94.6255 155.042 65.449C156.282 63.7265 156.18 61.3546 154.862 59.6909Z" fill="white"/>
        <path fill-rule="evenodd" clip-rule="evenodd" d="M113.536 28.0911C104.395 25.6055 95.451 25.5333 86.9647 27.1502C65.6636 31.2087 47.5074 45.858 36.5354 58.8932C34.7411 61.0249 34.7374 64.1097 36.3293 66.3121C48.2462 82.7995 60.3601 92.9632 72.218 98.4111C73.0085 98.7743 73.7975 99.1163 74.5849 99.4378L75.7908 97.229C74.9499 96.8906 74.1068 96.5276 73.2617 96.1394C61.8952 90.9172 50.0932 81.0871 38.3555 64.8477C37.3947 63.5184 37.4362 61.7053 38.4481 60.5032C49.2115 47.7157 66.9011 33.5179 87.4326 29.6061C95.3378 28.0999 103.704 28.1109 112.302 30.3507L113.536 28.0911ZM85.2592 100.057C92.3561 101.454 99.2396 101.212 105.795 99.7783C126.255 95.3039 143.621 79.1846 154.032 64.7163C154.931 63.4667 154.872 61.7093 153.886 60.4644C143.158 46.9172 132.233 38.4018 121.535 33.61L122.736 31.4095C133.762 36.3901 144.946 45.1479 155.846 58.9123C157.495 60.9946 157.641 63.981 156.061 66.1765C145.477 80.8848 127.645 97.559 106.329 102.221C99.2141 103.777 91.7216 103.991 84.006 102.352L85.2592 100.057Z" fill="#7B79FF"/>
        <path d="M127.159 22.0791C140.389 28.4009 149.023 36.4579 154.783 43.8598" fill="none" stroke="#7B79FF" stroke-width="2.5" stroke-linecap="round" stroke-linejoin="round"/>
        <path d="M34.0675 48.6419C53.0021 23.3374 89.1966 8.30052 117.954 18.6349" fill="none" stroke="#7B79FF" stroke-width="2.5" stroke-linecap="round" stroke-linejoin="round"/>
        <ellipse cx="94.9796" cy="66.5046" rx="18.3952" ry="18.444" fill="#F0F0FF"/>
        <path fill-rule="evenodd" clip-rule="evenodd" d="M104.76 44.3618C101.772 43.0331 98.4636 42.2949 94.9837 42.2949C81.6495 42.2949 70.84 53.1331 70.84 66.5027C70.84 74.9313 75.1361 82.3537 81.6525 86.6888L82.8557 84.4848C77.1147 80.5825 73.34 73.9869 73.34 66.5027C73.34 54.5076 83.0364 44.7949 94.9837 44.7949C98.029 44.7949 100.928 45.426 103.558 46.565L104.76 44.3618ZM91.9495 87.9988C92.941 88.1384 93.954 88.2105 94.9837 88.2105C106.931 88.2105 116.627 78.4979 116.627 66.5027C116.627 61.0994 114.66 56.1592 111.405 52.3613L112.677 50.0316C116.68 54.3521 119.127 60.1408 119.127 66.5027C119.127 79.8723 108.318 90.7105 94.9837 90.7105C93.5143 90.7105 92.0755 90.5789 90.6785 90.3268L91.9495 87.9988Z" fill="#7B79FF"/>
        <path d="M116.729 54.9769C116.729 59.3829 113.167 62.9489 108.781 62.9489C104.395 62.9489 100.833 59.3829 100.833 54.9769C100.833 50.571 104.395 47.0049 108.781 47.0049C113.167 47.0049 116.729 50.571 116.729 54.9769Z" fill="white" stroke="#7B79FF" stroke-width="2.5"/>
        <path d="M110.472 33.6349C111.747 31.3106 114.55 30.6162 116.768 32.0755C119.032 33.5658 119.821 36.7288 118.519 39.1024L87.2316 96.1517C85.9569 98.476 83.1531 99.1704 80.9357 97.711C78.6712 96.2207 77.883 93.0577 79.1847 90.6842L110.472 33.6349Z" fill="white"/>
        <rect width="3.66834" height="134.376" rx="1.83417" transform="matrix(0.828169 0.560479 -0.479178 0.877718 127.181 0.796875)" fill="#7B79FF"/>
    </g>
</svg>
