<svg viewBox="0 0 32 32"
    xmlns="http://www.w3.org/2000/svg">
    <g>
        <path d="M32 16C32 7.16411 24.8359 0 16 0C7.16411 0 0 7.16411 0 16C0 23.9854 5.85009 30.605 13.5002 31.8065V20.6261H9.43665V16H13.5002V12.4742C13.5002 8.46463 15.8897 6.24835 19.5438 6.24835C21.2943 6.24835 23.1259 6.5611 23.1259 6.5611V10.4987H21.1076C19.1208 10.4987 18.4998 11.7317 18.4998 12.9985V16H22.9369L22.2281 20.6261H18.4998V31.8065C26.1499 30.6072 32 23.9876 32 16Z" fill="#1977F3"/>
        <path d="M22.2282 20.626L22.937 15.9999H18.4999V12.9984C18.4999 11.7339 19.1187 10.4986 21.1077 10.4986H23.126V6.56105C23.126 6.56105 21.2945 6.24829 19.5439 6.24829C15.8899 6.24829 13.5003 8.46233 13.5003 12.4741V15.9999H9.43677V20.626H13.5003V31.8064C14.3148 31.9347 15.1496 31.9999 16.0001 31.9999C16.8506 31.9999 17.6854 31.9324 18.4999 31.8064V20.626H22.2282Z" fill="#FEFEFE"/>
    </g>
</svg>
