<svg viewBox="0 0 32 32"
    xmlns="http://www.w3.org/2000/svg">
    <g>
        <path d="M16 0C7.16375 0 0 7.16375 0 16C0 20.4188 1.79125 24.4187 4.68625 27.3137L1.63875 30.3612C1.03375 30.9662 1.4625 32 2.3175 32H16C24.8363 32 32 24.8363 32 16C32 7.16375 24.8363 0 16 0Z" fill="#FF4500"/>
        <path d="M19.2549 7.54501C19.5324 8.72126 20.5886 9.59751 21.8499 9.59751C23.3224 9.59751 24.5161 8.40376 24.5161 6.93126C24.5161 5.45876 23.3224 4.26501 21.8499 4.26501C20.5624 4.26501 19.4886 5.17751 19.2386 6.39126C17.0824 6.62251 15.3986 8.45126 15.3986 10.6675C15.3986 10.6725 15.3986 10.6763 15.3986 10.6813C13.0536 10.78 10.9124 11.4475 9.21238 12.5013C8.58113 12.0125 7.78863 11.7213 6.92863 11.7213C4.86488 11.7213 3.19238 13.3938 3.19238 15.4575C3.19238 16.955 4.07238 18.245 5.34363 18.8413C5.46738 23.1788 10.1936 26.6675 16.0074 26.6675C21.8211 26.6675 26.5536 23.175 26.6711 18.8338C27.9324 18.2338 28.8049 16.9475 28.8049 15.4588C28.8049 13.395 27.1324 11.7225 25.0686 11.7225C24.2124 11.7225 23.4236 12.0113 22.7936 12.4963C21.0786 11.435 18.9136 10.7675 16.5449 10.6788C16.5449 10.675 16.5449 10.6725 16.5449 10.6688C16.5449 9.08126 17.7249 7.76376 19.2549 7.54751V7.54501ZM9.06238 17.8288C9.12488 16.4738 10.0249 15.4338 11.0711 15.4338C12.1174 15.4338 12.9174 16.5325 12.8549 17.8875C12.7924 19.2425 12.0111 19.735 10.9636 19.735C9.91613 19.735 8.99988 19.1838 9.06238 17.8288ZM20.9449 15.4338C21.9924 15.4338 22.8924 16.4738 22.9536 17.8288C23.0161 19.1838 22.0986 19.735 21.0524 19.735C20.0061 19.735 19.2236 19.2438 19.1611 17.8875C19.0986 16.5325 19.8974 15.4338 20.9449 15.4338ZM19.6999 20.9638C19.8961 20.9838 20.0211 21.1875 19.9449 21.37C19.3011 22.9088 17.7811 23.99 16.0074 23.99C14.2336 23.99 12.7149 22.9088 12.0699 21.37C11.9936 21.1875 12.1186 20.9838 12.3149 20.9638C13.4649 20.8475 14.7086 20.7838 16.0074 20.7838C17.3061 20.7838 18.5486 20.8475 19.6999 20.9638Z" fill="white"/>
    </g>
</svg>
