<svg viewBox="0 0 32 32"
    xmlns="http://www.w3.org/2000/svg">
    <rect x="0.5" y="4.5" width="31" height="23" rx="2.5" fill="#0C75AF" stroke="#0C75AF"/>
    <path d="M8.52344 17.5859H10.2344C10.3574 18.3125 11.0781 18.7812 11.9922 18.7812C12.9414 18.7812 13.5977 18.3359 13.5977 17.6738C13.5977 17.1816 13.2461 16.877 12.332 16.5898L11.4531 16.3145C10.2051 15.9277 9.49023 15.0957 9.49023 14.0059C9.49023 12.459 10.9082 11.3281 12.8184 11.3281C14.6758 11.3281 15.9824 12.4062 16.0352 13.9473H14.3652C14.2598 13.2383 13.6211 12.7637 12.748 12.7637C11.9219 12.7637 11.2891 13.1973 11.2891 13.7949C11.2891 14.2637 11.6289 14.6094 12.4258 14.8613L13.293 15.1309C14.7285 15.582 15.3789 16.2852 15.3789 17.4277C15.3789 19.1035 13.9609 20.2168 11.8633 20.2168C9.94141 20.2168 8.62891 19.2266 8.52344 17.5859ZM20.1074 20H18.3262L19.8145 13.0566H17.2832L17.5938 11.5449H24.4375L24.127 13.0566H21.5957L20.1074 20Z" fill="white"/>
</svg>
