<svg viewBox="0 0 32 32"
    xmlns="http://www.w3.org/2000/svg">
    <path d="M0 11.0933C0 5.86389 0 3.24916 1.62458 1.62458C3.24916 0 5.86389 0 11.0933 0H20.9067C26.1361 0 28.7508 0 30.3754 1.62458C32 3.24916 32 5.86389 32 11.0933V20.9067C32 26.1361 32 28.7508 30.3754 30.3754C28.7508 32 26.1361 32 20.9067 32H11.0933C5.86389 32 3.24916 32 1.62458 30.3754C0 28.7508 0 26.1361 0 20.9067V11.0933Z" fill="#4945FF"/>
    <path fill-rule="evenodd" clip-rule="evenodd" d="M22.08 9.70667H11.3066V15.2H16.8V20.6933H22.2933V9.92C22.2933 9.80219 22.1978 9.70667 22.08 9.70667Z" fill="white"/>
    <path d="M16.8 15.2H16.5867V15.4133H16.8V15.2Z" fill="white"/>
    <path d="M11.3066 15.2H16.5866C16.7045 15.2 16.8 15.2955 16.8 15.4133V20.6933H11.52C11.4022 20.6933 11.3066 20.5978 11.3066 20.48V15.2Z" fill="#9593FF"/>
    <path d="M16.8 20.6934H22.2934L16.9821 26.0046C16.9149 26.0718 16.8 26.0242 16.8 25.9292V20.6934Z" fill="#9593FF"/>
    <path d="M11.3066 15.2H6.07074C5.9757 15.2 5.92813 15.0851 5.99533 15.0179L11.3066 9.70667V15.2Z" fill="#9593FF"/>
</svg>
