<svg viewBox="0 0 32 32"
    xmlns="http://www.w3.org/2000/svg">
    <g>
        <path fill-rule="evenodd" clip-rule="evenodd" d="M6.5659 6.53271C6.63035 6.62467 8.12302 8.79731 9.88296 11.3608C11.6429 13.9242 13.2707 16.2949 13.5003 16.6289C13.7298 16.9629 13.9177 17.2429 13.9177 17.2511C13.9177 17.2593 13.8322 17.3647 13.7277 17.4853C13.6232 17.606 13.3289 17.9474 13.0737 18.2441C12.8185 18.5408 12.3883 19.0409 12.1177 19.3554C11.8471 19.6699 11.3711 20.2233 11.0598 20.5853C10.7486 20.9473 10.1889 21.598 9.81602 22.0315C8.66288 23.372 8.49647 23.5656 7.61866 24.588C7.14995 25.1339 6.70048 25.6559 6.61986 25.7479C6.53925 25.84 6.47329 25.925 6.47329 25.9367C6.47329 25.9506 6.76769 25.9582 7.30276 25.9582H8.13222L9.04412 24.8955C9.54567 24.311 10.0404 23.7357 10.1436 23.617C10.3666 23.3604 12.0676 21.3812 12.2106 21.2119C12.2653 21.1471 12.3448 21.0549 12.3873 21.0069C12.4298 20.959 12.7644 20.5702 13.131 20.143C13.4975 19.7157 13.8075 19.3557 13.8198 19.3429C13.8321 19.3301 14.0261 19.1043 14.251 18.8412C14.4759 18.5781 14.6668 18.3628 14.6753 18.3628C14.6838 18.3628 15.839 20.0353 17.2425 22.0796C18.6459 24.1238 19.8192 25.8326 19.8498 25.8768L19.9055 25.9573L22.7507 25.9577C25.0905 25.9581 25.594 25.9532 25.585 25.9299C25.5755 25.9051 24.2124 23.9168 20.7152 18.8267C18.1977 15.1624 17.8629 14.67 17.8725 14.645C17.8818 14.6207 18.2248 14.2197 20.4792 11.5963C20.8659 11.1463 21.399 10.5257 21.6638 10.2171C21.9286 9.90857 22.196 9.59785 22.258 9.52664C22.32 9.45543 22.6458 9.07674 22.9821 8.6851C23.3184 8.29346 23.8901 7.628 24.2526 7.2063C24.615 6.78461 24.9249 6.42292 24.9412 6.40253C24.9691 6.36764 24.9217 6.36548 24.1283 6.36548H23.2858L22.9111 6.80243C22.4123 7.38395 21.5108 8.43262 21.2548 8.72895C21.1417 8.85988 21.0006 9.02443 20.9413 9.09461C20.8819 9.16478 20.7648 9.30039 20.6811 9.39598C20.5973 9.49157 20.1753 9.98247 19.7432 10.4869C19.3111 10.9912 18.9517 11.4088 18.9444 11.4147C18.9372 11.4206 18.8446 11.528 18.7387 11.6534C18.5534 11.8726 18.3649 12.0921 17.5002 13.0949C17.1206 13.5351 17.1011 13.554 17.0691 13.5135C17.0507 13.4902 15.9384 11.8724 14.5974 9.91851L12.1591 6.36593L9.30389 6.36569L6.44873 6.36548L6.5659 6.53271ZM8.79431 7.69774C8.81576 7.73047 9.34921 8.49522 9.97978 9.39717C11.1757 11.1078 15.8751 17.8338 18.8974 22.1605C19.8632 23.5431 20.6652 24.6865 20.6796 24.7015C20.7002 24.7228 20.9814 24.7274 21.9935 24.723L23.2813 24.7175L19.9115 19.8948C18.058 17.2423 15.3746 13.402 13.9483 11.3608L11.3549 7.64936L10.0551 7.6438L8.75536 7.63823L8.79431 7.69774Z" fill="#FAFAFA"/>
        <path fill-rule="evenodd" clip-rule="evenodd" d="M0 16V32L16.0054 31.9946L32.0108 31.9892L32.0162 15.9946L32.0216 0H16.0108H0V16ZM0.0107242 16.0108C0.0107242 24.8108 0.0131841 28.4108 0.0161834 24.0108C0.0191827 19.6108 0.0191827 12.4108 0.0161834 8.01079C0.0131841 3.61078 0.0107242 7.21079 0.0107242 16.0108ZM6.56598 6.5327C6.63043 6.62467 8.1231 8.7973 9.88304 11.3608C11.643 13.9242 13.2707 16.2949 13.5003 16.6289C13.7299 16.9629 13.9177 17.2429 13.9177 17.2511C13.9177 17.2593 13.8322 17.3647 13.7278 17.4853C13.6233 17.606 13.329 17.9474 13.0738 18.2441C12.8186 18.5408 12.3884 19.0409 12.1178 19.3554C11.8472 19.6699 11.3712 20.2233 11.0599 20.5853C10.7487 20.9473 10.1889 21.598 9.8161 22.0315C8.66296 23.372 8.49655 23.5656 7.61874 24.588C7.15003 25.1339 6.70056 25.6559 6.61994 25.7479C6.53933 25.84 6.47336 25.925 6.47336 25.9367C6.47336 25.9506 6.76777 25.9582 7.30284 25.9582H8.13229L9.0442 24.8955C9.54575 24.311 10.0405 23.7357 10.1437 23.617C10.3667 23.3604 12.0677 21.3812 12.2107 21.2119C12.2654 21.1471 12.3449 21.0549 12.3874 21.0069C12.4298 20.959 12.7645 20.5702 13.131 20.143C13.4976 19.7157 13.8076 19.3557 13.8199 19.3429C13.8322 19.3301 14.0262 19.1043 14.2511 18.8412C14.476 18.5781 14.6669 18.3628 14.6754 18.3628C14.6839 18.3628 15.8391 20.0353 17.2425 22.0796C18.646 24.1238 19.8193 25.8326 19.8499 25.8768L19.9056 25.9573L22.7508 25.9577C25.0906 25.9581 25.5941 25.9532 25.5851 25.9299C25.5756 25.9051 24.2125 23.9168 20.7153 18.8267C18.1978 15.1624 17.863 14.67 17.8726 14.645C17.8819 14.6207 18.2248 14.2197 20.4792 11.5963C20.866 11.1463 21.399 10.5257 21.6639 10.2171C21.9287 9.90856 22.1961 9.59784 22.2581 9.52664C22.32 9.45543 22.6459 9.07674 22.9822 8.6851C23.3185 8.29346 23.8902 7.628 24.2527 7.2063C24.6151 6.7846 24.925 6.42292 24.9413 6.40252C24.9692 6.36763 24.9218 6.36548 24.1284 6.36548H23.2859L22.9111 6.80243C22.4124 7.38395 21.5109 8.43262 21.2549 8.72894C21.1418 8.85988 21.0007 9.02443 20.9413 9.0946C20.882 9.16477 20.7649 9.30039 20.6812 9.39598C20.5974 9.49157 20.1754 9.98247 19.7433 10.4869C19.3112 10.9912 18.9518 11.4088 18.9445 11.4147C18.9373 11.4206 18.8447 11.528 18.7388 11.6534C18.5535 11.8726 18.365 12.0921 17.5002 13.0949C17.1207 13.5351 17.1012 13.554 17.0692 13.5135C17.0508 13.4902 15.9385 11.8724 14.5974 9.91851L12.1591 6.36593L9.30397 6.36569L6.44881 6.36548L6.56598 6.5327ZM8.79439 7.69774C8.81584 7.73047 9.34929 8.49521 9.97986 9.39717C11.1758 11.1078 15.8752 17.8338 18.8975 22.1605C19.8633 23.5431 20.6652 24.6865 20.6797 24.7015C20.7002 24.7228 20.9814 24.7274 21.9936 24.723L23.2814 24.7175L19.9116 19.8948C18.0581 17.2423 15.3747 13.402 13.9483 11.3608L11.355 7.64936L10.0552 7.64379L8.75544 7.63823L8.79439 7.69774Z" fill="#040404"/>
    </g>
</svg>
