<svg viewBox="0 0 32 32"
    xmlns="http://www.w3.org/2000/svg">
    <path d="M28.5 16C28.5 16.3978 28.342 16.7794 28.0607 17.0607C27.7794 17.342 27.3978 17.5 27 17.5H8.62502L15.065 23.9388C15.3468 24.2205 15.5051 24.6027 15.5051 25.0013C15.5051 25.3998 15.3468 25.782 15.065 26.0638C14.7832 26.3455 14.401 26.5039 14.0025 26.5039C13.604 26.5039 13.2218 26.3455 12.94 26.0638L3.94002 17.0638C3.80018 16.9244 3.68923 16.7588 3.61352 16.5765C3.53781 16.3942 3.49884 16.1987 3.49884 16.0013C3.49884 15.8038 3.53781 15.6084 3.61352 15.426C3.68923 15.2437 3.80018 15.0781 3.94002 14.9388L12.94 5.93875C13.0796 5.79922 13.2452 5.68854 13.4275 5.61303C13.6098 5.53752 13.8052 5.49865 14.0025 5.49865C14.1998 5.49865 14.3952 5.53752 14.5775 5.61303C14.7598 5.68854 14.9255 5.79922 15.065 5.93875C15.2046 6.07828 15.3152 6.24393 15.3907 6.42623C15.4663 6.60853 15.5051 6.80393 15.5051 7.00125C15.5051 7.19858 15.4663 7.39397 15.3907 7.57627C15.3152 7.75858 15.2046 7.92422 15.065 8.06375L8.62502 14.5H27C27.3978 14.5 27.7794 14.658 28.0607 14.9393C28.342 15.2206 28.5 15.6022 28.5 16Z" />
</svg>
