<svg viewBox="0 0 32 32"
    xmlns="http://www.w3.org/2000/svg">
    <path d="M11 13.5H5C4.60218 13.5 4.22064 13.342 3.93934 13.0607C3.65804 12.7794 3.5 12.3978 3.5 12V6C3.5 5.60218 3.65804 5.22064 3.93934 4.93934C4.22064 4.65804 4.60218 4.5 5 4.5C5.39782 4.5 5.77936 4.65804 6.06066 4.93934C6.34196 5.22064 6.5 5.60218 6.5 6V7.7325C8.58125 5.6825 11.7863 3.5 16 3.5C21.5575 3.5 24.92 6.79875 25.0613 6.93875C25.3394 7.22032 25.4949 7.60039 25.494 7.99614C25.4932 8.3919 25.3359 8.77128 25.0566 9.05162C24.7772 9.33195 24.3984 9.49054 24.0027 9.49281C23.6069 9.49508 23.2263 9.34086 22.9438 9.06375C22.8888 9.01125 20.25 6.5 16 6.5C12.375 6.5 9.6325 8.71 8 10.5H11C11.3978 10.5 11.7794 10.658 12.0607 10.9393C12.342 11.2206 12.5 11.6022 12.5 12C12.5 12.3978 12.342 12.7794 12.0607 13.0607C11.7794 13.342 11.3978 13.5 11 13.5ZM27 18.5H21C20.6022 18.5 20.2206 18.658 19.9393 18.9393C19.658 19.2206 19.5 19.6022 19.5 20C19.5 20.3978 19.658 20.7794 19.9393 21.0607C20.2206 21.342 20.6022 21.5 21 21.5H24C22.375 23.29 19.625 25.5 16 25.5C11.75 25.5 9.11125 22.9887 9.05625 22.935C8.7737 22.6579 8.39309 22.5037 7.99733 22.5059C7.60158 22.5082 7.22276 22.6668 6.94341 22.9471C6.66406 23.2275 6.50682 23.6068 6.50595 24.0026C6.50508 24.3984 6.66064 24.7784 6.93875 25.06C7.08 25.2013 10.4425 28.5 16 28.5C20.2137 28.5 23.4188 26.3175 25.5 24.2675V26C25.5 26.3978 25.658 26.7794 25.9393 27.0607C26.2206 27.342 26.6022 27.5 27 27.5C27.3978 27.5 27.7794 27.342 28.0607 27.0607C28.342 26.7794 28.5 26.3978 28.5 26V20C28.5 19.6022 28.342 19.2206 28.0607 18.9393C27.7794 18.658 27.3978 18.5 27 18.5Z" />
</svg>
