<svg width="16" height="16" viewBox="0 0 16 16" fill="none" xmlns="http://www.w3.org/2000/svg">
<path d="M11.5306 7.46936C11.6005 7.53904 11.656 7.62183 11.6939 7.713C11.7317 7.80416 11.7512 7.9019 11.7512 8.00061C11.7512 8.09932 11.7317 8.19706 11.6939 8.28822C11.656 8.37939 11.6005 8.46218 11.5306 8.53186L7.03062 13.0318C6.88973 13.1727 6.69863 13.2519 6.49937 13.2519C6.30012 13.2519 6.10902 13.1727 5.96812 13.0318C5.82723 12.891 5.74807 12.6999 5.74807 12.5006C5.74807 12.3013 5.82723 12.1102 5.96812 11.9693L9.1875 8.74998H2C1.80109 8.74998 1.61032 8.67097 1.46967 8.53031C1.32902 8.38966 1.25 8.1989 1.25 7.99998C1.25 7.80107 1.32902 7.61031 1.46967 7.46966C1.61032 7.329 1.80109 7.24999 2 7.24999H9.1875L5.96938 4.03062C5.82848 3.88972 5.74932 3.69863 5.74932 3.49937C5.74932 3.30011 5.82848 3.10902 5.96938 2.96812C6.11027 2.82723 6.30137 2.74807 6.50063 2.74807C6.69988 2.74807 6.89098 2.82723 7.03188 2.96812L11.5306 7.46936ZM13.5 1.75C13.3011 1.75 13.1103 1.82902 12.9697 1.96967C12.829 2.11032 12.75 2.30109 12.75 2.5V13.5C12.75 13.6989 12.829 13.8896 12.9697 14.0303C13.1103 14.171 13.3011 14.25 13.5 14.25C13.6989 14.25 13.8897 14.171 14.0303 14.0303C14.171 13.8896 14.25 13.6989 14.25 13.5V2.5C14.25 2.30109 14.171 2.11032 14.0303 1.96967C13.8897 1.82902 13.6989 1.75 13.5 1.75Z" />
</svg>
