<svg width="16" height="16" viewBox="0 0 16 16" fill="none" xmlns="http://www.w3.org/2000/svg">
<path d="M14.75 7.99998C14.75 8.1989 14.671 8.38966 14.5303 8.53031C14.3897 8.67097 14.1989 8.74998 14 8.74998H6.8125L10.0325 11.9693C10.1734 12.1102 10.2526 12.3013 10.2526 12.5006C10.2526 12.6999 10.1734 12.891 10.0325 13.0318C9.8916 13.1727 9.70051 13.2519 9.50125 13.2519C9.30199 13.2519 9.1109 13.1727 8.97 13.0318L4.47 8.53186C4.40008 8.46218 4.3446 8.37939 4.30675 8.28822C4.26889 8.19706 4.24941 8.09932 4.24941 8.00061C4.24941 7.9019 4.26889 7.80416 4.30675 7.713C4.3446 7.62183 4.40008 7.53904 4.47 7.46936L8.97 2.96937C9.03976 2.89961 9.12259 2.84427 9.21374 2.80651C9.30489 2.76875 9.40259 2.74932 9.50125 2.74932C9.59991 2.74932 9.69761 2.76875 9.78876 2.80651C9.87991 2.84427 9.96274 2.89961 10.0325 2.96937C10.1023 3.03914 10.1576 3.12196 10.1954 3.21311C10.2331 3.30426 10.2526 3.40196 10.2526 3.50062C10.2526 3.59928 10.2331 3.69698 10.1954 3.78813C10.1576 3.87928 10.1023 3.96211 10.0325 4.03187L6.8125 7.24999H14C14.1989 7.24999 14.3897 7.329 14.5303 7.46966C14.671 7.61031 14.75 7.80107 14.75 7.99998ZM2.5 1.75C2.30109 1.75 2.11032 1.82902 1.96967 1.96967C1.82902 2.11032 1.75 2.30109 1.75 2.5V13.5C1.75 13.6989 1.82902 13.8896 1.96967 14.0303C2.11032 14.171 2.30109 14.25 2.5 14.25C2.69891 14.25 2.88968 14.171 3.03033 14.0303C3.17098 13.8896 3.25 13.6989 3.25 13.5V2.5C3.25 2.30109 3.17098 2.11032 3.03033 1.96967C2.88968 1.82902 2.69891 1.75 2.5 1.75Z" />
</svg>
