<svg viewBox="0 0 32 32"
    xmlns="http://www.w3.org/2000/svg">
    <path d="M17.0607 31.0607L23.0607 25.0607C23.342 24.7794 23.5 24.3978 23.5 24C23.5 23.6022 23.342 23.2206 23.0607 22.9393C22.7794 22.658 22.3978 22.5 22 22.5C21.6022 22.5 21.2206 22.658 20.9393 22.9393L17.5 26.3787V5.62132L20.9393 9.06066C21.2206 9.34196 21.6022 9.5 22 9.5C22.3978 9.5 22.7794 9.34196 23.0607 9.06066C23.342 8.77936 23.5 8.39782 23.5 8C23.5 7.60218 23.342 7.22064 23.0607 6.93934L17.0607 0.93934C16.9214 0.799988 16.7559 0.689361 16.5736 0.613916C16.3914 0.538471 16.196 0.49963 15.9988 0.49963C15.8015 0.49963 15.6061 0.538471 15.4239 0.613916C15.2417 0.689361 15.0762 0.799988 14.9367 0.93934L8.93934 6.93934C8.79934 7.07934 8.68831 7.24556 8.61258 7.42849C8.53686 7.61142 8.49788 7.80747 8.49788 8.00547C8.49788 8.40537 8.65676 8.78893 8.93934 9.07152C9.22193 9.35411 9.6055 9.51298 10.0054 9.51298C10.4053 9.51298 10.7889 9.35411 11.0715 9.07152L14.5 5.62132V26.3787L11.0607 22.9393C10.7794 22.658 10.3978 22.5 10 22.5C9.60218 22.5 9.22064 22.658 8.93934 22.9393C8.65804 23.2206 8.5 23.6022 8.5 24C8.5 24.3978 8.65804 24.7794 8.93934 25.0607L14.9393 31.0607C15.0786 31.2001 15.2441 31.3107 15.4264 31.3862C15.6086 31.4617 15.804 31.5005 16.0013 31.5005C16.1985 31.5005 16.3939 31.4617 16.5761 31.3862C16.7584 31.3107 16.9239 31.2001 17.0633 31.0607H17.0607Z" />
</svg>
