<svg viewBox="0 0 32 32"
    xmlns="http://www.w3.org/2000/svg">
    <path d="M26.0613 15.0612C25.9219 15.2011 25.7563 15.312 25.574 15.3878C25.3917 15.4635 25.1962 15.5024 24.9988 15.5024C24.8013 15.5024 24.6059 15.4635 24.4235 15.3878C24.2412 15.312 24.0756 15.2011 23.9363 15.0612L17.5 8.625V27C17.5 27.3978 17.342 27.7794 17.0607 28.0607C16.7794 28.342 16.3978 28.5 16 28.5C15.6022 28.5 15.2207 28.342 14.9393 28.0607C14.658 27.7794 14.5 27.3978 14.5 27V8.625L8.06126 15.0612C7.77946 15.343 7.39727 15.5013 6.99876 15.5013C6.60024 15.5013 6.21805 15.343 5.93626 15.0612C5.65446 14.7795 5.49615 14.3973 5.49615 13.9987C5.49615 13.6002 5.65446 13.218 5.93626 12.9362L14.9363 3.93625C15.0756 3.79641 15.2412 3.68545 15.4235 3.60974C15.6059 3.53404 15.8013 3.49506 15.9988 3.49506C16.1962 3.49506 16.3917 3.53404 16.574 3.60974C16.7563 3.68545 16.9219 3.79641 17.0613 3.93625L26.0613 12.9362C26.2011 13.0756 26.3121 13.2412 26.3878 13.4235C26.4635 13.6058 26.5024 13.8013 26.5024 13.9987C26.5024 14.1962 26.4635 14.3916 26.3878 14.574C26.3121 14.7563 26.2011 14.9219 26.0613 15.0612Z" />
</svg>
