<svg viewBox="0 0 32 32"
    xmlns="http://www.w3.org/2000/svg">
    <path d="M31.0607 14.9393L25.0607 8.93934C24.7794 8.65804 24.3978 8.5 24 8.5C23.6022 8.5 23.2206 8.65804 22.9393 8.93934C22.658 9.22064 22.5 9.60218 22.5 10C22.5 10.3978 22.658 10.7794 22.9393 11.0607L26.3787 14.5H5.6213L9.06066 11.0607C9.34196 10.7794 9.5 10.3978 9.5 10C9.5 9.60218 9.34196 9.22064 9.06066 8.93934C8.77936 8.65804 8.39782 8.5 8 8.5C7.60218 8.5 7.22064 8.65804 6.93934 8.93934L0.93934 14.9393C0.799988 15.0784 0.689361 15.2437 0.613916 15.4256C0.538471 15.6075 0.49963 15.8026 0.49963 15.9996C0.49963 16.1967 0.538471 16.3917 0.613916 16.5736C0.689361 16.7556 0.799988 16.9208 0.93934 17.0599L6.93934 23.0599C7.22064 23.3412 7.60218 23.4992 8 23.4992C8.39782 23.4992 8.77936 23.3412 9.06066 23.0599C9.34196 22.7786 9.5 22.3971 9.5 21.9993C9.5 21.6014 9.34196 21.2199 9.06066 20.9386L5.6213 17.5H26.3787L22.9393 20.9393C22.658 21.2206 22.5 21.6022 22.5 22C22.5 22.3978 22.658 22.7794 22.9393 23.0607C23.2206 23.342 23.6022 23.5 24 23.5C24.3978 23.5 24.7794 23.342 25.0607 23.0607L31.0607 17.0607C31.2001 16.9214 31.3107 16.7559 31.3862 16.5736C31.4617 16.3914 31.5005 16.196 31.5005 15.9988C31.5005 15.8015 31.4617 15.6061 31.3862 15.4239C31.3107 15.2417 31.2001 15.0762 31.0607 14.9367V14.9393Z" />
</svg>
