<svg viewBox="0 0 32 32"
    xmlns="http://www.w3.org/2000/svg">
    <path d="M27.725 21.9925C27.0313 20.7975 26 17.4163 26 13C26 10.3478 24.9464 7.8043 23.0711 5.92893C21.1957 4.05357 18.6522 3 16 3C13.3479 3 10.8043 4.05357 8.92895 5.92893C7.05358 7.8043 6.00002 10.3478 6.00002 13C6.00002 17.4175 4.96752 20.7975 4.27377 21.9925C4.0966 22.2963 4.00268 22.6415 4.00148 22.9931C4.00027 23.3448 4.09182 23.6906 4.26689 23.9956C4.44196 24.3006 4.69437 24.5541 4.99865 24.7304C5.30293 24.9068 5.64833 24.9997 6.00002 25H11.1013C11.332 26.1289 11.9455 27.1436 12.8382 27.8722C13.7308 28.6009 14.8477 28.9989 16 28.9989C17.1523 28.9989 18.2692 28.6009 19.1618 27.8722C20.0545 27.1436 20.6681 26.1289 20.8988 25H26C26.3516 24.9995 26.6968 24.9064 27.0009 24.73C27.3051 24.5535 27.5573 24.3 27.7322 23.9951C27.9071 23.6901 27.9986 23.3444 27.9973 22.9928C27.996 22.6412 27.9021 22.2962 27.725 21.9925ZM16 27C15.3798 26.9998 14.7749 26.8074 14.2685 26.4492C13.7622 26.0911 13.3793 25.5848 13.1725 25H18.8275C18.6208 25.5848 18.2379 26.0911 17.7315 26.4492C17.2252 26.8074 16.6202 26.9998 16 27Z" />
</svg>
