<svg viewBox="0 0 32 32"
    xmlns="http://www.w3.org/2000/svg">
    <path d="M22.135 14.3075C22.8562 13.4291 23.3131 12.364 23.4526 11.2361C23.592 10.1082 23.4082 8.96384 22.9226 7.9363C22.437 6.90876 21.6695 6.04027 20.7095 5.43193C19.7495 4.82358 18.6365 4.5004 17.5 4.5H9C8.60218 4.5 8.22064 4.65804 7.93934 4.93934C7.65804 5.22064 7.5 5.60218 7.5 6V25C7.5 25.3978 7.65804 25.7794 7.93934 26.0607C8.22064 26.342 8.60218 26.5 9 26.5H19C20.4417 26.4994 21.8422 26.0195 22.9813 25.1359C24.1205 24.2522 24.9335 23.0149 25.2925 21.6187C25.6515 20.2224 25.5361 18.7464 24.9645 17.4229C24.393 16.0994 23.3976 15.0034 22.135 14.3075ZM10.5 7.5H17.5C18.2956 7.5 19.0587 7.81607 19.6213 8.37868C20.1839 8.94129 20.5 9.70435 20.5 10.5C20.5 11.2956 20.1839 12.0587 19.6213 12.6213C19.0587 13.1839 18.2956 13.5 17.5 13.5H10.5V7.5ZM19 23.5H10.5V16.5H19C19.9283 16.5 20.8185 16.8687 21.4749 17.5251C22.1313 18.1815 22.5 19.0717 22.5 20C22.5 20.9283 22.1313 21.8185 21.4749 22.4749C20.8185 23.1313 19.9283 23.5 19 23.5Z" />
</svg>
