<svg viewBox="0 0 32 32"
    xmlns="http://www.w3.org/2000/svg">
    <path d="M7 26C7 26.2652 6.89464 26.5196 6.70711 26.7071C6.51957 26.8946 6.26522 27 6 27C5.73478 27 5.48043 26.8946 5.29289 26.7071C5.10536 26.5196 5 26.2652 5 26C5 25.7348 4.89464 25.4804 4.70711 25.2929C4.51957 25.1054 4.26522 25 4 25C3.73478 25 3.48043 24.8946 3.29289 24.7071C3.10536 24.5196 3 24.2652 3 24C3 23.7348 3.10536 23.4804 3.29289 23.2929C3.48043 23.1054 3.73478 23 4 23C4.79565 23 5.55871 23.3161 6.12132 23.8787C6.68393 24.4413 7 25.2044 7 26ZM4 19C3.73478 19 3.48043 19.1054 3.29289 19.2929C3.10536 19.4804 3 19.7348 3 20C3 20.2652 3.10536 20.5196 3.29289 20.7071C3.48043 20.8946 3.73478 21 4 21C5.32608 21 6.59785 21.5268 7.53553 22.4645C8.47322 23.4021 9 24.6739 9 26C9 26.2652 9.10536 26.5196 9.29289 26.7071C9.48043 26.8946 9.73478 27 10 27C10.2652 27 10.5196 26.8946 10.7071 26.7071C10.8946 26.5196 11 26.2652 11 26C10.998 24.1441 10.2599 22.3648 8.94755 21.0524C7.63523 19.7401 5.85591 19.002 4 19ZM4 15C3.73478 15 3.48043 15.1054 3.29289 15.2929C3.10536 15.4804 3 15.7348 3 16C3 16.2652 3.10536 16.5196 3.29289 16.7071C3.48043 16.8946 3.73478 17 4 17C6.38614 17.0026 8.67378 17.9517 10.361 19.639C12.0483 21.3262 12.9974 23.6139 13 26C13 26.2652 13.1054 26.5196 13.2929 26.7071C13.4804 26.8946 13.7348 27 14 27C14.2652 27 14.5196 26.8946 14.7071 26.7071C14.8946 26.5196 15 26.2652 15 26C14.9967 23.0836 13.8367 20.2877 11.7745 18.2255C9.71234 16.1633 6.91637 15.0033 4 15ZM27 5H5C4.46957 5 3.96086 5.21071 3.58579 5.58579C3.21071 5.96086 3 6.46957 3 7V12C3 12.2652 3.10536 12.5196 3.29289 12.7071C3.48043 12.8946 3.73478 13 4 13C7.4467 13.0036 10.7512 14.3744 13.1884 16.8116C15.6256 19.2488 16.9964 22.5533 17 26C17 26.2652 17.1054 26.5196 17.2929 26.7071C17.4804 26.8946 17.7348 27 18 27H27C27.5304 27 28.0391 26.7893 28.4142 26.4142C28.7893 26.0391 29 25.5304 29 25V7C29 6.46957 28.7893 5.96086 28.4142 5.58579C28.0391 5.21071 27.5304 5 27 5Z" />
</svg>
