<svg viewBox="0 0 32 32"
    xmlns="http://www.w3.org/2000/svg">
    <path d="M3.09378 14.4426C3.38908 11.9664 4.40187 9.63057 6.00753 7.72256C6.18519 7.50833 6.40561 7.33353 6.65469 7.20935C6.90376 7.08518 7.17602 7.01435 7.45403 7.00141C7.73205 6.98847 8.00971 7.03369 8.26924 7.13419C8.52878 7.23469 8.76448 7.38826 8.96128 7.58506L12.42 11.1176C12.7531 11.4499 12.9573 11.8898 12.9959 12.3588C13.0346 12.8277 12.9054 13.2951 12.6313 13.6776C12.4236 13.9721 12.2673 14.2996 12.1688 14.6463C12.1375 14.7486 12.0742 14.8382 11.9883 14.9018C11.9023 14.9655 11.7982 14.9999 11.6913 15.0001H3.59128C3.5207 15.0002 3.45089 14.9853 3.38645 14.9565C3.32201 14.9277 3.2644 14.8856 3.2174 14.833C3.17041 14.7803 3.1351 14.7183 3.11379 14.651C3.09248 14.5837 3.08566 14.5127 3.09378 14.4426ZM17.1738 3.00756C16.8975 2.98347 16.6193 3.01709 16.3567 3.10628C16.0942 3.19547 15.853 3.33829 15.6486 3.52566C15.4442 3.71303 15.281 3.94086 15.1693 4.19468C15.0577 4.4485 15 4.72277 15 5.00006V10.0838C14.9966 10.5555 15.1614 11.013 15.465 11.3741C15.7686 11.7352 16.191 11.9762 16.6563 12.0538C17.5325 12.1984 18.3356 12.6304 18.9392 13.2817C19.5428 13.9331 19.9124 14.7668 19.9899 15.6514C20.0674 16.536 19.8483 17.4213 19.3672 18.1677C18.8861 18.9141 18.1702 19.4791 17.3325 19.7738C17.235 19.8096 17.1509 19.8745 17.0914 19.9597C17.0319 20.0448 17.0001 20.1462 17 20.2501V28.4038C16.9996 28.4746 17.0141 28.5447 17.0428 28.6094C17.0714 28.6742 17.1135 28.7321 17.1662 28.7794C17.2189 28.8266 17.281 28.8622 17.3485 28.8836C17.416 28.9051 17.4872 28.912 17.5575 28.9038C20.6774 28.5186 23.5531 27.0197 25.6556 24.6827C27.758 22.3458 28.9457 19.3281 29 16.1851C29.0938 9.39881 23.8988 3.61006 17.1738 3.00756ZM14.6563 19.7701C14.0973 19.5707 13.5897 19.2494 13.1703 18.8295C12.7508 18.4097 12.4301 17.9017 12.2313 17.3426C12.1972 17.2434 12.1332 17.1572 12.0482 17.0959C11.9631 17.0346 11.8611 17.0011 11.7563 17.0001H3.59003C3.51935 16.9996 3.44939 17.0142 3.38474 17.0427C3.3201 17.0713 3.26225 17.1132 3.215 17.1658C3.16775 17.2184 3.13218 17.2803 3.11064 17.3477C3.0891 17.415 3.08208 17.4861 3.09003 17.5563C3.44017 20.4456 4.74881 23.1341 6.80679 25.1921C8.86476 27.25 11.5533 28.5587 14.4425 28.9088C14.5128 28.9168 14.5839 28.9097 14.6512 28.8882C14.7185 28.8667 14.7805 28.8311 14.833 28.7838C14.8856 28.7366 14.9276 28.6787 14.9561 28.6141C14.9847 28.5495 14.9992 28.4795 14.9988 28.4088V20.2501C14.999 20.1443 14.9661 20.0411 14.9046 19.955C14.8432 19.869 14.7564 19.8043 14.6563 19.7701Z" />
</svg>
