<svg viewBox="0 0 32 32"
    xmlns="http://www.w3.org/2000/svg">
    <path d="M27.0613 21.0613C26.9219 21.2011 26.7563 21.312 26.574 21.3878C26.3917 21.4635 26.1962 21.5024 25.9988 21.5024C25.8013 21.5024 25.6059 21.4635 25.4235 21.3878C25.2412 21.312 25.0756 21.2011 24.9363 21.0613L16 12.125L7.06126 21.0613C6.77946 21.343 6.39727 21.5014 5.99876 21.5014C5.60024 21.5014 5.21805 21.343 4.93626 21.0613C4.65446 20.7795 4.49615 20.3973 4.49615 19.9988C4.49615 19.6002 4.65446 19.218 4.93626 18.9363L14.9363 8.93625C15.0756 8.79641 15.2412 8.68546 15.4235 8.60975C15.6059 8.53404 15.8013 8.49507 15.9988 8.49507C16.1962 8.49507 16.3917 8.53404 16.574 8.60975C16.7563 8.68546 16.9219 8.79641 17.0613 8.93625L27.0613 18.9363C27.2011 19.0756 27.3121 19.2412 27.3878 19.4235C27.4635 19.6059 27.5024 19.8013 27.5024 19.9988C27.5024 20.1962 27.4635 20.3917 27.3878 20.574C27.3121 20.7563 27.2011 20.9219 27.0613 21.0613Z" />
</svg>
