<svg viewBox="0 0 32 32"
    xmlns="http://www.w3.org/2000/svg">
    <path d="M23.0613 17.0613L13.0613 27.0613C12.7795 27.343 12.3973 27.5014 11.9988 27.5014C11.6002 27.5014 11.218 27.343 10.9363 27.0613C10.6545 26.7795 10.4962 26.3973 10.4962 25.9988C10.4962 25.6002 10.6545 25.218 10.9363 24.9363L19.875 16L10.9388 7.06126C10.7992 6.92173 10.6885 6.75608 10.613 6.57378C10.5375 6.39147 10.4987 6.19608 10.4987 5.99876C10.4987 5.80143 10.5375 5.60604 10.613 5.42374C10.6885 5.24143 10.7992 5.07579 10.9388 4.93626C11.0783 4.79673 11.2439 4.68605 11.4262 4.61053C11.6085 4.53502 11.8039 4.49615 12.0013 4.49615C12.1986 4.49615 12.394 4.53502 12.5763 4.61053C12.7586 4.68605 12.9242 4.79673 13.0638 4.93626L23.0638 14.9363C23.2034 15.0758 23.3142 15.2415 23.3897 15.4239C23.4652 15.6063 23.5039 15.8019 23.5037 15.9993C23.5035 16.1967 23.4643 16.3921 23.3883 16.5744C23.3124 16.7566 23.2013 16.9221 23.0613 17.0613Z" />
</svg>
