<svg viewBox="0 0 32 32"
    xmlns="http://www.w3.org/2000/svg">
    <path d="M21.0612 24.9387C21.343 25.2205 21.5013 25.6027 21.5013 26.0012C21.5013 26.3998 21.343 26.782 21.0612 27.0637C20.7794 27.3455 20.3973 27.5038 19.9987 27.5038C19.6002 27.5038 19.218 27.3455 18.9362 27.0637L8.93624 17.0637C8.7964 16.9244 8.68544 16.7588 8.60974 16.5765C8.53403 16.3941 8.49506 16.1987 8.49506 16.0012C8.49506 15.8038 8.53403 15.6083 8.60974 15.426C8.68544 15.2437 8.7964 15.0781 8.93624 14.9387L18.9362 4.93874C19.218 4.65695 19.6002 4.49864 19.9987 4.49864C20.3973 4.49864 20.7794 4.65695 21.0612 4.93874C21.343 5.22054 21.5013 5.60273 21.5013 6.00124C21.5013 6.39976 21.343 6.78195 21.0612 7.06374L12.125 16L21.0612 24.9387Z" />
</svg>
