<svg viewBox="0 0 32 32"
    xmlns="http://www.w3.org/2000/svg">
    <path d="M18.5 12V6C18.5 5.60218 18.658 5.22064 18.9393 4.93934C19.2206 4.65804 19.6022 4.5 20 4.5C20.3978 4.5 20.7794 4.65804 21.0607 4.93934C21.342 5.22064 21.5 5.60218 21.5 6V10.5H26C26.3978 10.5 26.7794 10.658 27.0607 10.9393C27.342 11.2206 27.5 11.6022 27.5 12C27.5 12.3978 27.342 12.7794 27.0607 13.0607C26.7794 13.342 26.3978 13.5 26 13.5H20C19.6022 13.5 19.2206 13.342 18.9393 13.0607C18.658 12.7794 18.5 12.3978 18.5 12ZM12 18.5H6C5.60218 18.5 5.22064 18.658 4.93934 18.9393C4.65804 19.2206 4.5 19.6022 4.5 20C4.5 20.3978 4.65804 20.7794 4.93934 21.0607C5.22064 21.342 5.60218 21.5 6 21.5H10.5V26C10.5 26.3978 10.658 26.7794 10.9393 27.0607C11.2206 27.342 11.6022 27.5 12 27.5C12.3978 27.5 12.7794 27.342 13.0607 27.0607C13.342 26.7794 13.5 26.3978 13.5 26V20C13.5 19.6022 13.342 19.2206 13.0607 18.9393C12.7794 18.658 12.3978 18.5 12 18.5ZM26 18.5H20C19.6022 18.5 19.2206 18.658 18.9393 18.9393C18.658 19.2206 18.5 19.6022 18.5 20V26C18.5 26.3978 18.658 26.7794 18.9393 27.0607C19.2206 27.342 19.6022 27.5 20 27.5C20.3978 27.5 20.7794 27.342 21.0607 27.0607C21.342 26.7794 21.5 26.3978 21.5 26V21.5H26C26.3978 21.5 26.7794 21.342 27.0607 21.0607C27.342 20.7794 27.5 20.3978 27.5 20C27.5 19.6022 27.342 19.2206 27.0607 18.9393C26.7794 18.658 26.3978 18.5 26 18.5ZM12 4.5C11.6022 4.5 11.2206 4.65804 10.9393 4.93934C10.658 5.22064 10.5 5.60218 10.5 6V10.5H6C5.60218 10.5 5.22064 10.658 4.93934 10.9393C4.65804 11.2206 4.5 11.6022 4.5 12C4.5 12.3978 4.65804 12.7794 4.93934 13.0607C5.22064 13.342 5.60218 13.5 6 13.5H12C12.3978 13.5 12.7794 13.342 13.0607 13.0607C13.342 12.7794 13.5 12.3978 13.5 12V6C13.5 5.60218 13.342 5.22064 13.0607 4.93934C12.7794 4.65804 12.3978 4.5 12 4.5Z" />
</svg>
