<svg viewBox="0 0 32 32"
    xmlns="http://www.w3.org/2000/svg">
    <path d="M22.5 17.5H20.5V14.5H22.5C23.4889 14.5 24.4556 14.2068 25.2779 13.6573C26.1001 13.1079 26.741 12.327 27.1194 11.4134C27.4978 10.4998 27.5969 9.49446 27.4039 8.52455C27.211 7.55465 26.7348 6.66373 26.0355 5.96447C25.3363 5.26521 24.4454 4.789 23.4755 4.59608C22.5055 4.40315 21.5002 4.50217 20.5866 4.8806C19.673 5.25904 18.8921 5.89991 18.3427 6.72215C17.7932 7.5444 17.5 8.5111 17.5 9.5V11.5H14.5V9.5C14.5 8.5111 14.2068 7.5444 13.6573 6.72215C13.1079 5.89991 12.327 5.25904 11.4134 4.8806C10.4998 4.50217 9.49446 4.40315 8.52455 4.59608C7.55465 4.789 6.66373 5.26521 5.96447 5.96447C5.26521 6.66373 4.789 7.55465 4.59608 8.52455C4.40315 9.49446 4.50217 10.4998 4.8806 11.4134C5.25904 12.327 5.89991 13.1079 6.72215 13.6573C7.5444 14.2068 8.5111 14.5 9.5 14.5H11.5V17.5H9.5C8.5111 17.5 7.5444 17.7932 6.72215 18.3427C5.89991 18.8921 5.25904 19.673 4.8806 20.5866C4.50217 21.5002 4.40315 22.5055 4.59608 23.4755C4.789 24.4454 5.26521 25.3363 5.96447 26.0355C6.66373 26.7348 7.55465 27.211 8.52455 27.4039C9.49446 27.5969 10.4998 27.4978 11.4134 27.1194C12.327 26.741 13.1079 26.1001 13.6573 25.2779C14.2068 24.4556 14.5 23.4889 14.5 22.5V20.5H17.5V22.5C17.5 23.4889 17.7932 24.4556 18.3427 25.2779C18.8921 26.1001 19.673 26.741 20.5866 27.1194C21.5002 27.4978 22.5055 27.5969 23.4755 27.4039C24.4454 27.211 25.3363 26.7348 26.0355 26.0355C26.7348 25.3363 27.211 24.4454 27.4039 23.4755C27.5969 22.5055 27.4978 21.5002 27.1194 20.5866C26.741 19.673 26.1001 18.8921 25.2779 18.3427C24.4556 17.7932 23.4889 17.5 22.5 17.5ZM20.5 9.5C20.5 9.10444 20.6173 8.71776 20.8371 8.38886C21.0568 8.05996 21.3692 7.80362 21.7346 7.65224C22.1001 7.50087 22.5022 7.46126 22.8902 7.53843C23.2781 7.6156 23.6345 7.80608 23.9142 8.08579C24.1939 8.36549 24.3844 8.72186 24.4616 9.10982C24.5387 9.49778 24.4991 9.89992 24.3478 10.2654C24.1964 10.6308 23.94 10.9432 23.6111 11.1629C23.2822 11.3827 22.8956 11.5 22.5 11.5H20.5V9.5ZM7.5 9.5C7.5 8.96957 7.71072 8.46086 8.08579 8.08579C8.46086 7.71072 8.96957 7.5 9.5 7.5C10.0304 7.5 10.5391 7.71072 10.9142 8.08579C11.2893 8.46086 11.5 8.96957 11.5 9.5V11.5H9.5C8.96957 11.5 8.46086 11.2893 8.08579 10.9142C7.71072 10.5391 7.5 10.0304 7.5 9.5ZM11.5 22.5C11.5 22.8956 11.3827 23.2822 11.1629 23.6111C10.9432 23.94 10.6308 24.1964 10.2654 24.3478C9.89992 24.4991 9.49778 24.5387 9.10982 24.4616C8.72186 24.3844 8.36549 24.1939 8.08579 23.9142C7.80608 23.6345 7.6156 23.2781 7.53843 22.8902C7.46126 22.5022 7.50087 22.1001 7.65224 21.7346C7.80362 21.3692 8.05996 21.0568 8.38886 20.8371C8.71776 20.6173 9.10444 20.5 9.5 20.5H11.5V22.5ZM14.5 14.5H17.5V17.5H14.5V14.5ZM22.5 24.5C21.9696 24.5 21.4609 24.2893 21.0858 23.9142C20.7107 23.5391 20.5 23.0304 20.5 22.5V20.5H22.5C23.0304 20.5 23.5391 20.7107 23.9142 21.0858C24.2893 21.4609 24.5 21.9696 24.5 22.5C24.5 23.0304 24.2893 23.5391 23.9142 23.9142C23.5391 24.2893 23.0304 24.5 22.5 24.5Z" />
</svg>
