<svg viewBox="0 0 32 32"
    xmlns="http://www.w3.org/2000/svg">
    <path d="M16 3C9.27125 3 4 6.075 4 10V22C4 25.925 9.27125 29 16 29C22.7288 29 28 25.925 28 22V10C28 6.075 22.7288 3 16 3ZM26 16C26 17.2025 25.015 18.4288 23.2987 19.365C21.3662 20.4188 18.7738 21 16 21C13.2262 21 10.6337 20.4188 8.70125 19.365C6.985 18.4288 6 17.2025 6 16V13.92C8.1325 15.795 11.7787 17 16 17C20.2213 17 23.8675 15.79 26 13.92V16ZM23.2987 25.365C21.3662 26.4188 18.7738 27 16 27C13.2262 27 10.6337 26.4188 8.70125 25.365C6.985 24.4287 6 23.2025 6 22V19.92C8.1325 21.795 11.7787 23 16 23C20.2213 23 23.8675 21.79 26 19.92V22C26 23.2025 25.015 24.4287 23.2987 25.365Z" />
</svg>
