<svg viewBox="0 0 32 32"
    xmlns="http://www.w3.org/2000/svg">
    <path d="M16 3C13.4288 3 10.9154 3.76244 8.77759 5.1909C6.63975 6.61935 4.97351 8.64968 3.98957 11.0251C3.00563 13.4006 2.74819 16.0144 3.2498 18.5362C3.75141 21.0579 4.98953 23.3743 6.80762 25.1924C8.6257 27.0105 10.9421 28.2486 13.4638 28.7502C15.9856 29.2518 18.5995 28.9944 20.9749 28.0104C23.3503 27.0265 25.3807 25.3603 26.8091 23.2224C28.2376 21.0846 29 18.5712 29 16C28.9964 12.5533 27.6256 9.24882 25.1884 6.81163C22.7512 4.37445 19.4467 3.00364 16 3ZM27 16C27.0011 17.4112 26.7295 18.8094 26.2 20.1175L20.6125 16.6812C20.3749 16.5347 20.1092 16.4397 19.8325 16.4025L16.98 16.0175C16.5869 15.9662 16.1875 16.0321 15.8317 16.2069C15.476 16.3817 15.1797 16.6576 14.98 17H13.89L13.415 16.0175C13.2837 15.7439 13.0915 15.504 12.8532 15.3162C12.6148 15.1283 12.3367 14.9975 12.04 14.9338L11.04 14.7175L12.0175 13H14.1063C14.4442 12.9993 14.7766 12.9133 15.0725 12.75L16.6038 11.905C16.7383 11.83 16.8641 11.7403 16.9788 11.6375L20.3425 8.595C20.6798 8.29277 20.9039 7.8846 20.978 7.43784C21.0521 6.99108 20.9717 6.53241 20.75 6.1375L20.705 6.05625C22.5873 6.94875 24.1778 8.35674 25.292 10.1168C26.4063 11.8769 26.9985 13.9169 27 16ZM5.00001 16C4.99834 14.365 5.36311 12.7505 6.06751 11.275L7.48501 15.0588C7.60313 15.372 7.79802 15.6506 8.0518 15.869C8.30558 16.0874 8.61012 16.2386 8.93751 16.3088L11.6163 16.885L12.0925 17.875C12.2578 18.2117 12.5139 18.4955 12.832 18.6943C13.1501 18.8931 13.5174 18.999 13.8925 19H14.0775L13.1738 21.0287C13.0145 21.386 12.9635 21.782 13.0271 22.168C13.0906 22.5539 13.2659 22.9127 13.5313 23.2L13.5488 23.2175L16 25.7425L15.7575 26.9925C12.8848 26.9256 10.152 25.7387 8.14216 23.685C6.13236 21.6313 5.00477 18.8735 5.00001 16Z" />
</svg>
