<svg viewBox="0 0 32 32"
    xmlns="http://www.w3.org/2000/svg">
    <path d="M20.6886 3.87912C19.2072 3.30507 17.6193 3.00159 16 2.99988C13.4288 2.99988 10.9154 3.76231 8.77759 5.19077C6.63975 6.61923 4.97351 8.64955 3.98957 11.025C3.00563 13.4004 2.74819 16.0143 3.2498 18.5361C3.75141 21.0578 4.98953 23.3742 6.80762 25.1923C7.13769 25.5223 7.48419 25.8333 7.84536 26.1242L8.86425 24.3594C8.61456 24.1463 8.37356 23.9214 8.14216 23.6849C6.13236 21.6312 5.00477 18.8734 5.00001 15.9999C4.99834 14.3649 5.36311 12.7503 6.06751 11.2749L7.48501 15.0586C7.60313 15.3719 7.79802 15.6505 8.0518 15.8689C8.30558 16.0873 8.61012 16.2385 8.93751 16.3086L11.6163 16.8849L12.0925 17.8749C12.1666 18.0258 12.2589 18.166 12.3668 18.2928L13.536 16.2677L13.415 16.0174C13.2837 15.7438 13.0915 15.5039 12.8532 15.3161C12.6148 15.1282 12.3367 14.9974 12.04 14.9336L11.04 14.7174L12.0175 12.9999H14.1063C14.4442 12.9992 14.7766 12.9132 15.0725 12.7499L15.7983 12.3494L20.6886 3.87912Z" />
    <path fill-rule="evenodd" clip-rule="evenodd" d="M24 2.14355L25.732 3.14355L24.1519 5.88045C24.5121 6.17073 24.8582 6.48134 25.1884 6.81151C27.6256 9.24869 28.9964 12.5532 29 15.9999C29 18.571 28.2376 21.0845 26.8091 23.2223C25.3807 25.3601 23.3503 27.0264 20.9749 28.0103C18.5994 28.9943 15.9856 29.2517 13.4638 28.7501C12.7257 28.6033 12.0051 28.3933 11.3095 28.1242L9.73205 30.8564L8 29.8564L24 2.14355ZM23.1398 7.63347L18.204 16.1826L19.8325 16.4024C20.1092 16.4396 20.3749 16.5345 20.6125 16.6811L26.2 20.1174C26.7295 18.8092 27.0011 17.4111 27 15.9999C26.9985 13.9168 26.4063 11.8768 25.292 10.1167C24.6999 9.18135 23.9732 8.34543 23.1398 7.63347ZM13.921 23.6008L12.3279 26.3603C13.4205 26.7484 14.5772 26.9649 15.7575 26.9924L16 25.7424L13.921 23.6008Z" />
</svg>
