<svg viewBox="0 0 32 32"
    xmlns="http://www.w3.org/2000/svg">
    <path d="M16 3C13.4288 3 10.9154 3.76244 8.77759 5.1909C6.63975 6.61935 4.97351 8.64968 3.98957 11.0251C3.00563 13.4006 2.74819 16.0144 3.2498 18.5362C3.75141 21.0579 4.98953 23.3743 6.80762 25.1924C8.6257 27.0105 10.9421 28.2486 13.4638 28.7502C15.9856 29.2518 18.5995 28.9944 20.9749 28.0104C23.3503 27.0265 25.3807 25.3603 26.8091 23.2224C28.2376 21.0846 29 18.5712 29 16C28.9964 12.5533 27.6256 9.24882 25.1884 6.81163C22.7512 4.37445 19.4467 3.00364 16 3ZM11.5 12C11.7967 12 12.0867 12.088 12.3334 12.2528C12.58 12.4176 12.7723 12.6519 12.8858 12.926C12.9994 13.2001 13.0291 13.5017 12.9712 13.7926C12.9133 14.0836 12.7704 14.3509 12.5607 14.5607C12.3509 14.7704 12.0836 14.9133 11.7926 14.9712C11.5017 15.0291 11.2001 14.9994 10.926 14.8858C10.6519 14.7723 10.4176 14.58 10.2528 14.3334C10.088 14.0867 10 13.7967 10 13.5C10 13.1022 10.158 12.7206 10.4393 12.4393C10.7206 12.158 11.1022 12 11.5 12ZM21.5 22.865C21.2705 22.9974 20.9979 23.0333 20.742 22.9648C20.4861 22.8964 20.2678 22.7292 20.135 22.5C19.2013 20.8862 17.7338 20 16 20C14.2663 20 12.7988 20.8875 11.865 22.5C11.8025 22.6195 11.7164 22.7251 11.6121 22.8105C11.5077 22.8959 11.3871 22.9593 11.2575 22.9969C11.128 23.0345 10.9922 23.0454 10.8583 23.0292C10.7245 23.0129 10.5952 22.9697 10.4785 22.9022C10.3617 22.8348 10.2598 22.7443 10.1789 22.6364C10.098 22.5285 10.0397 22.4054 10.0076 22.2744C9.97555 22.1434 9.97029 22.0073 9.99218 21.8742C10.0141 21.7411 10.0627 21.6138 10.135 21.5C11.4213 19.2762 13.5588 18 16 18C18.4413 18 20.5788 19.275 21.865 21.5C21.9974 21.7295 22.0333 22.0021 21.9649 22.258C21.8964 22.5139 21.7292 22.7322 21.5 22.865ZM20.5 15C20.2033 15 19.9133 14.912 19.6667 14.7472C19.42 14.5824 19.2277 14.3481 19.1142 14.074C19.0007 13.7999 18.971 13.4983 19.0288 13.2074C19.0867 12.9164 19.2296 12.6491 19.4393 12.4393C19.6491 12.2296 19.9164 12.0867 20.2074 12.0288C20.4983 11.9709 20.7999 12.0006 21.074 12.1142C21.3481 12.2277 21.5824 12.42 21.7472 12.6666C21.912 12.9133 22 13.2033 22 13.5C22 13.8978 21.842 14.2794 21.5607 14.5607C21.2794 14.842 20.8978 15 20.5 15Z" />
</svg>
