<svg viewBox="0 0 32 32"
    xmlns="http://www.w3.org/2000/svg">
    <path d="M27.5 6V11C27.5 11.3978 27.342 11.7794 27.0607 12.0607C26.7794 12.342 26.3978 12.5 26 12.5C25.6022 12.5 25.2206 12.342 24.9393 12.0607C24.658 11.7794 24.5 11.3978 24.5 11V7.5H21C20.6022 7.5 20.2206 7.34196 19.9393 7.06066C19.658 6.77936 19.5 6.39782 19.5 6C19.5 5.60218 19.658 5.22064 19.9393 4.93934C20.2206 4.65804 20.6022 4.5 21 4.5H26C26.3978 4.5 26.7794 4.65804 27.0607 4.93934C27.342 5.22064 27.5 5.60218 27.5 6ZM11 24.5H7.5V21C7.5 20.6022 7.34196 20.2206 7.06066 19.9393C6.77936 19.658 6.39782 19.5 6 19.5C5.60218 19.5 5.22064 19.658 4.93934 19.9393C4.65804 20.2206 4.5 20.6022 4.5 21V26C4.5 26.3978 4.65804 26.7794 4.93934 27.0607C5.22064 27.342 5.60218 27.5 6 27.5H11C11.3978 27.5 11.7794 27.342 12.0607 27.0607C12.342 26.7794 12.5 26.3978 12.5 26C12.5 25.6022 12.342 25.2206 12.0607 24.9393C11.7794 24.658 11.3978 24.5 11 24.5ZM26 19.5C25.6022 19.5 25.2206 19.658 24.9393 19.9393C24.658 20.2206 24.5 20.6022 24.5 21V24.5H21C20.6022 24.5 20.2206 24.658 19.9393 24.9393C19.658 25.2206 19.5 25.6022 19.5 26C19.5 26.3978 19.658 26.7794 19.9393 27.0607C20.2206 27.342 20.6022 27.5 21 27.5H26C26.3978 27.5 26.7794 27.342 27.0607 27.0607C27.342 26.7794 27.5 26.3978 27.5 26V21C27.5 20.6022 27.342 20.2206 27.0607 19.9393C26.7794 19.658 26.3978 19.5 26 19.5ZM11 4.5H6C5.60218 4.5 5.22064 4.65804 4.93934 4.93934C4.65804 5.22064 4.5 5.60218 4.5 6V11C4.5 11.3978 4.65804 11.7794 4.93934 12.0607C5.22064 12.342 5.60218 12.5 6 12.5C6.39782 12.5 6.77936 12.342 7.06066 12.0607C7.34196 11.7794 7.5 11.3978 7.5 11V7.5H11C11.3978 7.5 11.7794 7.34196 12.0607 7.06066C12.342 6.77936 12.5 6.39782 12.5 6C12.5 5.60218 12.342 5.22064 12.0607 4.93934C11.7794 4.65804 11.3978 4.5 11 4.5Z" />
</svg>
