<svg viewBox="0 0 32 32"
    xmlns="http://www.w3.org/2000/svg">
    <path d="M6.73999 4.32758C6.65217 4.22859 6.54558 4.14801 6.42639 4.09052C6.3072 4.03303 6.17778 3.99976 6.04564 3.99265C5.91351 3.98555 5.78127 4.00473 5.6566 4.04911C5.53193 4.09348 5.41731 4.16216 5.31938 4.25116C5.22144 4.34016 5.14215 4.44771 5.08609 4.56758C5.03003 4.68745 4.99832 4.81725 4.9928 4.94947C4.98727 5.08168 5.00804 5.21368 5.05391 5.33781C5.09978 5.46194 5.16982 5.57573 5.25999 5.67258L7.66499 8.31883C3.12499 11.1051 1.17249 15.4001 1.08624 15.5951C1.02938 15.723 1 15.8614 1 16.0013C1 16.1413 1.02938 16.2797 1.08624 16.4076C1.12999 16.5063 2.18874 18.8538 4.54249 21.2076C7.67874 24.3426 11.64 26.0001 16 26.0001C18.2408 26.0128 20.4589 25.5515 22.5087 24.6463L25.2587 27.6726C25.3466 27.7716 25.4531 27.8522 25.5723 27.9096C25.6915 27.9671 25.8209 28.0004 25.9531 28.0075C26.0852 28.0146 26.2175 27.9954 26.3421 27.9511C26.4668 27.9067 26.5814 27.838 26.6793 27.749C26.7773 27.66 26.8566 27.5525 26.9126 27.4326C26.9687 27.3127 27.0004 27.1829 27.0059 27.0507C27.0115 26.9185 26.9907 26.7865 26.9448 26.6624C26.899 26.5382 26.8289 26.4244 26.7387 26.3276L6.73999 4.32758ZM17.865 19.5388C17.0806 19.9515 16.1814 20.0919 15.3085 19.9381C14.4357 19.7843 13.6386 19.345 13.0425 18.6891C12.4464 18.0332 12.085 17.1979 12.0151 16.3144C11.9452 15.4308 12.1707 14.5491 12.6562 13.8076L17.865 19.5388ZM30.9137 16.4076C30.8612 16.5251 29.595 19.3288 26.7437 21.8826C26.5472 22.0589 26.289 22.1504 26.0253 22.137C25.7616 22.1237 25.5139 22.0066 25.3362 21.8113L12.675 7.88383C12.5539 7.75092 12.4708 7.58781 12.4346 7.41167C12.3984 7.23553 12.4103 7.05288 12.4692 6.88297C12.5281 6.71305 12.6316 6.56214 12.7691 6.44615C12.9065 6.33015 13.0726 6.25335 13.25 6.22383C14.1589 6.07375 15.0787 5.99891 16 6.00008C20.36 6.00008 24.3212 7.65758 27.4575 10.7938C29.8112 13.1476 30.87 15.4963 30.9137 15.5951C30.9706 15.723 31 15.8614 31 16.0013C31 16.1413 30.9706 16.2797 30.9137 16.4076Z" />
</svg>
