<svg xmlns="http://www.w3.org/2000/svg" viewBox="0 0 17 16">
    <path d="M13.6868 4.14625L11.1868 1.64625C11.1403 1.59983 11.0851 1.56303 11.0244 1.53793C10.9637 1.51284 10.8987 1.49995 10.833 1.5H5.83301C5.56779 1.5 5.31344 1.60536 5.1259 1.79289C4.93836 1.98043 4.83301 2.23478 4.83301 2.5V3.5H3.83301C3.56779 3.5 3.31344 3.60536 3.1259 3.79289C2.93836 3.98043 2.83301 4.23478 2.83301 4.5V13.5C2.83301 13.7652 2.93836 14.0196 3.1259 14.2071C3.31344 14.3946 3.56779 14.5 3.83301 14.5H10.833C11.0982 14.5 11.3526 14.3946 11.5401 14.2071C11.7277 14.0196 11.833 13.7652 11.833 13.5V12.5H12.833C13.0982 12.5 13.3526 12.3946 13.5401 12.2071C13.7277 12.0196 13.833 11.7652 13.833 11.5V4.5C13.8331 4.43432 13.8202 4.36927 13.7951 4.30858C13.77 4.24788 13.7332 4.19272 13.6868 4.14625ZM8.83301 12H5.83301C5.7004 12 5.57322 11.9473 5.47945 11.8536C5.38569 11.7598 5.33301 11.6326 5.33301 11.5C5.33301 11.3674 5.38569 11.2402 5.47945 11.1464C5.57322 11.0527 5.7004 11 5.83301 11H8.83301C8.96562 11 9.09279 11.0527 9.18656 11.1464C9.28033 11.2402 9.33301 11.3674 9.33301 11.5C9.33301 11.6326 9.28033 11.7598 9.18656 11.8536C9.09279 11.9473 8.96562 12 8.83301 12ZM8.83301 10H5.83301C5.7004 10 5.57322 9.94732 5.47945 9.85355C5.38569 9.75979 5.33301 9.63261 5.33301 9.5C5.33301 9.36739 5.38569 9.24021 5.47945 9.14645C5.57322 9.05268 5.7004 9 5.83301 9H8.83301C8.96562 9 9.09279 9.05268 9.18656 9.14645C9.28033 9.24021 9.33301 9.36739 9.33301 9.5C9.33301 9.63261 9.28033 9.75979 9.18656 9.85355C9.09279 9.94732 8.96562 10 8.83301 10ZM12.833 11.5H11.833V6.5C11.8331 6.43432 11.8202 6.36927 11.7951 6.30858C11.77 6.24788 11.7332 6.19272 11.6868 6.14625L9.18676 3.64625C9.14029 3.59983 9.08513 3.56303 9.02443 3.53793C8.96374 3.51284 8.89869 3.49995 8.83301 3.5H5.83301V2.5H10.6261L12.833 4.70688V11.5Z" />
</svg>