<svg viewBox="0 0 32 32"
    xmlns="http://www.w3.org/2000/svg">
    <path d="M6 15H26C26.2652 15 26.5196 14.8946 26.7071 14.7071C26.8946 14.5196 27 14.2652 27 14V11C27.0001 10.8686 26.9743 10.7385 26.9241 10.6172C26.8739 10.4958 26.8003 10.3854 26.7075 10.2925L19.7075 3.2925C19.6146 3.19967 19.5042 3.12605 19.3829 3.07586C19.2615 3.02568 19.1314 2.9999 19 3H7C6.46957 3 5.96086 3.21071 5.58579 3.58579C5.21071 3.96086 5 4.46957 5 5V14C5 14.2652 5.10536 14.5196 5.29289 14.7071C5.48043 14.8946 5.73478 15 6 15ZM19 5.5L24.5 11H19V5.5ZM28 19C28 19.2652 27.8946 19.5196 27.7071 19.7071C27.5196 19.8946 27.2652 20 27 20H24V22H26C26.2652 22 26.5196 22.1054 26.7071 22.2929C26.8946 22.4804 27 22.7348 27 23C27 23.2652 26.8946 23.5196 26.7071 23.7071C26.5196 23.8946 26.2652 24 26 24H24V26C24 26.2652 23.8946 26.5196 23.7071 26.7071C23.5196 26.8946 23.2652 27 23 27C22.7348 27 22.4804 26.8946 22.2929 26.7071C22.1054 26.5196 22 26.2652 22 26V19C22 18.7348 22.1054 18.4804 22.2929 18.2929C22.4804 18.1054 22.7348 18 23 18H27C27.2652 18 27.5196 18.1054 27.7071 18.2929C27.8946 18.4804 28 18.7348 28 19ZM8 18H6C5.73478 18 5.48043 18.1054 5.29289 18.2929C5.10536 18.4804 5 18.7348 5 19V26C5 26.2652 5.10536 26.5196 5.29289 26.7071C5.48043 26.8946 5.73478 27 6 27C6.26522 27 6.51957 26.8946 6.70711 26.7071C6.89464 26.5196 7 26.2652 7 26V25H8C8.92826 25 9.8185 24.6313 10.4749 23.9749C11.1313 23.3185 11.5 22.4283 11.5 21.5C11.5 20.5717 11.1313 19.6815 10.4749 19.0251C9.8185 18.3687 8.92826 18 8 18ZM8 23H7V20H8C8.39782 20 8.77936 20.158 9.06066 20.4393C9.34196 20.7206 9.5 21.1022 9.5 21.5C9.5 21.8978 9.34196 22.2794 9.06066 22.5607C8.77936 22.842 8.39782 23 8 23ZM16 18H14C13.7348 18 13.4804 18.1054 13.2929 18.2929C13.1054 18.4804 13 18.7348 13 19V26C13 26.2652 13.1054 26.5196 13.2929 26.7071C13.4804 26.8946 13.7348 27 14 27H16C17.1935 27 18.3381 26.5259 19.182 25.682C20.0259 24.8381 20.5 23.6935 20.5 22.5C20.5 21.3065 20.0259 20.1619 19.182 19.318C18.3381 18.4741 17.1935 18 16 18ZM16 25H15V20H16C16.663 20 17.2989 20.2634 17.7678 20.7322C18.2366 21.2011 18.5 21.837 18.5 22.5C18.5 23.163 18.2366 23.7989 17.7678 24.2678C17.2989 24.7366 16.663 25 16 25Z" />
</svg>
