<svg viewBox="0 0 32 32"
    xmlns="http://www.w3.org/2000/svg">
    <path d="M26.7075 10.2925L19.7075 3.2925C19.6146 3.19967 19.5042 3.12605 19.3829 3.07586C19.2615 3.02568 19.1314 2.9999 19 3H7C6.46957 3 5.96086 3.21071 5.58579 3.58579C5.21071 3.96086 5 4.46957 5 5V27C5 27.5304 5.21071 28.0391 5.58579 28.4142C5.96086 28.7893 6.46957 29 7 29H25C25.5304 29 26.0391 28.7893 26.4142 28.4142C26.7893 28.0391 27 27.5304 27 27V11C27.0001 10.8686 26.9743 10.7385 26.9241 10.6172C26.8739 10.4958 26.8003 10.3854 26.7075 10.2925ZM19.7075 21.2925C19.8004 21.3854 19.8741 21.4957 19.9244 21.6171C19.9747 21.7385 20.0006 21.8686 20.0006 22C20.0006 22.1314 19.9747 22.2615 19.9244 22.3829C19.8741 22.5043 19.8004 22.6146 19.7075 22.7075C19.6146 22.8004 19.5043 22.8741 19.3829 22.9244C19.2615 22.9747 19.1314 23.0006 19 23.0006C18.8686 23.0006 18.7385 22.9747 18.6171 22.9244C18.4957 22.8741 18.3854 22.8004 18.2925 22.7075L16 20.4137L13.7075 22.7075C13.6146 22.8004 13.5043 22.8741 13.3829 22.9244C13.2615 22.9747 13.1314 23.0006 13 23.0006C12.8686 23.0006 12.7385 22.9747 12.6171 22.9244C12.4957 22.8741 12.3854 22.8004 12.2925 22.7075C12.1996 22.6146 12.1259 22.5043 12.0756 22.3829C12.0253 22.2615 11.9994 22.1314 11.9994 22C11.9994 21.8686 12.0253 21.7385 12.0756 21.6171C12.1259 21.4957 12.1996 21.3854 12.2925 21.2925L14.5863 19L12.2925 16.7075C12.1049 16.5199 11.9994 16.2654 11.9994 16C11.9994 15.7346 12.1049 15.4801 12.2925 15.2925C12.4801 15.1049 12.7346 14.9994 13 14.9994C13.2654 14.9994 13.5199 15.1049 13.7075 15.2925L16 17.5863L18.2925 15.2925C18.3854 15.1996 18.4957 15.1259 18.6171 15.0756C18.7385 15.0253 18.8686 14.9994 19 14.9994C19.1314 14.9994 19.2615 15.0253 19.3829 15.0756C19.5043 15.1259 19.6146 15.1996 19.7075 15.2925C19.8004 15.3854 19.8741 15.4957 19.9244 15.6171C19.9747 15.7385 20.0006 15.8686 20.0006 16C20.0006 16.1314 19.9747 16.2615 19.9244 16.3829C19.8741 16.5043 19.8004 16.6146 19.7075 16.7075L17.4137 19L19.7075 21.2925ZM19 11V5.5L24.5 11H19Z" />
</svg>
