<svg xmlns="http://www.w3.org/2000/svg" viewBox="0 0 17 16">
    <path d="M13.0005 9.5C12.6425 9.49976 12.2897 9.5855 11.9717 9.75L10.6348 8.71C10.7075 8.49413 10.7465 8.26836 10.7505 8.04062L11.3973 7.82562C11.7632 8.19714 12.2468 8.43005 12.7653 8.48454C13.2839 8.53903 13.8053 8.41173 14.2404 8.12438C14.6755 7.83704 14.9973 7.40749 15.1508 6.90917C15.3043 6.41085 15.2799 5.87469 15.0819 5.39233C14.8839 4.90998 14.5244 4.51138 14.0651 4.26466C13.6057 4.01794 13.0749 3.93843 12.5634 4.03971C12.0519 4.14099 11.5915 4.41678 11.2608 4.81993C10.9301 5.22309 10.7497 5.72858 10.7505 6.25C10.7505 6.31937 10.7542 6.38812 10.7605 6.45625L10.2742 6.61812C10.0641 6.34806 9.79505 6.1295 9.48768 5.97906C9.18031 5.82863 8.84268 5.75029 8.50047 5.75C8.43797 5.75 8.38297 5.75 8.32485 5.7575L8.04672 5.1325C8.42633 4.77246 8.6686 4.29138 8.73185 3.77202C8.7951 3.25266 8.67539 2.7275 8.39329 2.28687C8.1112 1.84623 7.68437 1.51768 7.18623 1.35773C6.68809 1.19778 6.14977 1.21642 5.66389 1.41046C5.17801 1.6045 4.77493 1.9618 4.52401 2.4209C4.27308 2.87999 4.18999 3.41218 4.28903 3.92592C4.38807 4.43965 4.66305 4.90281 5.06666 5.23573C5.47027 5.56864 5.97728 5.75049 6.50047 5.75C6.56297 5.75 6.61797 5.75 6.6761 5.7425L6.95422 6.3675C6.62472 6.67855 6.39708 7.08205 6.30126 7.52492C6.20543 7.9678 6.2459 8.42931 6.41735 8.84875L5.08735 10.0306C4.62265 9.77411 4.08223 9.69014 3.56162 9.79356C3.041 9.89698 2.5737 10.1811 2.24233 10.5958C1.91096 11.0104 1.73685 11.5289 1.75078 12.0595C1.7647 12.5901 1.96577 13.0987 2.31843 13.4954C2.6711 13.8921 3.15265 14.1513 3.67798 14.2273C4.20331 14.3032 4.73858 14.191 5.18918 13.9105C5.63978 13.63 5.97669 13.1992 6.14036 12.6942C6.30403 12.1893 6.28393 11.6428 6.0836 11.1512L7.4136 9.96937C7.7681 10.1655 8.16909 10.2621 8.57403 10.2488C8.97897 10.2355 9.37275 10.1128 9.7136 9.89375L10.938 10.8475C10.7436 11.2914 10.6977 11.7861 10.8072 12.2582C10.9166 12.7302 11.1755 13.1543 11.5454 13.4674C11.9153 13.7805 12.3763 13.9657 12.86 13.9957C13.3436 14.0256 13.824 13.8987 14.2297 13.6336C14.6353 13.3686 14.9446 12.9797 15.1115 12.5247C15.2783 12.0698 15.2938 11.5731 15.1557 11.1087C15.0176 10.6442 14.7332 10.2367 14.3449 9.94689C13.9566 9.65705 13.485 9.50031 13.0005 9.5ZM13.0005 5.5C13.1488 5.5 13.2938 5.54399 13.4171 5.6264C13.5405 5.70881 13.6366 5.82594 13.6934 5.96299C13.7501 6.10003 13.765 6.25083 13.7361 6.39632C13.7071 6.5418 13.6357 6.67544 13.5308 6.78033C13.4259 6.88522 13.2923 6.95665 13.1468 6.98559C13.0013 7.01453 12.8505 6.99967 12.7135 6.94291C12.5764 6.88614 12.4593 6.79001 12.3769 6.66668C12.2945 6.54334 12.2505 6.39834 12.2505 6.25C12.2505 6.05109 12.3295 5.86032 12.4701 5.71967C12.6108 5.57902 12.8016 5.5 13.0005 5.5ZM5.75047 3.5C5.75047 3.35166 5.79446 3.20666 5.87687 3.08332C5.95928 2.95998 6.07642 2.86386 6.21346 2.80709C6.3505 2.75032 6.5013 2.73547 6.64679 2.76441C6.79228 2.79335 6.92591 2.86478 7.0308 2.96967C7.13569 3.07456 7.20712 3.2082 7.23606 3.35368C7.265 3.49917 7.25015 3.64997 7.19338 3.78701C7.13662 3.92406 7.04049 4.04119 6.91715 4.1236C6.79381 4.20601 6.64881 4.25 6.50047 4.25C6.30156 4.25 6.11079 4.17098 5.97014 4.03033C5.82949 3.88968 5.75047 3.69891 5.75047 3.5ZM4.00047 12.75C3.85214 12.75 3.70713 12.706 3.58379 12.6236C3.46046 12.5412 3.36433 12.4241 3.30756 12.287C3.2508 12.15 3.23594 11.9992 3.26488 11.8537C3.29382 11.7082 3.36525 11.5746 3.47014 11.4697C3.57503 11.3648 3.70867 11.2933 3.85415 11.2644C3.99964 11.2355 4.15044 11.2503 4.28748 11.3071C4.42453 11.3639 4.54166 11.46 4.62407 11.5833C4.70649 11.7067 4.75047 11.8517 4.75047 12C4.75047 12.1989 4.67145 12.3897 4.5308 12.5303C4.39015 12.671 4.19938 12.75 4.00047 12.75ZM7.75047 8C7.75047 7.85166 7.79446 7.70666 7.87687 7.58332C7.95928 7.45999 8.07642 7.36386 8.21346 7.30709C8.3505 7.25032 8.5013 7.23547 8.64679 7.26441C8.79228 7.29335 8.92591 7.36478 9.0308 7.46967C9.13569 7.57456 9.20712 7.7082 9.23606 7.85368C9.265 7.99917 9.25015 8.14997 9.19338 8.28701C9.13662 8.42406 9.04049 8.54119 8.91715 8.6236C8.79381 8.70601 8.64881 8.75 8.50047 8.75C8.30156 8.75 8.11079 8.67098 7.97014 8.53033C7.82949 8.38968 7.75047 8.19891 7.75047 8ZM13.0005 12.5C12.8521 12.5 12.7071 12.456 12.5838 12.3736C12.4605 12.2912 12.3643 12.1741 12.3076 12.037C12.2508 11.9 12.2359 11.7492 12.2649 11.6037C12.2938 11.4582 12.3653 11.3246 12.4701 11.2197C12.575 11.1148 12.7087 11.0433 12.8542 11.0144C12.9996 10.9855 13.1504 11.0003 13.2875 11.0571C13.4245 11.1139 13.5417 11.21 13.6241 11.3333C13.7065 11.4567 13.7505 11.6017 13.7505 11.75C13.7505 11.9489 13.6715 12.1397 13.5308 12.2803C13.3901 12.421 13.1994 12.5 13.0005 12.5Z" />
</svg>