<svg viewBox="0 0 32 32"
    xmlns="http://www.w3.org/2000/svg">
    <path d="M10.5 6.5V11.5H3.5C3.36739 11.5 3.24021 11.4473 3.14645 11.3536C3.05268 11.2598 3 11.1326 3 11V8C3 7.46957 3.21071 6.96086 3.58579 6.58579C3.96086 6.21071 4.46957 6 5 6H10C10.1326 6 10.2598 6.05268 10.3536 6.14645C10.4473 6.24021 10.5 6.36739 10.5 6.5ZM12.5 25.5C12.5 25.6326 12.5527 25.7598 12.6464 25.8536C12.7402 25.9473 12.8674 26 13 26H19C19.1326 26 19.2598 25.9473 19.3536 25.8536C19.4473 25.7598 19.5 25.6326 19.5 25.5V20.5H12.5V25.5ZM3 21V24C3 24.5304 3.21071 25.0391 3.58579 25.4142C3.96086 25.7893 4.46957 26 5 26H10C10.1326 26 10.2598 25.9473 10.3536 25.8536C10.4473 25.7598 10.5 25.6326 10.5 25.5V20.5H3.5C3.36739 20.5 3.24021 20.5527 3.14645 20.6464C3.05268 20.7402 3 20.8674 3 21ZM3 14V18C3 18.1326 3.05268 18.2598 3.14645 18.3536C3.24021 18.4473 3.36739 18.5 3.5 18.5H10.5V13.5H3.5C3.36739 13.5 3.24021 13.5527 3.14645 13.6464C3.05268 13.7402 3 13.8674 3 14ZM19 6H13C12.8674 6 12.7402 6.05268 12.6464 6.14645C12.5527 6.24021 12.5 6.36739 12.5 6.5V11.5H19.5V6.5C19.5 6.36739 19.4473 6.24021 19.3536 6.14645C19.2598 6.05268 19.1326 6 19 6ZM28.5 13.5H21.5V18.5H28.5C28.6326 18.5 28.7598 18.4473 28.8536 18.3536C28.9473 18.2598 29 18.1326 29 18V14C29 13.8674 28.9473 13.7402 28.8536 13.6464C28.7598 13.5527 28.6326 13.5 28.5 13.5ZM12.5 18.5H19.5V13.5H12.5V18.5ZM27 6H22C21.8674 6 21.7402 6.05268 21.6464 6.14645C21.5527 6.24021 21.5 6.36739 21.5 6.5V11.5H28.5C28.6326 11.5 28.7598 11.4473 28.8536 11.3536C28.9473 11.2598 29 11.1326 29 11V8C29 7.46957 28.7893 6.96086 28.4142 6.58579C28.0391 6.21071 27.5304 6 27 6ZM28.5 20.5H21.5V25.5C21.5 25.6326 21.5527 25.7598 21.6464 25.8536C21.7402 25.9473 21.8674 26 22 26H27C27.5304 26 28.0391 25.7893 28.4142 25.4142C28.7893 25.0391 29 24.5304 29 24V21C29 20.8674 28.9473 20.7402 28.8536 20.6464C28.7598 20.5527 28.6326 20.5 28.5 20.5Z" />
</svg>
