<svg viewBox="0 0 32 32"
    xmlns="http://www.w3.org/2000/svg">
    <path d="M28.7913 17.6326C28.4642 17.3806 28.0894 17.1978 27.6894 17.0953C27.2895 16.9928 26.8729 16.9727 26.465 17.0364C28.8125 14.6664 30 12.3101 30 10.0001C30 6.69137 27.3387 4.00012 24.0675 4.00012C23.1995 3.99467 22.3408 4.17927 21.5518 4.54098C20.7627 4.90268 20.0624 5.43271 19.5 6.09387C18.9376 5.43271 18.2373 4.90268 17.4482 4.54098C16.6592 4.17927 15.8005 3.99467 14.9325 4.00012C11.6613 4.00012 9 6.69137 9 10.0001C9 11.3751 9.405 12.7114 10.2575 14.1251C9.5593 14.302 8.92211 14.6649 8.41375 15.1751L5.58625 18.0001H2C1.46957 18.0001 0.960859 18.2108 0.585786 18.5859C0.210714 18.961 0 19.4697 0 20.0001L0 25.0001C0 25.5306 0.210714 26.0393 0.585786 26.4143C0.960859 26.7894 1.46957 27.0001 2 27.0001H15C15.0818 27.0002 15.1632 26.9901 15.2425 26.9701L23.2425 24.9701C23.2935 24.958 23.3433 24.9412 23.3913 24.9201L28.25 22.8526L28.305 22.8276C28.772 22.5943 29.1718 22.2459 29.4669 21.8153C29.7621 21.3847 29.9427 20.8861 29.9918 20.3664C30.041 19.8467 29.957 19.3231 29.7478 18.8448C29.5387 18.3665 29.2112 17.9493 28.7962 17.6326H28.7913ZM27.4287 21.0264L22.6787 23.0489L14.875 25.0001H7V19.4139L9.82875 16.5864C10.0138 16.3998 10.2341 16.252 10.4768 16.1513C10.7195 16.0507 10.9798 15.9993 11.2425 16.0001H17.5C17.8978 16.0001 18.2794 16.1582 18.5607 16.4395C18.842 16.7208 19 17.1023 19 17.5001C19 17.8979 18.842 18.2795 18.5607 18.5608C18.2794 18.8421 17.8978 19.0001 17.5 19.0001H14C13.7348 19.0001 13.4804 19.1055 13.2929 19.293C13.1054 19.4805 13 19.7349 13 20.0001C13 20.2653 13.1054 20.5197 13.2929 20.7072C13.4804 20.8948 13.7348 21.0001 14 21.0001H18C18.0753 20.9999 18.1503 20.9915 18.2237 20.9751L26.5987 19.0489L26.6375 19.0389C26.8932 18.9679 27.166 18.994 27.4036 19.1121C27.6412 19.2302 27.8267 19.432 27.9245 19.6787C28.0222 19.9254 28.0253 20.1995 27.9331 20.4483C27.8409 20.6971 27.6599 20.903 27.425 21.0264H27.4287Z" />
</svg>
