<svg viewBox="0 0 32 32"
    xmlns="http://www.w3.org/2000/svg">
    <path d="M29.5 14V26C29.5 26.3978 29.342 26.7794 29.0607 27.0607C28.7794 27.342 28.3978 27.5 28 27.5C27.6022 27.5 27.2206 27.342 26.9393 27.0607C26.658 26.7794 26.5 26.3978 26.5 26V16.8025L25.8325 17.25C25.6683 17.3593 25.4843 17.4352 25.2908 17.4734C25.0973 17.5116 24.8982 17.5113 24.7048 17.4725C24.5114 17.4338 24.3276 17.3573 24.1637 17.2475C23.9999 17.1377 23.8593 16.9967 23.75 16.8325C23.6407 16.6683 23.5648 16.4843 23.5266 16.2908C23.4884 16.0973 23.4887 15.8982 23.5275 15.7048C23.5662 15.5114 23.6427 15.3276 23.7525 15.1637C23.8623 14.9999 24.0033 14.8593 24.1675 14.75L27.1675 12.75C27.3935 12.5992 27.6563 12.5126 27.9277 12.4995C28.1991 12.4864 28.469 12.5473 28.7085 12.6757C28.948 12.804 29.1482 12.995 29.2876 13.2283C29.427 13.4615 29.5004 13.7283 29.5 14ZM18 5.5C17.6022 5.5 17.2206 5.65804 16.9393 5.93934C16.658 6.22064 16.5 6.60218 16.5 7V13H6.5V7C6.5 6.60218 6.34196 6.22064 6.06066 5.93934C5.77936 5.65804 5.39782 5.5 5 5.5C4.60218 5.5 4.22064 5.65804 3.93934 5.93934C3.65804 6.22064 3.5 6.60218 3.5 7V22C3.5 22.3978 3.65804 22.7794 3.93934 23.0607C4.22064 23.342 4.60218 23.5 5 23.5C5.39782 23.5 5.77936 23.342 6.06066 23.0607C6.34196 22.7794 6.5 22.3978 6.5 22V16H16.5V22C16.5 22.3978 16.658 22.7794 16.9393 23.0607C17.2206 23.342 17.6022 23.5 18 23.5C18.3978 23.5 18.7794 23.342 19.0607 23.0607C19.342 22.7794 19.5 22.3978 19.5 22V7C19.5 6.60218 19.342 6.22064 19.0607 5.93934C18.7794 5.65804 18.3978 5.5 18 5.5Z" />
</svg>
