<svg viewBox="0 0 32 32"
    xmlns="http://www.w3.org/2000/svg">
    <path d="M27.1325 17.5413L28.7875 14.7688C28.8943 14.5995 28.9661 14.4107 28.9988 14.2132C29.0315 14.0158 29.0243 13.8139 28.9778 13.6193C28.9312 13.4247 28.8462 13.2414 28.7278 13.0801C28.6093 12.9189 28.4597 12.7829 28.2879 12.6804C28.1161 12.5778 27.9256 12.5106 27.7274 12.4828C27.5292 12.455 27.3275 12.4671 27.1341 12.5185C26.9407 12.5698 26.7596 12.6593 26.6013 12.7817C26.443 12.9041 26.3108 13.057 26.2125 13.2312L22.1812 19.9813C22.17 20 22.16 20.02 22.15 20.04C21.6227 20.973 21.4091 22.0507 21.5407 23.1143C21.6724 24.1779 22.1423 25.1711 22.8811 25.9474C23.62 26.7237 24.5887 27.242 25.6445 27.426C26.7003 27.6099 27.7873 27.4498 28.7452 26.9692C29.7031 26.4886 30.4812 25.7129 30.9648 24.7565C31.4484 23.8001 31.612 22.7136 31.4313 21.6573C31.2506 20.6009 30.7353 19.6305 29.9613 18.8892C29.1874 18.148 28.1957 17.675 27.1325 17.54V17.5413ZM26.5 24.5C26.1044 24.5 25.7178 24.3827 25.3889 24.1629C25.06 23.9432 24.8036 23.6308 24.6522 23.2654C24.5009 22.8999 24.4613 22.4978 24.5384 22.1098C24.6156 21.7219 24.8061 21.3655 25.0858 21.0858C25.3655 20.8061 25.7219 20.6156 26.1098 20.5384C26.4978 20.4613 26.8999 20.5009 27.2654 20.6522C27.6308 20.8036 27.9432 21.06 28.1629 21.3889C28.3827 21.7178 28.5 22.1044 28.5 22.5C28.5 23.0304 28.2893 23.5391 27.9142 23.9142C27.5391 24.2893 27.0304 24.5 26.5 24.5ZM19.5 7V22C19.5 22.3978 19.342 22.7794 19.0607 23.0607C18.7794 23.342 18.3978 23.5 18 23.5C17.6022 23.5 17.2206 23.342 16.9393 23.0607C16.658 22.7794 16.5 22.3978 16.5 22V16H6.5V22C6.5 22.3978 6.34196 22.7794 6.06066 23.0607C5.77936 23.342 5.39782 23.5 5 23.5C4.60218 23.5 4.22064 23.342 3.93934 23.0607C3.65804 22.7794 3.5 22.3978 3.5 22V7C3.5 6.60218 3.65804 6.22064 3.93934 5.93934C4.22064 5.65804 4.60218 5.5 5 5.5C5.39782 5.5 5.77936 5.65804 6.06066 5.93934C6.34196 6.22064 6.5 6.60218 6.5 7V13H16.5V7C16.5 6.60218 16.658 6.22064 16.9393 5.93934C17.2206 5.65804 17.6022 5.5 18 5.5C18.3978 5.5 18.7794 5.65804 19.0607 5.93934C19.342 6.22064 19.5 6.60218 19.5 7Z" />
</svg>
