<svg viewBox="0 0 32 32"
    xmlns="http://www.w3.org/2000/svg">
    <path d="M31.5 22.5C31.5001 23.4933 31.2044 24.4641 30.6505 25.2886C30.0967 26.1131 29.3098 26.754 28.3902 27.1295C27.4706 27.505 26.4601 27.5981 25.4874 27.3969C24.5147 27.1958 23.6239 26.7094 22.9287 26C22.7855 25.8605 22.6716 25.6937 22.5938 25.5096C22.5159 25.3254 22.4757 25.1276 22.4754 24.9276C22.4751 24.7277 22.5148 24.5297 22.5922 24.3453C22.6695 24.1609 22.7829 23.9939 22.9257 23.854C23.0686 23.7141 23.2379 23.6041 23.4239 23.5306C23.6098 23.4571 23.8086 23.4215 24.0084 23.4259C24.2083 23.4303 24.4053 23.4746 24.5879 23.5562C24.7704 23.6379 24.9347 23.7552 25.0713 23.9013C25.3022 24.1364 25.5877 24.3109 25.9023 24.4091C26.2169 24.5073 26.5509 24.5263 26.8746 24.4643C27.1984 24.4023 27.5017 24.2612 27.7578 24.0536C28.0138 23.8461 28.2146 23.5784 28.3422 23.2746C28.4699 22.9707 28.5204 22.64 28.4894 22.3118C28.4584 21.9837 28.3468 21.6683 28.1645 21.3937C27.9822 21.1191 27.7348 20.8939 27.4444 20.7379C27.154 20.582 26.8296 20.5003 26.5 20.5C26.2256 20.5 25.9566 20.4247 25.722 20.2823C25.4875 20.14 25.2965 19.9361 25.1698 19.6927C25.0431 19.4494 24.9855 19.1759 25.0034 18.9022C25.0213 18.6284 25.114 18.3648 25.2712 18.14L27.125 15.5H24C23.6022 15.5 23.2206 15.342 22.9393 15.0607C22.658 14.7794 22.5 14.3978 22.5 14C22.5 13.6022 22.658 13.2206 22.9393 12.9393C23.2206 12.658 23.6022 12.5 24 12.5H30C30.2744 12.5 30.5434 12.5753 30.778 12.7177C31.0125 12.86 31.2035 13.0639 31.3302 13.3073C31.4569 13.5506 31.5145 13.8241 31.4966 14.0978C31.4787 14.3716 31.386 14.6352 31.2288 14.86L28.9363 18.135C29.7134 18.5686 30.3607 19.2017 30.8114 19.9691C31.262 20.7364 31.4998 21.6101 31.5 22.5ZM18 5.5C17.6022 5.5 17.2206 5.65804 16.9393 5.93934C16.658 6.22064 16.5 6.60218 16.5 7V13H6.5V7C6.5 6.60218 6.34196 6.22064 6.06066 5.93934C5.77936 5.65804 5.39782 5.5 5 5.5C4.60218 5.5 4.22064 5.65804 3.93934 5.93934C3.65804 6.22064 3.5 6.60218 3.5 7V22C3.5 22.3978 3.65804 22.7794 3.93934 23.0607C4.22064 23.342 4.60218 23.5 5 23.5C5.39782 23.5 5.77936 23.342 6.06066 23.0607C6.34196 22.7794 6.5 22.3978 6.5 22V16H16.5V22C16.5 22.3978 16.658 22.7794 16.9393 23.0607C17.2206 23.342 17.6022 23.5 18 23.5C18.3978 23.5 18.7794 23.342 19.0607 23.0607C19.342 22.7794 19.5 22.3978 19.5 22V7C19.5 6.60218 19.342 6.22064 19.0607 5.93934C18.7794 5.65804 18.3978 5.5 18 5.5Z" />
</svg>
