<svg viewBox="0 0 32 32"
    xmlns="http://www.w3.org/2000/svg">
    <path d="M29 17.0001V24.0001C29 24.7957 28.6839 25.5588 28.1213 26.1214C27.5587 26.684 26.7956 27.0001 26 27.0001H24C23.2044 27.0001 22.4413 26.684 21.8787 26.1214C21.3161 25.5588 21 24.7957 21 24.0001V19.0001C21 18.2044 21.3161 17.4414 21.8787 16.8788C22.4413 16.3161 23.2044 16.0001 24 16.0001H26.9562C26.716 13.2777 25.4677 10.7432 23.456 8.89332C21.4443 7.04345 18.8142 6.01162 16.0812 6.00008H16C13.2556 5.99994 10.6103 7.02566 8.58346 8.87585C6.55656 10.726 5.29449 13.2671 5.045 16.0001H8C8.79565 16.0001 9.55871 16.3161 10.1213 16.8788C10.6839 17.4414 11 18.2044 11 19.0001V24.0001C11 24.7957 10.6839 25.5588 10.1213 26.1214C9.55871 26.684 8.79565 27.0001 8 27.0001H6C5.20435 27.0001 4.44129 26.684 3.87868 26.1214C3.31607 25.5588 3 24.7957 3 24.0001V17.0001C3.0028 14.4249 3.76953 11.9085 5.20313 9.76936C6.63673 7.63018 8.67275 5.96441 11.0535 4.98289C13.4342 4.00136 16.0526 3.74822 18.5773 4.25549C21.102 4.76276 23.4194 6.00765 25.2362 7.83258C26.4358 9.03796 27.3857 10.4682 28.0316 12.0413C28.6774 13.6144 29.0065 15.2995 29 17.0001Z" />
</svg>
