<svg viewBox="0 0 32 32"
    xmlns="http://www.w3.org/2000/svg">
    <path d="M27 5H5C4.46957 5 3.96086 5.21071 3.58579 5.58579C3.21071 5.96086 3 6.46957 3 7V25C3 25.5304 3.21071 26.0391 3.58579 26.4142C3.96086 26.7893 4.46957 27 5 27H27C27.5304 27 28.0391 26.7893 28.4142 26.4142C28.7893 26.0391 29 25.5304 29 25V7C29 6.46957 28.7893 5.96086 28.4142 5.58579C28.0391 5.21071 27.5304 5 27 5ZM19.5 11C19.7967 11 20.0867 11.088 20.3334 11.2528C20.58 11.4176 20.7723 11.6519 20.8858 11.926C20.9993 12.2001 21.0291 12.5017 20.9712 12.7926C20.9133 13.0836 20.7704 13.3509 20.5607 13.5607C20.3509 13.7704 20.0836 13.9133 19.7926 13.9712C19.5017 14.0291 19.2001 13.9994 18.926 13.8858C18.6519 13.7723 18.4176 13.58 18.2528 13.3334C18.088 13.0867 18 12.7967 18 12.5C18 12.1022 18.158 11.7206 18.4393 11.4393C18.7206 11.158 19.1022 11 19.5 11ZM5 25V21.5L11.5 15L21.5 25H5ZM27 25H24.3288L19.8288 20.5L22.3288 18L27 22.6725V25Z" />
</svg>
