<svg viewBox="0 0 32 32"
    xmlns="http://www.w3.org/2000/svg">
    <path d="M28.5 15.9999C28.5 16.3978 28.342 16.7793 28.0607 17.0606C27.7794 17.3419 27.3978 17.4999 27 17.4999H15C14.6022 17.4999 14.2207 17.3419 13.9393 17.0606C13.658 16.7793 13.5 16.3978 13.5 15.9999C13.5 15.6021 13.658 15.2206 13.9393 14.9393C14.2207 14.658 14.6022 14.4999 15 14.4999H27C27.3978 14.4999 27.7794 14.658 28.0607 14.9393C28.342 15.2206 28.5 15.6021 28.5 15.9999ZM15 9.49995H27C27.3978 9.49995 27.7794 9.34191 28.0607 9.06061C28.342 8.7793 28.5 8.39777 28.5 7.99995C28.5 7.60212 28.342 7.22059 28.0607 6.93929C27.7794 6.65798 27.3978 6.49995 27 6.49995H15C14.6022 6.49995 14.2207 6.65798 13.9393 6.93929C13.658 7.22059 13.5 7.60212 13.5 7.99995C13.5 8.39777 13.658 8.7793 13.9393 9.06061C14.2207 9.34191 14.6022 9.49995 15 9.49995ZM27 22.4999H5.00001C4.60218 22.4999 4.22065 22.658 3.93935 22.9393C3.65804 23.2206 3.50001 23.6021 3.50001 23.9999C3.50001 24.3978 3.65804 24.7793 3.93935 25.0606C4.22065 25.3419 4.60218 25.4999 5.00001 25.4999H27C27.3978 25.4999 27.7794 25.3419 28.0607 25.0606C28.342 24.7793 28.5 24.3978 28.5 23.9999C28.5 23.6021 28.342 23.2206 28.0607 22.9393C27.7794 22.658 27.3978 22.4999 27 22.4999ZM3.93876 18.0612C4.07811 18.201 4.2437 18.312 4.42603 18.3877C4.60836 18.4634 4.80384 18.5024 5.00126 18.5024C5.19868 18.5024 5.39416 18.4634 5.57649 18.3877C5.75881 18.312 5.9244 18.201 6.06376 18.0612L11.0638 13.0612C11.2036 12.9218 11.3146 12.7563 11.3903 12.5739C11.466 12.3916 11.5049 12.1961 11.5049 11.9987C11.5049 11.8013 11.466 11.6058 11.3903 11.4235C11.3146 11.2411 11.2036 11.0756 11.0638 10.9362L6.06376 5.9362C5.92423 5.79667 5.75858 5.68599 5.57628 5.61047C5.39398 5.53496 5.19858 5.49609 5.00126 5.49609C4.80393 5.49609 4.60854 5.53496 4.42624 5.61047C4.24393 5.68599 4.07829 5.79667 3.93876 5.9362C3.65697 6.21799 3.49866 6.60018 3.49866 6.9987C3.49866 7.39721 3.65697 7.7794 3.93876 8.0612L7.87501 11.9999L3.93876 15.9387C3.79929 16.078 3.68866 16.2434 3.61317 16.4255C3.53768 16.6076 3.49883 16.8028 3.49883 16.9999C3.49883 17.1971 3.53768 17.3923 3.61317 17.5744C3.68866 17.7565 3.79929 17.9219 3.93876 18.0612Z" />
</svg>
