<svg viewBox="0 0 32 32"
    xmlns="http://www.w3.org/2000/svg">
    <path d="M28.5 16C28.5 16.3978 28.342 16.7793 28.0606 17.0606C27.7793 17.3419 27.3978 17.5 27 17.5H15C14.6022 17.5 14.2206 17.3419 13.9393 17.0606C13.658 16.7793 13.5 16.3978 13.5 16C13.5 15.6022 13.658 15.2206 13.9393 14.9393C14.2206 14.658 14.6022 14.5 15 14.5H27C27.3978 14.5 27.7793 14.658 28.0606 14.9393C28.342 15.2206 28.5 15.6022 28.5 16ZM15 9.49997H27C27.3978 9.49997 27.7793 9.34194 28.0606 9.06064C28.342 8.77933 28.5 8.3978 28.5 7.99997C28.5 7.60215 28.342 7.22062 28.0606 6.93931C27.7793 6.65801 27.3978 6.49997 27 6.49997H15C14.6022 6.49997 14.2206 6.65801 13.9393 6.93931C13.658 7.22062 13.5 7.60215 13.5 7.99997C13.5 8.3978 13.658 8.77933 13.9393 9.06064C14.2206 9.34194 14.6022 9.49997 15 9.49997ZM27 22.5H4.99999C4.60216 22.5 4.22063 22.658 3.93933 22.9393C3.65802 23.2206 3.49999 23.6021 3.49999 24C3.49999 24.3978 3.65802 24.7793 3.93933 25.0606C4.22063 25.3419 4.60216 25.5 4.99999 25.5H27C27.3978 25.5 27.7793 25.3419 28.0606 25.0606C28.342 24.7793 28.5 24.3978 28.5 24C28.5 23.6021 28.342 23.2206 28.0606 22.9393C27.7793 22.658 27.3978 22.5 27 22.5ZM8.99999 18.5C9.29683 18.5002 9.58707 18.4124 9.83396 18.2476C10.0809 18.0828 10.2733 17.8484 10.3869 17.5742C10.5006 17.2999 10.5303 16.9981 10.4723 16.707C10.4143 16.4159 10.2713 16.1485 10.0612 15.9387L6.12499 12L10.0612 8.05998C10.2008 7.92045 10.3114 7.7548 10.387 7.5725C10.4625 7.39019 10.5013 7.1948 10.5013 6.99747C10.5013 6.80015 10.4625 6.60476 10.387 6.42245C10.3114 6.24015 10.2008 6.0745 10.0612 5.93497C9.92171 5.79545 9.75606 5.68476 9.57376 5.60925C9.39146 5.53374 9.19606 5.49487 8.99874 5.49487C8.80141 5.49487 8.60602 5.53374 8.42372 5.60925C8.24141 5.68476 8.07577 5.79545 7.93624 5.93497L2.93624 10.935C2.7964 11.0743 2.68544 11.2399 2.60974 11.4222C2.53403 11.6046 2.49506 11.8001 2.49506 11.9975C2.49506 12.1949 2.53403 12.3904 2.60974 12.5727C2.68544 12.755 2.7964 12.9206 2.93624 13.06L7.93624 18.06C8.07584 18.1997 8.24168 18.3106 8.42423 18.3861C8.60677 18.4616 8.80244 18.5003 8.99999 18.5Z" />
</svg>
