<svg viewBox="0 0 32 32"
    xmlns="http://www.w3.org/2000/svg">
    <path d="M25.5 7C25.5 7.39782 25.342 7.77936 25.0607 8.06066C24.7794 8.34196 24.3978 8.5 24 8.5H20.0812L15.0813 23.5H18C18.3978 23.5 18.7794 23.658 19.0607 23.9393C19.342 24.2206 19.5 24.6022 19.5 25C19.5 25.3978 19.342 25.7794 19.0607 26.0607C18.7794 26.342 18.3978 26.5 18 26.5H8C7.60218 26.5 7.22064 26.342 6.93934 26.0607C6.65804 25.7794 6.5 25.3978 6.5 25C6.5 24.6022 6.65804 24.2206 6.93934 23.9393C7.22064 23.658 7.60218 23.5 8 23.5H11.9187L16.9188 8.5H14C13.6022 8.5 13.2206 8.34196 12.9393 8.06066C12.658 7.77936 12.5 7.39782 12.5 7C12.5 6.60218 12.658 6.22064 12.9393 5.93934C13.2206 5.65804 13.6022 5.5 14 5.5H24C24.3978 5.5 24.7794 5.65804 25.0607 5.93934C25.342 6.22064 25.5 6.60218 25.5 7Z" />
</svg>
