<svg viewBox="0 0 32 32"
    xmlns="http://www.w3.org/2000/svg">
    <path d="M20 2C18.4216 2.00142 16.866 2.3761 15.4601 3.09345C14.0541 3.8108 12.8378 4.85049 11.9104 6.12763C10.9829 7.40476 10.3707 8.88314 10.1236 10.442C9.87654 12.0009 10.0017 13.5962 10.4888 15.0975L3.2925 22.2925C3.19967 22.3854 3.12605 22.4958 3.07586 22.6171C3.02568 22.7385 2.9999 22.8686 3 23V28C3 28.2652 3.10536 28.5196 3.29289 28.7071C3.48043 28.8946 3.73478 29 4 29H9C9.26522 29 9.51957 28.8946 9.70711 28.7071C9.89464 28.5196 10 28.2652 10 28V26H12C12.2652 26 12.5196 25.8946 12.7071 25.7071C12.8946 25.5196 13 25.2652 13 25V23H15C15.1314 23.0001 15.2615 22.9743 15.3828 22.9241C15.5042 22.8739 15.6146 22.8003 15.7075 22.7075L16.9025 21.5112C18.2769 21.9575 19.7317 22.1005 21.1667 21.9306C22.6017 21.7606 23.9828 21.2817 25.2149 20.5268C26.4471 19.7718 27.501 18.7588 28.304 17.5575C29.1071 16.3562 29.6403 14.9951 29.8669 13.5679C30.0934 12.1408 30.008 10.6814 29.6165 9.29047C29.2249 7.8995 28.5366 6.6099 27.5988 5.51048C26.6611 4.41106 25.4962 3.52794 24.1844 2.92191C22.8726 2.31589 21.445 2.00137 20 2ZM22.5 11.5C22.1044 11.5 21.7178 11.3827 21.3889 11.1629C21.06 10.9432 20.8036 10.6308 20.6522 10.2654C20.5009 9.89991 20.4613 9.49778 20.5384 9.10982C20.6156 8.72186 20.8061 8.36549 21.0858 8.08579C21.3655 7.80608 21.7219 7.6156 22.1098 7.53843C22.4978 7.46126 22.8999 7.50087 23.2654 7.65224C23.6308 7.80362 23.9432 8.05996 24.1629 8.38886C24.3827 8.71776 24.5 9.10444 24.5 9.5C24.5 10.0304 24.2893 10.5391 23.9142 10.9142C23.5391 11.2893 23.0304 11.5 22.5 11.5Z" />
</svg>
