<svg viewBox="0 0 32 32"
    xmlns="http://www.w3.org/2000/svg">
    <path d="M17.5 4V8C17.5 8.39782 17.342 8.77936 17.0607 9.06066C16.7794 9.34196 16.3978 9.5 16 9.5C15.6022 9.5 15.2206 9.34196 14.9393 9.06066C14.658 8.77936 14.5 8.39782 14.5 8V4C14.5 3.60218 14.658 3.22064 14.9393 2.93934C15.2206 2.65804 15.6022 2.5 16 2.5C16.3978 2.5 16.7794 2.65804 17.0607 2.93934C17.342 3.22064 17.5 3.60218 17.5 4ZM21.6562 11.8438C21.8534 11.8437 22.0486 11.8049 22.2307 11.7294C22.4128 11.6539 22.5782 11.5432 22.7175 11.4038L25.5462 8.575C25.828 8.29321 25.9864 7.91101 25.9864 7.5125C25.9864 7.11399 25.828 6.73179 25.5462 6.45C25.2645 6.16821 24.8823 6.0099 24.4837 6.0099C24.0852 6.0099 23.703 6.16821 23.4212 6.45L20.5963 9.2825C20.3863 9.49221 20.2433 9.75947 20.1853 10.0505C20.1273 10.3415 20.1569 10.6432 20.2703 10.9174C20.3838 11.1915 20.576 11.4259 20.8227 11.5908C21.0694 11.7557 21.3595 11.8437 21.6562 11.8438ZM28 14.5H24C23.6022 14.5 23.2206 14.658 22.9393 14.9393C22.658 15.2206 22.5 15.6022 22.5 16C22.5 16.3978 22.658 16.7794 22.9393 17.0607C23.2206 17.342 23.6022 17.5 24 17.5H28C28.3978 17.5 28.7794 17.342 29.0607 17.0607C29.342 16.7794 29.5 16.3978 29.5 16C29.5 15.6022 29.342 15.2206 29.0607 14.9393C28.7794 14.658 28.3978 14.5 28 14.5ZM22.7175 20.5963C22.578 20.4567 22.4123 20.346 22.23 20.2705C22.0477 20.195 21.8523 20.1561 21.655 20.1561C21.4577 20.1561 21.2623 20.195 21.08 20.2705C20.8977 20.346 20.732 20.4567 20.5925 20.5963C20.453 20.7358 20.3423 20.9014 20.2668 21.0837C20.1913 21.266 20.1524 21.4614 20.1524 21.6588C20.1524 21.8561 20.1913 22.0515 20.2668 22.2338C20.3423 22.4161 20.453 22.5817 20.5925 22.7213L23.4212 25.55C23.703 25.8318 24.0852 25.9901 24.4837 25.9901C24.8823 25.9901 25.2645 25.8318 25.5462 25.55C25.828 25.2682 25.9864 24.886 25.9864 24.4875C25.9864 24.089 25.828 23.7068 25.5462 23.425L22.7175 20.5963ZM16 22.5C15.6022 22.5 15.2206 22.658 14.9393 22.9393C14.658 23.2206 14.5 23.6022 14.5 24V28C14.5 28.3978 14.658 28.7794 14.9393 29.0607C15.2206 29.342 15.6022 29.5 16 29.5C16.3978 29.5 16.7794 29.342 17.0607 29.0607C17.342 28.7794 17.5 28.3978 17.5 28V24C17.5 23.6022 17.342 23.2206 17.0607 22.9393C16.7794 22.658 16.3978 22.5 16 22.5ZM9.2825 20.5963L6.45375 23.425C6.17196 23.7068 6.01365 24.089 6.01365 24.4875C6.01365 24.886 6.17196 25.2682 6.45375 25.55C6.73554 25.8318 7.11774 25.9901 7.51625 25.9901C7.91476 25.9901 8.29696 25.8318 8.57875 25.55L11.4075 22.7213C11.6893 22.4395 11.8476 22.0573 11.8476 21.6588C11.8476 21.2602 11.6893 20.878 11.4075 20.5963C11.1257 20.3145 10.7435 20.1561 10.345 20.1561C9.94649 20.1561 9.56429 20.3145 9.2825 20.5963ZM9.5 16C9.5 15.6022 9.34196 15.2206 9.06066 14.9393C8.77936 14.658 8.39782 14.5 8 14.5H4C3.60218 14.5 3.22064 14.658 2.93934 14.9393C2.65804 15.2206 2.5 15.6022 2.5 16C2.5 16.3978 2.65804 16.7794 2.93934 17.0607C3.22064 17.342 3.60218 17.5 4 17.5H8C8.39782 17.5 8.77936 17.342 9.06066 17.0607C9.34196 16.7794 9.5 16.3978 9.5 16ZM8.575 6.45375C8.29321 6.17196 7.91101 6.01365 7.5125 6.01365C7.11399 6.01365 6.73179 6.17196 6.45 6.45375C6.16821 6.73554 6.0099 7.11774 6.0099 7.51625C6.0099 7.91476 6.16821 8.29696 6.45 8.57875L9.2825 11.4038C9.56429 11.6855 9.94649 11.8439 10.345 11.8439C10.7435 11.8439 11.1257 11.6855 11.4075 11.4038C11.6893 11.122 11.8476 10.7398 11.8476 10.3413C11.8476 9.94274 11.6893 9.56054 11.4075 9.27875L8.575 6.45375Z" />
</svg>
