<svg viewBox="0 0 32 32"
    xmlns="http://www.w3.org/2000/svg">
    <path fill-rule="evenodd" clip-rule="evenodd" d="M14.7996 8.25357C14.9296 7.85927 15 7.43785 15 7C15 4.79086 13.2091 3 11 3C8.79086 3 7 4.79086 7 7C7 9.20914 8.79086 11 11 11C12.0491 11 13.0038 10.5961 13.7173 9.93539L21.2005 14.746C21.173 14.8295 21.1481 14.9142 21.126 15H10.874C10.4299 13.2748 8.86384 12 7 12C4.79086 12 3 13.7909 3 16C3 18.2091 4.79086 20 7 20C8.86384 20 10.4299 18.7252 10.874 17H21.126C21.1481 17.0858 21.1729 17.1704 21.2005 17.2538L13.7172 22.0645C13.0038 21.4038 12.049 21 11 21C8.79086 21 7 22.7909 7 25C7 27.2091 8.79086 29 11 29C13.2091 29 15 27.2091 15 25C15 24.5621 14.9296 24.1406 14.7996 23.7463L22.2829 18.9356C22.9963 19.5962 23.951 20 25 20C27.2091 20 29 18.2091 29 16C29 13.7909 27.2091 12 25 12C23.9511 12 22.9964 12.4038 22.283 13.0643L14.7996 8.25357ZM11 9C12.1046 9 13 8.10457 13 7C13 5.89543 12.1046 5 11 5C9.89543 5 9 5.89543 9 7C9 8.10457 9.89543 9 11 9ZM11 27C12.1046 27 13 26.1046 13 25C13 23.8954 12.1046 23 11 23C9.89543 23 9 23.8954 9 25C9 26.1046 9.89543 27 11 27ZM9 16C9 17.1046 8.10457 18 7 18C5.89543 18 5 17.1046 5 16C5 14.8954 5.89543 14 7 14C8.10457 14 9 14.8954 9 16ZM25 18C26.1046 18 27 17.1046 27 16C27 14.8954 26.1046 14 25 14C23.8954 14 23 14.8954 23 16C23 17.1046 23.8954 18 25 18Z" />
</svg>
