<svg viewBox="0 0 32 32"
    xmlns="http://www.w3.org/2000/svg">
    <path fill-rule="evenodd" clip-rule="evenodd" d="M11 7C11 7.2874 10.9697 7.56772 10.9121 7.83793L15.9999 10.3818L21.0879 7.83784C21.0303 7.56765 21 7.28737 21 7C21 4.79086 22.7909 3 25 3C27.2091 3 29 4.79086 29 7C29 9.20914 27.2091 11 25 11C23.796 11 22.7163 10.4681 21.983 9.62638L18.236 11.4999L21.9831 13.3734C22.7164 12.5319 23.7961 12 25 12C27.2091 12 29 13.7909 29 16C29 18.2091 27.2091 20 25 20C23.7961 20 22.7164 19.4681 21.9831 18.6265L18.236 20.5L21.983 22.3735C22.7163 21.5319 23.7961 21 25 21C27.2091 21 29 22.7909 29 25C29 27.2091 27.2091 29 25 29C22.7909 29 21 27.2091 21 25C21 24.7126 21.0303 24.4323 21.0879 24.162L16 21.6181L10.9121 24.162C10.9697 24.4322 11 24.7126 11 25C11 27.2091 9.20914 29 7 29C4.79086 29 3 27.2091 3 25C3 22.7909 4.79086 21 7 21C8.20393 21 9.28363 21.5319 10.0169 22.3735L13.7639 20.5L10.0169 18.6265C9.28361 19.4681 8.20392 20 7 20C4.79086 20 3 18.2091 3 16C3 13.7909 4.79086 12 7 12C8.20387 12 9.28353 12.5318 10.0168 13.3734L13.7638 11.4999L10.017 9.62645C9.28368 10.4681 8.20396 11 7 11C4.79086 11 3 9.20914 3 7C3 4.79086 4.79086 3 7 3C9.20914 3 11 4.79086 11 7ZM9 7C9 8.10457 8.10457 9 7 9C5.89543 9 5 8.10457 5 7C5 5.89543 5.89543 5 7 5C8.10457 5 9 5.89543 9 7ZM11.2357 15H20.7641L15.9999 12.6179L11.2357 15ZM9 25C9 26.1046 8.10457 27 7 27C5.89543 27 5 26.1046 5 25C5 23.8954 5.89543 23 7 23C8.10457 23 9 23.8954 9 25ZM7 18C8.10457 18 9 17.1046 9 16C9 14.8954 8.10457 14 7 14C5.89543 14 5 14.8954 5 16C5 17.1046 5.89543 18 7 18ZM27 7C27 8.10457 26.1046 9 25 9C23.8954 9 23 8.10457 23 7C23 5.89543 23.8954 5 25 5C26.1046 5 27 5.89543 27 7ZM25 27C26.1046 27 27 26.1046 27 25C27 23.8954 26.1046 23 25 23C23.8954 23 23 23.8954 23 25C23 26.1046 23.8954 27 25 27ZM27 16C27 17.1046 26.1046 18 25 18C23.8954 18 23 17.1046 23 16C23 14.8954 23.8954 14 25 14C26.1046 14 27 14.8954 27 16ZM16 19.382L20.7639 17H11.236L16 19.382Z" />
</svg>
