<svg viewBox="0 0 32 32"
    xmlns="http://www.w3.org/2000/svg">
    <path fill-rule="evenodd" clip-rule="evenodd" d="M18.8421 3.22673C18.3037 3.10378 17.7675 3.4406 17.6446 3.97902C17.5216 4.51745 17.8584 5.0536 18.3969 5.17654L20.1442 5.57554L9.59898 12.9594C8.89991 12.3613 7.99214 12.0001 7 12.0001C4.79086 12.0001 3 13.791 3 16.0001C3 18.2092 4.79086 20.0001 7 20.0001C7.99213 20.0001 8.89989 19.6389 9.59897 19.0408L20.1445 26.4249L18.3971 26.8239C17.8587 26.9468 17.5219 27.483 17.6448 28.0214C17.7678 28.5598 18.3039 28.8966 18.8424 28.7737L22.7865 27.8731C23.2873 27.7587 23.62 27.2836 23.5561 26.7739L23.0535 22.7596C22.9848 22.2116 22.485 21.823 21.937 21.8916C21.389 21.9602 21.0003 22.4601 21.069 23.0081L21.2917 24.7866L10.747 17.4031C10.7962 17.2719 10.8387 17.1374 10.874 17H25.5858L24.2929 18.2929C23.9023 18.6834 23.9023 19.3166 24.2929 19.7071C24.6834 20.0976 25.3165 20.0976 25.7071 19.7071L28.7071 16.7071C29.0976 16.3166 29.0976 15.6834 28.7071 15.2929L25.7071 12.2929C25.3165 11.9024 24.6834 11.9024 24.2929 12.2929C23.9023 12.6834 23.9023 13.3166 24.2929 13.7071L25.5858 15H10.874C10.8386 14.8627 10.7962 14.7283 10.747 14.5971L21.2914 7.21384L21.0687 8.9923C21.0001 9.5403 21.3887 10.0402 21.9367 10.1088C22.4847 10.1774 22.9846 9.78881 23.0532 9.2408L23.5559 5.22649C23.6197 4.71682 23.287 4.24168 22.7862 4.12733L18.8421 3.22673ZM9 16.0001C9 17.1047 8.10457 18.0001 7 18.0001C5.89543 18.0001 5 17.1047 5 16.0001C5 14.8955 5.89543 14.0001 7 14.0001C8.10457 14.0001 9 14.8955 9 16.0001Z" />
</svg>
