<svg viewBox="0 0 32 32"
    xmlns="http://www.w3.org/2000/svg">
    <g >
        <path d="M26 5H6C4.34315 5 3 6.34315 3 8V22C3 23.6569 4.34315 25 6 25H26C27.6569 25 29 23.6569 29 22V8C29 6.34315 27.6569 5 26 5Z" />
        <path d="M20 27H12C11.7348 27 11.4804 27.1054 11.2929 27.2929C11.1054 27.4804 11 27.7348 11 28C11 28.2652 11.1054 28.5196 11.2929 28.7071C11.4804 28.8946 11.7348 29 12 29H20C20.2652 29 20.5196 28.8946 20.7071 28.7071C20.8946 28.5196 21 28.2652 21 28C21 27.7348 20.8946 27.4804 20.7071 27.2929C20.5196 27.1054 20.2652 27 20 27Z" />
    </g>
</svg>
