<svg viewBox="0 0 32 32"
    xmlns="http://www.w3.org/2000/svg">
    <path d="M10.9388 8.0613C10.7989 7.92194 10.688 7.75636 10.6123 7.57403C10.5366 7.3917 10.4976 7.19622 10.4976 6.9988C10.4976 6.80138 10.5366 6.6059 10.6123 6.42357C10.688 6.24124 10.7989 6.07566 10.9388 5.9363L14.9388 1.9363C15.0781 1.79646 15.2437 1.6855 15.426 1.6098C15.6084 1.53409 15.8039 1.49512 16.0013 1.49512C16.1987 1.49512 16.3942 1.53409 16.5765 1.6098C16.7588 1.6855 16.9244 1.79646 17.0638 1.9363L21.0638 5.9363C21.3456 6.21809 21.5039 6.60029 21.5039 6.9988C21.5039 7.39732 21.3456 7.77951 21.0638 8.0613C20.782 8.34309 20.3998 8.5014 20.0013 8.5014C19.6028 8.5014 19.2206 8.34309 18.9388 8.0613L17.5 6.62505V12C17.5 12.3979 17.342 12.7794 17.0607 13.0607C16.7794 13.342 16.3978 13.5 16 13.5C15.6022 13.5 15.2207 13.342 14.9394 13.0607C14.6581 12.7794 14.5 12.3979 14.5 12V6.62505L13.0613 8.0613C12.922 8.20076 12.7565 8.3114 12.5744 8.38689C12.3923 8.46238 12.1971 8.50123 12 8.50123C11.8029 8.50123 11.6077 8.46238 11.4256 8.38689C11.2435 8.3114 11.0781 8.20076 10.9388 8.0613ZM18.9388 23.9363L17.5 25.375V20C17.5 19.6022 17.342 19.2207 17.0607 18.9394C16.7794 18.6581 16.3978 18.5 16 18.5C15.6022 18.5 15.2207 18.6581 14.9394 18.9394C14.6581 19.2207 14.5 19.6022 14.5 20V25.375L13.0613 23.935C12.9217 23.7955 12.7561 23.6848 12.5738 23.6093C12.3915 23.5338 12.1961 23.4949 11.9988 23.4949C11.8014 23.4949 11.6061 23.5338 11.4238 23.6093C11.2414 23.6848 11.0758 23.7955 10.9363 23.935C10.7967 24.0746 10.6861 24.2402 10.6105 24.4225C10.535 24.6048 10.4962 24.8002 10.4962 24.9975C10.4962 25.1949 10.535 25.3903 10.6105 25.5726C10.6861 25.7549 10.7967 25.9205 10.9363 26.06L14.9363 30.06C15.0756 30.1999 15.2412 30.3108 15.4235 30.3866C15.6059 30.4623 15.8014 30.5012 15.9988 30.5012C16.1962 30.5012 16.3917 30.4623 16.574 30.3866C16.7563 30.3108 16.9219 30.1999 17.0613 30.06L21.0613 26.06C21.3431 25.7783 21.5014 25.3961 21.5014 24.9975C21.5014 24.599 21.3431 24.2168 21.0613 23.935C20.7795 23.6533 20.3973 23.4949 19.9988 23.4949C19.6003 23.4949 19.2181 23.6533 18.9363 23.935L18.9388 23.9363ZM30.0638 14.9363L26.0638 10.9363C25.782 10.6545 25.3998 10.4962 25.0013 10.4962C24.6028 10.4962 24.2206 10.6545 23.9388 10.9363C23.657 11.2181 23.4987 11.6003 23.4987 11.9988C23.4987 12.3973 23.657 12.7795 23.9388 13.0613L25.375 14.5H20C19.6022 14.5 19.2207 14.6581 18.9394 14.9394C18.6581 15.2207 18.5 15.6022 18.5 16C18.5 16.3979 18.6581 16.7794 18.9394 17.0607C19.2207 17.342 19.6022 17.5 20 17.5H25.375L23.935 18.9388C23.6532 19.2206 23.4949 19.6028 23.4949 20.0013C23.4949 20.3998 23.6532 20.782 23.935 21.0638C24.2168 21.3456 24.599 21.5039 24.9975 21.5039C25.396 21.5039 25.7782 21.3456 26.06 21.0638L30.06 17.0638C30.1999 16.9245 30.311 16.759 30.3868 16.5767C30.4626 16.3944 30.5017 16.199 30.5018 16.0016C30.5019 15.8041 30.4631 15.6086 30.3875 15.4263C30.3119 15.2439 30.201 15.0782 30.0613 14.9388L30.0638 14.9363ZM6.62502 17.5H12C12.3978 17.5 12.7794 17.342 13.0607 17.0607C13.342 16.7794 13.5 16.3979 13.5 16C13.5 15.6022 13.342 15.2207 13.0607 14.9394C12.7794 14.6581 12.3978 14.5 12 14.5H6.62502L8.06502 13.0613C8.34682 12.7795 8.50513 12.3973 8.50513 11.9988C8.50513 11.6003 8.34682 11.2181 8.06502 10.9363C7.78323 10.6545 7.40104 10.4962 7.00252 10.4962C6.60401 10.4962 6.22182 10.6545 5.94002 10.9363L1.94002 14.9363C1.80018 15.0757 1.68923 15.2412 1.61352 15.4236C1.53781 15.6059 1.49884 15.8014 1.49884 15.9988C1.49884 16.1962 1.53781 16.3917 1.61352 16.574C1.68923 16.7564 1.80018 16.9219 1.94002 17.0613L5.94002 21.0613C6.07955 21.2008 6.2452 21.3115 6.4275 21.387C6.60981 21.4625 6.8052 21.5014 7.00252 21.5014C7.19985 21.5014 7.39524 21.4625 7.57754 21.387C7.75985 21.3115 7.92549 21.2008 8.06502 21.0613C8.20455 20.9218 8.31523 20.7561 8.39075 20.5738C8.46626 20.3915 8.50513 20.1961 8.50513 19.9988C8.50513 19.8015 8.46626 19.6061 8.39075 19.4238C8.31523 19.2415 8.20455 19.0758 8.06502 18.9363L6.62502 17.5Z" />
</svg>
