<svg viewBox="0 0 32 32"
    xmlns="http://www.w3.org/2000/svg">
    <path d="M26.615 3.21386C26.4958 3.11939 26.3564 3.05375 26.2076 3.02209C26.0589 2.99043 25.9048 2.99361 25.7575 3.03136L9.7575 7.03136C9.54137 7.08539 9.34947 7.21004 9.21224 7.38553C9.07501 7.56103 9.00032 7.77733 9 8.00011V21.7626C8.16571 21.2052 7.16904 20.9426 6.16838 21.0165C5.16772 21.0905 4.22047 21.4967 3.47718 22.1707C2.73388 22.8447 2.23717 23.7479 2.06598 24.7365C1.89479 25.7252 2.05895 26.7427 2.53236 27.6274C3.00577 28.5121 3.76128 29.2132 4.67882 29.6193C5.59637 30.0254 6.62331 30.1131 7.59646 29.8686C8.56961 29.6242 9.43313 29.0615 10.0498 28.2699C10.6665 27.4784 11.0009 26.5035 11 25.5001V13.7814L25 10.2814V17.7626C24.1657 17.2052 23.169 16.9426 22.1684 17.0165C21.1677 17.0905 20.2205 17.4967 19.4772 18.1707C18.7339 18.8447 18.2372 19.7479 18.066 20.7365C17.8948 21.7252 18.0589 22.7427 18.5324 23.6274C19.0058 24.5121 19.7613 25.2132 20.6788 25.6193C21.5964 26.0254 22.6233 26.1131 23.5965 25.8686C24.5696 25.6242 25.4331 25.0615 26.0498 24.2699C26.6665 23.4784 27.0009 22.5035 27 21.5001V4.00011C26.9997 3.84844 26.9648 3.69884 26.8981 3.56262C26.8314 3.4264 26.7346 3.30714 26.615 3.21386Z" />
</svg>
