<svg viewBox="0 0 32 32"
    xmlns="http://www.w3.org/2000/svg">
    <path d="M28.5 16C28.5 16.3978 28.342 16.7793 28.0606 17.0607C27.7793 17.342 27.3978 17.5 27 17.5H14.5C14.1022 17.5 13.7206 17.342 13.4393 17.0607C13.158 16.7793 13 16.3978 13 16C13 15.6022 13.158 15.2206 13.4393 14.9393C13.7206 14.658 14.1022 14.5 14.5 14.5H27C27.3978 14.5 27.7793 14.658 28.0606 14.9393C28.342 15.2206 28.5 15.6022 28.5 16ZM14.5 9.49999H27C27.3978 9.49999 27.7793 9.34196 28.0606 9.06065C28.342 8.77935 28.5 8.39782 28.5 7.99999C28.5 7.60217 28.342 7.22064 28.0606 6.93933C27.7793 6.65803 27.3978 6.49999 27 6.49999H14.5C14.1022 6.49999 13.7206 6.65803 13.4393 6.93933C13.158 7.22064 13 7.60217 13 7.99999C13 8.39782 13.158 8.77935 13.4393 9.06065C13.7206 9.34196 14.1022 9.49999 14.5 9.49999ZM27 22.5H14.5C14.1022 22.5 13.7206 22.658 13.4393 22.9393C13.158 23.2206 13 23.6022 13 24C13 24.3978 13.158 24.7793 13.4393 25.0607C13.7206 25.342 14.1022 25.5 14.5 25.5H27C27.3978 25.5 27.7793 25.342 28.0606 25.0607C28.342 24.7793 28.5 24.3978 28.5 24C28.5 23.6022 28.342 23.2206 28.0606 22.9393C27.7793 22.658 27.3978 22.5 27 22.5ZM5.49999 7.41374V13C5.49999 13.3978 5.65803 13.7793 5.93933 14.0607C6.22063 14.342 6.60217 14.5 6.99999 14.5C7.39781 14.5 7.77935 14.342 8.06065 14.0607C8.34195 13.7793 8.49999 13.3978 8.49999 13V4.99999C8.49985 4.74445 8.43444 4.49319 8.30994 4.27002C8.18545 4.04686 8.00601 3.8592 7.78864 3.72485C7.57127 3.59049 7.32318 3.5139 7.0679 3.50233C6.81262 3.49076 6.55862 3.5446 6.32999 3.65874L4.32999 4.65874C3.99892 4.83519 3.74599 5.12929 3.62108 5.48304C3.49617 5.83679 3.50835 6.22451 3.65522 6.56972C3.8021 6.91493 4.07299 7.19257 4.41449 7.34788C4.75598 7.5032 5.14328 7.52491 5.49999 7.40874V7.41374ZM10.4662 19.5212C10.402 19.0587 10.2448 18.614 10.0042 18.2138C9.76362 17.8136 9.44457 17.4662 9.06624 17.1925C8.31201 16.6451 7.37535 16.4104 6.45212 16.5376C5.5289 16.6648 4.69059 17.144 4.11249 17.875C3.89066 18.1601 3.71478 18.4781 3.59124 18.8175C3.461 19.1899 3.48272 19.5986 3.65169 19.9551C3.82066 20.3116 4.12327 20.5872 4.49398 20.7222C4.86469 20.8571 5.27365 20.8406 5.63228 20.6762C5.9909 20.5118 6.27031 20.2127 6.40999 19.8437C6.42798 19.7988 6.4524 19.7567 6.48249 19.7187C6.5794 19.6014 6.71743 19.5255 6.86842 19.5064C7.01941 19.4874 7.17198 19.5266 7.29499 19.6162C7.34911 19.6536 7.39493 19.7018 7.42956 19.7577C7.46419 19.8137 7.48689 19.8761 7.49624 19.9412C7.50462 20.0025 7.50041 20.0648 7.48386 20.1243C7.46731 20.1838 7.43877 20.2394 7.39999 20.2875L7.38374 20.3087L3.79874 25.1025C3.63225 25.3254 3.53106 25.5903 3.50648 25.8675C3.48189 26.1446 3.53489 26.4232 3.65953 26.6719C3.78417 26.9207 3.97556 27.1299 4.21228 27.2761C4.44901 27.4224 4.72174 27.4999 4.99999 27.5H8.99999C9.39781 27.5 9.77935 27.342 10.0607 27.0607C10.342 26.7793 10.5 26.3978 10.5 26C10.5 25.6022 10.342 25.2206 10.0607 24.9393C9.77935 24.658 9.39781 24.5 8.99999 24.5H7.99999L9.78499 22.1112C10.0662 21.7471 10.2714 21.3303 10.3884 20.8854C10.5054 20.4405 10.5319 19.9766 10.4662 19.5212Z" />
</svg>
