<svg viewBox="0 0 32 32"
    xmlns="http://www.w3.org/2000/svg">
    <path fill-rule="evenodd" clip-rule="evenodd" d="M17.2004 8.25357C17.0704 7.85927 17 7.43785 17 7C17 4.79086 18.7909 3 21 3C23.2091 3 25 4.79086 25 7C25 9.20914 23.2091 11 21 11C19.9509 11 18.9962 10.5961 18.2827 9.93539L10.7995 14.746C10.827 14.8295 10.8519 14.9142 10.874 15H21.126C21.5701 13.2748 23.1362 12 25 12C27.2091 12 29 13.7909 29 16C29 18.2091 27.2091 20 25 20C23.1362 20 21.5701 18.7252 21.126 17H10.874C10.8519 17.0858 10.8271 17.1704 10.7995 17.2538L18.2828 22.0645C18.9962 21.4038 19.951 21 21 21C23.2091 21 25 22.7909 25 25C25 27.2091 23.2091 29 21 29C18.7909 29 17 27.2091 17 25C17 24.5621 17.0704 24.1406 17.2004 23.7463L9.71707 18.9356C9.00366 19.5962 8.04898 20 7 20C4.79086 20 3 18.2091 3 16C3 13.7909 4.79086 12 7 12C8.04894 12 9.00357 12.4038 9.71697 13.0643L17.2004 8.25357ZM21 9C19.8954 9 19 8.10457 19 7C19 5.89543 19.8954 5 21 5C22.1046 5 23 5.89543 23 7C23 8.10457 22.1046 9 21 9ZM21 27C19.8954 27 19 26.1046 19 25C19 23.8954 19.8954 23 21 23C22.1046 23 23 23.8954 23 25C23 26.1046 22.1046 27 21 27ZM23 16C23 17.1046 23.8954 18 25 18C26.1046 18 27 17.1046 27 16C27 14.8954 26.1046 14 25 14C23.8954 14 23 14.8954 23 16ZM7 18C5.89543 18 5 17.1046 5 16C5 14.8954 5.89543 14 7 14C8.10457 14 9 14.8954 9 16C9 17.1046 8.10457 18 7 18Z" />
</svg>
