<svg viewBox="0 0 32 32"
    xmlns="http://www.w3.org/2000/svg">
    <path fill-rule="evenodd" clip-rule="evenodd" d="M28.9238 16.3835C28.8734 16.5049 28.7997 16.6152 28.7067 16.7081L24.7067 20.7081C24.6138 20.801 24.5035 20.8747 24.3821 20.9249C24.2607 20.9752 24.1306 21.0011 23.9992 21.0011C23.8678 21.0011 23.7377 20.9752 23.6163 20.9249C23.4949 20.8747 23.3846 20.801 23.2917 20.7081C23.1988 20.6151 23.1251 20.5048 23.0748 20.3835C23.0245 20.2621 22.9987 20.132 22.9987 20.0006C22.9987 19.8692 23.0245 19.7391 23.0748 19.6177C23.1251 19.4963 23.1988 19.386 23.2917 19.2931L25.5855 17.0006H17.9992C17.9953 17.0006 17.9914 17.0005 17.9876 17.0005H10.874C10.4299 18.7257 8.86384 20.0005 7 20.0005C4.79086 20.0005 3 18.2096 3 16.0005C3 13.7913 4.79086 12.0005 7 12.0005C8.86384 12.0005 10.4299 13.2753 10.874 15.0005L25.5855 15.0006L23.2917 12.7081C23.1041 12.5204 22.9987 12.2659 22.9987 12.0006C22.9987 11.7352 23.1041 11.4807 23.2917 11.2931C23.4794 11.1054 23.7338 11 23.9992 11C24.2646 11 24.5191 11.1054 24.7067 11.2931L28.7067 15.2931C28.7997 15.3859 28.8734 15.4962 28.9238 15.6176C28.9741 15.739 29 15.8691 29 16.0006C29 16.132 28.9741 16.2621 28.9238 16.3835ZM7 18.0005C8.10457 18.0005 9 17.1051 9 16.0005C9 14.8959 8.10457 14.0005 7 14.0005C5.89543 14.0005 5 14.8959 5 16.0005C5 17.1051 5.89543 18.0005 7 18.0005Z" />
</svg>
