<svg viewBox="0 0 32 32"
    xmlns="http://www.w3.org/2000/svg">
    <path d="M31 13V19.25C30.9985 19.6841 30.8564 20.106 30.595 20.4526C30.3336 20.7992 29.967 21.0518 29.55 21.1725L17 24.75V29C17 29.2652 16.8946 29.5196 16.7071 29.7071C16.5196 29.8946 16.2652 30 16 30C15.7348 30 15.4804 29.8946 15.2929 29.7071C15.1054 29.5196 15 29.2652 15 29V24.75C15.0015 24.3159 15.1436 23.894 15.405 23.5474C15.6664 23.2008 16.033 22.9482 16.45 22.8275L29 19.25V13H27V16C27 16.5304 26.7893 17.0391 26.4142 17.4142C26.0391 17.7893 25.5304 18 25 18H6C5.46957 18 4.96086 17.7893 4.58579 17.4142C4.21071 17.0391 4 16.5304 4 16V13H2C1.73478 13 1.48043 12.8946 1.29289 12.7071C1.10536 12.5196 1 12.2652 1 12C1 11.7348 1.10536 11.4804 1.29289 11.2929C1.48043 11.1054 1.73478 11 2 11H4V8C4 7.46957 4.21071 6.96086 4.58579 6.58579C4.96086 6.21071 5.46957 6 6 6H25C25.5304 6 26.0391 6.21071 26.4142 6.58579C26.7893 6.96086 27 7.46957 27 8V11H29C29.5304 11 30.0391 11.2107 30.4142 11.5858C30.7893 11.9609 31 12.4696 31 13Z" />
</svg>
