<svg viewBox="0 0 32 32"
    xmlns="http://www.w3.org/2000/svg">
    <path d="M29 4C29 3.73478 28.8946 3.48043 28.7071 3.29289C28.5196 3.10536 28.2652 3 28 3C22.49 3 16.8362 9.21375 13.6962 13.3287C12.5748 12.9853 11.3885 12.9096 10.2325 13.1078C9.07658 13.306 7.98321 13.7726 7.04026 14.47C6.09731 15.1674 5.33105 16.0762 4.80304 17.1234C4.27503 18.1707 3.99998 19.3272 3.99999 20.5C3.99999 24.36 1.55749 26.0912 1.44124 26.1712C1.26385 26.291 1.12957 26.4646 1.05816 26.6664C0.986742 26.8681 0.981954 27.0875 1.0445 27.2922C1.10704 27.4969 1.23362 27.6761 1.40561 27.8035C1.57761 27.931 1.78594 27.9998 1.99999 28H11.5C12.6728 28 13.8293 27.725 14.8765 27.1969C15.9238 26.6689 16.8326 25.9027 17.53 24.9597C18.2274 24.0168 18.6939 22.9234 18.8921 21.7675C19.0903 20.6115 19.0147 19.4252 18.6712 18.3037C22.7875 15.1637 29 9.51 29 4ZM15.5525 14.1938C15.9808 13.6388 16.4012 13.1158 16.8137 12.625C17.8234 13.3071 18.6929 14.1766 19.375 15.1862C18.8833 15.5979 18.3604 16.0183 17.8062 16.4475C17.2235 15.5448 16.4552 14.7765 15.5525 14.1938ZM20.89 13.8588C20.135 12.7935 19.2052 11.8637 18.14 11.1088C22.1125 6.7925 25.1087 5.48375 26.8775 5.12C26.5212 6.89 25.2062 9.88625 20.89 13.8588Z" />
</svg>
