<svg viewBox="0 0 32 32"
    xmlns="http://www.w3.org/2000/svg">
    <path d="M26.56 17.0612L16.3025 27.3112C14.8955 28.7176 12.9875 29.5076 10.998 29.5072C9.00863 29.5069 7.10084 28.7163 5.69437 27.3093C4.28789 25.9023 3.49794 23.9942 3.49829 22.0048C3.49864 20.0154 4.28927 18.1076 5.69624 16.7012L17.9662 4.46492C18.9043 3.52738 20.1763 3.00087 21.5026 3.00122C22.1593 3.00139 22.8095 3.13091 23.4161 3.38237C24.0227 3.63384 24.5739 4.00232 25.0381 4.46679C25.5023 4.93126 25.8705 5.48262 26.1217 6.08938C26.3728 6.69614 26.502 7.34643 26.5018 8.00312C26.5016 8.6598 26.3721 9.31002 26.1207 9.91665C25.8692 10.5233 25.5007 11.0744 25.0362 11.5387L25.015 11.5587L13.04 23.0862C12.898 23.2227 12.7305 23.33 12.5471 23.4019C12.3636 23.4737 12.1678 23.5087 11.9708 23.5049C11.7738 23.501 11.5796 23.4584 11.399 23.3795C11.2185 23.3006 11.0553 23.1869 10.9187 23.0449C10.7822 22.9029 10.6749 22.7354 10.6031 22.552C10.5312 22.3685 10.4962 22.1727 10.5 21.9757C10.5039 21.7788 10.5465 21.5845 10.6254 21.404C10.7043 21.2234 10.818 21.0602 10.96 20.9237L22.9237 9.40867C23.2977 9.03239 23.5069 8.52297 23.5052 7.99248C23.5036 7.46199 23.2913 6.95387 22.915 6.57992C22.7287 6.39475 22.5077 6.2481 22.2647 6.14833C22.0217 6.04856 21.7615 5.99763 21.4988 5.99844C20.9683 6.00008 20.4602 6.21239 20.0862 6.58867L7.81624 18.8212C6.97236 19.6654 6.4984 20.8103 6.49863 22.0039C6.49875 22.595 6.61528 23.1802 6.84157 23.7262C7.06786 24.2722 7.39948 24.7683 7.81749 25.1862C8.23551 25.604 8.73173 25.9354 9.27783 26.1615C9.82393 26.3876 10.4092 26.5039 11.0003 26.5038C12.1939 26.5035 13.3386 26.0291 14.1825 25.1849L24.44 14.9349C24.5795 14.7954 24.7452 14.6847 24.9275 14.6092C25.1098 14.5337 25.3052 14.4948 25.5025 14.4948C25.6998 14.4948 25.8952 14.5337 26.0775 14.6092C26.2598 14.6847 26.4255 14.7954 26.565 14.9349C26.7045 15.0744 26.8152 15.2401 26.8907 15.4224C26.9662 15.6047 27.0051 15.8001 27.0051 15.9974C27.0051 16.1947 26.9662 16.3901 26.8907 16.5724C26.8152 16.7547 26.7045 16.9204 26.565 17.0599L26.56 17.0612Z" />
</svg>
