<svg viewBox="0 0 32 32"
    xmlns="http://www.w3.org/2000/svg">
    <path d="M3.5 8C3.5 7.60218 3.65804 7.22064 3.93934 6.93934C4.22064 6.65804 4.60218 6.5 5 6.5H27C27.3978 6.5 27.7794 6.65804 28.0607 6.93934C28.342 7.22064 28.5 7.60218 28.5 8C28.5 8.39782 28.342 8.77936 28.0607 9.06066C27.7794 9.34196 27.3978 9.5 27 9.5H5C4.60218 9.5 4.22064 9.34196 3.93934 9.06066C3.65804 8.77936 3.5 8.39782 3.5 8ZM5 14.5H21C21.3978 14.5 21.7794 14.342 22.0607 14.0607C22.342 13.7794 22.5 13.3978 22.5 13C22.5 12.6022 22.342 12.2206 22.0607 11.9393C21.7794 11.658 21.3978 11.5 21 11.5H5C4.60218 11.5 4.22064 11.658 3.93934 11.9393C3.65804 12.2206 3.5 12.6022 3.5 13C3.5 13.3978 3.65804 13.7794 3.93934 14.0607C4.22064 14.342 4.60218 14.5 5 14.5ZM27 16.5H5C4.60218 16.5 4.22064 16.658 3.93934 16.9393C3.65804 17.2206 3.5 17.6022 3.5 18C3.5 18.3978 3.65804 18.7794 3.93934 19.0607C4.22064 19.342 4.60218 19.5 5 19.5H27C27.3978 19.5 27.7794 19.342 28.0607 19.0607C28.342 18.7794 28.5 18.3978 28.5 18C28.5 17.6022 28.342 17.2206 28.0607 16.9393C27.7794 16.658 27.3978 16.5 27 16.5ZM21 21.5H5C4.60218 21.5 4.22064 21.658 3.93934 21.9393C3.65804 22.2206 3.5 22.6022 3.5 23C3.5 23.3978 3.65804 23.7794 3.93934 24.0607C4.22064 24.342 4.60218 24.5 5 24.5H21C21.3978 24.5 21.7794 24.342 22.0607 24.0607C22.342 23.7794 22.5 23.3978 22.5 23C22.5 22.6022 22.342 22.2206 22.0607 21.9393C21.7794 21.658 21.3978 21.5 21 21.5Z" />
</svg>
