<svg viewBox="0 0 32 32"
    xmlns="http://www.w3.org/2000/svg">
    <path d="M29.4163 12.9999L22.7325 19.7062C23.3025 21.2899 23.5388 23.9424 21.0838 27.2062C20.9121 27.4357 20.6929 27.6254 20.4411 27.7624C20.1893 27.8994 19.911 27.9804 19.625 27.9999C19.5775 27.9999 19.5313 27.9999 19.4838 27.9999C19.221 28 18.9607 27.9482 18.7179 27.8476C18.4751 27.747 18.2546 27.5996 18.0688 27.4137L12.0363 21.3749L6.70753 26.7074C6.51989 26.8951 6.26539 27.0005 6.00003 27.0005C5.73467 27.0005 5.48017 26.8951 5.29253 26.7074C5.10489 26.5198 4.99947 26.2653 4.99947 25.9999C4.99947 25.7345 5.10489 25.4801 5.29253 25.2924L10.625 19.9637L4.58753 13.9262C4.38908 13.7275 4.2347 13.4892 4.13444 13.2269C4.03417 12.9646 3.99028 12.6841 4.00561 12.4037C4.02094 12.1232 4.09515 11.8492 4.22341 11.5994C4.35167 11.3496 4.5311 11.1295 4.75003 10.9537C7.92753 8.38991 10.9688 8.89366 12.3 9.31116L19 2.58741C19.1858 2.40165 19.4063 2.25429 19.6489 2.15375C19.8916 2.05321 20.1517 2.00146 20.4144 2.00146C20.6771 2.00146 20.9372 2.05321 21.1799 2.15375C21.4226 2.25429 21.6431 2.40165 21.8288 2.58741L29.415 10.1724C29.79 10.5473 30.0007 11.0557 30.001 11.5859C30.0012 12.1161 29.7909 12.6247 29.4163 12.9999Z" />
</svg>
