<svg viewBox="0 0 32 32"
    xmlns="http://www.w3.org/2000/svg">
    <path d="M25.6762 18.8837C24.4774 19.6124 23.1005 19.9957 21.6975 19.9912C20.5221 19.9818 19.3601 19.7414 18.2775 19.2837C17.4431 20.4616 16.9966 21.8702 17 23.3137V26.9999C17.0003 27.137 16.9724 27.2727 16.9181 27.3985C16.8637 27.5244 16.7841 27.6377 16.6841 27.7315C16.5841 27.8253 16.4659 27.8975 16.3368 27.9437C16.2077 27.9899 16.0705 28.009 15.9337 27.9999C15.6767 27.9775 15.4376 27.8588 15.2644 27.6676C15.0913 27.4763 14.9968 27.2267 15 26.9687V25.4137L10.1725 20.5862C9.45486 20.8539 8.6959 20.9939 7.92999 20.9999C6.87557 21.0025 5.84091 20.714 4.93999 20.1662C2.21624 18.5112 0.749985 14.7024 1.03374 9.97366C1.04802 9.72902 1.15164 9.49814 1.32493 9.32486C1.49821 9.15157 1.72909 9.04795 1.97374 9.03366C6.70249 8.75491 10.5112 10.2162 12.1612 12.9399C12.8095 14.0075 13.0925 15.2572 12.9675 16.4999C12.9597 16.5962 12.9242 16.6882 12.8653 16.7647C12.8064 16.8413 12.7265 16.8991 12.6354 16.9312C12.5443 16.9633 12.4459 16.9684 12.3519 16.9458C12.258 16.9231 12.1727 16.8738 12.1062 16.8037L9.70624 14.2912C9.51717 14.1115 9.26542 14.0129 9.00466 14.0162C8.7439 14.0196 8.49476 14.1246 8.31036 14.309C8.12596 14.4934 8.02088 14.7426 8.01755 15.0033C8.01421 15.2641 8.11286 15.5159 8.29248 15.7049L15.0275 22.6112C15.035 22.5137 15.0437 22.4162 15.0537 22.3199C15.2724 20.4658 16.0905 18.7339 17.3837 17.3874L23.7075 10.7049C23.8951 10.5174 24.0006 10.2631 24.0007 9.99786C24.0008 9.73261 23.8956 9.47818 23.7081 9.29054C23.5206 9.1029 23.2663 8.99742 23.0011 8.9973C22.7358 8.99718 22.4814 9.10244 22.2937 9.28991L16.1687 15.7674C16.1074 15.8324 16.0298 15.8797 15.944 15.9045C15.8583 15.9293 15.7674 15.9307 15.6809 15.9085C15.5944 15.8863 15.5154 15.8413 15.4521 15.7783C15.3889 15.7152 15.3437 15.6364 15.3212 15.5499C14.7287 13.3649 14.99 11.1899 16.1212 9.32241C18.3537 5.63741 23.5487 3.66491 30.0187 4.04491C30.2634 4.0592 30.4943 4.16282 30.6675 4.33611C30.8408 4.50939 30.9444 4.74027 30.9587 4.98491C31.3337 11.4562 29.3612 16.6512 25.6762 18.8837Z" />
</svg>
