<svg viewBox="0 0 32 32"
    xmlns="http://www.w3.org/2000/svg">
    <path d="M30 17V21C30 21.2652 29.8946 21.5196 29.7071 21.7071C29.5196 21.8946 29.2652 22 29 22C28.9341 22.0002 28.8683 21.9935 28.8037 21.98L19.5 20.125V23.0912L21.7075 25.2975C21.8938 25.484 21.9989 25.7364 22 26V29C22.0003 29.1639 21.9603 29.3253 21.8835 29.4701C21.8067 29.615 21.6955 29.7387 21.5597 29.8304C21.4239 29.9221 21.2676 29.9791 21.1046 29.9962C20.9416 30.0134 20.7769 29.9902 20.625 29.9287L16 28.0775L11.375 29.9287C11.2231 29.9902 11.0584 30.0134 10.8954 29.9962C10.7324 29.9791 10.5761 29.9221 10.4403 29.8304C10.3045 29.7387 10.1933 29.615 10.1165 29.4701C10.0397 29.3253 9.99972 29.1639 10 29V26C9.9999 25.8686 10.0257 25.7385 10.0759 25.6171C10.1261 25.4958 10.1997 25.3854 10.2925 25.2925L12.5 23.0863V20.125L3.19625 21.98C3.1317 21.9935 3.06593 22.0002 3 22C2.73478 22 2.48043 21.8946 2.29289 21.7071C2.10536 21.5196 2 21.2652 2 21V17C1.99987 16.8142 2.05149 16.6321 2.14908 16.474C2.24667 16.3159 2.38636 16.1881 2.5525 16.105L12.5 11.1325V5.5C12.5 4.57174 12.8687 3.6815 13.5251 3.02513C14.1815 2.36875 15.0717 2 16 2C16.9283 2 17.8185 2.36875 18.4749 3.02513C19.1313 3.6815 19.5 4.57174 19.5 5.5V11.1325L29.4475 16.105C29.6136 16.1881 29.7533 16.3159 29.8509 16.474C29.9485 16.6321 30.0001 16.8142 30 17Z" />
</svg>
