<svg viewBox="0 0 32 32"
    xmlns="http://www.w3.org/2000/svg">
    <path d="M30.4138 17L18 4.58626C17.815 4.39973 17.5947 4.25185 17.352 4.15121C17.1093 4.05057 16.849 3.99917 16.5863 4.00001H5.00001C4.73479 4.00001 4.48044 4.10537 4.2929 4.2929C4.10537 4.48044 4.00001 4.73479 4.00001 5.00001V16.5863C3.99917 16.849 4.05057 17.1093 4.15121 17.352C4.25185 17.5947 4.39973 17.815 4.58626 18L17 30.4138C17.1857 30.5995 17.4062 30.7469 17.6489 30.8474C17.8916 30.948 18.1517 30.9997 18.4144 30.9997C18.6771 30.9997 18.9372 30.948 19.1799 30.8474C19.4225 30.7469 19.643 30.5995 19.8288 30.4138L30.4138 19.8288C30.5995 19.643 30.7469 19.4225 30.8474 19.1799C30.948 18.9372 30.9997 18.6771 30.9997 18.4144C30.9997 18.1517 30.948 17.8916 30.8474 17.6489C30.7469 17.4062 30.5995 17.1857 30.4138 17ZM10.5 12C10.2033 12 9.91333 11.912 9.66666 11.7472C9.41998 11.5824 9.22772 11.3481 9.11419 11.074C9.00066 10.7999 8.97095 10.4983 9.02883 10.2074C9.08671 9.9164 9.22957 9.64913 9.43935 9.43935C9.64913 9.22957 9.9164 9.08671 10.2074 9.02883C10.4983 8.97095 10.7999 9.00066 11.074 9.11419C11.3481 9.22772 11.5824 9.41998 11.7472 9.66666C11.912 9.91333 12 10.2033 12 10.5C12 10.8978 11.842 11.2794 11.5607 11.5607C11.2794 11.842 10.8978 12 10.5 12Z" />
</svg>
