<svg viewBox="0 0 32 32"
    xmlns="http://www.w3.org/2000/svg">
    <path d="M18 22.5C18 22.8956 17.8827 23.2822 17.6629 23.6111C17.4432 23.94 17.1308 24.1964 16.7654 24.3478C16.3999 24.4991 15.9978 24.5387 15.6098 24.4616C15.2219 24.3844 14.8655 24.1939 14.5858 23.9142C14.3061 23.6345 14.1156 23.2781 14.0384 22.8902C13.9613 22.5022 14.0009 22.1001 14.1522 21.7346C14.3036 21.3692 14.56 21.0568 14.8889 20.8371C15.2178 20.6173 15.6044 20.5 16 20.5C16.5304 20.5 17.0391 20.7107 17.4142 21.0858C17.7893 21.4609 18 21.9696 18 22.5ZM29.5 16C29.5 18.67 28.7082 21.2801 27.2248 23.5002C25.7414 25.7203 23.633 27.4506 21.1662 28.4724C18.6994 29.4942 15.985 29.7615 13.3663 29.2406C10.7475 28.7197 8.34207 27.434 6.45406 25.5459C4.56606 23.6579 3.28031 21.2525 2.7594 18.6337C2.2385 16.015 2.50585 13.3006 3.52763 10.8338C4.54942 8.36697 6.27974 6.25856 8.49981 4.77516C10.7199 3.29176 13.33 2.5 16 2.5C19.5792 2.50397 23.0107 3.92756 25.5416 6.45844C28.0724 8.98932 29.496 12.4208 29.5 16ZM26.5 16C26.5 13.9233 25.8842 11.8932 24.7304 10.1665C23.5767 8.4398 21.9368 7.09399 20.0182 6.29926C18.0996 5.50454 15.9884 5.29661 13.9516 5.70175C11.9148 6.1069 10.0438 7.10693 8.57538 8.57538C7.10693 10.0438 6.10691 11.9148 5.70176 13.9516C5.29662 15.9884 5.50455 18.0996 6.29927 20.0182C7.09399 21.9368 8.4398 23.5767 10.1665 24.7304C11.8932 25.8842 13.9233 26.5 16 26.5C18.7839 26.497 21.4529 25.3898 23.4213 23.4213C25.3898 21.4528 26.497 18.7839 26.5 16ZM16 8C12.9675 8 10.5 10.2425 10.5 13V13.5C10.5 13.8978 10.658 14.2794 10.9393 14.5607C11.2206 14.842 11.6022 15 12 15C12.3978 15 12.7794 14.842 13.0607 14.5607C13.342 14.2794 13.5 13.8978 13.5 13.5V13C13.5 11.8975 14.625 11 16 11C17.375 11 18.5 11.8975 18.5 13C18.5 14.1025 17.375 15 16 15C15.6022 15 15.2206 15.158 14.9393 15.4393C14.658 15.7206 14.5 16.1022 14.5 16.5V17.5C14.4991 17.8706 14.6354 18.2284 14.8827 18.5044C15.13 18.7805 15.4707 18.9552 15.8391 18.995C16.2076 19.0347 16.5777 18.9367 16.8781 18.7197C17.1786 18.5028 17.3881 18.1823 17.4663 17.82C19.7888 17.235 21.5 15.2963 21.5 13C21.5 10.2425 19.0325 8 16 8Z" />
</svg>
