<svg viewBox="0 0 32 32"
    xmlns="http://www.w3.org/2000/svg">
    <path d="M27 5.00011V28.0001C27 28.2653 26.8946 28.5197 26.7071 28.7072C26.5196 28.8948 26.2652 29.0001 26 29.0001C25.7348 29.0001 25.4804 28.8948 25.2929 28.7072C25.1054 28.5197 25 28.2653 25 28.0001V22.0001H19C18.7348 22.0001 18.4804 21.8948 18.2929 21.7072C18.1054 21.5197 18 21.2653 18 21.0001C18.0464 18.6047 18.349 16.2211 18.9025 13.8901C20.125 8.82886 22.4425 5.43636 25.6063 4.08136C25.7583 4.01622 25.9242 3.98983 26.0889 4.00454C26.2537 4.01925 26.4123 4.07461 26.5504 4.16566C26.6885 4.25671 26.8019 4.3806 26.8803 4.52623C26.9588 4.67186 26.9999 4.83468 27 5.00011ZM14.9862 4.83636C14.9667 4.70505 14.9211 4.57896 14.8523 4.46544C14.7835 4.35191 14.6927 4.25323 14.5854 4.17515C14.478 4.09706 14.3561 4.04114 14.2269 4.01064C14.0977 3.98014 13.9637 3.97567 13.8328 3.99749C13.7018 4.01932 13.5765 4.067 13.4642 4.13776C13.3519 4.20852 13.2548 4.30093 13.1785 4.40962C13.1023 4.51831 13.0484 4.64108 13.0202 4.7708C12.9919 4.90051 12.9897 5.03455 13.0138 5.16511L13.9862 11.0001H11V5.00011C11 4.73489 10.8946 4.48054 10.7071 4.293C10.5196 4.10547 10.2652 4.00011 10 4.00011C9.73478 4.00011 9.48043 4.10547 9.29289 4.293C9.10536 4.48054 9 4.73489 9 5.00011V11.0001H6.01375L6.98625 5.16511C7.01031 5.03455 7.00813 4.90051 6.97984 4.7708C6.95155 4.64108 6.89772 4.51831 6.82148 4.40962C6.74524 4.30093 6.64812 4.20852 6.53579 4.13776C6.42346 4.067 6.29816 4.01932 6.16721 3.99749C6.03625 3.97567 5.90227 3.98014 5.77306 4.01064C5.64385 4.04114 5.52201 4.09706 5.41464 4.17515C5.30727 4.25323 5.21653 4.35191 5.1477 4.46544C5.07887 4.57896 5.03334 4.70505 5.01375 4.83636L4.01375 10.8364C4.00478 10.8905 4.00018 10.9452 4 11.0001C4.002 12.4174 4.5049 13.7883 5.41983 14.8707C6.33477 15.9531 7.60285 16.6772 9 16.9151V28.0001C9 28.2653 9.10536 28.5197 9.29289 28.7072C9.48043 28.8948 9.73478 29.0001 10 29.0001C10.2652 29.0001 10.5196 28.8948 10.7071 28.7072C10.8946 28.5197 11 28.2653 11 28.0001V16.9151C12.3971 16.6772 13.6652 15.9531 14.5802 14.8707C15.4951 13.7883 15.998 12.4174 16 11.0001C15.9998 10.9452 15.9952 10.8905 15.9862 10.8364L14.9862 4.83636Z" />
</svg>
