<svg viewBox="0 0 32 32"
    xmlns="http://www.w3.org/2000/svg">
    <path d="M19 28.0001C19 28.2653 18.8946 28.5197 18.7071 28.7072C18.5196 28.8947 18.2652 29.0001 18 29.0001H14C13.7348 29.0001 13.4804 28.8947 13.2929 28.7072C13.1053 28.5197 13 28.2653 13 28.0001C13 27.7349 13.1053 27.4805 13.2929 27.293C13.4804 27.1054 13.7348 27.0001 14 27.0001H18C18.2652 27.0001 18.5196 27.1054 18.7071 27.293C18.8946 27.4805 19 27.7349 19 28.0001ZM27.9525 19.4788L26.4075 26.4326C26.3342 26.7628 26.1783 27.069 25.9545 27.3226C25.7307 27.5763 25.4462 27.7689 25.1276 27.8827C24.8091 27.9965 24.4669 28.0276 24.133 27.9731C23.7992 27.9187 23.4846 27.7804 23.2187 27.5713L19.8137 25.0001H12.1887L8.78124 27.5713C8.51535 27.7804 8.20077 27.9187 7.86693 27.9731C7.53309 28.0276 7.19089 27.9965 6.87234 27.8827C6.55379 27.7689 6.26929 27.5763 6.04547 27.3226C5.82164 27.069 5.66578 26.7628 5.59249 26.4326L4.04749 19.4788C3.98195 19.1804 3.98526 18.871 4.05717 18.5741C4.12908 18.2771 4.26769 18.0005 4.46249 17.7651L8.03249 13.4826C8.15231 11.9088 8.51362 10.3628 9.10374 8.89884C10.7162 4.85634 13.6037 2.32009 14.775 1.41759C15.1256 1.14595 15.5565 0.998535 16 0.998535C16.4435 0.998535 16.8744 1.14595 17.225 1.41759C18.3925 2.32009 21.2837 4.85634 22.8962 8.89884C23.4864 10.3628 23.8477 11.9088 23.9675 13.4826L27.5375 17.7651C27.7323 18.0005 27.8709 18.2771 27.9428 18.5741C28.0147 18.871 28.018 19.1804 27.9525 19.4788ZM10.5487 23.7288C9.20624 21.2847 8.39124 18.8818 8.10374 16.5201L5.99999 19.0451L7.54499 26.0001L7.56749 25.9838L10.5487 23.7288ZM17.5 12.5001C17.5 12.2034 17.412 11.9134 17.2472 11.6667C17.0824 11.4201 16.8481 11.2278 16.574 11.1143C16.2999 11.0007 15.9983 10.971 15.7074 11.0289C15.4164 11.0868 15.1491 11.2297 14.9393 11.4394C14.7295 11.6492 14.5867 11.9165 14.5288 12.2075C14.4709 12.4984 14.5006 12.8 14.6142 13.0741C14.7277 13.3482 14.92 13.5825 15.1666 13.7473C15.4133 13.9121 15.7033 14.0001 16 14.0001C16.3978 14.0001 16.7793 13.8421 17.0606 13.5608C17.342 13.2795 17.5 12.8979 17.5 12.5001ZM26 19.0451L23.8962 16.5201C23.6112 18.8768 22.7962 21.2805 21.4512 23.7313L24.4325 25.9813L24.455 25.9976L26 19.0451Z" />
</svg>
