<svg viewBox="0 0 32 32"
    xmlns="http://www.w3.org/2000/svg">
    <path d="M19.7163 14.1412C19.6419 14.0327 19.5897 13.9107 19.5626 13.782C19.5355 13.6534 19.5341 13.5206 19.5584 13.3914C19.5826 13.2622 19.6321 13.139 19.7041 13.0289C19.776 12.9189 19.8689 12.8241 19.9775 12.7499L28.435 6.96244C28.6541 6.82692 28.917 6.78115 29.169 6.83468C29.4209 6.88822 29.6425 7.03692 29.7876 7.2498C29.9326 7.46269 29.9899 7.72333 29.9475 7.97742C29.9051 8.2315 29.7663 8.45943 29.56 8.61369L21.1013 14.4012C20.9928 14.4753 20.8709 14.5274 20.7423 14.5544C20.6138 14.5813 20.4812 14.5827 20.3521 14.5585C20.2231 14.5342 20.1 14.4848 19.9901 14.413C19.8801 14.3411 19.7854 14.2484 19.7113 14.1399L19.7163 14.1412ZM29.825 24.7749C29.7509 24.8834 29.6562 24.9761 29.5462 25.048C29.4362 25.1198 29.3132 25.1692 29.1841 25.1935C29.055 25.2177 28.9225 25.2163 28.7939 25.1894C28.6654 25.1624 28.5434 25.1103 28.435 25.0362L17 17.2112L11.685 20.8474C12.0899 21.8772 12.1013 23.02 11.7169 24.0576C11.3325 25.0951 10.5793 25.9547 9.60124 26.4721C8.62316 26.9894 7.48876 27.1283 6.41476 26.8621C5.34076 26.596 4.40247 25.9435 3.77915 25.0293C3.15582 24.1151 2.89117 23.0033 3.03575 21.9063C3.18033 20.8093 3.72401 19.804 4.56291 19.0825C5.40181 18.361 6.47712 17.9739 7.5834 17.9951C8.68968 18.0163 9.74937 18.4443 10.56 19.1974L15.2288 15.9999L10.5563 12.8024C9.74562 13.5555 8.68593 13.9836 7.57965 14.0048C6.47337 14.026 5.39806 13.6389 4.55916 12.9174C3.72026 12.1959 3.17658 11.1906 3.032 10.0936C2.88742 8.99662 3.15207 7.88481 3.7754 6.97061C4.39872 6.0564 5.33701 5.40389 6.41101 5.13774C7.48501 4.87159 8.61941 5.01046 9.59749 5.52782C10.5756 6.04518 11.3288 6.90476 11.7132 7.94233C12.0975 8.9799 12.0862 10.1227 11.6813 11.1524L29.5563 23.3849C29.6653 23.4585 29.7587 23.5528 29.8313 23.6625C29.9038 23.7722 29.954 23.8951 29.979 24.0242C30.0039 24.1533 30.0032 24.2861 29.9768 24.4149C29.9503 24.5437 29.8988 24.6661 29.825 24.7749ZM9.00001 22.4999C9.00001 22.2033 8.91203 21.9133 8.74721 21.6666C8.58239 21.4199 8.34812 21.2277 8.07403 21.1141C7.79994 21.0006 7.49834 20.9709 7.20737 21.0288C6.9164 21.0866 6.64913 21.2295 6.43935 21.4393C6.22957 21.6491 6.08671 21.9163 6.02883 22.2073C5.97095 22.4983 6.00066 22.7999 6.11419 23.074C6.22772 23.3481 6.41998 23.5823 6.66665 23.7471C6.91333 23.912 7.20334 23.9999 7.50001 23.9999C7.89783 23.9999 8.27936 23.8419 8.56067 23.5606C8.84197 23.2793 9.00001 22.8978 9.00001 22.4999ZM9.00001 9.49994C9.00001 9.20327 8.91203 8.91326 8.74721 8.66659C8.58239 8.41991 8.34812 8.22766 8.07403 8.11412C7.79994 8.00059 7.49834 7.97089 7.20737 8.02877C6.9164 8.08664 6.64913 8.2295 6.43935 8.43928C6.22957 8.64906 6.08671 8.91634 6.02883 9.20731C5.97095 9.49828 6.00066 9.79988 6.11419 10.074C6.22772 10.3481 6.41998 10.5823 6.66665 10.7471C6.91333 10.912 7.20334 10.9999 7.50001 10.9999C7.89783 10.9999 8.27936 10.8419 8.56067 10.5606C8.84197 10.2793 9.00001 9.89777 9.00001 9.49994Z" />
</svg>
