<svg viewBox="0 0 32 32"
    xmlns="http://www.w3.org/2000/svg">
    <g >
        <path d="M26 5H6C5.46957 5 4.96086 5.21071 4.58579 5.58579C4.21071 5.96086 4 6.46957 4 7V13C4 13.5304 4.21071 14.0391 4.58579 14.4142C4.96086 14.7893 5.46957 15 6 15H26C26.5304 15 27.0391 14.7893 27.4142 14.4142C27.7893 14.0391 28 13.5304 28 13V7C28 6.46957 27.7893 5.96086 27.4142 5.58579C27.0391 5.21071 26.5304 5 26 5ZM22.5 11.5C22.2033 11.5 21.9133 11.412 21.6666 11.2472C21.42 11.0824 21.2277 10.8481 21.1142 10.574C21.0007 10.2999 20.9709 9.99834 21.0288 9.70736C21.0867 9.41639 21.2296 9.14912 21.4393 8.93934C21.6491 8.72956 21.9164 8.5867 22.2074 8.52882C22.4983 8.47094 22.7999 8.50065 23.074 8.61418C23.3481 8.72771 23.5824 8.91997 23.7472 9.16665C23.912 9.41332 24 9.70333 24 10C24 10.3978 23.842 10.7794 23.5607 11.0607C23.2794 11.342 22.8978 11.5 22.5 11.5Z" />
        <path d="M26 17H6C5.46957 17 4.96086 17.2107 4.58579 17.5858C4.21071 17.9609 4 18.4696 4 19V25C4 25.5304 4.21071 26.0391 4.58579 26.4142C4.96086 26.7893 5.46957 27 6 27H26C26.5304 27 27.0391 26.7893 27.4142 26.4142C27.7893 26.0391 28 25.5304 28 25V19C28 18.4696 27.7893 17.9609 27.4142 17.5858C27.0391 17.2107 26.5304 17 26 17ZM22.5 23.5C22.2033 23.5 21.9133 23.412 21.6666 23.2472C21.42 23.0824 21.2277 22.8481 21.1142 22.574C21.0007 22.2999 20.9709 21.9983 21.0288 21.7074C21.0867 21.4164 21.2296 21.1491 21.4393 20.9393C21.6491 20.7296 21.9164 20.5867 22.2074 20.5288C22.4983 20.4709 22.7999 20.5007 23.074 20.6142C23.3481 20.7277 23.5824 20.92 23.7472 21.1666C23.912 21.4133 24 21.7033 24 22C24 22.3978 23.842 22.7794 23.5607 23.0607C23.2794 23.342 22.8978 23.5 22.5 23.5Z" />
    </g>
</svg>
