<svg viewBox="0 0 32 32"
    xmlns="http://www.w3.org/2000/svg">
    <path d="M14.5 27C14.5 27.3978 14.342 27.7794 14.0607 28.0607C13.7794 28.342 13.3978 28.5 13 28.5H6C5.33696 28.5 4.70107 28.2366 4.23223 27.7678C3.76339 27.2989 3.5 26.663 3.5 26V6C3.5 5.33696 3.76339 4.70107 4.23223 4.23223C4.70107 3.76339 5.33696 3.5 6 3.5H13C13.3978 3.5 13.7794 3.65804 14.0607 3.93934C14.342 4.22064 14.5 4.60218 14.5 5C14.5 5.39782 14.342 5.77936 14.0607 6.06066C13.7794 6.34196 13.3978 6.5 13 6.5H6.5V25.5H13C13.3978 25.5 13.7794 25.658 14.0607 25.9393C14.342 26.2206 14.5 26.6022 14.5 27ZM28.0613 14.9388L23.0613 9.93875C22.7795 9.65696 22.3973 9.49865 21.9988 9.49865C21.6002 9.49865 21.218 9.65696 20.9363 9.93875C20.6545 10.2205 20.4961 10.6027 20.4961 11.0013C20.4961 11.3998 20.6545 11.782 20.9363 12.0638L23.375 14.5H13C12.6022 14.5 12.2206 14.658 11.9393 14.9393C11.658 15.2206 11.5 15.6022 11.5 16C11.5 16.3978 11.658 16.7794 11.9393 17.0607C12.2206 17.342 12.6022 17.5 13 17.5H23.375L20.935 19.9387C20.6532 20.2205 20.4949 20.6027 20.4949 21.0012C20.4949 21.3998 20.6532 21.782 20.935 22.0637C21.2168 22.3455 21.599 22.5039 21.9975 22.5039C22.396 22.5039 22.7782 22.3455 23.06 22.0637L28.06 17.0637C28.1999 16.9245 28.311 16.759 28.3868 16.5767C28.4626 16.3944 28.5017 16.1989 28.5018 16.0015C28.5019 15.8041 28.4631 15.6086 28.3875 15.4262C28.3119 15.2438 28.201 15.0782 28.0613 14.9388Z" />
</svg>
