<svg viewBox="0 0 32 32"
    xmlns="http://www.w3.org/2000/svg">
    <path d="M26 18C26.0026 18.4077 25.8787 18.8062 25.6454 19.1407C25.4122 19.4751 25.081 19.729 24.6975 19.8675L18.2413 22.2425L15.8663 28.6938C15.7256 29.0758 15.4712 29.4056 15.1372 29.6385C14.8033 29.8714 14.4059 29.9963 13.9988 29.9963C13.5916 29.9963 13.1943 29.8714 12.8603 29.6385C12.5264 29.4056 12.2719 29.0758 12.1313 28.6938L9.75002 22.25L3.29752 19.875C2.91543 19.7344 2.58567 19.4799 2.35275 19.146C2.11982 18.812 1.99493 18.4147 1.99493 18.0075C1.99493 17.6003 2.11982 17.203 2.35275 16.869C2.58567 16.5351 2.91543 16.2806 3.29752 16.14L9.75377 13.765L12.1288 7.31375C12.2694 6.93166 12.5239 6.60191 12.8578 6.36898C13.1918 6.13606 13.5891 6.01117 13.9963 6.01117C14.4034 6.01117 14.8008 6.13606 15.1347 6.36898C15.4687 6.60191 15.7231 6.93166 15.8638 7.31375L18.2388 13.77L24.69 16.145C25.0729 16.2815 25.4043 16.533 25.6387 16.8651C25.8732 17.1971 25.9994 17.5935 26 18ZM19 6H21V8C21 8.26522 21.1054 8.51957 21.2929 8.70711C21.4804 8.89464 21.7348 9 22 9C22.2652 9 22.5196 8.89464 22.7071 8.70711C22.8947 8.51957 23 8.26522 23 8V6H25C25.2652 6 25.5196 5.89464 25.7071 5.70711C25.8947 5.51957 26 5.26522 26 5C26 4.73478 25.8947 4.48043 25.7071 4.29289C25.5196 4.10536 25.2652 4 25 4H23V2C23 1.73478 22.8947 1.48043 22.7071 1.29289C22.5196 1.10536 22.2652 1 22 1C21.7348 1 21.4804 1.10536 21.2929 1.29289C21.1054 1.48043 21 1.73478 21 2V4H19C18.7348 4 18.4804 4.10536 18.2929 4.29289C18.1054 4.48043 18 4.73478 18 5C18 5.26522 18.1054 5.51957 18.2929 5.70711C18.4804 5.89464 18.7348 6 19 6ZM30 10H29V9C29 8.73478 28.8947 8.48043 28.7071 8.29289C28.5196 8.10536 28.2652 8 28 8C27.7348 8 27.4804 8.10536 27.2929 8.29289C27.1054 8.48043 27 8.73478 27 9V10H26C25.7348 10 25.4804 10.1054 25.2929 10.2929C25.1054 10.4804 25 10.7348 25 11C25 11.2652 25.1054 11.5196 25.2929 11.7071C25.4804 11.8946 25.7348 12 26 12H27V13C27 13.2652 27.1054 13.5196 27.2929 13.7071C27.4804 13.8946 27.7348 14 28 14C28.2652 14 28.5196 13.8946 28.7071 13.7071C28.8947 13.5196 29 13.2652 29 13V12H30C30.2652 12 30.5196 11.8946 30.7071 11.7071C30.8947 11.5196 31 11.2652 31 11C31 10.7348 30.8947 10.4804 30.7071 10.2929C30.5196 10.1054 30.2652 10 30 10Z" />
</svg>
