<svg viewBox="0 0 32 32"
    xmlns="http://www.w3.org/2000/svg">
    <path d="M15 7V13C15 13.5304 14.7893 14.0391 14.4142 14.4142C14.0391 14.7893 13.5304 15 13 15H7C6.46957 15 5.96086 14.7893 5.58579 14.4142C5.21071 14.0391 5 13.5304 5 13V7C5 6.46957 5.21071 5.96086 5.58579 5.58579C5.96086 5.21071 6.46957 5 7 5H13C13.5304 5 14.0391 5.21071 14.4142 5.58579C14.7893 5.96086 15 6.46957 15 7ZM25 5H19C18.4696 5 17.9609 5.21071 17.5858 5.58579C17.2107 5.96086 17 6.46957 17 7V13C17 13.5304 17.2107 14.0391 17.5858 14.4142C17.9609 14.7893 18.4696 15 19 15H25C25.5304 15 26.0391 14.7893 26.4142 14.4142C26.7893 14.0391 27 13.5304 27 13V7C27 6.46957 26.7893 5.96086 26.4142 5.58579C26.0391 5.21071 25.5304 5 25 5ZM13 17H7C6.46957 17 5.96086 17.2107 5.58579 17.5858C5.21071 17.9609 5 18.4696 5 19V25C5 25.5304 5.21071 26.0391 5.58579 26.4142C5.96086 26.7893 6.46957 27 7 27H13C13.5304 27 14.0391 26.7893 14.4142 26.4142C14.7893 26.0391 15 25.5304 15 25V19C15 18.4696 14.7893 17.9609 14.4142 17.5858C14.0391 17.2107 13.5304 17 13 17ZM25 17H19C18.4696 17 17.9609 17.2107 17.5858 17.5858C17.2107 17.9609 17 18.4696 17 19V25C17 25.5304 17.2107 26.0391 17.5858 26.4142C17.9609 26.7893 18.4696 27 19 27H25C25.5304 27 26.0391 26.7893 26.4142 26.4142C26.7893 26.0391 27 25.5304 27 25V19C27 18.4696 26.7893 17.9609 26.4142 17.5858C26.0391 17.2107 25.5304 17 25 17Z" />
</svg>
