<svg viewBox="0 0 32 32"
    xmlns="http://www.w3.org/2000/svg">
    <path d="M29 19C29 18.2515 28.7901 17.5179 28.3939 16.8828C27.9978 16.2477 27.4314 15.7365 26.7591 15.4073C26.0868 15.0782 25.3357 14.9442 24.5911 15.0207C23.8465 15.0972 23.1383 15.3812 22.547 15.8402C21.9558 16.2992 21.5052 16.9149 21.2465 17.6173C20.9878 18.3197 20.9314 19.0806 21.0836 19.8135C21.2359 20.5464 21.5908 21.2218 22.1079 21.763C22.625 22.3043 23.2836 22.6895 24.0088 22.875C24.0032 22.9164 24.0003 22.9582 24 23C24 24.0609 23.5786 25.0783 22.8284 25.8284C22.0783 26.5786 21.0609 27 20 27H17C15.9391 27 14.9217 26.5786 14.1716 25.8284C13.4214 25.0783 13 24.0609 13 23V17.935C16.9338 17.435 20 14.0012 20 9.89625V5C20 4.46957 19.7893 3.96086 19.4142 3.58579C19.0391 3.21071 18.5304 3 18 3H16C15.7348 3 15.4804 3.10536 15.2929 3.29289C15.1054 3.48043 15 3.73478 15 4C15 4.26522 15.1054 4.51957 15.2929 4.70711C15.4804 4.89464 15.7348 5 16 5H18V9.89625C18 13.2188 15.3438 15.9575 12.08 16C11.2854 16.0106 10.4965 15.8632 9.75932 15.5664C9.02211 15.2697 8.3512 14.8294 7.78555 14.2712C7.2199 13.713 6.77077 13.0479 6.46425 12.3147C6.15773 11.5815 5.99993 10.7947 6 10V5H8C8.26522 5 8.51957 4.89464 8.70711 4.70711C8.89464 4.51957 9 4.26522 9 4C9 3.73478 8.89464 3.48043 8.70711 3.29289C8.51957 3.10536 8.26522 3 8 3H6C5.46957 3 4.96086 3.21071 4.58579 3.58579C4.21071 3.96086 4 4.46957 4 5V10C4.00024 11.9484 4.71152 13.8297 6.00033 15.2909C7.28915 16.7521 9.06691 17.6927 11 17.9363V23C11.0017 24.5908 11.6343 26.116 12.7592 27.2408C13.884 28.3657 15.4092 28.9983 17 29H20C21.5908 28.9983 23.116 28.3657 24.2408 27.2408C25.3657 26.116 25.9983 24.5908 26 23C25.9997 22.9582 25.9968 22.9164 25.9912 22.875C26.8518 22.6549 27.6147 22.1545 28.1594 21.4529C28.7042 20.7513 28.9999 19.8883 29 19ZM25 20C24.8022 20 24.6089 19.9414 24.4444 19.8315C24.28 19.7216 24.1518 19.5654 24.0761 19.3827C24.0004 19.2 23.9806 18.9989 24.0192 18.8049C24.0578 18.6109 24.153 18.4327 24.2929 18.2929C24.4327 18.153 24.6109 18.0578 24.8049 18.0192C24.9989 17.9806 25.2 18.0004 25.3827 18.0761C25.5654 18.1518 25.7216 18.28 25.8315 18.4444C25.9414 18.6089 26 18.8022 26 19C26 19.2652 25.8946 19.5196 25.7071 19.7071C25.5196 19.8946 25.2652 20 25 20Z" />
</svg>
