<svg viewBox="0 0 32 32"
    xmlns="http://www.w3.org/2000/svg">
    <path d="M29 12C29.0005 11.907 28.9879 11.8144 28.9625 11.725L27.1688 5.45C27.0482 5.03364 26.7962 4.66745 26.4504 4.40612C26.1045 4.14478 25.6835 4.00232 25.25 4H6.75C6.31655 4.00232 5.89547 4.14478 5.54965 4.40612C5.20382 4.66745 4.95182 5.03364 4.83125 5.45L3.03875 11.725C3.01293 11.8144 2.99988 11.907 3 12V14C3 14.7762 3.18073 15.5418 3.52786 16.2361C3.875 16.9303 4.37902 17.5343 5 18V26C5 26.5304 5.21071 27.0391 5.58579 27.4142C5.96086 27.7893 6.46957 28 7 28H25C25.5304 28 26.0391 27.7893 26.4142 27.4142C26.7893 27.0391 27 26.5304 27 26V18C27.621 17.5343 28.125 16.9303 28.4721 16.2361C28.8193 15.5418 29 14.7762 29 14V12ZM11 14C10.9998 14.5159 10.8666 15.023 10.6132 15.4724C10.3599 15.9217 9.9949 16.2982 9.55358 16.5653C9.11226 16.8325 8.60951 16.9813 8.09388 16.9975C7.57825 17.0136 7.06717 16.8965 6.61 16.6575C6.54044 16.6034 6.46392 16.5588 6.3825 16.525C5.95884 16.2538 5.61019 15.8804 5.36861 15.4392C5.12702 14.9979 5.00027 14.503 5 14V13H11V14ZM19 14C19 14.7956 18.6839 15.5587 18.1213 16.1213C17.5587 16.6839 16.7957 17 16 17C15.2044 17 14.4413 16.6839 13.8787 16.1213C13.3161 15.5587 13 14.7956 13 14V13H19V14ZM27 14C26.9996 14.5032 26.8727 14.9981 26.6308 15.4394C26.389 15.8806 26.0401 16.2539 25.6162 16.525C25.5359 16.5589 25.4603 16.603 25.3913 16.6562C24.9341 16.8955 24.423 17.0129 23.9073 16.9969C23.3916 16.981 22.8887 16.8323 22.4473 16.5653C22.0058 16.2982 21.6407 15.9218 21.3872 15.4725C21.1336 15.0231 21.0003 14.516 21 14V13H27V14Z" />
</svg>
