<svg viewBox="0 0 32 32"
    xmlns="http://www.w3.org/2000/svg">
    <path d="M28.5 16C28.5 16.3978 28.342 16.7794 28.0607 17.0607C27.7794 17.342 27.3978 17.5 27 17.5H23.2325C24.0737 18.4696 24.5253 19.7167 24.5 21C24.5 22.8062 23.5238 24.54 21.8213 25.7563C20.25 26.8813 18.18 27.5 16 27.5C13.82 27.5 11.75 26.8813 10.1788 25.7563C8.47625 24.54 7.5 22.8062 7.5 21C7.5 20.6022 7.65804 20.2206 7.93934 19.9393C8.22064 19.658 8.60218 19.5 9 19.5C9.39782 19.5 9.77936 19.658 10.0607 19.9393C10.342 20.2206 10.5 20.6022 10.5 21C10.5 22.8975 13.0188 24.5 16 24.5C18.9812 24.5 21.5 22.8975 21.5 21C21.5 19.405 20.3375 18.4775 17.0812 17.5H5C4.60218 17.5 4.22064 17.342 3.93934 17.0607C3.65804 16.7794 3.5 16.3978 3.5 16C3.5 15.6022 3.65804 15.2206 3.93934 14.9393C4.22064 14.658 4.60218 14.5 5 14.5H27C27.3978 14.5 27.7794 14.658 28.0607 14.9393C28.342 15.2206 28.5 15.6022 28.5 16ZM9.38875 12.5C9.78657 12.5 10.1681 12.342 10.4494 12.0607C10.7307 11.7794 10.8888 11.3978 10.8888 11C10.8888 9 13.0863 7.5 16 7.5C18.17 7.5 19.9212 8.33125 20.685 9.7225C20.887 10.0505 21.2074 10.2882 21.5798 10.3864C21.9522 10.4846 22.3482 10.4358 22.6856 10.2501C23.0231 10.0643 23.2761 9.75588 23.3923 9.38866C23.5086 9.02144 23.4791 8.62358 23.31 8.2775C22.0162 5.9125 19.2812 4.5 16 4.5C11.375 4.5 7.88875 7.29375 7.88875 11C7.88875 11.3978 8.04679 11.7794 8.32809 12.0607C8.60939 12.342 8.99093 12.5 9.38875 12.5Z" />
</svg>
