<svg viewBox="0 0 32 32"
    xmlns="http://www.w3.org/2000/svg">
    <path d="M29.9775 19.625L28.4775 7.625C28.3861 6.89985 28.0332 6.233 27.485 5.74966C26.9367 5.26632 26.2309 4.99975 25.5 5H4C3.46957 5 2.96086 5.21071 2.58579 5.58579C2.21071 5.96086 2 6.46957 2 7V18C2 18.5304 2.21071 19.0391 2.58579 19.4142C2.96086 19.7893 3.46957 20 4 20H9.3825L14.105 29.4475C14.1881 29.6136 14.3159 29.7533 14.474 29.8509C14.6321 29.9485 14.8142 30.0001 15 30C16.3261 30 17.5979 29.4732 18.5355 28.5355C19.4732 27.5979 20 26.3261 20 25V23H27C27.4257 23.0001 27.8466 22.9097 28.2346 22.7346C28.6227 22.5596 28.9691 22.3039 29.2507 21.9847C29.5323 21.6655 29.7428 21.2899 29.8681 20.8831C29.9934 20.4762 30.0307 20.0474 29.9775 19.625ZM9 18H4V7H9V18Z" />
</svg>
