<svg xmlns="http://www.w3.org/2000/svg" viewBox="0 0 17 16">
    <path d="M15.583 3.5V7.5C15.583 7.69891 15.504 7.88968 15.3633 8.03033C15.2227 8.17098 15.0319 8.25 14.833 8.25C14.6341 8.25 14.4433 8.17098 14.3027 8.03033C14.162 7.88968 14.083 7.69891 14.083 7.5V5.3125L9.36361 10.0325C9.29393 10.1024 9.21113 10.1579 9.11997 10.1958C9.02881 10.2336 8.93107 10.2531 8.83236 10.2531C8.73365 10.2531 8.63591 10.2336 8.54474 10.1958C8.45358 10.1579 8.37078 10.1024 8.30111 10.0325L6.33298 8.0625L2.36361 12.0306C2.22271 12.1715 2.03161 12.2507 1.83236 12.2507C1.6331 12.2507 1.442 12.1715 1.30111 12.0306C1.16021 11.8897 1.08105 11.6986 1.08105 11.4994C1.08105 11.3001 1.16021 11.109 1.30111 10.9681L5.80111 6.46812C5.87078 6.3982 5.95358 6.34273 6.04474 6.30487C6.13591 6.26702 6.23364 6.24753 6.33236 6.24753C6.43107 6.24753 6.52881 6.26702 6.61997 6.30487C6.71113 6.34273 6.79393 6.3982 6.86361 6.46812L8.83298 8.4375L13.0205 4.25H10.833C10.6341 4.25 10.4433 4.17098 10.3027 4.03033C10.162 3.88968 10.083 3.69891 10.083 3.5C10.083 3.30109 10.162 3.11032 10.3027 2.96967C10.4433 2.82902 10.6341 2.75 10.833 2.75H14.833C15.0319 2.75 15.2227 2.82902 15.3633 2.96967C15.504 3.11032 15.583 3.30109 15.583 3.5Z" />
</svg>