<svg viewBox="0 0 32 32"
    xmlns="http://www.w3.org/2000/svg">
    <path d="M23.5392 2.26672L19.8288 5.64424C21.5293 6.16446 23.1271 7.0414 24.4816 8.27506C29.1659 12.5415 29.1659 19.4587 24.4816 23.7251C21.0261 26.8723 15.6859 28.8751 8.46079 29.7334L12.1712 26.3559C10.4707 25.8356 8.87287 24.9587 7.51839 23.7251C2.83412 19.4587 2.80639 12.5667 7.51839 8.27506C10.9739 5.12784 16.3141 3.12506 23.5392 2.26672ZM16 10.6667C12.6863 10.6667 9.99999 13.0545 9.99999 16C9.99999 18.9456 12.6863 21.3334 16 21.3334C19.3137 21.3334 22 18.9456 22 16C22 13.0545 19.3137 10.6667 16 10.6667Z" />
</svg>
