<svg viewBox="0 0 32 32"
    xmlns="http://www.w3.org/2000/svg">
    <path d="M25.5 28C25.5 28.3978 25.342 28.7794 25.0607 29.0607C24.7794 29.342 24.3978 29.5 24 29.5H8C7.60218 29.5 7.22064 29.342 6.93934 29.0607C6.65804 28.7794 6.5 28.3978 6.5 28C6.5 27.6022 6.65804 27.2206 6.93934 26.9393C7.22064 26.658 7.60218 26.5 8 26.5H24C24.3978 26.5 24.7794 26.658 25.0607 26.9393C25.342 27.2206 25.5 27.6022 25.5 28ZM16 24.5C18.2536 24.4977 20.4143 23.6014 22.0078 22.0078C23.6014 20.4143 24.4977 18.2536 24.5 16V7C24.5 6.60218 24.342 6.22064 24.0607 5.93934C23.7794 5.65804 23.3978 5.5 23 5.5C22.6022 5.5 22.2206 5.65804 21.9393 5.93934C21.658 6.22064 21.5 6.60218 21.5 7V16C21.5 17.4587 20.9205 18.8576 19.8891 19.8891C18.8576 20.9205 17.4587 21.5 16 21.5C14.5413 21.5 13.1424 20.9205 12.1109 19.8891C11.0795 18.8576 10.5 17.4587 10.5 16V7C10.5 6.60218 10.342 6.22064 10.0607 5.93934C9.77936 5.65804 9.39782 5.5 9 5.5C8.60218 5.5 8.22064 5.65804 7.93934 5.93934C7.65804 6.22064 7.5 6.60218 7.5 7V16C7.50232 18.2536 8.39859 20.4143 9.99215 22.0078C11.5857 23.6014 13.7464 24.4977 16 24.5Z" />
</svg>
