<svg viewBox="0 0 32 32"
    xmlns="http://www.w3.org/2000/svg">
    <path d="M19.4387 3.10129C19.2706 3.01935 19.0828 2.98622 18.8968 3.00566C18.7107 3.02511 18.5338 3.09635 18.3862 3.21129L9.65625 10H4C3.46957 10 2.96086 10.2108 2.58579 10.5858C2.21071 10.9609 2 11.4696 2 12V20C2 20.5305 2.21071 21.0392 2.58579 21.4143C2.96086 21.7893 3.46957 22 4 22H9.65625L18.3862 28.7888C18.534 28.9036 18.711 28.9747 18.8971 28.994C19.0832 29.0132 19.271 28.9799 19.4391 28.8977C19.6072 28.8155 19.7489 28.6879 19.8481 28.5292C19.9472 28.3705 19.9999 28.1872 20 28V4.00004C20 3.8127 19.9474 3.62912 19.8482 3.47022C19.749 3.31132 19.6071 3.18349 19.4387 3.10129ZM9 20H4V12H9V20ZM24.75 12.695C25.5543 13.6081 25.9981 14.7832 25.9981 16C25.9981 17.2169 25.5543 18.3919 24.75 19.305C24.5733 19.4992 24.3274 19.6161 24.0653 19.6305C23.8032 19.6449 23.546 19.5557 23.3491 19.3821C23.1522 19.2085 23.0315 18.9644 23.0129 18.7026C22.9944 18.4408 23.0795 18.1821 23.25 17.9825C23.7323 17.4348 23.9984 16.7299 23.9984 16C23.9984 15.2702 23.7323 14.5653 23.25 14.0175C23.0795 13.8179 22.9944 13.5593 23.0129 13.2975C23.0315 13.0357 23.1522 12.7916 23.3491 12.618C23.546 12.4444 23.8032 12.3552 24.0653 12.3696C24.3274 12.384 24.5733 12.5009 24.75 12.695ZM31 16C31.0014 18.4603 30.0947 20.8345 28.4538 22.6675C28.2756 22.8603 28.0288 22.9753 27.7667 22.9877C27.5045 23.0001 27.248 22.909 27.0524 22.7339C26.8568 22.5589 26.7379 22.3139 26.7214 22.052C26.7048 21.7901 26.7918 21.5321 26.9638 21.3338C28.2755 19.8671 29.0007 17.9684 29.0007 16.0007C29.0007 14.0329 28.2755 12.1342 26.9638 10.6675C26.8737 10.5701 26.804 10.4558 26.7586 10.3311C26.7131 10.2065 26.693 10.074 26.6993 9.94151C26.7055 9.809 26.7381 9.67906 26.7951 9.55926C26.8521 9.43947 26.9323 9.33221 27.0312 9.24373C27.13 9.15525 27.2455 9.08732 27.3708 9.0439C27.4962 9.00048 27.6289 8.98244 27.7613 8.99082C27.8937 8.9992 28.0231 9.03384 28.142 9.09272C28.2609 9.15161 28.3669 9.23355 28.4538 9.33379C30.0952 11.1661 31.002 13.5401 31 16Z" />
</svg>
