<svg viewBox="0 0 32 32"
    xmlns="http://www.w3.org/2000/svg">
    <g>
        <path d="M19.44 3.10118C19.2717 3.01898 19.0837 2.98571 18.8974 3.00516C18.7111 3.02461 18.534 3.09599 18.3862 3.21118L9.65625 9.99993H4C3.46957 9.99993 2.96086 10.2106 2.58579 10.5857C2.21071 10.9608 2 11.4695 2 11.9999V19.9999C2 20.5304 2.21071 21.0391 2.58579 21.4141C2.96086 21.7892 3.46957 21.9999 4 21.9999H9.65625L18.3862 28.7887C18.5614 28.9259 18.7775 29.0003 19 28.9999C19.2652 28.9999 19.5196 28.8946 19.7071 28.707C19.8946 28.5195 20 28.2651 20 27.9999V3.99993C20.0001 3.81272 19.9477 3.62923 19.8487 3.47035C19.7497 3.31146 19.6081 3.18355 19.44 3.10118Z" />
        <path d="M28.4138 16.0001L30.7075 13.7076C30.8951 13.5199 31.0006 13.2654 31.0006 13.0001C31.0006 12.7347 30.8951 12.4802 30.7075 12.2926C30.5199 12.1049 30.2654 11.9995 30 11.9995C29.7346 11.9995 29.4801 12.1049 29.2925 12.2926L27 14.5863L24.7075 12.2926C24.5199 12.1049 24.2654 11.9995 24 11.9995C23.7346 11.9995 23.4801 12.1049 23.2925 12.2926C23.1049 12.4802 22.9995 12.7347 22.9995 13.0001C22.9995 13.2654 23.1049 13.5199 23.2925 13.7076L25.5863 16.0001L23.2925 18.2926C23.1049 18.4802 22.9995 18.7347 22.9995 19.0001C22.9995 19.2654 23.1049 19.5199 23.2925 19.7076C23.4801 19.8952 23.7346 20.0006 24 20.0006C24.2654 20.0006 24.5199 19.8952 24.7075 19.7076L27 17.4138L29.2925 19.7076C29.4801 19.8952 29.7346 20.0006 30 20.0006C30.2654 20.0006 30.5199 19.8952 30.7075 19.7076C30.8951 19.5199 31.0006 19.2654 31.0006 19.0001C31.0006 18.7347 30.8951 18.4802 30.7075 18.2926L28.4138 16.0001Z" />
    </g>
</svg>
