<svg viewBox="0 0 32 32"
    xmlns="http://www.w3.org/2000/svg">
    <path d="M15 6C15 5.20888 15.2346 4.43552 15.6741 3.77772C16.1136 3.11992 16.7383 2.60723 17.4692 2.30448C18.2001 2.00173 19.0044 1.92252 19.7803 2.07686C20.5563 2.2312 21.269 2.61216 21.8284 3.17157C22.3878 3.73098 22.7688 4.44372 22.9231 5.21964C23.0775 5.99556 22.9982 6.79983 22.6955 7.53074C22.3927 8.26164 21.8801 8.88635 21.2223 9.32588C20.5645 9.76541 19.7911 10 19 10C17.9391 10 16.9217 9.57857 16.1715 8.82843C15.4214 8.07828 15 7.06087 15 6ZM26 17C22.42 17 20.7737 15.3375 19.0312 13.5788C18.59 13.1325 18.1337 12.6713 17.6562 12.2563C13.0312 8.23875 5.62872 15.0975 5.31622 15.3913C5.13013 15.5745 5.02308 15.8232 5.01795 16.0843C5.01283 16.3454 5.11004 16.5981 5.28881 16.7885C5.46758 16.9788 5.71371 17.0917 5.97461 17.103C6.23551 17.1142 6.49046 17.023 6.68497 16.8488C7.84823 15.7978 9.12828 14.884 10.5 14.125C12.2225 13.2025 13.6737 12.8463 14.8375 13.0525L8.08247 28.6013C7.977 28.8444 7.97239 29.1195 8.06966 29.3661C8.16694 29.6127 8.35813 29.8106 8.60122 29.9163C8.72681 29.9718 8.86266 30.0003 8.99997 30C9.19486 30.0001 9.38552 29.9432 9.54852 29.8364C9.71153 29.7296 9.83976 29.5775 9.91747 29.3988L14.1162 19.74L18 22.515V29C18 29.2652 18.1053 29.5196 18.2929 29.7071C18.4804 29.8946 18.7348 30 19 30C19.2652 30 19.5195 29.8946 19.7071 29.7071C19.8946 29.5196 20 29.2652 20 29V22C20 21.8408 19.962 21.6839 19.8892 21.5424C19.8163 21.4009 19.7107 21.2788 19.5812 21.1863L14.9312 17.865L16.61 14C16.94 14.305 17.2675 14.6338 17.61 14.98C19.3812 16.7738 21.5862 19 26 19C26.2652 19 26.5195 18.8946 26.7071 18.7071C26.8946 18.5196 27 18.2652 27 18C27 17.7348 26.8946 17.4804 26.7071 17.2929C26.5195 17.1054 26.2652 17 26 17Z" />
</svg>
