<svg xmlns="http://www.w3.org/2000/svg" viewBox="0 0 17 16">
    <path d="M3.4675 10L5.9 5.78563L5.76 5.54313C5.55073 5.19202 5.41541 4.80186 5.36235 4.39658C5.30929 3.9913 5.33961 3.57945 5.45145 3.18631C5.56328 2.79317 5.75428 2.42703 6.01271 2.11035C6.27114 1.79368 6.59155 1.53316 6.95429 1.34477C7.31703 1.15639 7.71444 1.04412 8.12213 1.01484C8.52982 0.985573 8.93919 1.03992 9.32512 1.17455C9.71105 1.30918 10.0654 1.52126 10.3664 1.79776C10.6674 2.07427 10.9088 2.40937 11.0756 2.7825C11.128 2.89643 11.1366 3.02564 11.0998 3.14551C11.0631 3.26538 10.9835 3.36753 10.8763 3.4325C10.8153 3.4679 10.7475 3.49001 10.6774 3.49737C10.6073 3.50474 10.5364 3.4972 10.4695 3.47524C10.4025 3.45328 10.3409 3.41741 10.2887 3.36998C10.2366 3.32254 10.1951 3.26462 10.1669 3.2C10.0565 2.9506 9.89633 2.7264 9.69614 2.54118C9.49595 2.35597 9.26 2.21365 9.00278 2.12299C8.74557 2.03232 8.47253 1.99522 8.20045 2.01397C7.92836 2.03271 7.66299 2.10691 7.42064 2.23199C7.17829 2.35707 6.96408 2.5304 6.79118 2.74132C6.61828 2.95223 6.49035 3.19628 6.41524 3.45847C6.34014 3.72065 6.31945 3.99542 6.35444 4.26589C6.38944 4.53636 6.47939 4.79682 6.61875 5.03125C6.62078 5.03372 6.62246 5.03646 6.62375 5.03938L7.48813 6.53563C7.53201 6.61164 7.55512 6.69786 7.55512 6.78563C7.55512 6.87339 7.53201 6.95962 7.48813 7.03563L5.19938 11C5.06503 11.2262 4.84696 11.3903 4.59242 11.4568C4.33789 11.5233 4.0674 11.4869 3.83957 11.3553C3.61174 11.2238 3.44493 11.0077 3.37529 10.754C3.30564 10.5004 3.33877 10.2294 3.4675 10ZM12.28 7.5H11.5088L9.19938 3.5C9.06503 3.27381 8.84696 3.10968 8.59242 3.04317C8.33789 2.97666 8.0674 3.01313 7.83957 3.14468C7.61175 3.27623 7.44493 3.49226 7.37529 3.74596C7.30564 3.99965 7.33878 4.27057 7.4675 4.5L9.6325 8.25C9.67634 8.32594 9.73938 8.38901 9.81529 8.43289C9.8912 8.47676 9.97732 8.49991 10.065 8.5H12.2919C13.41 8.5 14.3513 9.415 14.3331 10.5331C14.3245 11.0545 14.1127 11.5518 13.7427 11.9192C13.3727 12.2866 12.8739 12.495 12.3525 12.5C12.2248 12.4985 12.101 12.5445 12.0053 12.6292C11.9097 12.7139 11.849 12.8311 11.835 12.9581C11.8292 13.0272 11.8378 13.0968 11.8603 13.1624C11.8828 13.2279 11.9188 13.2881 11.9658 13.3391C12.0128 13.39 12.0699 13.4307 12.1335 13.4584C12.197 13.4861 12.2657 13.5002 12.335 13.5C12.7338 13.4997 13.1285 13.4199 13.4961 13.2654C13.8638 13.1108 14.1969 12.8846 14.4762 12.5999C14.7555 12.3153 14.9752 11.9778 15.1227 11.6073C15.2701 11.2368 15.3423 10.8406 15.335 10.4419C15.3013 8.79938 13.9256 7.5 12.2825 7.5H12.28ZM13.3331 10.4519C13.3081 9.91375 12.8444 9.5 12.3063 9.5H7.50875C7.42097 9.49998 7.33472 9.52308 7.25869 9.56696C7.18266 9.61085 7.11952 9.67397 7.07563 9.75L6.06563 11.5C5.9293 11.7351 5.7465 11.9399 5.52839 12.102C5.31027 12.2641 5.06141 12.38 4.797 12.4427C4.53259 12.5054 4.25817 12.5136 3.9905 12.4667C3.72283 12.4198 3.46752 12.3189 3.24015 12.1701C3.01279 12.0212 2.81814 11.8276 2.66808 11.6011C2.51802 11.3745 2.41571 11.1198 2.36738 10.8523C2.31906 10.5849 2.32573 10.3105 2.38701 10.0457C2.44828 9.78098 2.56286 9.53149 2.72375 9.3125C2.80147 9.21131 2.83864 9.08477 2.82801 8.95763C2.81737 8.83048 2.7597 8.71188 2.66625 8.625C2.61459 8.57897 2.55394 8.54416 2.48814 8.52278C2.42233 8.5014 2.3528 8.4939 2.28395 8.50078C2.2151 8.50765 2.14843 8.52874 2.08815 8.56271C2.02787 8.59668 1.97529 8.64279 1.93375 8.69813C1.54807 9.2092 1.33744 9.831 1.33313 10.4713C1.32719 11.1337 1.54072 11.7796 1.9404 12.3079C2.34008 12.8363 2.90343 13.2175 3.54253 13.3921C4.18164 13.5667 4.86056 13.5248 5.47335 13.273C6.08614 13.0211 6.59833 12.5735 6.93 12L7.21875 11.5H12.3331C12.4686 11.5002 12.6027 11.4728 12.7273 11.4195C12.8518 11.3663 12.9643 11.2883 13.0578 11.1903C13.1513 11.0923 13.224 10.9763 13.2713 10.8494C13.3186 10.7224 13.3396 10.5872 13.3331 10.4519Z" />
</svg>