<svg viewBox="0 0 32 32"
    xmlns="http://www.w3.org/2000/svg">
    <path d="M31.3163 24.9487L28.3163 25.9487C28.088 26.0251 27.8398 26.0166 27.6173 25.9247C27.3948 25.8329 27.2129 25.6638 27.105 25.4487L23.3813 17.9999H13C12.7348 17.9999 12.4804 17.8946 12.2929 17.707C12.1054 17.5195 12 17.2651 12 16.9999V13.2924C10.3893 13.7733 9.00532 14.8177 8.10117 16.2349C7.19701 17.652 6.83302 19.3472 7.07572 21.0106C7.31841 22.674 8.15159 24.1945 9.42297 25.2942C10.6944 26.3939 12.319 26.9994 14 26.9999C17.2388 26.9999 20.2613 24.7437 21.0313 21.7499C21.0641 21.6227 21.1217 21.5032 21.2007 21.3982C21.2797 21.2933 21.3786 21.2049 21.4918 21.1381C21.605 21.0714 21.7302 21.0276 21.8603 21.0092C21.9904 20.9909 22.1228 20.9983 22.25 21.0312C22.3772 21.064 22.4967 21.1216 22.6017 21.2006C22.7067 21.2796 22.7951 21.3785 22.8618 21.4917C22.9285 21.6049 22.9723 21.7301 22.9907 21.8602C23.009 21.9903 23.0016 22.1227 22.9688 22.2499C21.9613 26.1624 18.19 28.9999 14 28.9999C11.7882 28.9986 9.65439 28.1829 8.00574 26.7085C6.35709 25.2341 5.3091 23.2042 5.06177 21.0063C4.81445 18.8084 5.38513 16.5964 6.66488 14.7924C7.94464 12.9885 9.84384 11.719 12 11.2262V8.85117C11.1944 8.61097 10.5021 8.0888 10.0498 7.38013C9.59743 6.67147 9.41531 5.82368 9.53668 4.99178C9.65806 4.15988 10.0748 3.39946 10.7108 2.84957C11.3467 2.29968 12.1593 1.99707 13 1.99707C13.8407 1.99707 14.6533 2.29968 15.2893 2.84957C15.9252 3.39946 16.342 4.15988 16.4634 4.99178C16.5847 5.82368 16.4026 6.67147 15.9503 7.38013C15.498 8.0888 14.8057 8.61097 14 8.85117V10.9999H21C21.2652 10.9999 21.5196 11.1053 21.7071 11.2928C21.8947 11.4804 22 11.7347 22 11.9999C22 12.2651 21.8947 12.5195 21.7071 12.707C21.5196 12.8946 21.2652 12.9999 21 12.9999H14V15.9999H24C24.1856 16 24.3675 16.0518 24.5253 16.1493C24.6831 16.2469 24.8107 16.3865 24.8938 16.5524L28.5063 23.7774L30.6838 23.0512C30.9354 22.9673 31.21 22.9868 31.4473 23.1054C31.6845 23.224 31.8649 23.432 31.9488 23.6837C32.0326 23.9353 32.0131 24.2099 31.8945 24.4472C31.7759 24.6844 31.5679 24.8648 31.3163 24.9487Z" />
</svg>
